<svg xmlns="http://www.w3.org/2000/svg" xmlns:xlink="http://www.w3.org/1999/xlink" width="103" height="103" viewBox="0 0 103 103">
  <defs>
    <filter id="Trazado_904820" x="0" y="0" width="103" height="103" filterUnits="userSpaceOnUse">
      <feOffset dy="3" input="SourceAlpha"/>
      <feGaussianBlur stdDeviation="3" result="blur"/>
      <feFlood flood-opacity="0.161"/>
      <feComposite operator="in" in2="blur"/>
      <feComposite in="SourceGraphic"/>
    </filter>
  </defs>
  <g id="Grupo_1242395" data-name="Grupo 1242395" transform="translate(-171 -779)">
    <g id="Grupo_1240447" data-name="Grupo 1240447" transform="translate(180 785)">
      <g id="Grupo_1225967" data-name="Grupo 1225967" transform="translate(0 0)">
        <g id="Grupo_1224992" data-name="Grupo 1224992" transform="translate(0)">
          <g id="Grupo_1223798" data-name="Grupo 1223798">
            <g id="Grupo_1223164" data-name="Grupo 1223164">
              <g id="Grupo_1203639" data-name="Grupo 1203639">
                <g id="Grupo_1202437" data-name="Grupo 1202437">
                  <g id="Grupo_1177315" data-name="Grupo 1177315">
                    <g id="Grupo_1173585" data-name="Grupo 1173585">
                      <g id="Grupo_1173428" data-name="Grupo 1173428">
                        <g id="Grupo_1171958" data-name="Grupo 1171958">
                          <g id="Grupo_1167341" data-name="Grupo 1167341">
                            <g id="Grupo_1166792" data-name="Grupo 1166792">
                              <g transform="matrix(1, 0, 0, 1, -9, -6)" filter="url(#Trazado_904820)">
                                <g id="Trazado_904820-2" data-name="Trazado 904820" transform="translate(9 6)" fill="#ebe9f0">
                                  <path d="M 42.49993515014648 83.49986267089844 C 36.96432495117188 83.49986267089844 31.59508895874023 82.41603851318359 26.5413703918457 80.27849578857422 C 21.65931129455566 78.21355438232422 17.27445220947266 75.25711059570312 13.50860595703125 71.49126434326172 C 9.742758750915527 67.72541046142578 6.786311626434326 63.34055328369141 4.721370220184326 58.45849609375 C 2.583829164505005 53.40477752685547 1.500005722045898 48.03554153442383 1.500005722045898 42.49993133544922 C 1.500005722045898 36.96430969238281 2.583829164505005 31.59507179260254 4.721370220184326 26.54136657714844 C 6.786311626434326 21.6593074798584 9.742758750915527 17.27444839477539 13.50860595703125 13.50860214233398 C 17.27445220947266 9.742754936218262 21.65931129455566 6.786295890808105 26.5413703918457 4.721366405487061 C 31.59508895874023 2.583825349807739 36.96432495117188 1.500001907348633 42.49993515014648 1.500001907348633 C 48.03555679321289 1.500001907348633 53.40479278564453 2.583825349807739 58.45849990844727 4.721366405487061 C 63.34056854248047 6.786295890808105 67.72542572021484 9.742754936218262 71.49127960205078 13.50860214233398 C 75.25712585449219 17.27444839477539 78.21356964111328 21.6593074798584 80.27851104736328 26.54136657714844 C 82.41605377197266 31.59507179260254 83.4998779296875 36.96430969238281 83.4998779296875 42.49993133544922 C 83.4998779296875 48.03554153442383 82.41605377197266 53.40477752685547 80.27851104736328 58.45849609375 C 78.21356964111328 63.34055328369141 75.25712585449219 67.72541046142578 71.49127960205078 71.49126434326172 C 67.72542572021484 75.25711059570312 63.34056854248047 78.21355438232422 58.45849990844727 80.27849578857422 C 53.40479278564453 82.41603851318359 48.03555679321289 83.49986267089844 42.49993515014648 83.49986267089844 Z" stroke="none"/>
                                  <path d="M 42.49993515014648 3 C 37.16616058349609 3 31.99352264404297 4.043960571289062 27.12569427490234 6.102867126464844 C 22.42242813110352 8.092185974121094 18.19784545898438 10.94068908691406 14.56926727294922 14.56926727294922 C 10.94069671630859 18.19783782958984 8.092185974121094 22.42242431640625 6.102867126464844 27.12569046020508 C 4.043960571289062 31.9935188293457 3 37.16615676879883 3 42.49993133544922 C 3 47.83370590209961 4.043960571289062 53.00634384155273 6.102867126464844 57.87417221069336 C 8.092185974121094 62.57743835449219 10.94069671630859 66.80202484130859 14.56926727294922 70.43059539794922 C 18.19784545898438 74.05917358398438 22.42242813110352 76.90767669677734 27.12569427490234 78.89699554443359 C 31.99352264404297 80.95590209960938 37.16616058349609 81.99986267089844 42.49993515014648 81.99986267089844 C 47.83370971679688 81.99986267089844 53.00634765625 80.95590209960938 57.87417602539062 78.89699554443359 C 62.57744216918945 76.90767669677734 66.80203247070312 74.05917358398438 70.43060302734375 70.43059539794922 C 74.05917358398438 66.80202484130859 76.90768432617188 62.57743835449219 78.89700317382812 57.87417221069336 C 80.95590972900391 53.00634384155273 81.99987030029297 47.83370590209961 81.99987030029297 42.49993133544922 C 81.99987030029297 37.16615676879883 80.95590972900391 31.9935188293457 78.89700317382812 27.12569046020508 C 76.90768432617188 22.42242431640625 74.05917358398438 18.19783782958984 70.43060302734375 14.56926727294922 C 66.80203247070312 10.94068908691406 62.57744216918945 8.092185974121094 57.87417602539062 6.102867126464844 C 53.00634765625 4.043960571289062 47.83370971679688 3 42.49993515014648 3 M 42.49993515014648 0 C 65.97200012207031 0 84.99987030029297 19.02786254882812 84.99987030029297 42.49993133544922 C 84.99987030029297 65.97200012207031 65.97200012207031 84.99986267089844 42.49993515014648 84.99986267089844 C 19.02787017822266 84.99986267089844 0 65.97200012207031 0 42.49993133544922 C 0 19.02786254882812 19.02787017822266 0 42.49993515014648 0 Z" stroke="none" fill="#c6c0d6"/>
                                </g>
                              </g>
                            </g>
                          </g>
                        </g>
                      </g>
                    </g>
                  </g>
                </g>
              </g>
            </g>
          </g>
        </g>
      </g>
    </g>
    <g id="cerebro_5_" data-name="cerebro (5)" transform="translate(175.455 798.408)">
      <g id="Grupo_1242393" data-name="Grupo 1242393" transform="translate(21.391 1.136)">
        <g id="Grupo_1242392" data-name="Grupo 1242392" transform="translate(0)">
          <path id="Trazado_1219758" data-name="Trazado 1219758" d="M62.028,65.911a23.614,23.614,0,0,1-.39-4.078v-.007h6.374a6.1,6.1,0,0,0,6.1-6.106V51.276A1.585,1.585,0,0,1,75.69,49.69l3.59-.008a2.288,2.288,0,0,0,1.932-3.5L76,37.877a4.834,4.834,0,0,1-.718-3.021,18.191,18.191,0,0,0-.338-5.575l-.3-1.389A22.428,22.428,0,1,0,33.052,43.287L34.9,46.5a25.316,25.316,0,0,1,3.433,12.729v6.684Z" transform="translate(-30.255 -10)" fill="#fde0be"/>
          <path id="Trazado_1219759" data-name="Trazado 1219759" d="M177.913,119.583a4.438,4.438,0,1,1,4.438,4.438A4.438,4.438,0,0,1,177.913,119.583Zm-5.8,0a10.244,10.244,0,0,0,7.232,9.791v2.97h6.016v-2.97a10.227,10.227,0,0,0,3.963-2.292l2.576,1.487,3.008-5.21-2.575-1.487a10.2,10.2,0,0,0,0-4.578l2.575-1.487L191.9,110.6l-2.576,1.487a10.225,10.225,0,0,0-3.963-2.292v-2.97h-6.016v2.97A10.244,10.244,0,0,0,172.111,119.583Z" transform="translate(-155.991 -95.819)" fill="#bc9af4"/>
          <g id="Grupo_1242391" data-name="Grupo 1242391" transform="translate(6.245 6.655)">
            <g id="Grupo_1242390" data-name="Grupo 1242390">
              <g id="Grupo_1242389" data-name="Grupo 1242389">
                <path id="Trazado_1219760" data-name="Trazado 1219760" d="M103.171,74.717a6.151,6.151,0,1,0-11.378,3.24,8.143,8.143,0,0,0-.274,15.926,6.15,6.15,0,1,0,11.652,2.749Z" transform="translate(-85.209 -68.566)" fill="#fdbeb9"/>
              </g>
            </g>
          </g>
          <path id="Trazado_1219761" data-name="Trazado 1219761" d="M95.054,78.754A31.561,31.561,0,0,1,96.6,68.979a6.144,6.144,0,0,0-4.747,9.363,8.136,8.136,0,0,0-.274,15.914A6.146,6.146,0,1,0,102.734,99.4,31.469,31.469,0,0,1,95.054,78.754Z" transform="translate(-79.02 -62.277)" fill="#fd7da0"/>
        </g>
      </g>
      <g id="Grupo_1242394" data-name="Grupo 1242394" transform="translate(20.255 0)">
        <path id="Trazado_1219762" data-name="Trazado 1219762" d="M110.114,73.33a1.136,1.136,0,0,0-.114-.862l-3.008-5.21a1.136,1.136,0,0,0-1.552-.416l-1.878,1.084a11.471,11.471,0,0,0-2.957-1.711V64.051a1.136,1.136,0,0,0-1.136-1.136H94.824a7.287,7.287,0,0,0-13.508,5.451,9.279,9.279,0,0,0-.161,17.38,7.287,7.287,0,0,0,13.668,4.963h4.646a1.136,1.136,0,0,0,1.136-1.136V87.408a11.47,11.47,0,0,0,2.957-1.711l1.878,1.084a1.136,1.136,0,0,0,1.552-.416L110,81.155a1.136,1.136,0,0,0-.416-1.552l-1.877-1.083a11.283,11.283,0,0,0,0-3.416l1.877-1.083A1.138,1.138,0,0,0,110.114,73.33Zm-14.67.34a3.3,3.3,0,1,1,0,6.282ZM88.157,92.783a5.02,5.02,0,0,1-5.014-5.014,4.957,4.957,0,0,1,.495-2.168,4.633,4.633,0,0,1,2.05-1.594,4.764,4.764,0,0,0,2.2.541,4.691,4.691,0,0,0,1.776-.347,1.136,1.136,0,1,0-.86-2.1,2.444,2.444,0,0,1-3.267-2.962,1.136,1.136,0,1,0-2.178-.65,4.743,4.743,0,0,0,.538,3.873,6.862,6.862,0,0,0-1.664,1.365,7.006,7.006,0,0,1,.257-13.35,6.96,6.96,0,0,0,3.338,2.089,1.136,1.136,0,0,0,.608-2.19,4.679,4.679,0,0,1-2.557-1.8,5.014,5.014,0,1,1,9.288-2.619V87.769A5.02,5.02,0,0,1,88.157,92.783Zm17.177-18.007a9.067,9.067,0,0,1,0,4.071,1.136,1.136,0,0,0,.54,1.237l1.591.918-1.872,3.242L104,83.325a1.136,1.136,0,0,0-1.342.152,9.142,9.142,0,0,1-3.523,2.038,1.136,1.136,0,0,0-.8,1.086v1.834H95.444V82.292a5.574,5.574,0,1,0,0-10.961V65.187h2.889v1.834a1.136,1.136,0,0,0,.8,1.086,9.144,9.144,0,0,1,3.523,2.038A1.136,1.136,0,0,0,104,70.3l1.592-.919,1.872,3.242-1.591.918a1.136,1.136,0,0,0-.54,1.237Z" transform="translate(-68.964 -51.911)" fill="#052a75"/>
        <path id="Trazado_1219763" data-name="Trazado 1219763" d="M73.311,36.711,68.1,28.41a3.718,3.718,0,0,1-.549-2.311,19.307,19.307,0,0,0-.359-5.923l-.3-1.382A23.57,23.57,0,0,0,43.82,0h0A23.574,23.574,0,0,0,23.195,34.974l.009.016,1.851,3.216a24.206,24.206,0,0,1,3.279,12.158v6.684a1.136,1.136,0,0,0,1.136,1.136H53.165a1.136,1.136,0,0,0,1.118-1.342,22.562,22.562,0,0,1-.333-2.743h5.2a7.246,7.246,0,0,0,7.233-7.242V42.412a.45.45,0,0,1,.448-.449l3.59-.008a3.424,3.424,0,0,0,2.892-5.244Zm-2.9,2.971-3.59.008a2.726,2.726,0,0,0-2.715,2.722v4.444a4.971,4.971,0,0,1-4.961,4.969H52.774a1.143,1.143,0,0,0-1.136,1.154,24.815,24.815,0,0,0,.2,2.932H30.606V50.363a26.477,26.477,0,0,0-3.584-13.3l-1.843-3.2A21.3,21.3,0,0,1,43.816,2.273h0a21.3,21.3,0,0,1,20.85,16.984l0,.013.3,1.389a17.041,17.041,0,0,1,.316,5.226,6,6,0,0,0,.887,3.731l5.208,8.3a1.151,1.151,0,0,1-.972,1.764Z" transform="translate(-20.255 0)" fill="#052a75"/>
      </g>
    </g>
  </g>
</svg>
