<svg xmlns="http://www.w3.org/2000/svg" xmlns:xlink="http://www.w3.org/1999/xlink" width="108" height="108" viewBox="0 0 108 108">
  <defs>
    <filter id="Trazado_904820" x="0" y="0" width="108" height="108" filterUnits="userSpaceOnUse">
      <feOffset dy="3" input="SourceAlpha"/>
      <feGaussianBlur stdDeviation="3" result="blur"/>
      <feFlood flood-opacity="0.161"/>
      <feComposite operator="in" in2="blur"/>
      <feComposite in="SourceGraphic"/>
    </filter>
  </defs>
  <g id="Grupo_1242440" data-name="Grupo 1242440" transform="translate(-620.058 -3663)">
    <g id="Grupo_1241042" data-name="Grupo 1241042" transform="translate(0 1993.12)">
      <g id="Grupo_1225970" data-name="Grupo 1225970" transform="translate(629.058 1675.88)">
        <g id="Grupo_1223550" data-name="Grupo 1223550" transform="translate(0 0)">
          <g id="Grupo_1223164" data-name="Grupo 1223164">
            <g id="Grupo_1203639" data-name="Grupo 1203639">
              <g id="Grupo_1202437" data-name="Grupo 1202437">
                <g id="Grupo_1177315" data-name="Grupo 1177315">
                  <g id="Grupo_1173585" data-name="Grupo 1173585">
                    <g id="Grupo_1173428" data-name="Grupo 1173428">
                      <g id="Grupo_1171958" data-name="Grupo 1171958">
                        <g id="Grupo_1167341" data-name="Grupo 1167341">
                          <g id="Grupo_1166792" data-name="Grupo 1166792">
                            <g transform="matrix(1, 0, 0, 1, -9, -6)" filter="url(#Trazado_904820)">
                              <g id="Trazado_904820-2" data-name="Trazado 904820" transform="translate(9 6)" fill="#ebe9f0">
                                <path d="M 44.99999618530273 88.49995422363281 C 39.12687301635742 88.49995422363281 33.43022155761719 87.35002899169922 28.06829643249512 85.08213043212891 C 22.88852119445801 82.89126586914062 18.23629570007324 79.75455474853516 14.24084663391113 75.75910186767578 C 10.24540901184082 71.76364898681641 7.108683586120605 67.11144256591797 4.917821407318115 61.93166351318359 C 2.649921178817749 56.56974029541016 1.499996185302734 50.87310028076172 1.499996185302734 44.99997711181641 C 1.499996185302734 39.12685394287109 2.649921178817749 33.43021392822266 4.917821407318115 28.06828880310059 C 7.108683586120605 22.88851547241211 10.24540901184082 18.23630142211914 14.24084663391113 14.24085235595703 C 18.23629570007324 10.24540233612061 22.88852119445801 7.108689785003662 28.06829643249512 4.917827129364014 C 33.43022155761719 2.649927139282227 39.12687301635742 1.500002145767212 44.99999618530273 1.500002145767212 C 50.87311935424805 1.500002145767212 56.56977081298828 2.649927139282227 61.93169784545898 4.917827129364014 C 67.11147308349609 7.108689785003662 71.76369476318359 10.24540233612061 75.75914764404297 14.24085235595703 C 79.75458526611328 18.23630142211914 82.89131164550781 22.88851547241211 85.08216857910156 28.06828880310059 C 87.35007476806641 33.43021392822266 88.5 39.12685394287109 88.5 44.99997711181641 C 88.5 50.87310028076172 87.35007476806641 56.56974029541016 85.08216857910156 61.93166351318359 C 82.89131164550781 67.11144256591797 79.75458526611328 71.76364898681641 75.75914764404297 75.75910186767578 C 71.76369476318359 79.75455474853516 67.11147308349609 82.89126586914062 61.93169784545898 85.08213043212891 C 56.56977081298828 87.35002899169922 50.87311935424805 88.49995422363281 44.99999618530273 88.49995422363281 Z" stroke="none"/>
                                <path d="M 44.99999618530273 2.999992370605469 C 39.32870864868164 2.999992370605469 33.82865142822266 4.11004638671875 28.65262603759766 6.299331665039062 C 23.65165710449219 8.414566040039062 19.15968322753906 11.44333648681641 15.301513671875 15.30150604248047 C 11.44333648681641 19.15967559814453 8.414566040039062 23.65163421630859 6.299339294433594 28.65260696411133 C 4.110054016113281 33.82864761352539 2.999992370605469 39.32868957519531 2.999992370605469 44.99997711181641 C 2.999992370605469 50.6712646484375 4.110054016113281 56.17130661010742 6.299339294433594 61.34733581542969 C 8.414566040039062 66.34830474853516 11.44333648681641 70.84026336669922 15.301513671875 74.69844818115234 C 19.15968322753906 78.55661773681641 23.65165710449219 81.58537292480469 28.65262603759766 83.70062255859375 C 33.82865142822266 85.889892578125 39.32870864868164 86.99994659423828 44.99999618530273 86.99994659423828 C 50.67128372192383 86.99994659423828 56.17134094238281 85.889892578125 61.34736633300781 83.70062255859375 C 66.34834289550781 81.58537292480469 70.84030914306641 78.55661773681641 74.69847869873047 74.69844818115234 C 78.55665588378906 70.84026336669922 81.58542633056641 66.34830474853516 83.70065307617188 61.34733581542969 C 85.88993835449219 56.17130661010742 87 50.6712646484375 87 44.99997711181641 C 87 39.32868957519531 85.88993835449219 33.82864761352539 83.70065307617188 28.65260696411133 C 81.58542633056641 23.65163421630859 78.55665588378906 19.15967559814453 74.69847869873047 15.30150604248047 C 70.84030914306641 11.44333648681641 66.34834289550781 8.414566040039062 61.34736633300781 6.299331665039062 C 56.17134094238281 4.11004638671875 50.67128372192383 2.999992370605469 44.99999618530273 2.999992370605469 M 44.99999618530273 -7.62939453125e-06 C 69.85281372070312 -7.62939453125e-06 90 20.14717864990234 90 44.99997711181641 C 90 69.85277557373047 69.85281372070312 89.99994659423828 44.99999618530273 89.99994659423828 C 20.14717864990234 89.99994659423828 -7.62939453125e-06 69.85277557373047 -7.62939453125e-06 44.99997711181641 C -7.62939453125e-06 20.14717864990234 20.14717864990234 -7.62939453125e-06 44.99999618530273 -7.62939453125e-06 Z" stroke="none" fill="#453179"/>
                              </g>
                            </g>
                          </g>
                        </g>
                      </g>
                    </g>
                  </g>
                </g>
              </g>
            </g>
          </g>
        </g>
      </g>
    </g>
    <g id="libro_8_" data-name="libro (8)" transform="translate(643.444 3663.465)">
      <g id="Grupo_1242438" data-name="Grupo 1242438" transform="translate(1.198 23.824)">
        <path id="Trazado_1220202" data-name="Trazado 1220202" d="M41.728,85.958H11.438c-1.428.521-1.418,2.6-1.418,4.135v37.061a3.618,3.618,0,0,0,3.9,3.629l23.109-.013a2.409,2.409,0,0,0,4.805,0Z" transform="translate(-10.02 -79.582)" fill="#d1aee4"/>
        <path id="Trazado_1220203" data-name="Trazado 1220203" d="M53.342,55.275a1.808,1.808,0,0,0-1.661,1.8V96.512a1.808,1.808,0,0,0,1.956,1.8l22.595-.1.4-42.944H53.342Z" transform="translate(-46.699 -52.569)" fill="#fffbdf"/>
        <path id="Trazado_1220204" data-name="Trazado 1220204" d="M284.188,55.467c2.908-5.407-1.7-7.671-1.7-7.671a5.328,5.328,0,0,0-3.225-5.648c0-8.14-7.273-5.892-7.273-5.892-2.076-4.248-7.191-3.309-7.191-3.309-.3-.3-1.343-.3-1.343-.3a6.632,6.632,0,0,0-6.472,6.781v36.9c0,3.745,1.041,8.676,6.472,8.676,3.836-.209,5.078-3.032,5.689-4.1,8.651,3.051,8.6-5.822,8.6-5.822,8.735-1.51,4.858-9.929,4.858-9.929C289.538,61.976,284.188,55.467,284.188,55.467Z" transform="translate(-227.447 -32.644)" fill="#ff9eb1"/>
      </g>
      <g id="Grupo_1242439" data-name="Grupo 1242439" transform="translate(0 22.626)">
        <circle id="Elipse_12818" data-name="Elipse 12818" cx="1.203" cy="1.203" r="1.203" transform="translate(29.529 24.768)"/>
        <path id="Trazado_1220205" data-name="Trazado 1220205" d="M61.229,51.036a6.822,6.822,0,0,0-1.707-4.519A6.01,6.01,0,0,0,57.538,38.3c.008-.131.014-.262.014-.393a5.985,5.985,0,0,0-3.23-5.329c.008-.132.013-.264.013-.4a6.42,6.42,0,0,0-8-6.222,6.691,6.691,0,0,0-7.374-2.969,3.887,3.887,0,0,0-1.793-.366,7.492,7.492,0,0,0-5.732,2.706H7.815q-.048,0-.1,0a3.015,3.015,0,0,0-2.756,2.989v1.466H3.355A3.359,3.359,0,0,0,0,33.147V71.734a4.919,4.919,0,0,0,5.15,4.787H27.423a3.609,3.609,0,0,0,6.361.038,7.344,7.344,0,0,0,3.38.824,7.582,7.582,0,0,0,6.562-3.892,6.852,6.852,0,0,0,9-6.1A7.118,7.118,0,0,0,57.919,56.9a6.854,6.854,0,0,0,3.31-5.863ZM31.768,75.213a1.214,1.214,0,0,1-2.306,0,1.7,1.7,0,0,0-1.25-1.088H5.1A2.56,2.56,0,0,1,2.4,71.734V33.147a.96.96,0,0,1,.959-.959H4.962V67.775a3.2,3.2,0,0,0,3.19,2.993H29.641A8.035,8.035,0,0,0,31.813,75.1,1.229,1.229,0,0,0,31.768,75.213ZM54.377,55.492a1.2,1.2,0,0,0,0,2.4,6.851,6.851,0,0,0,1.27-.12,4.722,4.722,0,0,1-3.2,7.238,6.866,6.866,0,0,0-6.559-4.871,1.478,1.478,0,0,0-.165.008,1.2,1.2,0,0,0,.183,2.388,4.46,4.46,0,0,1,4.4,3.886,4.392,4.392,0,0,1,.037.569,4.458,4.458,0,0,1-5.751,4.264,8.233,8.233,0,0,0,.2-1.808,1.2,1.2,0,0,0-2.4,0,5.243,5.243,0,1,1-10.47,0V54.019a1.2,1.2,0,0,0-2.4,0V68.372H8.109c-.35,0-.751-.164-.751-.6V28.325a.606.606,0,0,1,.518-.6H30.039a8.179,8.179,0,0,0-.505,2.836V43.222a1.2,1.2,0,0,0,2.4,0V30.565a5.536,5.536,0,0,1,3.53-5.239,1.2,1.2,0,0,0,2,1.239A4.305,4.305,0,1,1,42.613,33.3a1.2,1.2,0,1,0,1.108,2.125,6.713,6.713,0,0,0,3.489-7.206,4.025,4.025,0,0,1,4.729,3.962,4.024,4.024,0,0,1-2.437,3.7,1.2,1.2,0,1,0,.947,2.2A6.443,6.443,0,0,0,53.686,35a3.6,3.6,0,0,1,1.47,2.912,3.671,3.671,0,0,1-.089.8,1.212,1.212,0,0,0,.705,1.367A3.616,3.616,0,0,1,57.621,45a6.809,6.809,0,0,0-3.244-.818,1.2,1.2,0,0,0,0,2.4,4.456,4.456,0,1,1,0,8.911Z" transform="translate(0 -22.626)"/>
        <path id="Trazado_1220206" data-name="Trazado 1220206" d="M297.579,113.334a1.2,1.2,0,1,0,1.265-2.036,3.094,3.094,0,0,1-.995-4.256,1.2,1.2,0,0,0-2.036-1.264A5.493,5.493,0,0,0,297.579,113.334Z" transform="translate(-259.712 -95.336)"/>
        <path id="Trazado_1220207" data-name="Trazado 1220207" d="M295.289,322.527a2.235,2.235,0,0,1-3.1-.591,1.2,1.2,0,0,0-1.982,1.347,4.633,4.633,0,0,0,6.431,1.226,1.2,1.2,0,1,0-1.347-1.982Z" transform="translate(-255.317 -285.68)"/>
        <path id="Trazado_1220208" data-name="Trazado 1220208" d="M309.435,226.818c.786,1.463,2.809.165,2.111-1.134a2.235,2.235,0,0,1,.91-3.024,1.2,1.2,0,1,0-1.134-2.111A4.634,4.634,0,0,0,309.435,226.818Z" transform="translate(-271.946 -196.754)"/>
        <path id="Trazado_1220209" data-name="Trazado 1220209" d="M389.439,245.7a2.233,2.233,0,0,1-1.488-2.785,1.2,1.2,0,0,0-2.293-.7,4.629,4.629,0,0,0,3.085,5.774A1.2,1.2,0,0,0,389.439,245.7Z" transform="translate(-339.36 -215.205)"/>
        <path id="Trazado_1220210" data-name="Trazado 1220210" d="M376.077,159.318a1.2,1.2,0,0,0,.348-2.345,2.235,2.235,0,0,1-1.488-2.785,1.2,1.2,0,0,0-2.293-.7,4.634,4.634,0,0,0,3.085,5.774A1.2,1.2,0,0,0,376.077,159.318Z" transform="translate(-327.904 -137.093)"/>
        <path id="Trazado_1220211" data-name="Trazado 1220211" d="M101.953,123.336H88.179a1.2,1.2,0,1,0,0,2.4h13.774a1.2,1.2,0,0,0,0-2.4Z" transform="translate(-76.579 -111.292)"/>
        <path id="Trazado_1220212" data-name="Trazado 1220212" d="M101.953,169.187H88.179a1.2,1.2,0,1,0,0,2.4h13.774a1.2,1.2,0,0,0,0-2.4Z" transform="translate(-76.579 -151.66)"/>
        <path id="Trazado_1220213" data-name="Trazado 1220213" d="M101.953,215.038H88.179a1.2,1.2,0,1,0,0,2.4h13.774a1.2,1.2,0,1,0,0-2.4Z" transform="translate(-76.579 -192.028)"/>
        <path id="Trazado_1220214" data-name="Trazado 1220214" d="M101.953,260.889H88.179a1.2,1.2,0,1,0,0,2.4h13.774a1.2,1.2,0,0,0,0-2.4Z" transform="translate(-76.579 -232.396)"/>
        <path id="Trazado_1220215" data-name="Trazado 1220215" d="M101.953,306.741H88.179a1.2,1.2,0,0,0,0,2.4h13.774a1.2,1.2,0,0,0,0-2.4Z" transform="translate(-76.579 -272.764)"/>
      </g>
    </g>
  </g>
</svg>
