<svg xmlns="http://www.w3.org/2000/svg" xmlns:xlink="http://www.w3.org/1999/xlink" width="97.533" height="97.533" viewBox="0 0 97.533 97.533">
  <defs>
    <filter id="Trazado_982547" x="0" y="0" width="97.533" height="97.533" filterUnits="userSpaceOnUse">
      <feOffset dy="3" input="SourceAlpha"/>
      <feGaussianBlur stdDeviation="3" result="blur"/>
      <feFlood flood-opacity="0.161"/>
      <feComposite operator="in" in2="blur"/>
      <feComposite in="SourceGraphic"/>
    </filter>
  </defs>
  <g id="Grupo_1242455" data-name="Grupo 1242455" transform="translate(-189.967 -8244.315)">
    <g id="Grupo_1241921" data-name="Grupo 1241921" transform="translate(-0.999 3622.592)">
      <g id="Grupo_1224767" data-name="Grupo 1224767" transform="translate(-0.001 3721.724)">
        <g id="Grupo_1203701" data-name="Grupo 1203701" transform="translate(199.967 906)">
          <g id="Grupo_1203355" data-name="Grupo 1203355" transform="translate(0)">
            <g id="Grupo_1202156" data-name="Grupo 1202156">
              <g id="Grupo_1177900" data-name="Grupo 1177900">
                <g id="Grupo_1172010" data-name="Grupo 1172010">
                  <g id="Grupo_1171046" data-name="Grupo 1171046">
                    <g id="Grupo_1148525" data-name="Grupo 1148525">
                      <g transform="matrix(1, 0, 0, 1, -9, -6)" filter="url(#Trazado_982547)">
                        <g id="Trazado_982547-2" data-name="Trazado 982547" transform="translate(9 6)" fill="#fdfbec">
                          <path d="M 39.7666015625 78.033203125 C 34.59997940063477 78.033203125 29.58870124816895 77.02164459228516 24.87196731567383 75.02663421630859 C 20.31538963317871 73.099365234375 16.22284507751465 70.34000396728516 12.70802402496338 66.82518005371094 C 9.193202018737793 63.31035614013672 6.433835029602051 59.21781158447266 4.506568431854248 54.66123580932617 C 2.511557102203369 49.94449996948242 1.500001549720764 44.93322372436523 1.500001549720764 39.7666015625 C 1.500001549720764 34.59997940063477 2.511557102203369 29.58870124816895 4.506568431854248 24.87196731567383 C 6.433835029602051 20.31538963317871 9.193202018737793 16.22284507751465 12.70802402496338 12.70802402496338 C 16.22284507751465 9.193202018737793 20.31538963317871 6.433835029602051 24.87196731567383 4.506568431854248 C 29.58870124816895 2.511557102203369 34.59997940063477 1.500001549720764 39.7666015625 1.500001549720764 C 44.93322372436523 1.500001549720764 49.94449996948242 2.511557102203369 54.66123580932617 4.506568431854248 C 59.21781158447266 6.433835029602051 63.31035614013672 9.193202018737793 66.82518005371094 12.70802402496338 C 70.34000396728516 16.22284507751465 73.099365234375 20.31538963317871 75.02663421630859 24.87196731567383 C 77.02164459228516 29.58870124816895 78.033203125 34.59997940063477 78.033203125 39.7666015625 C 78.033203125 44.93322372436523 77.02164459228516 49.94449996948242 75.02663421630859 54.66123580932617 C 73.099365234375 59.21781158447266 70.34000396728516 63.31035614013672 66.82518005371094 66.82518005371094 C 63.31035614013672 70.34000396728516 59.21781158447266 73.099365234375 54.66123580932617 75.02663421630859 C 49.94449996948242 77.02164459228516 44.93322372436523 78.033203125 39.7666015625 78.033203125 Z" stroke="none"/>
                          <path d="M 39.7666015625 3 C 34.80181503295898 3 29.98714065551758 3.971687316894531 25.45630264282227 5.888076782226562 C 21.07851409912109 7.739715576171875 17.146240234375 10.39113616943359 13.76869201660156 13.76869201660156 C 10.39113616943359 17.146240234375 7.739715576171875 21.07851409912109 5.888076782226562 25.45630264282227 C 3.971687316894531 29.98714065551758 3 34.80181503295898 3 39.7666015625 C 3 44.73138809204102 3.971687316894531 49.54606628417969 5.888076782226562 54.076904296875 C 7.739715576171875 58.45468902587891 10.39113616943359 62.386962890625 13.76869201660156 65.76451110839844 C 17.146240234375 69.14206695556641 21.07851409912109 71.79348754882812 25.45630264282227 73.64512634277344 C 29.98714065551758 75.56151580810547 34.80181503295898 76.533203125 39.7666015625 76.533203125 C 44.73138809204102 76.533203125 49.54606628417969 75.56151580810547 54.076904296875 73.64512634277344 C 58.45468902587891 71.79348754882812 62.386962890625 69.14206695556641 65.76451110839844 65.76451110839844 C 69.14206695556641 62.386962890625 71.79348754882812 58.45468902587891 73.64512634277344 54.076904296875 C 75.56151580810547 49.54606628417969 76.533203125 44.73138809204102 76.533203125 39.7666015625 C 76.533203125 34.80181503295898 75.56151580810547 29.98714065551758 73.64512634277344 25.45630264282227 C 71.79348754882812 21.07851409912109 69.14206695556641 17.146240234375 65.76451110839844 13.76869201660156 C 62.386962890625 10.39113616943359 58.45468902587891 7.739715576171875 54.076904296875 5.888076782226562 C 49.54606628417969 3.971687316894531 44.73138809204102 3 39.7666015625 3 M 39.7666015625 0 C 61.72908782958984 0 79.533203125 17.80411529541016 79.533203125 39.7666015625 C 79.533203125 61.72908782958984 61.72908782958984 79.533203125 39.7666015625 79.533203125 C 17.80411529541016 79.533203125 0 61.72908782958984 0 39.7666015625 C 0 17.80411529541016 17.80411529541016 0 39.7666015625 0 Z" stroke="none" fill="#83793c"/>
                        </g>
                      </g>
                    </g>
                  </g>
                </g>
              </g>
            </g>
          </g>
        </g>
      </g>
    </g>
    <g id="cerebro-humano" transform="translate(206.265 8264.041)">
      <g id="Grupo_1242453" data-name="Grupo 1242453" transform="translate(7.919 0.763)">
        <path id="Trazado_1220265" data-name="Trazado 1220265" d="M59.555,79.784a12.687,12.687,0,0,0,10.379,5.39,7.082,7.082,0,0,0,7.082-7.082V42.535A9.279,9.279,0,0,0,69.8,39.088a7.384,7.384,0,0,0-6.861,4.655L57.054,58.536A22.492,22.492,0,0,0,59.555,79.784Z" transform="translate(-51.311 -35.875)" fill="#fe646f"/>
        <path id="Trazado_1220266" data-name="Trazado 1220266" d="M185.633,48.556V84.113a7.082,7.082,0,0,1-7.082,7.081,12.629,12.629,0,0,1-2.172-.187,6.923,6.923,0,0,0,3.451-2.066A8.011,8.011,0,0,0,181.9,83.5V45.79c.172.07.342.144.51.225A9.268,9.268,0,0,1,185.633,48.556Z" transform="translate(-159.928 -41.895)" fill="#fd4755"/>
        <path id="Trazado_1220267" data-name="Trazado 1220267" d="M284.805,79.784a12.687,12.687,0,0,1-10.379,5.39,7.082,7.082,0,0,1-7.082-7.082V42.535a9.279,9.279,0,0,1,7.218-3.447,7.384,7.384,0,0,1,6.861,4.655l5.883,14.793A22.491,22.491,0,0,1,284.805,79.784Z" transform="translate(-241.641 -35.875)" fill="#fe646f"/>
        <path id="Trazado_1220268" data-name="Trazado 1220268" d="M331.151,79.786a12.685,12.685,0,0,1-10.378,5.389,7.107,7.107,0,0,1-1.6-.18,12.686,12.686,0,0,0,8.246-5.209,22.492,22.492,0,0,0,2.5-21.248l-5.883-14.793a7.392,7.392,0,0,0-5.1-4.443,9.268,9.268,0,0,1,1.969-.212,7.383,7.383,0,0,1,6.861,4.655l5.883,14.793A22.489,22.489,0,0,1,331.151,79.786Z" transform="translate(-287.986 -35.877)" fill="#fd4755"/>
        <path id="Trazado_1220269" data-name="Trazado 1220269" d="M33.85,17.765V16.427a1.209,1.209,0,0,0-.89-1.166L31.9,14.971a1.206,1.206,0,0,1-.8-.7l0-.011a1.207,1.207,0,0,1,.066-1.063l.547-.958a1.209,1.209,0,0,0-.195-1.454l-.946-.946a1.209,1.209,0,0,0-1.454-.195l-.958.547a1.207,1.207,0,0,1-1.063.066l-.011,0a1.206,1.206,0,0,1-.7-.8l-.291-1.064a1.209,1.209,0,0,0-1.166-.89H23.583a1.209,1.209,0,0,0-1.166.89l-.291,1.064a1.206,1.206,0,0,1-.7.8l-.011,0a1.207,1.207,0,0,1-1.063-.066l-.958-.547a1.209,1.209,0,0,0-1.454.195l-.946.946a1.209,1.209,0,0,0-.195,1.454l.547.958a1.207,1.207,0,0,1,.066,1.063l0,.011a1.207,1.207,0,0,1-.8.7l-1.064.291a1.209,1.209,0,0,0-.89,1.166v1.338a1.209,1.209,0,0,0,.89,1.166l1.064.291a1.206,1.206,0,0,1,.8.7l0,.011A1.207,1.207,0,0,1,17.345,21l-.547.958a1.209,1.209,0,0,0,.195,1.454l.946.946a1.209,1.209,0,0,0,1.454.195L20.351,24a1.207,1.207,0,0,1,1.063-.066l.011,0a1.207,1.207,0,0,1,.7.8l.291,1.064a1.209,1.209,0,0,0,1.166.89h1.338a1.209,1.209,0,0,0,1.166-.89l.291-1.064a1.206,1.206,0,0,1,.7-.8l.011,0A1.207,1.207,0,0,1,28.154,24l.958.547a1.209,1.209,0,0,0,1.454-.195l.946-.946a1.209,1.209,0,0,0,.195-1.454L31.16,21a1.207,1.207,0,0,1-.066-1.063l0-.011a1.207,1.207,0,0,1,.8-.7l1.064-.291a1.208,1.208,0,0,0,.89-1.166Z" transform="translate(-14.655 -7.499)" fill="#cbe2ff"/>
        <circle id="Elipse_12826" data-name="Elipse 12826" cx="3.367" cy="3.367" r="3.367" transform="translate(6.231 6.231)" fill="#5a5a5a"/>
        <path id="Trazado_1220270" data-name="Trazado 1220270" d="M99.395,72.117a3.368,3.368,0,0,1-4.836,3.029,3.368,3.368,0,0,0,0-6.059,3.366,3.366,0,0,1,4.836,3.029Z" transform="translate(-86.431 -62.519)" fill="#444"/>
        <path id="Trazado_1220271" data-name="Trazado 1220271" d="M339.565,343.552a.8.8,0,0,1-.235.568l-2.367,2.367a.8.8,0,0,1-1.136,0l-2.493-2.493-1.356-2.492-6.8-6.8,2.367-2.367,6.8,6.8,2.493,1.356,2.493,2.493A.8.8,0,0,1,339.565,343.552Z" transform="translate(-293.591 -299.291)" fill="#aa6a51"/>
        <path id="Trazado_1220272" data-name="Trazado 1220272" d="M349.537,343.548a.8.8,0,0,1-.235.568l-1.238,1.238a.8.8,0,0,0,0-1.135l-2.493-2.493-2.493-1.357-6.8-6.8,1.238-1.238,6.8,6.8,2.493,1.356,2.493,2.493A.8.8,0,0,1,349.537,343.548Z" transform="translate(-303.563 -299.287)" fill="#935b44"/>
        <path id="Trazado_1220273" data-name="Trazado 1220273" d="M448.343,457.87a2.8,2.8,0,0,0,.87.591l3.674,1.586-1.586-3.674a2.8,2.8,0,0,0-.591-.87,1.673,1.673,0,0,0-2.367,2.367Z" transform="translate(-403.787 -409.491)" fill="#fff9df"/>
      </g>
      <g id="Grupo_1242454" data-name="Grupo 1242454" transform="translate(7.156 0)">
        <path id="Trazado_1220274" data-name="Trazado 1220274" d="M76.668,65.382a4.129,4.129,0,1,0-4.129,4.129A4.134,4.134,0,0,0,76.668,65.382Zm-6.733,0a2.6,2.6,0,1,1,2.6,2.6A2.607,2.607,0,0,1,69.935,65.382Z" transform="translate(-62.178 -55.022)"/>
        <path id="Trazado_1220275" data-name="Trazado 1220275" d="M57.719,51.016l-1.586-3.674a3.009,3.009,0,0,0-1.62-1.667,1.581,1.581,0,0,0-.315-1.76l-1.08-1.08a23.25,23.25,0,0,0,1.176-19.694l-1.8-4.525a.763.763,0,1,0-1.418.564l1.8,4.525a21.6,21.6,0,0,1,.72,13.959,17.379,17.379,0,0,1-3.941-.137A5.118,5.118,0,0,1,45.761,32.6a.763.763,0,0,0-1.526,0,6.549,6.549,0,0,0,1.007,3.5l-2.83-2.83a.763.763,0,0,0-1.079,0l-2.367,2.367a.763.763,0,0,0,0,1.079l6.723,6.723,1.3,2.4a.761.761,0,0,0,.131.175l.835.835a11.917,11.917,0,0,1-1.911,1.2,5.175,5.175,0,0,1-3.122-1.159.763.763,0,1,0-.959,1.186,6.737,6.737,0,0,0,1.494.914A11.929,11.929,0,0,1,40.7,49.3a6.326,6.326,0,0,1-6.319-6.319V38.428a4.209,4.209,0,0,1,3.288-4.089.763.763,0,0,0-.326-1.491,5.681,5.681,0,0,0-2.962,1.707V17.55a2.022,2.022,0,0,1,2.02-2.018h.946a.763.763,0,0,0,0-1.526h-.946a3.525,3.525,0,0,0-2.02.634V7.7a8.477,8.477,0,0,1,6.455-2.961,6.582,6.582,0,0,1,5.917,3.652H45.495a5.314,5.314,0,0,0-4.162,2,.763.763,0,0,0,1.189.956,3.8,3.8,0,0,1,2.972-1.426h1.9l1.975,4.967H44.9a5.457,5.457,0,0,0-5.451,5.451.763.763,0,1,0,1.526,0A3.93,3.93,0,0,1,44.9,16.409h5.589a.772.772,0,0,0,.7-1.06L48.613,8.86a9.35,9.35,0,0,0-2.629-3.828A8.18,8.18,0,0,0,40.84,3.213a9.992,9.992,0,0,0-7.218,3.061,10.071,10.071,0,0,0-5.176-2.851.763.763,0,0,0-.31,1.494A8.538,8.538,0,0,1,32.86,7.7V14.64a3.525,3.525,0,0,0-2.02-.634h-.946a.763.763,0,1,0,0,1.526h.946a2.022,2.022,0,0,1,2.02,2.02v17a5.7,5.7,0,0,0-4.186-1.831H28.34a.763.763,0,0,0,0,1.526h.334a4.191,4.191,0,0,1,4.186,4.186V42.98A6.326,6.326,0,0,1,26.541,49.3a11.9,11.9,0,0,1-2.755-.324A6.775,6.775,0,0,0,27.795,42.8v-.236a.763.763,0,1,0-1.526,0V42.8A5.246,5.246,0,0,1,21.2,48.034a11.921,11.921,0,0,1-4.417-3.8,21.816,21.816,0,0,1-2.638-5.042h2.272a6.6,6.6,0,0,0,6.59-6.59.763.763,0,0,0-1.526,0,5.07,5.07,0,0,1-5.065,5.065H13.651a21.667,21.667,0,0,1,.719-13.959L15.7,20.352a1.966,1.966,0,0,0,1.143.368h1.338a1.976,1.976,0,0,0,1.9-1.452l.291-1.064a.46.46,0,0,1,.662-.274l.958.547a1.976,1.976,0,0,0,2.372-.318l.674-.674a3.921,3.921,0,0,1,1.227,2.849.763.763,0,0,0,1.526,0,5.445,5.445,0,0,0-1.937-4.165,1.969,1.969,0,0,0-.225-1.328l-.547-.958a.46.46,0,0,1,.274-.662l1.064-.291a1.976,1.976,0,0,0,1.452-1.9V9.691a1.976,1.976,0,0,0-1.452-1.9L25.36,7.5a.46.46,0,0,1-.274-.662l.547-.958a1.976,1.976,0,0,0-.318-2.371l-.946-.946A1.976,1.976,0,0,0,22,2.244l-.958.547a.46.46,0,0,1-.662-.274l-.291-1.064A1.975,1.975,0,0,0,18.185,0H16.847a1.976,1.976,0,0,0-1.9,1.452l-.291,1.064a.46.46,0,0,1-.662.274l-.958-.547a1.976,1.976,0,0,0-2.372.318l-.946.946A1.976,1.976,0,0,0,9.4,5.879l.547.958a.46.46,0,0,1-.274.662l-1.064.291a1.976,1.976,0,0,0-1.452,1.9v1.338a1.976,1.976,0,0,0,1.452,1.9l1.064.291a.46.46,0,0,1,.274.662l-.547.958a1.976,1.976,0,0,0,.318,2.371l.946.946a1.976,1.976,0,0,0,2.372.318l.958-.547c.5-.285.675.322.768.665l-1.809,4.548a23.183,23.183,0,0,0,2.586,21.969,13.564,13.564,0,0,0,11,5.714,7.854,7.854,0,0,0,7.082-4.473A7.854,7.854,0,0,0,40.7,50.825a13.441,13.441,0,0,0,8.34-2.9l.571.571a1.578,1.578,0,0,0,1.76.315,3.008,3.008,0,0,0,1.667,1.62l3.674,1.586a.77.77,0,0,0,1-1Zm-43.5-34.669a1.976,1.976,0,0,0-.978.258l-.958.547a.447.447,0,0,1-.536-.072l-.946-.946a.447.447,0,0,1-.072-.536l.547-.958a2,2,0,0,0-1.2-2.89L9.01,11.459a.447.447,0,0,1-.328-.43V9.691a.447.447,0,0,1,.328-.43l1.064-.291a2,2,0,0,0,1.2-2.89l-.547-.958a.447.447,0,0,1,.072-.536l.946-.946a.447.447,0,0,1,.536-.072l.958.547a2,2,0,0,0,2.89-1.2l.291-1.064a.447.447,0,0,1,.43-.328h1.338a.447.447,0,0,1,.43.328l.291,1.064a2,2,0,0,0,2.89,1.2l.958-.547a.447.447,0,0,1,.536.072l.946.946a.447.447,0,0,1,.072.536l-.547.958a2,2,0,0,0,1.2,2.89l1.064.291a.447.447,0,0,1,.328.43v1.338a.447.447,0,0,1-.328.43l-1.064.291a2,2,0,0,0-1.2,2.89l.547.958a.447.447,0,0,1-.072.536l-.946.946a.446.446,0,0,1-.536.072l-.958-.547a2,2,0,0,0-2.89,1.2l-.291,1.064a.447.447,0,0,1-.43.328H16.847a.447.447,0,0,1-.43-.328L16.126,17.8a2,2,0,0,0-1.912-1.455ZM50.825,39.192H53.1a21.913,21.913,0,0,1-1.111,2.515,2.223,2.223,0,0,0-.459-.415l-2.4-1.3-1.8-1.8A6.55,6.55,0,0,0,50.825,39.192Zm-.073,8.227a.037.037,0,0,1-.028.012.038.038,0,0,1-.028-.012L48.28,45l-1.3-2.4a.763.763,0,0,0-.131-.175l-6.261-6.261,1.288-1.288,6.26,6.261a.763.763,0,0,0,.175.131l2.4,1.3L53.119,45a.036.036,0,0,1,.011.028.034.034,0,0,1-.011.028Zm2.9,1.614a2.029,2.029,0,0,1-.633-.43c-.107,0-.233-.385-.249-.465a.913.913,0,0,1,1.537-.823,2.029,2.029,0,0,1,.43.633l.824,1.909Z" transform="translate(-7.156 0)"/>
        <path id="Trazado_1220276" data-name="Trazado 1220276" d="M316.078,203.993a.763.763,0,0,0,.763-.763v-1.823a5.077,5.077,0,0,0-3.62-4.857,6.139,6.139,0,0,0,1.016-3.388.763.763,0,0,0-1.526,0,4.656,4.656,0,0,1-4.65,4.65H304.9a.763.763,0,0,0,0,1.526c2.5,0,5.084.28,7.143-1.463a3.547,3.547,0,0,1,3.269,3.531v1.823A.763.763,0,0,0,316.078,203.993Z" transform="translate(-273.93 -172.828)"/>
        <path id="Trazado_1220277" data-name="Trazado 1220277" d="M325.4,410.917a.763.763,0,0,0-.763.763v.236a6.754,6.754,0,0,0,.356,2.171.763.763,0,1,0,1.445-.49,5.23,5.23,0,0,1-.275-1.682v-.236A.763.763,0,0,0,325.4,410.917Z" transform="translate(-292.344 -369.117)"/>
        <path id="Trazado_1220278" data-name="Trazado 1220278" d="M105.7,211.284v1.823a.763.763,0,0,0,1.526,0v-1.823a3.547,3.547,0,0,1,3.274-3.532,6.174,6.174,0,0,0,3.98,1.463h3.158a.763.763,0,1,0,0-1.526h-3.158A4.668,4.668,0,0,1,109.926,204a.763.763,0,1,0-1.493.314,6.1,6.1,0,0,0,.884,2.112A5.077,5.077,0,0,0,105.7,211.284Z" transform="translate(-95.673 -182.705)"/>
      </g>
    </g>
  </g>
</svg>
