<svg xmlns="http://www.w3.org/2000/svg" xmlns:xlink="http://www.w3.org/1999/xlink" width="103" height="103" viewBox="0 0 103 103">
  <defs>
    <filter id="Trazado_904820" x="0" y="0" width="103" height="103" filterUnits="userSpaceOnUse">
      <feOffset dy="3" input="SourceAlpha"/>
      <feGaussianBlur stdDeviation="3" result="blur"/>
      <feFlood flood-opacity="0.161"/>
      <feComposite operator="in" in2="blur"/>
      <feComposite in="SourceGraphic"/>
    </filter>
  </defs>
  <g id="Grupo_1242437" data-name="Grupo 1242437" transform="translate(-171 -1811)">
    <g id="Grupo_1241040" data-name="Grupo 1241040" transform="translate(180 1817)">
      <g id="Grupo_1225967" data-name="Grupo 1225967" transform="translate(0 0)">
        <g id="Grupo_1224992" data-name="Grupo 1224992" transform="translate(0)">
          <g id="Grupo_1223798" data-name="Grupo 1223798">
            <g id="Grupo_1223164" data-name="Grupo 1223164">
              <g id="Grupo_1203639" data-name="Grupo 1203639">
                <g id="Grupo_1202437" data-name="Grupo 1202437">
                  <g id="Grupo_1177315" data-name="Grupo 1177315">
                    <g id="Grupo_1173585" data-name="Grupo 1173585">
                      <g id="Grupo_1173428" data-name="Grupo 1173428">
                        <g id="Grupo_1171958" data-name="Grupo 1171958">
                          <g id="Grupo_1167341" data-name="Grupo 1167341">
                            <g id="Grupo_1166792" data-name="Grupo 1166792">
                              <g transform="matrix(1, 0, 0, 1, -9, -6)" filter="url(#Trazado_904820)">
                                <g id="Trazado_904820-2" data-name="Trazado 904820" transform="translate(9 6)" fill="#effbfe">
                                  <path d="M 42.49993515014648 83.49986267089844 C 36.96432495117188 83.49986267089844 31.59508895874023 82.41603851318359 26.5413703918457 80.27849578857422 C 21.65931129455566 78.21355438232422 17.27445220947266 75.25711059570312 13.50860595703125 71.49126434326172 C 9.742758750915527 67.72541046142578 6.786311626434326 63.34055328369141 4.721370220184326 58.45849609375 C 2.583829164505005 53.40477752685547 1.500005722045898 48.03554153442383 1.500005722045898 42.49993133544922 C 1.500005722045898 36.96430969238281 2.583829164505005 31.59507179260254 4.721370220184326 26.54136657714844 C 6.786311626434326 21.6593074798584 9.742758750915527 17.27444839477539 13.50860595703125 13.50860214233398 C 17.27445220947266 9.742754936218262 21.65931129455566 6.786295890808105 26.5413703918457 4.721366405487061 C 31.59508895874023 2.583825349807739 36.96432495117188 1.500001907348633 42.49993515014648 1.500001907348633 C 48.03555679321289 1.500001907348633 53.40479278564453 2.583825349807739 58.45849990844727 4.721366405487061 C 63.34056854248047 6.786295890808105 67.72542572021484 9.742754936218262 71.49127960205078 13.50860214233398 C 75.25712585449219 17.27444839477539 78.21356964111328 21.6593074798584 80.27851104736328 26.54136657714844 C 82.41605377197266 31.59507179260254 83.4998779296875 36.96430969238281 83.4998779296875 42.49993133544922 C 83.4998779296875 48.03554153442383 82.41605377197266 53.40477752685547 80.27851104736328 58.45849609375 C 78.21356964111328 63.34055328369141 75.25712585449219 67.72541046142578 71.49127960205078 71.49126434326172 C 67.72542572021484 75.25711059570312 63.34056854248047 78.21355438232422 58.45849990844727 80.27849578857422 C 53.40479278564453 82.41603851318359 48.03555679321289 83.49986267089844 42.49993515014648 83.49986267089844 Z" stroke="none"/>
                                  <path d="M 42.49993515014648 3 C 37.16616058349609 3 31.99352264404297 4.043960571289062 27.12569427490234 6.102867126464844 C 22.42242813110352 8.092185974121094 18.19784545898438 10.94068908691406 14.56926727294922 14.56926727294922 C 10.94069671630859 18.19783782958984 8.092185974121094 22.42242431640625 6.102867126464844 27.12569046020508 C 4.043960571289062 31.9935188293457 3 37.16615676879883 3 42.49993133544922 C 3 47.83370590209961 4.043960571289062 53.00634384155273 6.102867126464844 57.87417221069336 C 8.092185974121094 62.57743835449219 10.94069671630859 66.80202484130859 14.56926727294922 70.43059539794922 C 18.19784545898438 74.05917358398438 22.42242813110352 76.90767669677734 27.12569427490234 78.89699554443359 C 31.99352264404297 80.95590209960938 37.16616058349609 81.99986267089844 42.49993515014648 81.99986267089844 C 47.83370971679688 81.99986267089844 53.00634765625 80.95590209960938 57.87417602539062 78.89699554443359 C 62.57744216918945 76.90767669677734 66.80203247070312 74.05917358398438 70.43060302734375 70.43059539794922 C 74.05917358398438 66.80202484130859 76.90768432617188 62.57743835449219 78.89700317382812 57.87417221069336 C 80.95590972900391 53.00634384155273 81.99987030029297 47.83370590209961 81.99987030029297 42.49993133544922 C 81.99987030029297 37.16615676879883 80.95590972900391 31.9935188293457 78.89700317382812 27.12569046020508 C 76.90768432617188 22.42242431640625 74.05917358398438 18.19783782958984 70.43060302734375 14.56926727294922 C 66.80203247070312 10.94068908691406 62.57744216918945 8.092185974121094 57.87417602539062 6.102867126464844 C 53.00634765625 4.043960571289062 47.83370971679688 3 42.49993515014648 3 M 42.49993515014648 0 C 65.97200012207031 0 84.99987030029297 19.02786254882812 84.99987030029297 42.49993133544922 C 84.99987030029297 65.97200012207031 65.97200012207031 84.99986267089844 42.49993515014648 84.99986267089844 C 19.02787017822266 84.99986267089844 0 65.97200012207031 0 42.49993133544922 C 0 19.02786254882812 19.02787017822266 0 42.49993515014648 0 Z" stroke="none" fill="#6ae2f6"/>
                                </g>
                              </g>
                            </g>
                          </g>
                        </g>
                      </g>
                    </g>
                  </g>
                </g>
              </g>
            </g>
          </g>
        </g>
      </g>
    </g>
    <g id="cerebro_6_" data-name="cerebro (6)" transform="translate(192.098 1830.027)">
      <path id="Trazado_1220169" data-name="Trazado 1220169" d="M65.305,90.86a6.4,6.4,0,0,1,.508,2.492,6.479,6.479,0,0,1-12.37,2.681c-2.691,1.286-3.578,4.077-3.578,7.177v4.6H44.881V99.831A5.981,5.981,0,0,0,38.9,93.85H26.939a5.981,5.981,0,0,1-5.981-5.821,5.624,5.624,0,0,1,.877-3.15H15.974a7.974,7.974,0,0,1,0-15.949,8.458,8.458,0,0,1,1.136.08v-.08a7.378,7.378,0,0,1-.14-1.5,7.476,7.476,0,0,1,7.476-7.476,7.138,7.138,0,0,1,3.19.728,7.974,7.974,0,0,1,14.862.787A8.473,8.473,0,1,1,55.277,72.509a.188.188,0,0,1,0,.07,6.9,6.9,0,0,1,4.555-1.655A6.977,6.977,0,0,1,66.81,77.9,6.869,6.869,0,0,1,65,82.587a5.98,5.98,0,0,1,1.814,4.286,5.912,5.912,0,0,1-1.5,3.987Zm0,0" transform="translate(-7.003 -48.995)" fill="#ff9ab3"/>
      <path id="Trazado_1220170" data-name="Trazado 1220170" d="M59.3,75.717a7.974,7.974,0,0,0-6.469-12.629,7.768,7.768,0,0,0-1.735.2,9.585,9.585,0,0,0,.738-3.688,9.45,9.45,0,0,0-16.048-6.788,8.971,8.971,0,0,0-15.6-.229,8.11,8.11,0,0,0-2.741-.458A8.483,8.483,0,0,0,8.971,60.6v.5a8.971,8.971,0,1,0,0,17.942h4.316a6.479,6.479,0,0,0-.329,2.183,6.978,6.978,0,0,0,6.977,6.788H31.9a4.984,4.984,0,0,1,4.984,4.984v7.974a1,1,0,0,0,1,1h4.984a1,1,0,0,0,1-1v-4.6c0-2.741.748-4.685,2.213-5.782a7.476,7.476,0,0,0,13.735-4.077,7.319,7.319,0,0,0-.379-2.332A6.978,6.978,0,0,0,60.8,80.033a7.049,7.049,0,0,0-1.5-4.316ZM52.331,91.995a5.452,5.452,0,0,1-4.984-3.22,5.351,5.351,0,0,1-.5-2.263H44.855a7.383,7.383,0,0,0,.349,2.243c-1.665,1.1-3.339,3.24-3.339,7.616v3.6h-2.99V92.991A6.977,6.977,0,0,0,31.9,86.014H19.936a4.984,4.984,0,0,1-4.984-4.854,4.7,4.7,0,0,1,.728-2.6,5.342,5.342,0,0,1,2.113-1.934,6.1,6.1,0,0,0,.588-.239,5.127,5.127,0,0,1,1.8-.339h8.722a5.981,5.981,0,0,0,5.981-5.981H32.894a3.987,3.987,0,0,1-3.987,3.987H20.185a7.391,7.391,0,0,0-3.18.738,4.868,4.868,0,0,1-1.575.259,4.985,4.985,0,0,1-3.708-1.665l-1.5,1.336a6.979,6.979,0,0,0,4.167,2.233l-.06.09H8.971a6.977,6.977,0,1,1,3.867-12.769,7.377,7.377,0,0,0,.8,6.33l1.674-1.077a5.5,5.5,0,0,1,0-5.9l-1.116-.718.059-.079a8.638,8.638,0,0,0-3.24-1.485,6.187,6.187,0,0,1-.05-.748,6.489,6.489,0,0,1,6.479-6.479,6.134,6.134,0,0,1,2.791.648h.07a6.292,6.292,0,0,1,2.751,2.572l1.735-1a8.4,8.4,0,0,0-2.861-2.881,6.978,6.978,0,0,1,12.41,1.077A9.108,9.108,0,0,0,33,57.924L35,58.284a7.476,7.476,0,1,1,12.579,6.668l.149.149-.688.688a5.265,5.265,0,0,1,.449.489l.06.09a5.8,5.8,0,0,1,1.3,3.7,5.981,5.981,0,0,1-5.981,5.981V78.04A7.974,7.974,0,0,0,49.7,65.979a5.9,5.9,0,0,1,3.13-.9,5.981,5.981,0,0,1,5.981,5.981,5.86,5.86,0,0,1-1,3.259,6.9,6.9,0,0,0-3.987-1.266v1.994A4.9,4.9,0,0,1,57.3,76.465a4.984,4.984,0,0,1-3.469,8.552v1.994a6.977,6.977,0,0,0,3.918-1.216,5.827,5.827,0,0,1,.07.718,5.492,5.492,0,0,1-5.482,5.482Zm0,0" transform="translate(0 -42.156)" fill="#eb7f9a"/>
      <path id="Trazado_1220171" data-name="Trazado 1220171" d="M171.961,304H160v1.994h11.961a9.967,9.967,0,0,1,8.782,5.253l1.754-.937A11.961,11.961,0,0,0,171.961,304Zm0,0" transform="translate(-140.064 -266.122)" fill="#eb7f9a"/>
      <path id="Trazado_1220172" data-name="Trazado 1220172" d="M396.984,288A4.984,4.984,0,0,0,392,292.984h1.994a2.99,2.99,0,0,1,2.99-2.99Zm0,0" transform="translate(-343.158 -252.116)" fill="#eb7f9a"/>
      <path id="Trazado_1220173" data-name="Trazado 1220173" d="M173.917,58.855a10.964,10.964,0,0,1-6.429,9.968h-9.07a10.965,10.965,0,1,1,15.5-9.968Zm0,0" transform="translate(-133.049 -41.909)" fill="#fce013"/>
      <path id="Trazado_1220174" data-name="Trazado 1220174" d="M193.968,125.955h-1.994v-7.974h-1.994v7.974h-1.994v-7.974h-1a2.99,2.99,0,1,1,2.99-2.99v1h1.994v-1a2.99,2.99,0,1,1,2.99,2.99h-1Zm0-9.968h1a1,1,0,1,0-1-1Zm-6.977-1.994a1,1,0,0,0,0,1.994h1v-1A1,1,0,0,0,186.99,113.994Zm0,0" transform="translate(-161.074 -98.045)" fill="#f95925"/>
      <path id="Trazado_1220175" data-name="Trazado 1220175" d="M212.671,216a5.362,5.362,0,0,1-.548.239v4.744h-7.974v-4.744A5.361,5.361,0,0,1,203.6,216Zm0,0" transform="translate(-178.233 -189.087)" fill="#3dcde7"/>
      <g id="Grupo_1242436" data-name="Grupo 1242436" transform="translate(10.965)">
        <path id="Trazado_1220176" data-name="Trazado 1220176" d="M216,256h5.981v1A2.99,2.99,0,0,1,216,257Zm0,0" transform="translate(-200.051 -224.103)" fill="#f95925"/>
        <path id="Trazado_1220177" data-name="Trazado 1220177" d="M332.98,186.816l1-1.727,2.59,1.495-1,1.727Zm0,0" transform="translate(-302.456 -162.028)" fill="#f95925"/>
        <path id="Trazado_1220178" data-name="Trazado 1220178" d="M118.273,186.577l2.59-1.495,1,1.727-2.59,1.495Zm0,0" transform="translate(-114.501 -162.021)" fill="#f95925"/>
        <path id="Trazado_1220179" data-name="Trazado 1220179" d="M332.984,62.573l2.59-1.495,1,1.727-2.59,1.495Zm0,0" transform="translate(-302.46 -53.468)" fill="#f95925"/>
        <path id="Trazado_1220180" data-name="Trazado 1220180" d="M232,0h1.994V2.99H232Zm0,0" transform="translate(-214.058)" fill="#f95925"/>
        <path id="Trazado_1220181" data-name="Trazado 1220181" d="M118.254,62.727l1-1.727,2.59,1.495-1,1.727Zm0,0" transform="translate(-114.484 -53.4)" fill="#f95925"/>
        <path id="Trazado_1220182" data-name="Trazado 1220182" d="M289.063,4.7,291.554.387l1.727,1L290.789,5.7Zm0,0" transform="translate(-264.011 -0.339)" fill="#f95925"/>
        <path id="Trazado_1220183" data-name="Trazado 1220183" d="M157.109,233.313,159.6,229l1.727,1-2.491,4.317Zm0,0" transform="translate(-148.498 -200.464)" fill="#f95925"/>
        <path id="Trazado_1220184" data-name="Trazado 1220184" d="M157.1,1.387l1.726-1,2.492,4.316-1.726,1Zm0,0" transform="translate(-148.489 -0.342)" fill="#f95925"/>
        <path id="Trazado_1220185" data-name="Trazado 1220185" d="M289.094,230.036l1.726-1,2.492,4.316-1.726,1Zm0,0" transform="translate(-264.038 -200.501)" fill="#f95925"/>
        <path id="Trazado_1220186" data-name="Trazado 1220186" d="M88,128h4.984v1.994H88Zm0,0" transform="translate(-88 -112.051)" fill="#f95925"/>
        <path id="Trazado_1220187" data-name="Trazado 1220187" d="M352,128h4.984v1.994H352Zm0,0" transform="translate(-319.106 -112.051)" fill="#f95925"/>
      </g>
      <path id="Trazado_1220188" data-name="Trazado 1220188" d="M52.829,87.042a7.767,7.767,0,0,0-1.735.2,9.585,9.585,0,0,0,.738-3.688,9.43,9.43,0,0,0-4.456-8.034l-1.056,1.695a7.466,7.466,0,0,1,1.923,10.965,8.275,8.275,0,0,0-1.276-1l-1,1.714a5.981,5.981,0,0,1-3.11,11.1v1.994a7.974,7.974,0,0,0,6.848-12.061,5.783,5.783,0,0,1,3.12-.9,5.981,5.981,0,0,1,5.981,5.981,5.86,5.86,0,0,1-1,3.259,6.9,6.9,0,0,0-3.987-1.266V99a4.9,4.9,0,0,1,3.469,1.415,4.984,4.984,0,0,1-3.469,8.552v1.994a6.977,6.977,0,0,0,3.918-1.216,5.828,5.828,0,0,1,.07.718,5.482,5.482,0,0,1-10.965,0H44.855a7.263,7.263,0,0,0,.349,2.243c-1.675,1.106-3.339,3.289-3.339,7.616v3.6h-2.99v-6.977a6.977,6.977,0,0,0-6.977-6.977H19.936a4.984,4.984,0,0,1-4.984-4.844,5.083,5.083,0,0,1,3.349-4.775l-.07-.18.209-.11-.748-1.3-.11-.269-.1-.18a4.984,4.984,0,0,1-6.21-1L9.788,98.655a7.038,7.038,0,0,0,4.585,2.293h-5.4a6.977,6.977,0,0,1,0-13.955,6.886,6.886,0,0,1,4.107,1.345l1.176-1.614a8.817,8.817,0,0,0-3.24-1.465,6.37,6.37,0,0,1-.05-.708v-.5h4.984V82.058H11.473a6.373,6.373,0,0,1,2.084-2.692l-1.2-1.594A8.4,8.4,0,0,0,8.971,84.55v.5a8.971,8.971,0,1,0,0,17.942h4.306a6.668,6.668,0,0,0-.319,2.183,6.978,6.978,0,0,0,6.977,6.788H31.9a4.984,4.984,0,0,1,4.984,4.984v7.974a1,1,0,0,0,1,1h4.984a1,1,0,0,0,1-1v-4.6c0-2.751.748-4.685,2.213-5.782a7.476,7.476,0,0,0,13.735-4.077,7.319,7.319,0,0,0-.379-2.332,6.978,6.978,0,0,0,1.375-4.147,7.049,7.049,0,0,0-1.5-4.316,7.974,7.974,0,0,0-6.469-12.629Zm0,0" transform="translate(0 -66.11)"/>
      <path id="Trazado_1220189" data-name="Trazado 1220189" d="M180.743,311.256l1.754-1A11.961,11.961,0,0,0,171.961,304H160v1.994h11.961A9.969,9.969,0,0,1,180.743,311.256Zm0,0" transform="translate(-140.064 -266.122)"/>
      <path id="Trazado_1220190" data-name="Trazado 1220190" d="M396.984,289.994V288A4.984,4.984,0,0,0,392,292.984h1.994A2.99,2.99,0,0,1,396.984,289.994Zm0,0" transform="translate(-343.158 -252.116)"/>
      <path id="Trazado_1220191" data-name="Trazado 1220191" d="M150.969,62.765v4.087a1,1,0,0,0,1,1,3.987,3.987,0,1,0,7.974,0,1,1,0,0,0,1-1V62.765a11.961,11.961,0,1,0-9.968,0Zm3.987.1h3.987v2.99h-5.981v-2.99ZM152.963,52.9h-1a1,1,0,1,1,1-1Zm3.987,7.974h-1.994V54.89h1.994Zm-1,8.971a1.994,1.994,0,0,1-1.994-1.994h3.987A1.994,1.994,0,0,1,155.953,69.842Zm0-27.91A9.968,9.968,0,0,1,159.94,61.02v-.149h-1V54.89h1a2.99,2.99,0,1,0-2.99-2.99v1h-1.994v-1a2.99,2.99,0,1,0-2.99,2.99h1v5.981h-1v.149a9.968,9.968,0,0,1,3.987-19.088Zm2.99,10.965v-1a1,1,0,1,1,1,1Zm0,0" transform="translate(-126.05 -34.955)"/>
      <path id="Trazado_1220192" data-name="Trazado 1220192" d="M118.215,186.538l2.59-1.5,1,1.726-2.59,1.5Zm0,0" transform="translate(-103.486 -161.987)"/>
      <path id="Trazado_1220193" data-name="Trazado 1220193" d="M332.984,62.573l2.59-1.495,1,1.727-2.59,1.495Zm0,0" transform="translate(-291.495 -53.468)"/>
      <path id="Trazado_1220194" data-name="Trazado 1220194" d="M232,0h1.994V2.99H232Zm0,0" transform="translate(-203.093)"/>
      <path id="Trazado_1220195" data-name="Trazado 1220195" d="M333.016,186.8l1-1.726,2.59,1.5-1,1.726Zm0,0" transform="translate(-291.523 -162.015)"/>
      <path id="Trazado_1220196" data-name="Trazado 1220196" d="M118.254,62.727l1-1.727,2.59,1.495-1,1.727Zm0,0" transform="translate(-103.52 -53.4)"/>
      <path id="Trazado_1220197" data-name="Trazado 1220197" d="M289.105,4.656,291.6.34l1.726,1-2.492,4.316Zm0,0" transform="translate(-253.083 -0.298)"/>
      <path id="Trazado_1220198" data-name="Trazado 1220198" d="M157.109,233.313,159.6,229l1.727,1-2.491,4.317Zm0,0" transform="translate(-137.534 -200.464)"/>
      <path id="Trazado_1220199" data-name="Trazado 1220199" d="M157.1,1.387l1.726-1,2.492,4.316-1.726,1Zm0,0" transform="translate(-137.524 -0.342)"/>
      <path id="Trazado_1220200" data-name="Trazado 1220200" d="M289.094,230.036l1.726-1,2.492,4.316-1.726,1Zm0,0" transform="translate(-253.074 -200.501)"/>
      <path id="Trazado_1220201" data-name="Trazado 1220201" d="M352,128h4.984v1.994H352Zm0,0" transform="translate(-308.142 -112.051)"/>
    </g>
  </g>
</svg>
