<svg xmlns="http://www.w3.org/2000/svg" xmlns:xlink="http://www.w3.org/1999/xlink" width="295" height="334" viewBox="0 0 295 334">
  <defs>
    <clipPath id="clip-path">
      <rect id="Rect치ngulo_424215" data-name="Rect치ngulo 424215" width="295" height="334" transform="translate(180 4636)" fill="#fff" stroke="#707070" stroke-width="1"/>
    </clipPath>
  </defs>
  <g id="Enmascarar_grupo_1211497" data-name="Enmascarar grupo 1211497" transform="translate(-180 -4636)" clip-path="url(#clip-path)">
    <g id="OBJECTS" transform="translate(150.47 4604.653)">
      <g id="Grupo_1242568" data-name="Grupo 1242568" transform="translate(0 249.928)">
        <g id="Grupo_1242566" data-name="Grupo 1242566" transform="translate(0 16.69)">
          <rect id="Rect치ngulo_424217" data-name="Rect치ngulo 424217" width="354.059" height="100.73" fill="#a65a34"/>
          <g id="Grupo_1242565" data-name="Grupo 1242565" transform="translate(0 10.179)">
            <path id="Trazado_1220688" data-name="Trazado 1220688" d="M354.059,372.161v1.253c-23.831.036-57.574.016-95.427,0C170.151,373.359,59.2,373.3,0,373.887v-1.25c59.3-.595,170.184-.532,258.633-.482,37.865.022,71.613.042,95.427.006Zm0,11.465v1.254L0,387.109v-1.254l354.059-2.229Zm0,17.469v1.253L0,400.922v-1.253L354.059,401.1ZM0,410.541v-1.263c41.972,5.309,106.023,10.611,190.85,9.688,47.693-.519,72.965-1.267,83.4-2.109,3.262-.263,5.838.135,5.386-.064-.909-.4-4.4-.82-9.625-1.247-16.155-1.316-48.413-2.56-73.187-3.318-29.041-.888-54.271-1.554-71.768-1.776-15.741-.2-25.194-.313-25.164-.3,1.5.721,11.725,1.789,23.253,2.744,15.406,1.275,33.043,2.326,35.376,2.076a.647.647,0,0,1,.719.556.635.635,0,0,1-.576.693c-2.4.257-20.164-.791-35.626-2.071-11.658-.965-22.06-2.073-23.727-2.877-3.657-1.761,6.476-2.319,25.761-2.076,17.529.222,42.763.889,71.793,1.776,24.825.759,57.128,2,73.253,3.318,5.365.438,9,.894,10.059,1.36,2.421,1.063.916,1.914-5.819,2.459-10.429.842-35.727,1.589-83.5,2.109C106.093,421.142,42.04,415.851,0,410.541Z" transform="translate(0 -372.125)" fill="#8e4e2c" fill-rule="evenodd"/>
            <path id="Trazado_1220689" data-name="Trazado 1220689" d="M354.059,453.558v1.254C285.946,454.71,87.088,454.137,0,450.9v-1.257c87.02,3.241,285.9,3.815,354.059,3.917Zm0,20.089V474.9L0,470.012v-1.255Z" transform="translate(0 -394.75)" fill="#8e4e2c" fill-rule="evenodd"/>
          </g>
        </g>
        <g id="Grupo_1242567" data-name="Grupo 1242567" transform="translate(8.579)">
          <path id="Trazado_1220690" data-name="Trazado 1220690" d="M259.12,357.75h73.35c-4.543,2.124-37.267,6.11-38.164,8.352-.922,2.3-11.06,11.522-11.06,11.522L255.363,418.64Z" transform="translate(-83.115 -341.06)" fill="#3d1f11" fill-rule="evenodd"/>
          <path id="Trazado_1220691" data-name="Trazado 1220691" d="M176.786,421.518l38.054-74.527c-6.512-4.411-108.378-13.032-114.311-12.806,0,0-8.374,7.268-36.313,35.293,17.827,1.367,29.956,5.706,45.154,18.26,2.755,2.276,4.313,3.922,4.964,4.174,19.177,5.012,42.981,13.059,62.452,29.606ZM243.67,366.56l40.131,6.646,21.026,13.573c1.462,3.145-1.926,7.378-2.888,9.778,4.553,6.966,11.879,18.536,3.08,19.74l-65.927.377,4.577-50.114ZM14.651,416.485l85.893,12.443.922,2.823-76.907-3.572,4.09-6.452-16.534-1.959s1.672-2.246,2.536-3.283ZM111.2,411.53l46.2,11.061-3.687,2.42L111.2,411.53Zm214.717-50.422c-9.125,0-16.522,1.917-16.522,4.283s7.4,4.282,16.522,4.282,16.523-1.917,16.523-4.282S335.043,361.109,325.919,361.109Z" transform="translate(-12.115 -334.181)" fill="#3d1f11" fill-rule="evenodd"/>
        </g>
      </g>
      <g id="Grupo_1242571" data-name="Grupo 1242571" transform="translate(8.456 292.238)">
        <path id="Trazado_1220692" data-name="Trazado 1220692" d="M86.207,394.156l-50.831-.224L11.942,437.119l68.323-1.452Z" transform="translate(-11.942 -393.932)" fill="#dbdbd9" fill-rule="evenodd"/>
        <g id="Grupo_1242570" data-name="Grupo 1242570" transform="translate(12.469 4.135)">
          <path id="Trazado_1220693" data-name="Trazado 1220693" d="M105.863,400.649l-53.6-.877L29.55,447.384l76.1.75Z" transform="translate(-29.55 -399.772)" fill="#fff" fill-rule="evenodd"/>
          <g id="Grupo_1242569" data-name="Grupo 1242569" transform="translate(8.738 5.948)">
            <path id="Trazado_1220694" data-name="Trazado 1220694" d="M42.265,457.979a.376.376,0,0,1,0-.753l62.152.392a.376.376,0,1,1,0,.753Z" transform="translate(-41.89 -422.49)" fill="#dbdbd9" fill-rule="evenodd"/>
            <path id="Trazado_1220695" data-name="Trazado 1220695" d="M45.319,449.8a.376.376,0,1,1,0-.752l60.015.377a.376.376,0,0,1,0,.753Z" transform="translate(-42.781 -420.102)" fill="#dbdbd9" fill-rule="evenodd"/>
            <path id="Trazado_1220696" data-name="Trazado 1220696" d="M49.22,441.625a.376.376,0,0,1,0-.753l57.279.361a.376.376,0,1,1,0,.753Z" transform="translate(-43.92 -417.717)" fill="#dbdbd9" fill-rule="evenodd"/>
            <path id="Trazado_1220697" data-name="Trazado 1220697" d="M53.12,433.449a.376.376,0,1,1,0-.752l54.544.343a.376.376,0,1,1,0,.753Z" transform="translate(-45.058 -415.33)" fill="#dbdbd9" fill-rule="evenodd"/>
            <path id="Trazado_1220698" data-name="Trazado 1220698" d="M57.02,425.275a.376.376,0,1,1,0-.753l51.807.326a.376.376,0,1,1,0,.753Z" transform="translate(-46.197 -412.944)" fill="#dbdbd9" fill-rule="evenodd"/>
            <path id="Trazado_1220699" data-name="Trazado 1220699" d="M60.922,417.1a.376.376,0,0,1,0-.753l49.072.31a.376.376,0,1,1,0,.752Z" transform="translate(-47.336 -410.558)" fill="#dbdbd9" fill-rule="evenodd"/>
            <path id="Trazado_1220700" data-name="Trazado 1220700" d="M64.822,408.925a.376.376,0,0,1,0-.753l46.336.292a.376.376,0,1,1,0,.752Z" transform="translate(-48.474 -408.172)" fill="#dbdbd9" fill-rule="evenodd"/>
          </g>
        </g>
      </g>
      <g id="Grupo_1242572" data-name="Grupo 1242572" transform="translate(100.05 320.886)">
        <path id="Trazado_1220701" data-name="Trazado 1220701" d="M141.29,435.349l9.7-.961-1.609,6.682Z" transform="translate(-141.29 -434.388)" fill="#e0a680" fill-rule="evenodd"/>
        <path id="Trazado_1220702" data-name="Trazado 1220702" d="M145.035,435.221a4.284,4.284,0,0,0-.467,2.689l-3.279-2.318Z" transform="translate(-141.29 -434.631)" fill="#3d1f11" fill-rule="evenodd"/>
        <path id="Trazado_1220703" data-name="Trazado 1220703" d="M152.5,441.051a6.539,6.539,0,0,1,1.673-6.663l43.685,10.968c3.111.819,1.437,7.707-1.3,6.758Z" transform="translate(-144.478 -434.388)" fill="#617937" fill-rule="evenodd"/>
        <path id="Trazado_1220704" data-name="Trazado 1220704" d="M209.065,448.171a10.021,10.021,0,0,0-1.976,6.588l5.491,1.379c3.082,1.03,4.9-5.819,1.3-6.758Z" transform="translate(-160.495 -438.411)" fill="#c3211d" fill-rule="evenodd"/>
        <path id="Trazado_1220705" data-name="Trazado 1220705" d="M209.783,448.321A10.233,10.233,0,0,0,208.158,455l-2.151-.54a12.145,12.145,0,0,1,1.661-6.666Z" transform="translate(-160.171 -438.3)" fill="#fff" fill-rule="evenodd"/>
        <path id="Trazado_1220706" data-name="Trazado 1220706" d="M157.147,438.352a.45.45,0,0,1,.215-.874l32.274,8.019a.45.45,0,0,1-.215.874Z" transform="translate(-145.818 -435.286)" fill="#3d1f11" fill-rule="evenodd"/>
        <path id="Trazado_1220707" data-name="Trazado 1220707" d="M156.14,442.217a.45.45,0,1,1,.215-.873l32.273,8.019a.45.45,0,0,1-.215.875Z" transform="translate(-145.524 -436.414)" fill="#3d1f11" fill-rule="evenodd"/>
      </g>
      <g id="Grupo_1242575" data-name="Grupo 1242575" transform="translate(281.291 191.445)">
        <g id="Grupo_1242574" data-name="Grupo 1242574">
          <g id="Grupo_1242573" data-name="Grupo 1242573" transform="translate(0.591 57.177)">
            <path id="Trazado_1220708" data-name="Trazado 1220708" d="M440.638,327.251c10.471,0,18.961,2.221,18.961,4.959s.36,30.421-18.961,30.421-18.961-27.682-18.961-30.421S430.166,327.251,440.638,327.251Z" transform="translate(-421.677 -327.251)" fill="#b76d43" fill-rule="evenodd"/>
            <path id="Trazado_1220709" data-name="Trazado 1220709" d="M452.138,327.6c7.719.628,13.324,2.511,13.324,4.736,0,2.532.305,26.377-14.911,29.968-14.888-3.59-12.4-27.435-12.171-29.968C438.584,330.109,444.361,328.225,452.138,327.6Z" transform="translate(-427.54 -327.375)" fill="#d38b5e" fill-rule="evenodd"/>
            <path id="Trazado_1220710" data-name="Trazado 1220710" d="M440.639,327.251c10.471,0,18.961,2.221,18.961,4.959s-8.489,4.96-18.961,4.96-18.961-2.221-18.961-4.96S430.167,327.251,440.639,327.251Z" transform="translate(-421.678 -327.251)" fill="#3d1f11" fill-rule="evenodd"/>
            <path id="Trazado_1220711" data-name="Trazado 1220711" d="M422.473,346.852a.514.514,0,1,1,.423-.937c4.363,1.98,11.135,2.971,17.92,2.971s13.556-.99,17.92-2.971a.514.514,0,0,1,.422.937c-4.5,2.042-11.426,3.063-18.341,3.063S426.972,348.894,422.473,346.852Z" transform="translate(-421.853 -333.903)" fill="#3d1f11" fill-rule="evenodd"/>
          </g>
          <path id="Trazado_1220712" data-name="Trazado 1220712" d="M440.361,311.753c-1.884-18.829-5.9-36.86-19.6-46.386.845,18.743,4.993,31.821,15.266,45.87A17.833,17.833,0,0,0,440.361,311.753Z" transform="translate(-420.758 -247.963)" fill="#617937" fill-rule="evenodd"/>
          <path id="Trazado_1220713" data-name="Trazado 1220713" d="M441,298.382c-2.12-10.013-5.618-19.058-11.861-25.746,8.945,16.655,10.473,29.448,10.473,29.448A20.628,20.628,0,0,0,441,298.382Z" transform="translate(-423.753 -250.56)" fill="#3d1f11" fill-rule="evenodd"/>
          <path id="Trazado_1220714" data-name="Trazado 1220714" d="M454.857,311.711c-.437-17.949,1-35.739,12.849-46.208,1.3,18.15-1.454,30.91-10.469,45.82A15.638,15.638,0,0,1,454.857,311.711Z" transform="translate(-432.918 -248.011)" fill="#617937" fill-rule="evenodd"/>
          <path id="Trazado_1220715" data-name="Trazado 1220715" d="M456.146,294.193c1.078-8.025,3.333-15.386,7.7-21.3a111.356,111.356,0,0,0-4.622,19.936C458.82,296.193,457.6,295.988,456.146,294.193Z" transform="translate(-433.402 -250.653)" fill="#3d1f11" fill-rule="evenodd"/>
          <path id="Trazado_1220716" data-name="Trazado 1220716" d="M446.957,302.019c-5.638-21.513-8.4-41.355,2.8-63.732a104.093,104.093,0,0,1,.616,63.694A18.552,18.552,0,0,1,446.957,302.019Z" transform="translate(-428.363 -238.287)" fill="#39543c" fill-rule="evenodd"/>
          <path id="Trazado_1220717" data-name="Trazado 1220717" d="M423.858,277.518a.343.343,0,1,1,.665-.164,178.394,178.394,0,0,0,5.8,18.995,106.371,106.371,0,0,0,6.894,15.192.342.342,0,1,1-.6.338,107.061,107.061,0,0,1-6.939-15.291A179.179,179.179,0,0,1,423.858,277.518Z" transform="translate(-421.862 -252.153)" fill="#3d1f11" fill-rule="evenodd"/>
          <path id="Trazado_1220718" data-name="Trazado 1220718" d="M452.611,253.211a.342.342,0,0,1,.683.006c-.044,4.479.478,12.968.74,17.222.057.913.1,1.63.125,2.092.244,4.51.4,9.252.286,14.285a127,127,0,0,1-1.352,16.01.343.343,0,1,1-.678-.1,126.281,126.281,0,0,0,1.347-15.925c.114-5.005-.043-9.734-.286-14.237-.022-.418-.068-1.151-.125-2.086C453.088,266.222,452.566,257.729,452.611,253.211Z" transform="translate(-432.068 -243.498)" fill="#3d1f11" fill-rule="evenodd"/>
        </g>
      </g>
      <g id="Grupo_1242588" data-name="Grupo 1242588" transform="translate(43.687 80.996)">
        <g id="Grupo_1242577" data-name="Grupo 1242577" transform="translate(11.512 53.359)">
          <path id="Trazado_1220719" data-name="Trazado 1220719" d="M90.332,208.357c1.93,8.889,5.339,11.111.471,30.91-3.527,14.343,6.166,21.731,18.4,22.129,27.768.9,75.889-27.96,64.051-49.043-5.364-9.553-22.437-16.231-27.891-30.473C121.956,182.166,90.212,195.721,90.332,208.357Z" transform="translate(-90.07 -181.88)" fill="#3d1f11" fill-rule="evenodd"/>
          <g id="Grupo_1242576" data-name="Grupo 1242576" transform="translate(23.172 37.205)">
            <path id="Trazado_1220720" data-name="Trazado 1220720" d="M121.966,295.943c-1.769-13.864,1.124-42.916,28.56-58.146,23.776-13.568,49.38,2.392,54.871,6.218C192.906,278.775,159.678,306.048,121.966,295.943Z" transform="translate(-121.551 -232.427)" fill="#d68119" fill-rule="evenodd"/>
            <path id="Trazado_1220721" data-name="Trazado 1220721" d="M149.136,252.513c2.161,5.819,9.6,8.557,15.71-.1,5.688-8.057-6.2-19.572-6.2-19.572S146.977,246.7,149.136,252.513Z" transform="translate(-128.762 -232.537)" fill="#ca7d4a" fill-rule="evenodd"/>
            <path id="Trazado_1220722" data-name="Trazado 1220722" d="M149.136,252.874a9.3,9.3,0,0,0,.952,1.881c6.8.408,11.99-4.32,15.816-10.173-1.253-4.433-4.63-8.54-6.3-10.372l-2.029.318C154.744,238.131,147.383,248.151,149.136,252.874Z" transform="translate(-128.762 -232.898)" fill="#3d1f11" fill-rule="evenodd"/>
            <path id="Trazado_1220723" data-name="Trazado 1220723" d="M138.392,283.766a.589.589,0,0,1,1.128-.336c4.507,14.943,17.771,27.734,17.81,27.771a.588.588,0,0,1-.82.843C156.472,312.005,142.987,299,138.392,283.766Z" transform="translate(-125.99 -245.778)" fill="#3d1f11" fill-rule="evenodd"/>
          </g>
        </g>
        <path id="Trazado_1220724" data-name="Trazado 1220724" d="M335.444,273.5c.461.93,1.019,2.077,1.658,3.384a11.346,11.346,0,0,0,4.182-5.44l-4.791,1.32Z" transform="translate(-143.323 -152.16)" fill="#3d1f11" fill-rule="evenodd"/>
        <g id="Grupo_1242578" data-name="Grupo 1242578" transform="translate(152.016 88.666)">
          <path id="Trazado_1220725" data-name="Trazado 1220725" d="M286.4,237.435c12.775-5.672,39.589-16.241,62.052,5.672S361.2,292.46,361.2,292.46c-27.947-3.86-52.4-13.541-73.855-33.039C287.342,259.421,273.627,243.109,286.4,237.435Z" transform="translate(-280.958 -229.848)" fill="#617937" fill-rule="evenodd"/>
          <path id="Trazado_1220726" data-name="Trazado 1220726" d="M364.2,284.123a.587.587,0,1,1-1.174,0c0-.031,0-10.742,2.525-18.318a.587.587,0,1,1,1.114.368C364.2,273.569,364.2,284.092,364.2,284.123Z" transform="translate(-302.621 -239.233)" fill="#3d1f11" fill-rule="evenodd"/>
          <path id="Trazado_1220727" data-name="Trazado 1220727" d="M335.444,270.851c5.177,10.445,12.921,40.6,35.233,35.8,8-1.719,5.835-14.346-1.953-21.67-8.292-7.8-23.909-23.569-23.909-23.569Z" transform="translate(-295.339 -238.18)" fill="#e0a680" fill-rule="evenodd"/>
          <path id="Trazado_1220728" data-name="Trazado 1220728" d="M339.1,281.407C344.4,294.3,352.856,315.038,371.643,311c3.716-.8,5.237-3.951,5.021-7.832-7.7,6.384-27-4.6-30.951-25.3A26.814,26.814,0,0,0,339.1,281.407Z" transform="translate(-296.305 -242.524)" fill="#ca7d4a" fill-rule="evenodd"/>
          <path id="Trazado_1220729" data-name="Trazado 1220729" d="M332.524,239.193c-3.744,5.064-2.193,11.661,9.116,9.562s13.114-14.371,13.114-14.371C345.723,234.05,336.269,234.129,332.524,239.193Z" transform="translate(-294.088 -231.015)" fill="#ca7d4a" fill-rule="evenodd"/>
          <path id="Trazado_1220730" data-name="Trazado 1220730" d="M329.252,233.463c-.336,2.118,1.007,8.348,1.056,9.961,4.031,1.39,10.095,3.584,19.907-.781a20.645,20.645,0,0,0,4.142-9.081C345.326,233.231,333,228.4,329.252,233.463Z" transform="translate(-293.691 -230.196)" fill="#3d1f11" fill-rule="evenodd"/>
        </g>
        <g id="Grupo_1242579" data-name="Grupo 1242579" transform="translate(9.965 38.034)">
          <path id="Trazado_1220731" data-name="Trazado 1220731" d="M100.463,209.955c2.218,15.584,10.865,43.272,38.824,29.611,25.512-12.467,15.568-35.794,8.312-46.538-3.571-5.289-17.068-8.6-28.083-5.134C108.153,191.473,99.336,202.042,100.463,209.955Z" transform="translate(-91.24 -167.767)" fill="#e0a680" fill-rule="evenodd"/>
          <path id="Trazado_1220732" data-name="Trazado 1220732" d="M102.663,220.2c1.622-11.674,9.161-14.284,16.47-22.21-.554,8.856,8.722.763,11.063-3.161,3.577,4.949,15.9,9.614,19.929,3.278-4.587-9.207-9.916-11.548-20.8-11.636C105.421,186.279,93.586,212.886,102.663,220.2Z" transform="translate(-91.04 -167.767)" fill="#ca7d4a" fill-rule="evenodd"/>
          <path id="Trazado_1220733" data-name="Trazado 1220733" d="M103.321,236.24c-3.352-4.645-12.694-6.282-12.824,1.811s9.807,13.641,13.488,8.743S106.671,240.883,103.321,236.24Z" transform="translate(-88.635 -179.881)" fill="#e0a680" fill-rule="evenodd"/>
          <path id="Trazado_1220734" data-name="Trazado 1220734" d="M96.486,238.649c1.025-.19,3.652,1.379,4.966,3.008s1.075,2.085,1.075,2.085-2.6-.853-3.38.909a3.11,3.11,0,0,0,.791,3.263s-3.435-1.405-4.6-3.319-1.693-3.759-1.54-4.42S95.46,238.841,96.486,238.649Z" transform="translate(-89.499 -181.535)" fill="#ca7d4a" fill-rule="evenodd"/>
          <path id="Trazado_1220735" data-name="Trazado 1220735" d="M167.28,205.481c.079-6.783,7.888-14.65,13.442-6.835s-.2,19.9-6.993,17.585S167.2,212.262,167.28,205.481Z" transform="translate(-108.895 -170.122)" fill="#e0a680" fill-rule="evenodd"/>
          <path id="Trazado_1220736" data-name="Trazado 1220736" d="M178.127,202.613c-1,.453-2.336,3.4-2.493,5.607s.325,2.458.325,2.458,1.746-2.312,3.481-1.251a3.291,3.291,0,0,1,1.283,3.309s2.132-3.292,1.988-5.655-.8-4.283-1.331-4.763S179.131,202.16,178.127,202.613Z" transform="translate(-111.098 -171.887)" fill="#ca7d4a" fill-rule="evenodd"/>
          <path id="Trazado_1220737" data-name="Trazado 1220737" d="M182.272,204.162a.706.706,0,1,1-1.376.314,3.164,3.164,0,0,0-.945-1.821,1.26,1.26,0,0,0-.844-.283,2,2,0,0,0-1,.353,3.932,3.932,0,0,0-1.513,2.093,13.749,13.749,0,0,0-.629,4.016,3.064,3.064,0,0,1,2.882-.574c1.174.4,1.748.844,1.979,1.63a6.026,6.026,0,0,1-.189,2.734.707.707,0,0,1-1.387-.277,5.635,5.635,0,0,0,.222-2.06c-.079-.269-.392-.461-1.072-.69-1.237-.417-2.294,1.024-2.447,1.245a.706.706,0,0,1-1.3-.264,15.139,15.139,0,0,1,.6-6.191,5.349,5.349,0,0,1,2.087-2.844,3.4,3.4,0,0,1,1.728-.579,2.638,2.638,0,0,1,1.765.587A4.505,4.505,0,0,1,182.272,204.162Z" transform="translate(-110.821 -171.592)" fill="#3d1f11" fill-rule="evenodd"/>
          <path id="Trazado_1220738" data-name="Trazado 1220738" d="M95.255,241.636a.705.705,0,1,1-1.309.525,4.29,4.29,0,0,1-.291-2.83,2.542,2.542,0,0,1,1.072-1.432l.048-.029a3.269,3.269,0,0,1,1.629-.461,5.1,5.1,0,0,1,3.18,1.089,14.364,14.364,0,0,1,3.823,4.5.7.7,0,0,1-.886.971v0c-.005,0-1.781-.717-2.558.33-.4.537-.537.846-.458,1.084a5.334,5.334,0,0,0,1.276,1.464.705.705,0,1,1-.977,1.016,5.7,5.7,0,0,1-1.636-2.039,2.449,2.449,0,0,1,.662-2.366,2.913,2.913,0,0,1,2.507-1.13,12.973,12.973,0,0,0-2.609-2.709,3.678,3.678,0,0,0-2.285-.8,1.881,1.881,0,0,0-.919.243l-.029.021a1.157,1.157,0,0,0-.486.653A2.963,2.963,0,0,0,95.255,241.636Z" transform="translate(-89.435 -181.211)" fill="#3d1f11" fill-rule="evenodd"/>
          <path id="Trazado_1220739" data-name="Trazado 1220739" d="M143.055,211.316c1.273-.4,2.753.7,3.3,2.456s-.038,3.5-1.31,3.9-2.754-.7-3.3-2.455S141.782,211.715,143.055,211.316Z" transform="translate(-102.107 -174.303)" fill="#3d1f11" fill-rule="evenodd"/>
          <path id="Trazado_1220740" data-name="Trazado 1220740" d="M145.122,210.852a1.093,1.093,0,1,1-.715,1.369A1.092,1.092,0,0,1,145.122,210.852Z" transform="translate(-102.851 -174.189)" fill="#fff" fill-rule="evenodd"/>
          <path id="Trazado_1220741" data-name="Trazado 1220741" d="M116.368,223.91c1.273-.4,2.754.7,3.3,2.455s-.038,3.5-1.311,3.9-2.754-.7-3.3-2.457S115.1,224.309,116.368,223.91Z" transform="translate(-95.063 -177.627)" fill="#3d1f11" fill-rule="evenodd"/>
          <path id="Trazado_1220742" data-name="Trazado 1220742" d="M117.609,223.4a1.092,1.092,0,1,1-.715,1.369A1.092,1.092,0,0,1,117.609,223.4Z" transform="translate(-95.589 -177.502)" fill="#fff" fill-rule="evenodd"/>
          <path id="Trazado_1220743" data-name="Trazado 1220743" d="M138,200.52c-1.567,1.162-.56,4.336,1.934,3.278s6.332-2.966,5.133-3.719S139.573,199.357,138,200.52Z" transform="translate(-100.976 -171.225)" fill="#3d1f11" fill-rule="evenodd"/>
          <path id="Trazado_1220744" data-name="Trazado 1220744" d="M110.995,211.683c1.81-.735,4,1.777,1.795,3.356s-5.827,3.865-5.846,2.45S109.186,212.416,110.995,211.683Z" transform="translate(-92.976 -174.387)" fill="#3d1f11" fill-rule="evenodd"/>
          <path id="Trazado_1220745" data-name="Trazado 1220745" d="M130.376,233.228a21.155,21.155,0,0,0,6.646-3.051c-.416,1.747-.8,3.743-2.782,4.768C132.926,235.624,128.711,234.189,130.376,233.228Z" transform="translate(-99.059 -179.303)" fill="#ca7d4a" fill-rule="evenodd"/>
          <path id="Trazado_1220746" data-name="Trazado 1220746" d="M145.113,246.328a17.41,17.41,0,0,0,4.694-3.264s.049,2.815-1.484,4.052S141.716,248.112,145.113,246.328Z" transform="translate(-102.748 -182.704)" fill="#ca7d4a" fill-rule="evenodd"/>
          <path id="Trazado_1220747" data-name="Trazado 1220747" d="M134.772,242.078a.707.707,0,1,1,.3-1.382,8.175,8.175,0,0,0,3.233.032,10.014,10.014,0,0,0,4.651-2.241,7.517,7.517,0,0,0,2.531-3.973,5.3,5.3,0,0,0,.043-2.1.705.705,0,1,1,1.387-.254,6.671,6.671,0,0,1-.049,2.651,8.926,8.926,0,0,1-2.989,4.741,11.439,11.439,0,0,1-5.319,2.562A9.6,9.6,0,0,1,134.772,242.078Z" transform="translate(-100.174 -179.674)" fill="#3d1f11" fill-rule="evenodd"/>
          <path id="Trazado_1220748" data-name="Trazado 1220748" d="M119.895,185.794c-1.835,5.157-2.273,8.446-1.146,8.348,3-.26,7.241-6.449,9.257-9.237,3.228,5.4,9,9.689,14.734,9.474,4.672,5.61,9.3,14.977,9.3,14.977-.54-5.074-1.547-11.754-3.889-17.342,3.259-11.407-7.96-29.655-23.448-23.471-3.827-6.488-13.42-4.388-21.158.078-15.821,9.134-24.322,39.5-2.053,49.514C95.028,199.58,111.878,196.65,119.895,185.794Z" transform="translate(-87.967 -161.95)" fill="#512e21" fill-rule="evenodd"/>
          <path id="Trazado_1220749" data-name="Trazado 1220749" d="M145.3,179.059a21.851,21.851,0,0,0-3.133-3.986c-12.105,2.717-32.463-3.15-46.873,3.827a35.745,35.745,0,0,0-7.319,20.476C98.645,177.3,127.6,189.267,145.3,179.059Z" transform="translate(-87.969 -164.758)" fill="#6d4131" fill-rule="evenodd"/>
          <path id="Trazado_1220750" data-name="Trazado 1220750" d="M136.437,167.872c-1.532-6.477-1.583-6.913-.069-6.8s1.962,4.26,1.962,4.26,1.351-3.878,3.191-3.533-1.853,7.807-1.853,7.807S137.969,174.349,136.437,167.872Z" transform="translate(-100.45 -161.06)" fill="#512e21" fill-rule="evenodd"/>
          <path id="Trazado_1220751" data-name="Trazado 1220751" d="M128.808,229.2c.137,2.127,2.333,2.871,1.373-.952-.092-.365-.6-2.09-1.077-2.071C128.723,226.193,128.786,228.845,128.808,229.2Z" transform="translate(-98.742 -178.248)" fill="#fff" fill-rule="evenodd"/>
        </g>
        <g id="Grupo_1242580" data-name="Grupo 1242580" transform="translate(62.295 16.294)">
          <path id="Trazado_1220752" data-name="Trazado 1220752" d="M263.614,131.524c7.281,11.714,8.856,29.1,7.613,39.413-2.311,19.16,3.6,25.756,11.946,38.365s-3.972,30.239-28.457,35.314-72.493-2.558-76.89-15.141c-4.664-13.349,5.054-21.546,12.339-28.292s-2.514-23.544-.966-31.468S235.789,137.7,263.614,131.524Z" transform="translate(-163.693 -131.524)" fill="#3d1f11" fill-rule="evenodd"/>
          <path id="Trazado_1220753" data-name="Trazado 1220753" d="M159.376,282.765c3.874-16.8,16.754-37.065,43.856-45.78,1.842-.593,3.672-1.257,5.565-1.755,16.529-4.346,40.7-7.6,61.039,1.084,22.141,9.452,35.461,35.32,43.468,57.14-14.416,33.73-78.351,30.846-98.7,30.679s-59.425-23.158-55.225-41.368Zm115.469,7.787c.39,5.07,1.011,8.448-.261,12.6-1.535,5-4.555,9.123-6.616,16.43l16.22-15.472c.293-.28-.036.037-2.261-3.605C279.562,296.633,275.039,292.179,274.845,290.551Z" transform="translate(-159.062 -157.741)" fill="#c3211d" fill-rule="evenodd"/>
          <path id="Trazado_1220754" data-name="Trazado 1220754" d="M193.826,264.428a.706.706,0,0,1,1.138-.835c3.124,4.276,3.121,14.543,3.121,14.572a.694.694,0,0,1-.035.219h0c-.014.043-4.89,14.937-5.007,24.109-.024,1.836,2.919,7.386,6.746,11.9,2.679,3.164,5.763,5.77,8.491,6.111a.707.707,0,1,1-.172,1.4c-3.131-.392-6.517-3.2-9.4-6.6-4.017-4.743-7.1-10.746-7.077-12.833.114-8.956,4.6-23.077,5.04-24.425C196.667,276.947,196.5,268.091,193.826,264.428Z" transform="translate(-167.66 -166.307)" fill="#3d1f11" fill-rule="evenodd"/>
          <path id="Trazado_1220755" data-name="Trazado 1220755" d="M229.044,228.441,224.47,217.98c-1.026-1.972,27.375-6.148,27.375-6.148v13.5l11.2.609s-10.484,26.565-23.922,25.235c-15.433-2.079-20.211-19.148-20.224-19.166C221.7,230.981,226.3,229.352,229.044,228.441Z" transform="translate(-174.856 -152.721)" fill="#ca7d4a" fill-rule="evenodd"/>
          <path id="Trazado_1220756" data-name="Trazado 1220756" d="M226.458,217.98c-1.026-1.972,27.375-6.148,27.375-6.148V221c-5.747,5.567-15.165,8.827-22.918,7.338Z" transform="translate(-176.844 -152.721)" fill="#3d1f11" fill-rule="evenodd"/>
          <path id="Trazado_1220757" data-name="Trazado 1220757" d="M282.518,340.456c-22.215,4.944-46.9,4.019-58.188,3.926-6.45-.053-14.779-2.4-23.015-6.158-3.663-11.6-6.188-22.076-5.16-22.419,5.241,7.238,12.228,11.48,31.692,6.488s29.7,4.243,43.172-1.747S283.5,307.57,283.5,307.57a100.715,100.715,0,0,1,1.63,11.343,21.616,21.616,0,0,1-.813,4.485c-1.535,5-4.555,9.123-6.616,16.43l7.249-6.914A21.123,21.123,0,0,1,282.518,340.456Z" transform="translate(-168.792 -177.991)" fill="#b11015" fill-rule="evenodd"/>
          <path id="Trazado_1220758" data-name="Trazado 1220758" d="M299.42,327.679a.7.7,0,1,1-1-.994c16.508-16.548,13.537-25.634,10.433-35.127-.223-.683-.448-1.368-.615-1.9-.006-.018-.011-.039-.015-.057-.461-1.446-.971-3.018-1.5-4.617q-.764-2.322-1.37-4.106c-1.463-4.321-2.427-7-2.43-7.005a.708.708,0,0,1-.04-.29h0l1.169-14.953a.706.706,0,1,1,1.409.1l-1.157,14.81c.227.631,1.161,3.257,2.388,6.88.445,1.315.912,2.711,1.376,4.117.434,1.318.931,2.851,1.5,4.633a.522.522,0,0,1,.021.06c.235.739.422,1.312.609,1.884C313.436,301.032,316.538,310.519,299.42,327.679Z" transform="translate(-195.791 -164.901)" fill="#3d1f11" fill-rule="evenodd"/>
          <path id="Trazado_1220759" data-name="Trazado 1220759" d="M213.6,238.427a.587.587,0,1,1,1.1-.41c2.485,6.648,6.191,12.249,10.945,16.032a23.388,23.388,0,0,0,15.676,5.218c4.365-.148,8.63-3.255,12.4-7.585,5.185-5.952,9.4-14.185,11.716-20.333a.588.588,0,0,1,1.1.414c-2.349,6.252-6.645,14.628-11.928,20.692-3.968,4.555-8.511,7.824-13.253,7.985a24.533,24.533,0,0,1-16.445-5.472C219.989,251.053,216.158,245.273,213.6,238.427Z" transform="translate(-173.448 -157.772)" fill="#3d1f11" fill-rule="evenodd"/>
        </g>
        <g id="Grupo_1242583" data-name="Grupo 1242583" transform="translate(0 136.132)">
          <path id="Trazado_1220760" data-name="Trazado 1220760" d="M109.116,321.3c1.034-19.722,16.408-30.567,29.958-22.405C143.07,302.749,108.816,327,109.116,321.3Z" transform="translate(-83.584 -294.815)" fill="#e0a680" fill-rule="evenodd"/>
          <path id="Trazado_1220761" data-name="Trazado 1220761" d="M123.852,318.607a58.615,58.615,0,0,1-10.072,6.258c.054-4.162,3.1-14.656,7-15.928C124.87,309.533,124.9,315.6,123.852,318.607Z" transform="translate(-84.816 -298.189)" fill="#3d1f11" fill-rule="evenodd"/>
          <path id="Trazado_1220762" data-name="Trazado 1220762" d="M157.894,396.61c.343-.02,18.408,4.734,38.135,15.816s26.5,19.314,26.5,19.314l33.674-54.382s-8-6.135-14.722-8.814-51.506-7.01-51.506-7.01Z" transform="translate(-96.459 -312.072)" fill="#c3211d" fill-rule="evenodd"/>
          <path id="Trazado_1220763" data-name="Trazado 1220763" d="M77.9,357.338c30.256-27.628,48.059-42.447,48.059-42.447s18.929.983,31.268,12.787,13.331,18.5,13.331,18.5L136.671,384.3c-1.844-.869-12.754-14.288-33.427-20.682C88.422,359.037,74.871,360.105,77.9,357.338Z" transform="translate(-75.233 -299.761)" fill="#c3211d" fill-rule="evenodd"/>
          <path id="Trazado_1220764" data-name="Trazado 1220764" d="M75.66,340.323C105.917,312.7,129.1,294.335,129.1,294.335s23.953,2.7,36.293,14.5,13.331,18.5,13.331,18.5l-42.567,50.9s-3.076-16.309-30.7-30.967C89.594,338.1,69.223,346.2,75.66,340.323Z" transform="translate(-74.432 -294.335)" fill="#fff" fill-rule="evenodd"/>
          <path id="Trazado_1220765" data-name="Trazado 1220765" d="M137.442,392.343l-1.286,1.538c-6.545-15.473-35.948-39.429-55.737-31.2-1.259.523-6.305-4.538-5.975-5.282,25.215-13.365,56.168,11.051,62.489,35.2C137.1,392.513,137.272,392.429,137.442,392.343Z" transform="translate(-74.429 -309.98)" fill="#dbdbd9" fill-rule="evenodd"/>
          <path id="Trazado_1220766" data-name="Trazado 1220766" d="M158.285,388.831c24.885-32.552,41.973-52.107,41.973-52.107s25.361-6.576,39.595,2.856,17.985,17.461,17.985,17.461l-32.877,57.63C211.051,393.356,181.545,388.268,158.285,388.831Z" transform="translate(-96.562 -304.935)" fill="#fff" fill-rule="evenodd"/>
          <g id="Grupo_1242581" data-name="Grupo 1242581" transform="translate(77.16 34.6)">
            <path id="Trazado_1220767" data-name="Trazado 1220767" d="M179.99,391.561a.587.587,0,1,1-.289-1.137c7.441-1.906,19.167-2.235,30.1,1.139,8.2,2.531,15.958,7.143,21.162,14.729a.588.588,0,0,1-.972.663c-5.034-7.34-12.568-11.809-20.535-14.269C198.74,389.38,187.264,389.7,179.99,391.561Z" transform="translate(-179.258 -353.922)" fill="#ebebeb" fill-rule="evenodd"/>
            <path id="Trazado_1220768" data-name="Trazado 1220768" d="M188.159,379.407a.587.587,0,0,1-.29-1.138,58.532,58.532,0,0,1,29.832.581c7.875,2.386,15.322,6.92,20.455,14.712a.587.587,0,0,1-.98.644c-4.962-7.531-12.178-11.918-19.815-14.233A57.308,57.308,0,0,0,188.159,379.407Z" transform="translate(-181.414 -350.653)" fill="#ebebeb" fill-rule="evenodd"/>
            <path id="Trazado_1220769" data-name="Trazado 1220769" d="M198.73,366.808a.589.589,0,0,1-.272-1.147,55.72,55.72,0,0,1,28.546.881,38.269,38.269,0,0,1,20.3,14.589.586.586,0,1,1-.961.672,37.121,37.121,0,0,0-19.689-14.137A54.513,54.513,0,0,0,198.73,366.808Z" transform="translate(-184.206 -347.38)" fill="#ebebeb" fill-rule="evenodd"/>
            <path id="Trazado_1220770" data-name="Trazado 1220770" d="M209.583,355.8a.587.587,0,0,1-.29-1.138,47.841,47.841,0,0,1,25.858,1.028,41.743,41.743,0,0,1,20.188,13.929.588.588,0,1,1-.925.727,40.582,40.582,0,0,0-19.626-13.537A46.617,46.617,0,0,0,209.583,355.8Z" transform="translate(-187.069 -344.512)" fill="#ebebeb" fill-rule="evenodd"/>
            <path id="Trazado_1220771" data-name="Trazado 1220771" d="M215.534,343.825a.587.587,0,1,1-.234-1.151c6.722-1.382,16.81-2.3,26.8.445a39.16,39.16,0,0,1,19.777,12.409.588.588,0,0,1-.894.764,37.993,37.993,0,0,0-19.192-12.04C232.02,341.563,222.129,342.469,215.534,343.825Z" transform="translate(-188.647 -341.342)" fill="#ebebeb" fill-rule="evenodd"/>
          </g>
          <path id="Trazado_1220772" data-name="Trazado 1220772" d="M158.285,395.155l1.1-1.436c16.312-8.336,47.2-2.882,63.068,15.483l31.971-50.749a25.651,25.651,0,0,1,3.416,4.911l-32.877,57.63C211.051,399.68,181.545,394.592,158.285,395.155Z" transform="translate(-96.562 -311.259)" fill="#dbdbd9" fill-rule="evenodd"/>
          <path id="Trazado_1220773" data-name="Trazado 1220773" d="M123.133,317.78c-2.5-.421-2.145-6.325-.339-11.422,2.285-6.452,6.7-8.583,9.873-7.874C135.611,304.328,127.756,319.019,123.133,317.78Z" transform="translate(-86.813 -295.396)" fill="#e0a680" fill-rule="evenodd"/>
          <path id="Trazado_1220774" data-name="Trazado 1220774" d="M132.342,302.469a.7.7,0,1,1,1.409-.011,16.549,16.549,0,0,1-.618,4.339,27.243,27.243,0,0,1-4,8.466c-1.782,2.477-3.838,4.179-5.662,4.193a2.934,2.934,0,0,1-.754-.089,2.548,2.548,0,0,1-.347-.09,3.145,3.145,0,0,1-1.926-2.826,14.46,14.46,0,0,1,.186-4.3,33.63,33.63,0,0,1,1.239-4.888.7.7,0,1,1,1.337.442,32.339,32.339,0,0,0-1.183,4.677,13.159,13.159,0,0,0-.182,3.869c.131.88.43,1.513.97,1.694a1.185,1.185,0,0,0,.156.038c.029,0,.06.01.089.018a1.516,1.516,0,0,0,.4.051c1.334-.011,3-1.475,4.53-3.608a25.734,25.734,0,0,0,3.783-8.007A15.108,15.108,0,0,0,132.342,302.469Z" transform="translate(-86.549 -296.295)" fill="#3d1f11" fill-rule="evenodd"/>
          <path id="Trazado_1220775" data-name="Trazado 1220775" d="M233.47,380.169a1.127,1.127,0,0,1,1.918,1.184l-33.31,53.794a1.126,1.126,0,0,1-1.551.367,1.141,1.141,0,0,1-.288-.254c-4.945-6-17.488-14.577-30.642-21.726-12.644-6.872-25.788-12.389-33.2-12.981a1.125,1.125,0,0,1-.683-.3c-25.2-21.341-34.611-22.6-49.624-24.6-2.6-.347-5.371-.716-8.374-1.206a1.129,1.129,0,0,1,.362-2.228c3.023.492,5.744.855,8.3,1.2,15.376,2.051,25.037,3.343,50.557,24.917,7.783.76,21.047,6.326,33.738,13.223,12.56,6.826,24.619,14.99,30.286,21.112Z" transform="translate(-75.046 -314.888)" fill="#b11015" fill-rule="evenodd"/>
          <path id="Trazado_1220776" data-name="Trazado 1220776" d="M199.98,337.982a.589.589,0,1,1,.911.746l-41.356,50.464a.589.589,0,0,1-.912-.746Z" transform="translate(-96.617 -305.799)" fill="#dbdbd9" fill-rule="evenodd"/>
          <g id="Grupo_1242582" data-name="Grupo 1242582" transform="translate(20.474 7.55)">
            <path id="Trazado_1220777" data-name="Trazado 1220777" d="M102.834,344.551a.589.589,0,0,1,0-1.178,52.229,52.229,0,0,1,28.967,8.984,45.413,45.413,0,0,1,17.1,23.153.588.588,0,0,1-1.114.378,44.255,44.255,0,0,0-16.658-22.568A51.018,51.018,0,0,0,102.834,344.551Z" transform="translate(-102.245 -314.828)" fill="#ebebeb" fill-rule="evenodd"/>
            <path id="Trazado_1220778" data-name="Trazado 1220778" d="M111.62,336.416a.59.59,0,1,1,0-1.179c6.469,0,15.663.938,24.373,5.149,8.732,4.222,16.962,11.722,21.454,24.832a.588.588,0,0,1-1.114.378c-4.371-12.757-12.368-20.049-20.851-24.15C126.975,337.333,117.965,336.416,111.62,336.416Z" transform="translate(-104.564 -312.681)" fill="#ebebeb" fill-rule="evenodd"/>
            <path id="Trazado_1220779" data-name="Trazado 1220779" d="M121.7,326.652a.587.587,0,0,1,.018-1.175,56.271,56.271,0,0,1,27.481,8.211,46.245,46.245,0,0,1,17.832,19.791.588.588,0,1,1-1.063.5,45.087,45.087,0,0,0-17.386-19.293A55.042,55.042,0,0,0,121.7,326.652Z" transform="translate(-107.227 -310.104)" fill="#ebebeb" fill-rule="evenodd"/>
            <path id="Trazado_1220780" data-name="Trazado 1220780" d="M135.7,316.24a.59.59,0,1,1,0-1.179c7.185,0,16.373,2.338,24.868,7.671a50.386,50.386,0,0,1,17.809,19.109.589.589,0,1,1-1.041.552,49.2,49.2,0,0,0-17.4-18.666C151.651,318.522,142.7,316.24,135.7,316.24Z" transform="translate(-110.92 -307.355)" fill="#ebebeb" fill-rule="evenodd"/>
            <path id="Trazado_1220781" data-name="Trazado 1220781" d="M142.878,305.767a.588.588,0,0,1,.06-1.174,59.259,59.259,0,0,1,25.847,7.327A46.882,46.882,0,0,1,186.376,329.4a.588.588,0,1,1-1.017.59,45.725,45.725,0,0,0-17.155-17.05A58.047,58.047,0,0,0,142.878,305.767Z" transform="translate(-112.823 -304.592)" fill="#ebebeb" fill-rule="evenodd"/>
          </g>
          <path id="Trazado_1220782" data-name="Trazado 1220782" d="M287.344,343c-2.289-.464-4.3-.436-5.3.139a5.507,5.507,0,0,0-.972,1.211,31.467,31.467,0,0,1,8.093,21.013,31.988,31.988,0,0,1-.681,6.485c6.545-3.93,9.866-9.812,11.83-13.888C301.936,351.909,293.363,344.222,287.344,343Z" transform="translate(-128.972 -307.095)" fill="#e0a680" fill-rule="evenodd"/>
          <path id="Trazado_1220783" data-name="Trazado 1220783" d="M278.621,343.188c7.271-1.948,10.7,8.242,5.923,12.8l-3.726-4.248c-3.535,2.163-5.917,4.05-9.606,3.848C261.687,355.073,275.674,344.152,278.621,343.188Z" transform="translate(-125.505 -307.165)" fill="#e0a680" fill-rule="evenodd"/>
          <path id="Trazado_1220784" data-name="Trazado 1220784" d="M280.2,351.963a.7.7,0,1,1,.735,1.2c-.492.3-.93.576-1.354.843-2.94,1.849-5.239,3.295-8.655,3.108a5.973,5.973,0,0,1-2.811-.705,2.221,2.221,0,0,1-1.132-2.073,4.915,4.915,0,0,1,.862-2.356,25.763,25.763,0,0,1,5.713-5.771.705.705,0,0,1,.862,1.117,24.425,24.425,0,0,0-5.381,5.4,3.619,3.619,0,0,0-.647,1.654.9.9,0,0,0,.47.83,4.659,4.659,0,0,0,2.137.5c2.974.163,5.105-1.178,7.832-2.892C279.278,352.533,279.744,352.24,280.2,351.963Z" transform="translate(-125.252 -307.989)" fill="#3d1f11" fill-rule="evenodd"/>
          <path id="Trazado_1220785" data-name="Trazado 1220785" d="M282.859,355.3A132.088,132.088,0,0,1,274,366.152s-9.109,2.621-11.854,7.612c-1.86,3.384.923,3.154,5.863,1.8a6,6,0,0,0-.871.944c-2.62,3.618,4.617,2.121,14.1-.624,5.292-1.532,8.822-5.953,12.123-9.893,2.614-3.12,5.6-6.078,5.6-6.078l-.5-3.868a31.511,31.511,0,0,0-7.748,1.574l2.757-4.319S285.354,350.43,282.859,355.3Z" transform="translate(-123.823 -309.677)" fill="#e0a680" fill-rule="evenodd"/>
          <path id="Trazado_1220786" data-name="Trazado 1220786" d="M269.991,381.371a.587.587,0,1,1-.438-1.09c2.874-1.15,9.631-3.242,10.746-3.587l4.334-4.844a.587.587,0,0,1,.875.782l-4.436,4.958a.592.592,0,0,1-.274.178C280.775,377.776,273.1,380.129,269.991,381.371Z" transform="translate(-125.834 -314.743)" fill="#3d1f11" fill-rule="evenodd"/>
          <path id="Trazado_1220787" data-name="Trazado 1220787" d="M292.446,376.286a.588.588,0,0,1,.856.806c-2.809,3-5.061,5.2-5.068,5.2a.588.588,0,1,1-.819-.843C287.422,381.446,289.646,379.272,292.446,376.286Z" transform="translate(-130.599 -315.917)" fill="#3d1f11" fill-rule="evenodd"/>
          <path id="Trazado_1220788" data-name="Trazado 1220788" d="M302.637,351.726c36.66-8.03,61.424-9.008,47.461-35.075-.546-1.019-1.75-4.353-2.416-5.451-5.044-1.364-21.636,1.03-28.248,10.988-.186.28-.388.792-.688.952-7.444,3.942-15.621,8.849-23.923,14.325Z" transform="translate(-132.601 -298.694)" fill="#e0a680" fill-rule="evenodd"/>
          <path id="Trazado_1220789" data-name="Trazado 1220789" d="M327.184,325.428a.588.588,0,0,1-.76-.9c2.673-2.272,7.591-4.721,13.04-6.232a33.956,33.956,0,0,1,13.775-1.207.589.589,0,0,1-.174,1.165,32.773,32.773,0,0,0-13.287,1.174C334.49,320.9,329.745,323.252,327.184,325.428Z" transform="translate(-140.887 -300.269)" fill="#3d1f11" fill-rule="evenodd"/>
        </g>
        <g id="Grupo_1242586" data-name="Grupo 1242586" transform="translate(79.745)">
          <path id="Trazado_1220790" data-name="Trazado 1220790" d="M201,156.922c-2.827,17.257-1.122,49.283,31.97,44.164,34.757-5.787,27.743-32.643,23.625-46.444s-23.836-27.6-31.116-25.606S203.826,139.665,201,156.922Z" transform="translate(-187.333 -114.522)" fill="#e0a680" fill-rule="evenodd"/>
          <g id="Grupo_1242585" data-name="Grupo 1242585" transform="translate(18.362 37.779)">
            <g id="Grupo_1242584" data-name="Grupo 1242584" transform="translate(3.856 12.259)">
              <path id="Trazado_1220791" data-name="Trazado 1220791" d="M215.736,177.772c1.651-.087,3.088,1.689,3.208,3.963s-1.124,4.19-2.775,4.277-3.087-1.689-3.206-3.963S214.087,177.859,215.736,177.772Z" transform="translate(-212.954 -177.474)" fill="#3d1f11" fill-rule="evenodd"/>
              <path id="Trazado_1220792" data-name="Trazado 1220792" d="M217.8,177.369a1.213,1.213,0,1,1-1.149,1.274A1.213,1.213,0,0,1,217.8,177.369Z" transform="translate(-213.93 -177.368)" fill="#fff" fill-rule="evenodd"/>
            </g>
            <path id="Trazado_1220793" data-name="Trazado 1220793" d="M246.689,160.906c-2.049.712-2.035,4.411.961,4.119s7.7-1.04,6.677-2.235S248.739,160.194,246.689,160.906Z" transform="translate(-217.626 -160.713)" fill="#3d1f11" fill-rule="evenodd"/>
            <path id="Trazado_1220794" data-name="Trazado 1220794" d="M213.971,163.912c2.162-.177,3.645,3.213.787,4.156s-7.462,2.161-7.011.655S211.808,164.09,213.971,163.912Z" transform="translate(-207.716 -161.555)" fill="#3d1f11" fill-rule="evenodd"/>
            <path id="Trazado_1220795" data-name="Trazado 1220795" d="M229.546,194.382a18.313,18.313,0,0,0,6.875-1.026s-1.528,3.579-3.868,4.131S224.894,194.4,229.546,194.382Z" transform="translate(-212.99 -169.329)" fill="#ca7d4a" fill-rule="evenodd"/>
            <path id="Trazado_1220796" data-name="Trazado 1220796" d="M239.425,213.694a17.776,17.776,0,0,0,6.314-2.428s-.922,3.839-3.042,4.865S235.056,214.671,239.425,213.694Z" transform="translate(-215.653 -174.056)" fill="#ca7d4a" fill-rule="evenodd"/>
            <path id="Trazado_1220797" data-name="Trazado 1220797" d="M227.473,188.972c-.448,2.475,1.853,3.951,1.842-.7,0-.445-.088-2.563-.643-2.679C228.232,185.5,227.549,188.556,227.473,188.972Z" transform="translate(-212.916 -167.279)" fill="#fff" fill-rule="evenodd"/>
            <path id="Trazado_1220798" data-name="Trazado 1220798" d="M243.727,198.909a81.259,81.259,0,0,1-14.228,3.178C230.763,209.147,242.331,214.071,243.727,198.909Z" transform="translate(-213.466 -170.795)" fill="#3d1f11" fill-rule="evenodd"/>
            <path id="Trazado_1220799" data-name="Trazado 1220799" d="M247.931,172.442c1.651-.087,3.088,1.689,3.208,3.963s-1.124,4.19-2.775,4.277-3.086-1.689-3.206-3.963S246.281,172.529,247.931,172.442Z" transform="translate(-217.596 -163.808)" fill="#3d1f11" fill-rule="evenodd"/>
            <path id="Trazado_1220800" data-name="Trazado 1220800" d="M250.612,173.005a1.213,1.213,0,1,1-1.147,1.274A1.213,1.213,0,0,1,250.612,173.005Z" transform="translate(-218.735 -163.957)" fill="#fff" fill-rule="evenodd"/>
          </g>
          <path id="Trazado_1220801" data-name="Trazado 1220801" d="M200.251,169.635c4.6-13.372,7.726-16.532,18.5-22.146-.083,1.913,4.3,5.888,15.982,6.527,9.56,1.184,15.622,1.965,22.771,9.388-.211-.9-.269-5.768-.5-6.605-7.464-7.591-25.842-24.458-29.095-24.835C211.378,130.047,198.663,151.108,200.251,169.635Z" transform="translate(-187.349 -115.314)" fill="#ca7d4a" fill-rule="evenodd"/>
          <path id="Trazado_1220802" data-name="Trazado 1220802" d="M195.653,169.54a34.908,34.908,0,0,1,23.532-34.665c2.02,15.155,15.635,9.014,26.9,14.715,5.718,2.893,8.141,6.8,9.367,14.757,8.25-4.763,19.765-15.443,12.1-35.921-5.529-14.766-22.642-26.112-40.362-13.8-12.243-11.7-38.833-1.656-40.43,33.691C186.111,162.718,196.074,176.784,195.653,169.54Z" transform="translate(-183.815 -109.387)" fill="#512e21" fill-rule="evenodd"/>
          <path id="Trazado_1220803" data-name="Trazado 1220803" d="M264.655,122.015c-27.125,5.3-48.965.311-61.851-4.511a33.39,33.39,0,0,0-8.757,10.973c15.683,4.923,42.62,9.357,74.674.239A32.047,32.047,0,0,0,264.655,122.015Z" transform="translate(-185.747 -111.529)" fill="#6d4131" fill-rule="evenodd"/>
          <path id="Trazado_1220804" data-name="Trazado 1220804" d="M279.358,189.642c-8.149-8.33,4.083-23.244,9.6-20.34C298.778,174.466,288.534,196.357,279.358,189.642Z" transform="translate(-207.546 -125.104)" fill="#e0a680" fill-rule="evenodd"/>
          <path id="Trazado_1220805" data-name="Trazado 1220805" d="M287.943,176.568c-1.215.146-3.607,2.828-4.508,5.113s-.472,2.715-.472,2.715,2.618-1.87,4.1-.168.261,3.932.261,3.932,3.354-2.78,3.986-5.333.576-4.806.172-5.493S289.158,176.42,287.943,176.568Z" transform="translate(-209.189 -127.108)" fill="#ca7d4a" fill-rule="evenodd"/>
          <path id="Trazado_1220806" data-name="Trazado 1220806" d="M291.583,179.616a.707.707,0,0,1-1.409-.11,3.585,3.585,0,0,0-.409-2.295,1.474,1.474,0,0,0-.844-.609,2.3,2.3,0,0,0-1.226.04,4.438,4.438,0,0,0-2.34,1.744,15.422,15.422,0,0,0-2.064,4.223,3.389,3.389,0,0,1,3.326.283c1.088.792,1.538,1.44,1.521,2.319a6.657,6.657,0,0,1-1.1,2.8.706.706,0,0,1-1.238-.679,6.259,6.259,0,0,0,.93-2.144c.006-.339-.272-.666-.941-1.153-1.317-.957-3.127.527-3.132.531h0a.705.705,0,0,1-1.139-.657,16.748,16.748,0,0,1,2.683-6.336,5.87,5.87,0,0,1,3.119-2.291,3.7,3.7,0,0,1,1.979-.04,2.865,2.865,0,0,1,1.634,1.178A4.914,4.914,0,0,1,291.583,179.616Z" transform="translate(-208.832 -126.738)" fill="#3d1f11" fill-rule="evenodd"/>
          <path id="Trazado_1220807" data-name="Trazado 1220807" d="M197.516,187.373c-2.007-6.037-11.367-10.878-14.195-2.341s5.863,17.72,11.393,13.752S199.525,193.41,197.516,187.373Z" transform="translate(-182.77 -128.137)" fill="#e0a680" fill-rule="evenodd"/>
          <path id="Trazado_1220808" data-name="Trazado 1220808" d="M190.068,187.463c1.151.138,3.412,2.676,4.264,4.84s.447,2.567.447,2.567-2.478-1.77-3.885-.158-.247,3.721-.247,3.721-3.174-2.631-3.773-5.046-.545-4.549-.163-5.2S188.918,187.325,190.068,187.463Z" transform="translate(-183.734 -129.984)" fill="#ca7d4a" fill-rule="evenodd"/>
          <path id="Trazado_1220809" data-name="Trazado 1220809" d="M187.584,190.227a.707.707,0,1,1-1.409.11,4.689,4.689,0,0,1,.623-3.049,2.746,2.746,0,0,1,1.567-1.131,3.527,3.527,0,0,1,1.892.038,5.6,5.6,0,0,1,2.971,2.182,15.88,15.88,0,0,1,2.545,6.013.7.7,0,0,1-1.138.657h0c-.005,0-1.694-1.39-2.917-.5-.623.453-.881.753-.875,1.06a5.917,5.917,0,0,0,.876,2.011.706.706,0,0,1-1.238.68,6.3,6.3,0,0,1-1.047-2.669c-.015-.846.414-1.469,1.455-2.226a3.213,3.213,0,0,1,3.109-.3,14.551,14.551,0,0,0-1.924-3.911,4.16,4.16,0,0,0-2.193-1.636,2.14,2.14,0,0,0-1.14-.038,1.365,1.365,0,0,0-.777.562A3.355,3.355,0,0,0,187.584,190.227Z" transform="translate(-183.662 -129.62)" fill="#3d1f11" fill-rule="evenodd"/>
          <path id="Trazado_1220810" data-name="Trazado 1220810" d="M228.3,140.211c-6.312,8.64,1.842,13.17,5,13.634s-6.047-6.562.906-9.668S228.3,140.211,228.3,140.211Z" transform="translate(-194.171 -117.523)" fill="#512e21" fill-rule="evenodd"/>
          <path id="Trazado_1220811" data-name="Trazado 1220811" d="M276.363,174.115c-13.424,7.891-4.771,15.166-1.616,15.631s-6.242-4.651,2.837-13.71C278.8,174.819,276.363,174.115,276.363,174.115Z" transform="translate(-205.552 -126.472)" fill="#512e21" fill-rule="evenodd"/>
          <path id="Trazado_1220812" data-name="Trazado 1220812" d="M198.062,180.487c12.207,9.006,4.556,15.562,1.38,15.84s6.5-4.276-2.025-13.853C196.272,181.188,198.062,180.487,198.062,180.487Z" transform="translate(-186.535 -128.153)" fill="#512e21" fill-rule="evenodd"/>
        </g>
        <g id="Grupo_1242587" data-name="Grupo 1242587" transform="translate(163.337 29.023)">
          <path id="Trazado_1220813" data-name="Trazado 1220813" d="M317.213,179.412c-7.918,13.373-18.364,40.041,11.611,46.793,27.351,6.161,34.1-17.952,35.154-30.71.516-6.279-7.832-17.169-18.458-21.3C334.556,169.928,321.235,172.622,317.213,179.412Z" transform="translate(-299.629 -154.974)" fill="#e0a680" fill-rule="evenodd"/>
          <path id="Trazado_1220814" data-name="Trazado 1220814" d="M315.725,189.756c4.28-2.948,9.733-9.281,9.733-9.281s3.172,4.149,6.762,4.243,3.821-.978,3.821-.978,2.741,3.618,5.947,3.473,3.563-1.265,3.563-1.265,4.515,3.753,7.2,4.173,2.84-.759,2.84-.759A9.881,9.881,0,0,1,360.025,197c.2,5.1,1.6,5.991,1.6,5.991l3.506-17.2s-25.48-12.3-26.442-12.718-15.569-.226-16.474.069S311.445,192.7,315.725,189.756Z" transform="translate(-301.172 -155.155)" fill="#ca7d4a" fill-rule="evenodd"/>
          <path id="Trazado_1220815" data-name="Trazado 1220815" d="M310.461,184.041c-6.587-43.6,47.04-41.172,49.556-22.491,9.709-.89,18.789,14.614,5.528,33.861a15.625,15.625,0,0,1-4.667,4.641c-4.642,2.768-.705-6.58-.629-11.232s-7.081-11.77-7.081-11.77.569,5.553-3.1,3.512-8.488-7.176-8.488-7.176,1.571,6.707-1.518,5.152-10.038-8.655-10.038-8.655,5.676,6.862,2.223,6.48-8.681-5.5-8.681-5.5-8.664,15.044-11.457,14.655C311.683,185.459,310.56,184.949,310.461,184.041Z" transform="translate(-299.918 -148.818)" fill="#512e21" fill-rule="evenodd"/>
          <path id="Trazado_1220816" data-name="Trazado 1220816" d="M327.256,152.867a30.674,30.674,0,0,1,11.8-3.75c6.841,9.963,17.258,18.5,36.832,21.6a19.994,19.994,0,0,1,.884,5.724C349.441,176.224,334.909,162.647,327.256,152.867Z" transform="translate(-304.499 -148.897)" fill="#6d4131" fill-rule="evenodd"/>
          <path id="Trazado_1220817" data-name="Trazado 1220817" d="M356.436,203.188c1.227.479,1.689,2.241,1.027,3.932s-2.193,2.675-3.42,2.2-1.688-2.241-1.028-3.933S355.209,202.709,356.436,203.188Z" transform="translate(-311.219 -163.137)" fill="#3d1f11" fill-rule="evenodd"/>
          <path id="Trazado_1220818" data-name="Trazado 1220818" d="M358.921,203.95a1.079,1.079,0,1,1-1.4.613A1.081,1.081,0,0,1,358.921,203.95Z" transform="translate(-312.468 -163.35)" fill="#fff" fill-rule="evenodd"/>
          <path id="Trazado_1220819" data-name="Trazado 1220819" d="M328.1,196.4c1.228.479,1.687,2.241,1.028,3.932s-2.193,2.675-3.42,2.2-1.689-2.241-1.028-3.932S326.875,195.922,328.1,196.4Z" transform="translate(-303.74 -161.345)" fill="#3d1f11" fill-rule="evenodd"/>
          <path id="Trazado_1220820" data-name="Trazado 1220820" d="M329.976,196.621a1.078,1.078,0,1,1-1.4.612A1.078,1.078,0,0,1,329.976,196.621Z" transform="translate(-304.828 -161.416)" fill="#fff" fill-rule="evenodd"/>
          <path id="Trazado_1220821" data-name="Trazado 1220821" d="M359.425,191.866c-1.928-.074-3.112,2.994-.536,3.719s6.709,1.628,6.249.308S361.352,191.938,359.425,191.866Z" transform="translate(-312.458 -160.18)" fill="#3d1f11" fill-rule="evenodd"/>
          <path id="Trazado_1220822" data-name="Trazado 1220822" d="M331.1,184.238c1.848.554,1.978,3.837-.692,3.694s-6.875-.623-6.015-1.725S329.249,183.686,331.1,184.238Z" transform="translate(-303.712 -158.134)" fill="#3d1f11" fill-rule="evenodd"/>
          <path id="Trazado_1220823" data-name="Trazado 1220823" d="M332.691,214.414a25.07,25.07,0,0,0,7.159.938c-.871.792-2.347,2.673-4.829,2.527S330.322,213.8,332.691,214.414Z" transform="translate(-305.666 -166.114)" fill="#ca7d4a" fill-rule="evenodd"/>
          <path id="Trazado_1220824" data-name="Trazado 1220824" d="M335.6,232.588a22.11,22.11,0,0,0,5.318.222c4.94.017-1.839,3.091-2.779,3.094C335.652,235.911,330.841,231.663,335.6,232.588Z" transform="translate(-306.168 -170.894)" fill="#ca7d4a" fill-rule="evenodd"/>
          <path id="Trazado_1220825" data-name="Trazado 1220825" d="M331.772,225.732a.85.85,0,0,1,.056-1c.322-.358,11.493-.77,11.764-.6a.807.807,0,0,1,.25.945,6.15,6.15,0,0,1-5.292,4.05A7.461,7.461,0,0,1,331.772,225.732Z" transform="translate(-305.655 -168.688)" fill="#fff" fill-rule="evenodd"/>
          <path id="Trazado_1220826" data-name="Trazado 1220826" d="M332.344,209.274c-1.19,1.82.147,3.772,1.7.063.149-.354.792-2.071.389-2.35C334.117,206.765,332.544,208.968,332.344,209.274Z" transform="translate(-305.721 -164.167)" fill="#fff" fill-rule="evenodd"/>
          <path id="Trazado_1220827" data-name="Trazado 1220827" d="M375.988,214.708c4.25-5.176,15.126-6.411,14.575,3.039s-12.446,15.2-16.251,9.223S371.738,219.882,375.988,214.708Z" transform="translate(-316.317 -165.157)" fill="#e0a680" fill-rule="evenodd"/>
          <path id="Trazado_1220828" data-name="Trazado 1220828" d="M387.95,218.533c-1.055-.272-3.9,1.175-5.384,2.776S381.3,223.4,381.3,223.4s2.773-.7,3.453,1.188a3.249,3.249,0,0,1-1.055,3.34s3.676-1.218,5.024-3.127,2.032-3.793,1.918-4.491S389,218.8,387.95,218.533Z" transform="translate(-318.76 -167.21)" fill="#ca7d4a" fill-rule="evenodd"/>
          <path id="Trazado_1220829" data-name="Trazado 1220829" d="M389.859,222.361a.7.7,0,1,1-1.27-.613,3.122,3.122,0,0,0,.4-1.983,1.24,1.24,0,0,0-.471-.732,1.972,1.972,0,0,0-.986-.347,3.869,3.869,0,0,0-2.453.675,13.587,13.587,0,0,0-2.953,2.688,3.031,3.031,0,0,1,2.563,1.344h0a2.534,2.534,0,0,1,.517,2.485,5.944,5.944,0,0,1-1.839,1.993.706.706,0,1,1-.907-1.083,5.556,5.556,0,0,0,1.442-1.445c.1-.251-.019-.59-.4-1.186h0v0c-.744-1.164-2.67-.537-2.676-.536a.706.706,0,0,1-.818-1.033,14.974,14.974,0,0,1,4.292-4.4,5.294,5.294,0,0,1,3.37-.9,3.372,3.372,0,0,1,1.693.624,2.616,2.616,0,0,1,1,1.549A4.436,4.436,0,0,1,389.859,222.361Z" transform="translate(-318.396 -166.883)" fill="#3d1f11" fill-rule="evenodd"/>
          <path id="Trazado_1220830" data-name="Trazado 1220830" d="M309.6,200.271c-.3-5.647-7.174-12-11.611-5.355s.843,16.566,6.517,14.471S309.9,205.917,309.6,200.271Z" transform="translate(-296.338 -160.235)" fill="#e0a680" fill-rule="evenodd"/>
          <path id="Trazado_1220831" data-name="Trazado 1220831" d="M303.647,198.318c.953.391,2.293,3.1,2.513,5.152s-.224,2.307-.224,2.307-1.7-2.1-3.292-1.053a3.074,3.074,0,0,0-1.088,3.132s-2.1-3-2.042-5.215.6-4.027,1.086-4.492S302.693,197.927,303.647,198.318Z" transform="translate(-297.176 -161.771)" fill="#ca7d4a" fill-rule="evenodd"/>
          <path id="Trazado_1220832" data-name="Trazado 1220832" d="M300.921,200.138a.706.706,0,0,1-1.387-.265,4.24,4.24,0,0,1,1.276-2.511,2.517,2.517,0,0,1,1.664-.617,3.212,3.212,0,0,1,1.652.489,5.051,5.051,0,0,1,2.063,2.612,14.142,14.142,0,0,1,.77,5.777.705.705,0,0,1-1.289.319c-.138-.184-1.157-1.489-2.274-1.067-.612.23-.89.411-.95.646a5.26,5.26,0,0,0,.275,1.895.707.707,0,0,1-1.376.326,5.66,5.66,0,0,1-.269-2.569c.194-.759.724-1.2,1.822-1.619a2.878,2.878,0,0,1,2.679.395,12.789,12.789,0,0,0-.713-3.627,3.611,3.611,0,0,0-1.46-1.877,1.838,1.838,0,0,0-.928-.291,1.131,1.131,0,0,0-.746.28A2.9,2.9,0,0,0,300.921,200.138Z" transform="translate(-297.178 -161.468)" fill="#3d1f11" fill-rule="evenodd"/>
        </g>
        <path id="Trazado_1220833" data-name="Trazado 1220833" d="M325.612,252.036c-6.1,1.675-10.952,4.688-10.36,6.741.9,3.109,8.079-1.064,8.079-1.064s-6.01,4.161-4.152,5.246,7.121-1.908,7.121-1.908-4.394,4.372-3.307,5.473c1.747,1.769,5.744-2.964,5.744-2.964,2.383,4.21,9.189,6.669,12.743,4.737,1.761-.957,2.146-1.223,3.927-3.42C342.078,259.468,331.712,250.36,325.612,252.036Z" transform="translate(-137.981 -146.985)" fill="#e0a680" fill-rule="evenodd"/>
      </g>
      <g id="Grupo_1242593" data-name="Grupo 1242593" transform="translate(238.33 259.868)">
        <g id="Grupo_1242590" data-name="Grupo 1242590" transform="translate(0 17.859)">
          <g id="Grupo_1242589" data-name="Grupo 1242589">
            <path id="Trazado_1220834" data-name="Trazado 1220834" d="M338.43,375.395l46.661-.329,20.321,38.026c2.226,4.681.018,9.324-1.49,11.772l-66.254.855Z" transform="translate(-336.889 -373.914)" fill="#415323" fill-rule="evenodd"/>
            <path id="Trazado_1220835" data-name="Trazado 1220835" d="M339.525,376.255l45.675-.885,18.115,37.459c1.016,1.833,2.163,6.792.443,9.388l-63.929.83c1.669-4.436.687-7.486-.075-10.014-.076-10.152-.5-20.3-.578-30.457Z" transform="translate(-337.33 -374.003)" fill="#fff" fill-rule="evenodd"/>
            <path id="Trazado_1220836" data-name="Trazado 1220836" d="M338.5,374l46.662-.559,20.319,38.3-67.581.8Z" transform="translate(-336.956 -373.439)" fill="#617937" fill-rule="evenodd"/>
            <path id="Trazado_1220837" data-name="Trazado 1220837" d="M347.286,396.99l-.229,15.751,50.9-.6-7.437-15.848Z" transform="translate(-339.63 -380.108)" fill="#a5c26b" fill-rule="evenodd"/>
            <path id="Trazado_1220838" data-name="Trazado 1220838" d="M344.827,438.724a.376.376,0,0,1-.012-.753l58.8-1.149a.376.376,0,1,1,.012.753Z" transform="translate(-338.867 -391.94)" fill="#dbdbd9" fill-rule="evenodd"/>
            <path id="Trazado_1220839" data-name="Trazado 1220839" d="M408.994,432.3l6.014.106c1.311,2.835.516,7.212-.838,9.929l-1.728-2.556-4.275,2.16A19.6,19.6,0,0,0,408.994,432.3Z" transform="translate(-357.466 -390.619)" fill="#c3211d" fill-rule="evenodd"/>
            <path id="Trazado_1220840" data-name="Trazado 1220840" d="M344.705,433a.376.376,0,0,1,0-.753l58.765-.237a.376.376,0,0,1,0,.753Z" transform="translate(-338.833 -390.535)" fill="#dbdbd9" fill-rule="evenodd"/>
            <path id="Trazado_1220841" data-name="Trazado 1220841" d="M404.4,410.93a.941.941,0,1,1,.023,1.882l-66.907.8a.942.942,0,0,1-.952-.93c0-12.566.394-25.3.591-37.878a.941.941,0,1,1,1.882.023l-.576,36.892Z" transform="translate(-336.568 -373.564)" fill="#3d1f11" fill-rule="evenodd"/>
          </g>
        </g>
        <g id="Grupo_1242592" data-name="Grupo 1242592" transform="translate(3.456)">
          <path id="Trazado_1220842" data-name="Trazado 1220842" d="M342.659,420.6c4.494.807,62.736,1.67,62.736,1.67l-1.729-3.342Z" transform="translate(-341.802 -368.857)" fill="#3d1f11" fill-rule="evenodd"/>
          <g id="Grupo_1242591" data-name="Grupo 1242591">
            <path id="Trazado_1220843" data-name="Trazado 1220843" d="M343.311,350.175l46.661-.329,20.32,38.026c2.226,4.681.017,9.324-1.49,11.772l-66.254.855Z" transform="translate(-341.77 -348.694)" fill="#bf7119" fill-rule="evenodd"/>
            <path id="Trazado_1220844" data-name="Trazado 1220844" d="M344.406,351.034l45.676-.885,18.115,37.46c1.015,1.833,2.163,6.793.443,9.389l-63.928.83c1.668-4.437.686-7.486-.076-10.014-.076-10.152-.5-20.3-.578-30.457Z" transform="translate(-342.211 -348.782)" fill="#fff" fill-rule="evenodd"/>
            <path id="Trazado_1220845" data-name="Trazado 1220845" d="M343.378,348.778l46.661-.559,20.319,38.3-67.581.8Z" transform="translate(-341.837 -348.219)" fill="#da8d1b" fill-rule="evenodd"/>
            <path id="Trazado_1220846" data-name="Trazado 1220846" d="M352.167,371.77l-.229,15.751,50.9-.605L395.4,371.067Z" transform="translate(-344.511 -354.888)" fill="#bf7119" fill-rule="evenodd"/>
            <path id="Trazado_1220847" data-name="Trazado 1220847" d="M349.708,413.5a.376.376,0,1,1-.012-.753l58.8-1.149a.376.376,0,0,1,.013.753Z" transform="translate(-343.748 -366.72)" fill="#dbdbd9" fill-rule="evenodd"/>
            <path id="Trazado_1220848" data-name="Trazado 1220848" d="M413.875,407.079l6.014.107c1.31,2.835.515,7.212-.839,9.929l-1.728-2.556-4.276,2.16A19.588,19.588,0,0,0,413.875,407.079Z" transform="translate(-362.347 -365.399)" fill="#c3211d" fill-rule="evenodd"/>
            <path id="Trazado_1220849" data-name="Trazado 1220849" d="M349.587,407.781a.376.376,0,0,1,0-.753l58.765-.237a.376.376,0,1,1,0,.753Z" transform="translate(-343.714 -365.315)" fill="#dbdbd9" fill-rule="evenodd"/>
            <path id="Trazado_1220850" data-name="Trazado 1220850" d="M409.286,385.71a.942.942,0,0,1,.022,1.883l-66.907.8a.942.942,0,0,1-.952-.93c0-12.565.394-25.3.59-37.878a.941.941,0,1,1,1.882.023l-.574,36.893Z" transform="translate(-341.449 -348.345)" fill="#bf7119" fill-rule="evenodd"/>
          </g>
        </g>
      </g>
      <g id="Grupo_1242594" data-name="Grupo 1242594" transform="translate(252.158 31.001)">
        <path id="Trazado_1220851" data-name="Trazado 1220851" d="M399.224,49.7A33.823,33.823,0,1,1,365.4,83.527,33.823,33.823,0,0,1,399.224,49.7Z" transform="translate(-365.401 -47.082)" fill="#3d1f11" fill-rule="evenodd"/>
        <path id="Trazado_1220852" data-name="Trazado 1220852" d="M399.224,46A33.823,33.823,0,1,1,365.4,79.824,33.823,33.823,0,0,1,399.224,46Z" transform="translate(-365.401 -46.001)" fill="#c3211d" fill-rule="evenodd"/>
        <path id="Trazado_1220853" data-name="Trazado 1220853" d="M402.24,109.346A26.506,26.506,0,1,0,375.734,82.84,26.557,26.557,0,0,0,402.24,109.346Z" transform="translate(-368.417 -49.017)" fill="#d8d8d8" fill-rule="evenodd"/>
        <path id="Trazado_1220854" data-name="Trazado 1220854" d="M402.24,56.335A26.39,26.39,0,0,1,417.823,61.4a26.506,26.506,0,0,1-35.59,38.827A26.5,26.5,0,0,1,402.24,56.335Z" transform="translate(-368.417 -49.017)" fill="#fff" fill-rule="evenodd"/>
        <path id="Trazado_1220855" data-name="Trazado 1220855" d="M412.164,59.768a.567.567,0,0,1,1.134,0v4.24a.567.567,0,0,1-1.134,0Z" transform="translate(-379.05 -49.854)" fill="#3d1f11" fill-rule="evenodd"/>
        <path id="Trazado_1220856" data-name="Trazado 1220856" d="M428.278,63.911a.564.564,0,0,1,.979.562l-2.119,3.672a.565.565,0,0,1-.979-.562Z" transform="translate(-383.113 -51.146)" fill="#3d1f11" fill-rule="evenodd"/>
        <path id="Trazado_1220857" data-name="Trazado 1220857" d="M440.278,75.988a.565.565,0,0,1,.563.979l-3.672,2.12a.565.565,0,1,1-.563-.979Z" transform="translate(-386.102 -54.732)" fill="#3d1f11" fill-rule="evenodd"/>
        <path id="Trazado_1220858" data-name="Trazado 1220858" d="M444.948,92.765a.567.567,0,0,1,0,1.134h-4.24a.567.567,0,0,1,0-1.134Z" transform="translate(-387.216 -59.651)" fill="#3d1f11" fill-rule="evenodd"/>
        <path id="Trazado_1220859" data-name="Trazado 1220859" d="M441.04,108.878a.564.564,0,1,1-.562.979l-3.672-2.12a.565.565,0,1,1,.563-.979Z" transform="translate(-386.16 -63.713)" fill="#3d1f11" fill-rule="evenodd"/>
        <path id="Trazado_1220860" data-name="Trazado 1220860" d="M429.6,120.875a.566.566,0,1,1-.979.567L426.5,117.77a.566.566,0,1,1,.979-.567Z" transform="translate(-383.214 -66.701)" fill="#3d1f11" fill-rule="evenodd"/>
        <path id="Trazado_1220861" data-name="Trazado 1220861" d="M413.7,125.548a.567.567,0,1,1-1.134,0v-4.24a.567.567,0,1,1,1.134,0Z" transform="translate(-379.167 -67.816)" fill="#3d1f11" fill-rule="evenodd"/>
        <path id="Trazado_1220862" data-name="Trazado 1220862" d="M396.713,121.641a.565.565,0,0,1-.979-.562l2.12-3.672a.565.565,0,0,1,.979.562Z" transform="translate(-374.233 -66.76)" fill="#3d1f11" fill-rule="evenodd"/>
        <path id="Trazado_1220863" data-name="Trazado 1220863" d="M384.076,110.2a.566.566,0,1,1-.567-.979l3.672-2.12a.566.566,0,1,1,.567.979Z" transform="translate(-370.604 -63.814)" fill="#3d1f11" fill-rule="evenodd"/>
        <path id="Trazado_1220864" data-name="Trazado 1220864" d="M379.168,94.3a.567.567,0,1,1,0-1.134h4.24a.567.567,0,0,1,0,1.134Z" transform="translate(-369.254 -59.767)" fill="#3d1f11" fill-rule="evenodd"/>
        <path id="Trazado_1220865" data-name="Trazado 1220865" d="M383.311,77.315a.564.564,0,1,1,.563-.979l3.671,2.12a.564.564,0,1,1-.562.979Z" transform="translate(-370.546 -54.833)" fill="#3d1f11" fill-rule="evenodd"/>
        <path id="Trazado_1220866" data-name="Trazado 1220866" d="M395.388,64.676a.566.566,0,0,1,.979-.566l2.119,3.672a.565.565,0,1,1-.979.566Z" transform="translate(-374.131 -51.204)" fill="#3d1f11" fill-rule="evenodd"/>
        <path id="Trazado_1220867" data-name="Trazado 1220867" d="M412.6,94.567A1.363,1.363,0,1,0,411.24,93.2,1.366,1.366,0,0,0,412.6,94.567Z" transform="translate(-378.781 -59.381)" fill="#3d1f11" fill-rule="evenodd"/>
        <path id="Trazado_1220868" data-name="Trazado 1220868" d="M405.669,108.538c.089-3.75,2.645-12.34,5.322-14.771C411.5,97.345,407.992,105.592,405.669,108.538Z" transform="translate(-377.154 -59.943)" fill="#3d1f11" fill-rule="evenodd"/>
        <path id="Trazado_1220869" data-name="Trazado 1220869" d="M432.908,98.38c-4.831.427-16.234-1.617-19.743-4.7C417.689,92.5,428.788,95.821,432.908,98.38Z" transform="translate(-379.342 -59.846)" fill="#3d1f11" fill-rule="evenodd"/>
      </g>
    </g>
  </g>
</svg>
