<svg xmlns="http://www.w3.org/2000/svg" xmlns:xlink="http://www.w3.org/1999/xlink" width="113" height="113" viewBox="0 0 113 113">
  <defs>
    <filter id="Trazado_982547" x="0" y="0" width="113" height="113" filterUnits="userSpaceOnUse">
      <feOffset dy="3" input="SourceAlpha"/>
      <feGaussianBlur stdDeviation="3" result="blur"/>
      <feFlood flood-opacity="0.161"/>
      <feComposite operator="in" in2="blur"/>
      <feComposite in="SourceGraphic"/>
    </filter>
  </defs>
  <g id="Grupo_1242618" data-name="Grupo 1242618" transform="translate(-670.49 -5170.167)">
    <g id="Grupo_1242100" data-name="Grupo 1242100" transform="translate(0 -7513)">
      <g id="Grupo_1240427" data-name="Grupo 1240427" transform="translate(679.49 12689.167)">
        <g id="Grupo_1239780" data-name="Grupo 1239780" transform="translate(0 0)">
          <g id="Grupo_1236603" data-name="Grupo 1236603">
            <g id="Grupo_1236145" data-name="Grupo 1236145">
              <g id="Grupo_1235107" data-name="Grupo 1235107">
                <g id="Grupo_1223796" data-name="Grupo 1223796">
                  <g id="Grupo_1208038" data-name="Grupo 1208038">
                    <g id="Grupo_1202104" data-name="Grupo 1202104">
                      <g id="Grupo_1201923" data-name="Grupo 1201923">
                        <g id="Grupo_1176928" data-name="Grupo 1176928" transform="translate(0)">
                          <g id="Grupo_1172322" data-name="Grupo 1172322">
                            <g id="Grupo_1164700" data-name="Grupo 1164700">
                              <g id="Grupo_1160931" data-name="Grupo 1160931">
                                <g id="Grupo_1160749" data-name="Grupo 1160749">
                                  <g id="Grupo_1158891" data-name="Grupo 1158891">
                                    <g id="Grupo_1157406" data-name="Grupo 1157406">
                                      <g id="Grupo_1155793" data-name="Grupo 1155793">
                                        <g id="Grupo_1154704" data-name="Grupo 1154704">
                                          <g id="Grupo_1150790" data-name="Grupo 1150790">
                                            <g id="Grupo_1154214" data-name="Grupo 1154214" transform="translate(0)">
                                              <g id="Grupo_1152583" data-name="Grupo 1152583">
                                                <g id="Grupo_1146973" data-name="Grupo 1146973">
                                                  <g id="Grupo_1146954" data-name="Grupo 1146954">
                                                    <g transform="matrix(1, 0, 0, 1, -9, -6)" filter="url(#Trazado_982547)">
                                                      <g id="Trazado_982547-2" data-name="Trazado 982547" transform="translate(9 6)" fill="#d9d5e3">
                                                        <path d="M 47.50000762939453 93.49986267089844 C 41.28937911987305 93.49986267089844 35.26534271240234 92.28383636474609 29.59519386291504 89.88558197021484 C 24.11772727966309 87.56880950927734 19.19814109802246 84.25183868408203 14.97310066223145 80.02679443359375 C 10.74804782867432 75.8017578125 7.431074142456055 70.88218688964844 5.114300727844238 65.40471649169922 C 2.716034412384033 59.73458480834961 1.500007629394531 53.71054458618164 1.500007629394531 47.49993133544922 C 1.500007629394531 41.2893180847168 2.716034412384033 35.26527786254883 5.114300727844238 29.59514427185059 C 7.431074142456055 24.11767768859863 10.74804782867432 19.19810485839844 14.97310066223145 14.97306442260742 C 19.19814109802246 10.74802494049072 24.11772727966309 7.431051254272461 29.59519386291504 5.114277839660645 C 35.26534271240234 2.71602463722229 41.28937911987305 1.499997973442078 47.50000762939453 1.499997973442078 C 53.71063613891602 1.499997973442078 59.73467254638672 2.71602463722229 65.40482330322266 5.114277839660645 C 70.88228607177734 7.431051254272461 75.80187225341797 10.74802494049072 80.02691650390625 14.97306442260742 C 84.25196838378906 19.19810485839844 87.56893920898438 24.11767768859863 89.88571166992188 29.59514427185059 C 92.28398132324219 35.26527786254883 93.50000762939453 41.2893180847168 93.50000762939453 47.49993133544922 C 93.50000762939453 53.71054458618164 92.28398132324219 59.73458480834961 89.88571166992188 65.40471649169922 C 87.56893920898438 70.88218688964844 84.25196838378906 75.8017578125 80.02691650390625 80.02679443359375 C 75.80187225341797 84.25183868408203 70.88228607177734 87.56880950927734 65.40482330322266 89.88558197021484 C 59.73467254638672 92.28383636474609 53.71063613891602 93.49986267089844 47.50000762939453 93.49986267089844 Z" stroke="none"/>
                                                        <path d="M 47.50000762939453 2.999992370605469 C 41.4912223815918 2.999992370605469 35.66377639770508 4.1761474609375 30.17951202392578 6.495796203613281 C 24.88085174560547 8.736930847167969 20.12152862548828 11.94596099853516 16.03376007080078 16.03372955322266 C 11.94597625732422 20.12148284912109 8.736961364746094 24.88080596923828 6.495803833007812 30.17946624755859 C 4.176162719726562 35.66371536254883 3.000007629394531 41.49116134643555 3.000007629394531 47.49993133544922 C 3.000007629394531 53.50870132446289 4.176162719726562 59.33614730834961 6.495803833007812 64.82038879394531 C 8.736961364746094 70.11905670166016 11.94597625732422 74.87836456298828 16.03376007080078 78.96613311767578 C 20.12152862548828 83.05390167236328 24.88085174560547 86.26291656494141 30.17951202392578 88.50406646728516 C 35.66377639770508 90.82369995117188 41.4912223815918 91.99985504150391 47.50000762939453 91.99985504150391 C 53.50879287719727 91.99985504150391 59.33623886108398 90.82369995117188 64.82049560546875 88.50406646728516 C 70.11916351318359 86.26291656494141 74.87848663330078 83.05390167236328 78.96625518798828 78.96613311767578 C 83.05403900146484 74.87836456298828 86.26305389404297 70.11905670166016 88.50421142578125 64.82038879394531 C 90.8238525390625 59.33614730834961 92.00000762939453 53.50870132446289 92.00000762939453 47.49993133544922 C 92.00000762939453 41.49116134643555 90.8238525390625 35.66371536254883 88.50421142578125 30.17946624755859 C 86.26305389404297 24.88080596923828 83.05403900146484 20.12148284912109 78.96625518798828 16.03372955322266 C 74.87848663330078 11.94596099853516 70.11916351318359 8.736930847167969 64.82049560546875 6.495796203613281 C 59.33623886108398 4.1761474609375 53.50879287719727 2.999992370605469 47.50000762939453 2.999992370605469 M 47.50000762939453 -7.62939453125e-06 C 73.73352813720703 -7.62939453125e-06 95.00000762939453 21.26644134521484 95.00000762939453 47.49993133544922 C 95.00000762939453 73.73342132568359 73.73352813720703 94.99985504150391 47.50000762939453 94.99985504150391 C 21.26648712158203 94.99985504150391 7.62939453125e-06 73.73342132568359 7.62939453125e-06 47.49993133544922 C 7.62939453125e-06 21.26644134521484 21.26648712158203 -7.62939453125e-06 47.50000762939453 -7.62939453125e-06 Z" stroke="none" fill="#453179"/>
                                                      </g>
                                                    </g>
                                                  </g>
                                                </g>
                                              </g>
                                            </g>
                                          </g>
                                        </g>
                                      </g>
                                    </g>
                                  </g>
                                </g>
                              </g>
                            </g>
                          </g>
                        </g>
                      </g>
                    </g>
                  </g>
                </g>
              </g>
            </g>
          </g>
        </g>
      </g>
    </g>
    <g id="casa" transform="translate(695.949 5183.708)">
      <g id="Grupo_1242607" data-name="Grupo 1242607" transform="translate(8.414 27.5)">
        <path id="Trazado_1220889" data-name="Trazado 1220889" d="M114.545,173.206,96.231,154.888l-4.812,4.645-4.809-4.645L68.293,173.206v20.958a2.318,2.318,0,0,0,2.3,2.309H76.35V182.834c0-3.513,2.2-4.847,4.034-5.633a4.8,4.8,0,1,1,7,0,5.932,5.932,0,0,1,3.821,3.876c.07-.007.143-.007.213-.007s.147,0,.217.007a5.92,5.92,0,0,1,3.817-3.876,4.8,4.8,0,1,1,7.006,0c1.83.786,4.034,2.12,4.034,5.633v13.638h5.759a2.315,2.315,0,0,0,2.294-2.309V173.206Z" transform="translate(-68.293 -154.888)" fill="#fff" fill-rule="evenodd"/>
      </g>
      <g id="Grupo_1242608" data-name="Grupo 1242608" transform="translate(19.235 10.833)">
        <path id="Trazado_1220890" data-name="Trazado 1220890" d="M178.721,30.983a6.622,6.622,0,1,0-9.2-9.531l-1.1,1.055-1.093-1.055a6.623,6.623,0,0,0-9.2,9.531l.677.653,4.805,4.634,4.809,4.645,4.812-4.645,4.8-4.634Z" transform="translate(-156.124 -19.603)" fill="#ff7b79" fill-rule="evenodd"/>
      </g>
      <g id="Grupo_1242609" data-name="Grupo 1242609" transform="translate(36.352 22.866)">
        <path id="Trazado_1220891" data-name="Trazado 1220891" d="M319.589,136.99l-19.721-19.718-4.8,4.634,18.313,18.317,1.488,1.488a3.339,3.339,0,1,0,4.721-4.722Z" transform="translate(-295.066 -117.272)" fill="#ffe6b4" fill-rule="evenodd"/>
      </g>
      <g id="Grupo_1242610" data-name="Grupo 1242610" transform="translate(1.234 22.866)">
        <path id="Trazado_1220892" data-name="Trazado 1220892" d="M17.192,140.223l18.317-18.318L30.7,117.271,10.986,136.989a3.32,3.32,0,0,0-.974,2.35v.021a3.335,3.335,0,0,0,5.7,2.35Z" transform="translate(-10.012 -117.271)" fill="#ffe6b4" fill-rule="evenodd"/>
      </g>
      <g id="Grupo_1242611" data-name="Grupo 1242611" transform="translate(19.205 41.728)">
        <path id="Trazado_1220893" data-name="Trazado 1220893" d="M165.484,275.177a4.8,4.8,0,1,0-1.3,3.283A4.8,4.8,0,0,0,165.484,275.177Z" transform="translate(-155.884 -270.375)" fill="#ffdcd5" fill-rule="evenodd"/>
      </g>
      <g id="Grupo_1242612" data-name="Grupo 1242612" transform="translate(16.47 49.813)">
        <path id="Trazado_1220894" data-name="Trazado 1220894" d="M148.544,339.876A5.931,5.931,0,0,0,144.724,336a4.794,4.794,0,0,1-7,0c-1.83.786-4.034,2.12-4.034,5.633v13.638h9.443v-5.158a4.27,4.27,0,0,1,3.01-4.208,3.585,3.585,0,0,1,2.4-6.028Z" transform="translate(-133.688 -336)" fill="#ff7b79" fill-rule="evenodd"/>
      </g>
      <g id="Grupo_1242613" data-name="Grupo 1242613" transform="translate(34.274 41.728)">
        <path id="Trazado_1220895" data-name="Trazado 1220895" d="M287.8,275.177a4.8,4.8,0,1,0-1.3,3.283A4.8,4.8,0,0,0,287.8,275.177Z" transform="translate(-278.199 -270.375)" fill="#ffdcd5" fill-rule="evenodd"/>
      </g>
      <g id="Grupo_1242614" data-name="Grupo 1242614" transform="translate(31.756 49.813)">
        <path id="Trazado_1220896" data-name="Trazado 1220896" d="M272.616,341.632c0-3.513-2.2-4.847-4.034-5.633a4.8,4.8,0,0,1-7.006,0,5.92,5.92,0,0,0-3.817,3.876,3.582,3.582,0,0,1,2.4,6.028,4.269,4.269,0,0,1,3.014,4.208v5.158h9.443V341.632Z" transform="translate(-257.76 -335.999)" fill="#a0c8ff" fill-rule="evenodd"/>
      </g>
      <g id="Grupo_1242615" data-name="Grupo 1242615" transform="translate(27.957 53.683)">
        <path id="Trazado_1220897" data-name="Trazado 1220897" d="M234.09,370.991a3.588,3.588,0,0,0-3.37-3.58c-.07,0-.143,0-.217,0s-.143,0-.213,0a3.585,3.585,0,1,0,3.8,3.58Z" transform="translate(-226.92 -367.408)" fill="#ffdcd5" fill-rule="evenodd"/>
      </g>
      <g id="Grupo_1242616" data-name="Grupo 1242616" transform="translate(25.913 59.718)">
        <path id="Trazado_1220898" data-name="Trazado 1220898" d="M221.592,420.6a4.268,4.268,0,0,0-3.014-4.208,3.582,3.582,0,0,1-5.232,0,4.27,4.27,0,0,0-3.01,4.208v5.158h11.256V420.6Z" transform="translate(-210.336 -416.393)" fill="#ffcd69" fill-rule="evenodd"/>
      </g>
      <path id="Trazado_1220899" data-name="Trazado 1220899" d="M61.746,41.713l-6.939-6.936a1.232,1.232,0,0,0-1.742,1.743L60,43.454a2.107,2.107,0,1,1-2.978,2.981L38.11,27.516l3.029-2.923,4.1,4.1a1.232,1.232,0,1,0,1.742-1.743l-4.077-4.074A7.853,7.853,0,0,0,31.782,11.794l-.241.232L31.3,11.8A7.854,7.854,0,0,0,20.172,22.876L1.337,41.713a4.567,4.567,0,0,0,3.228,7.8h0a4.544,4.544,0,0,0,2.614-.818V66.776a3.544,3.544,0,0,0,3.54,3.54H52.357a3.544,3.544,0,0,0,3.54-3.54V48.691a4.57,4.57,0,0,0,5.848-6.979ZM21.971,13.7a5.345,5.345,0,0,1,3.781-1.639h.1a5.353,5.353,0,0,1,3.74,1.5l1.093,1.055a1.232,1.232,0,0,0,1.71,0l1.1-1.056a5.39,5.39,0,0,1,7.484,7.758L31.54,30.433,22.1,21.327a5.4,5.4,0,0,1-.133-7.622ZM4.568,47.048h0a2.085,2.085,0,0,1-1.487-.613,2.109,2.109,0,0,1,0-2.979L21.94,24.593l3.031,2.925L7.578,44.914c-.024.022-.046.045-.068.068L6.058,46.434a2.092,2.092,0,0,1-1.491.614ZM24,50.1a3.57,3.57,0,1,1,3.57-3.57A3.572,3.572,0,0,1,24,50.1Zm-3.718,1.175a6.011,6.011,0,0,0,7.44,0,4.81,4.81,0,0,1,1.894,1.577,4.811,4.811,0,0,0-2.463,6.4,5.167,5.167,0,0,0-2.474,4.671v3.926H17.7V55.446a4.213,4.213,0,0,1,2.583-4.171ZM39.076,50.1a3.57,3.57,0,1,1,3.57-3.57A3.574,3.574,0,0,1,39.076,50.1Zm-3.722,1.174a6.015,6.015,0,0,0,7.443,0,4.213,4.213,0,0,1,2.583,4.171V67.852H38.4V63.926a5.165,5.165,0,0,0-2.475-4.671,4.809,4.809,0,0,0-2.465-6.4,4.8,4.8,0,0,1,1.892-1.577Zm-3.814,3.64a2.353,2.353,0,1,1-2.351,2.351A2.356,2.356,0,0,1,31.54,54.915Zm-2.8,6.265a4.8,4.8,0,0,0,5.61,0,2.8,2.8,0,0,1,1.591,2.746v3.926H27.146V63.926A2.807,2.807,0,0,1,28.735,61.179Zm23.622,6.673H47.844V55.446a6.574,6.574,0,0,0-3.437-6.095,6.034,6.034,0,1,0-10.663,0,7.153,7.153,0,0,0-2.2,1.951,7.165,7.165,0,0,0-2.206-1.951,6.032,6.032,0,1,0-10.659,0,6.574,6.574,0,0,0-3.437,6.094V67.852H10.722a1.091,1.091,0,0,1-1.076-1.076V46.331l17.1-17.1,3.94,3.8a1.232,1.232,0,0,0,1.711,0l3.942-3.8,17.1,17.1V66.776a1.078,1.078,0,0,1-1.077,1.076Z" transform="translate(0 0)"/>
      <g id="Grupo_1242617" data-name="Grupo 1242617" transform="translate(48.792 30.501)">
        <path id="Trazado_1220900" data-name="Trazado 1220900" d="M397.272,181.71a1.226,1.226,0,0,1-1.1-.678l0-.007a1.229,1.229,0,1,1,1.1.685Z" transform="translate(-396.04 -179.242)"/>
      </g>
    </g>
  </g>
</svg>
