<svg xmlns="http://www.w3.org/2000/svg" xmlns:xlink="http://www.w3.org/1999/xlink" width="113" height="113" viewBox="0 0 113 113">
  <defs>
    <filter id="Trazado_982547" x="0" y="0" width="113" height="113" filterUnits="userSpaceOnUse">
      <feOffset dy="3" input="SourceAlpha"/>
      <feGaussianBlur stdDeviation="3" result="blur"/>
      <feFlood flood-opacity="0.161"/>
      <feComposite operator="in" in2="blur"/>
      <feComposite in="SourceGraphic"/>
    </filter>
  </defs>
  <g id="Grupo_1242476" data-name="Grupo 1242476" transform="translate(-271 -906.963)">
    <g id="Grupo_1241844" data-name="Grupo 1241844" transform="translate(0 -3985)">
      <g id="Grupo_1241013" data-name="Grupo 1241013" transform="translate(-84.344 -7791.204)">
        <g id="Grupo_1240425" data-name="Grupo 1240425" transform="translate(364.344 12689.168)">
          <g id="Grupo_1239772" data-name="Grupo 1239772" transform="translate(0 0)">
            <g id="Grupo_1236602" data-name="Grupo 1236602">
              <g id="Grupo_1236144" data-name="Grupo 1236144">
                <g id="Grupo_1235105" data-name="Grupo 1235105">
                  <g id="Grupo_1223793" data-name="Grupo 1223793">
                    <g id="Grupo_1208028" data-name="Grupo 1208028">
                      <g id="Grupo_1177675" data-name="Grupo 1177675">
                        <g id="Grupo_1176928" data-name="Grupo 1176928" transform="translate(0)">
                          <g id="Grupo_1172322" data-name="Grupo 1172322">
                            <g id="Grupo_1164700" data-name="Grupo 1164700">
                              <g id="Grupo_1160931" data-name="Grupo 1160931">
                                <g id="Grupo_1160749" data-name="Grupo 1160749">
                                  <g id="Grupo_1158891" data-name="Grupo 1158891">
                                    <g id="Grupo_1157406" data-name="Grupo 1157406">
                                      <g id="Grupo_1155793" data-name="Grupo 1155793">
                                        <g id="Grupo_1154704" data-name="Grupo 1154704">
                                          <g id="Grupo_1150790" data-name="Grupo 1150790">
                                            <g id="Grupo_1154214" data-name="Grupo 1154214" transform="translate(0)">
                                              <g id="Grupo_1152583" data-name="Grupo 1152583">
                                                <g id="Grupo_1146973" data-name="Grupo 1146973">
                                                  <g id="Grupo_1146954" data-name="Grupo 1146954">
                                                    <g transform="matrix(1, 0, 0, 1, -9, -6)" filter="url(#Trazado_982547)">
                                                      <g id="Trazado_982547-2" data-name="Trazado 982547" transform="translate(9 6)" fill="#c3f3fb">
                                                        <path d="M 47.50000762939453 93.49986267089844 C 41.28937911987305 93.49986267089844 35.26534271240234 92.28383636474609 29.59519386291504 89.88558197021484 C 24.11772727966309 87.56880950927734 19.19814109802246 84.25183868408203 14.97310066223145 80.02679443359375 C 10.74804782867432 75.8017578125 7.431074142456055 70.88218688964844 5.114300727844238 65.40471649169922 C 2.716034412384033 59.73458480834961 1.500007629394531 53.71054458618164 1.500007629394531 47.49993133544922 C 1.500007629394531 41.2893180847168 2.716034412384033 35.26527786254883 5.114300727844238 29.59514427185059 C 7.431074142456055 24.11767768859863 10.74804782867432 19.19810485839844 14.97310066223145 14.97306442260742 C 19.19814109802246 10.74802494049072 24.11772727966309 7.431051254272461 29.59519386291504 5.114277839660645 C 35.26534271240234 2.71602463722229 41.28937911987305 1.499997973442078 47.50000762939453 1.499997973442078 C 53.71063613891602 1.499997973442078 59.73467254638672 2.71602463722229 65.40482330322266 5.114277839660645 C 70.88228607177734 7.431051254272461 75.80187225341797 10.74802494049072 80.02691650390625 14.97306442260742 C 84.25196838378906 19.19810485839844 87.56893920898438 24.11767768859863 89.88571166992188 29.59514427185059 C 92.28398132324219 35.26527786254883 93.50000762939453 41.2893180847168 93.50000762939453 47.49993133544922 C 93.50000762939453 53.71054458618164 92.28398132324219 59.73458480834961 89.88571166992188 65.40471649169922 C 87.56893920898438 70.88218688964844 84.25196838378906 75.8017578125 80.02691650390625 80.02679443359375 C 75.80187225341797 84.25183868408203 70.88228607177734 87.56880950927734 65.40482330322266 89.88558197021484 C 59.73467254638672 92.28383636474609 53.71063613891602 93.49986267089844 47.50000762939453 93.49986267089844 Z" stroke="none"/>
                                                        <path d="M 47.50000762939453 2.999992370605469 C 41.4912223815918 2.999992370605469 35.66377639770508 4.1761474609375 30.17951202392578 6.495796203613281 C 24.88085174560547 8.736930847167969 20.12152862548828 11.94596099853516 16.03376007080078 16.03372955322266 C 11.94597625732422 20.12148284912109 8.736961364746094 24.88080596923828 6.495803833007812 30.17946624755859 C 4.176162719726562 35.66371536254883 3.000007629394531 41.49116134643555 3.000007629394531 47.49993133544922 C 3.000007629394531 53.50870132446289 4.176162719726562 59.33614730834961 6.495803833007812 64.82038879394531 C 8.736961364746094 70.11905670166016 11.94597625732422 74.87836456298828 16.03376007080078 78.96613311767578 C 20.12152862548828 83.05390167236328 24.88085174560547 86.26291656494141 30.17951202392578 88.50406646728516 C 35.66377639770508 90.82369995117188 41.4912223815918 91.99985504150391 47.50000762939453 91.99985504150391 C 53.50879287719727 91.99985504150391 59.33623886108398 90.82369995117188 64.82049560546875 88.50406646728516 C 70.11916351318359 86.26291656494141 74.87848663330078 83.05390167236328 78.96625518798828 78.96613311767578 C 83.05403900146484 74.87836456298828 86.26305389404297 70.11905670166016 88.50421142578125 64.82038879394531 C 90.8238525390625 59.33614730834961 92.00000762939453 53.50870132446289 92.00000762939453 47.49993133544922 C 92.00000762939453 41.49116134643555 90.8238525390625 35.66371536254883 88.50421142578125 30.17946624755859 C 86.26305389404297 24.88080596923828 83.05403900146484 20.12148284912109 78.96625518798828 16.03372955322266 C 74.87848663330078 11.94596099853516 70.11916351318359 8.736930847167969 64.82049560546875 6.495796203613281 C 59.33623886108398 4.1761474609375 53.50879287719727 2.999992370605469 47.50000762939453 2.999992370605469 M 47.50000762939453 -7.62939453125e-06 C 73.73352813720703 -7.62939453125e-06 95.00000762939453 21.26644134521484 95.00000762939453 47.49993133544922 C 95.00000762939453 73.73342132568359 73.73352813720703 94.99985504150391 47.50000762939453 94.99985504150391 C 21.26648712158203 94.99985504150391 7.62939453125e-06 73.73342132568359 7.62939453125e-06 47.49993133544922 C 7.62939453125e-06 21.26644134521484 21.26648712158203 -7.62939453125e-06 47.50000762939453 -7.62939453125e-06 Z" stroke="none" fill="#497f88"/>
                                                      </g>
                                                    </g>
                                                  </g>
                                                </g>
                                              </g>
                                            </g>
                                          </g>
                                        </g>
                                      </g>
                                    </g>
                                  </g>
                                </g>
                              </g>
                            </g>
                          </g>
                        </g>
                      </g>
                    </g>
                  </g>
                </g>
              </g>
            </g>
          </g>
        </g>
      </g>
    </g>
    <g id="Layer_33" data-name="Layer 33" transform="translate(297.975 930.938)">
      <path id="Trazado_1220313" data-name="Trazado 1220313" d="M45.072,1A11.072,11.072,0,0,1,56.144,12.072V27.757a7.381,7.381,0,0,1-7.381,7.381H41.381A7.381,7.381,0,0,1,34,27.757V12.072A11.072,11.072,0,0,1,45.072,1Z" transform="translate(-2.63 -0.077)" fill="#c67a60"/>
      <path id="Trazado_1220314" data-name="Trazado 1220314" d="M32.37,42.258V60.68H4.691A3.691,3.691,0,0,1,1,56.989V42.258a7.381,7.381,0,0,1,5.352-7.1L13.917,33h5.536l7.566,2.161A7.381,7.381,0,0,1,32.37,42.258Z" transform="translate(-0.077 -2.552)" fill="#62b5e8"/>
      <path id="Trazado_1220315" data-name="Trazado 1220315" d="M3.768,56.989V42.258a7.381,7.381,0,0,1,5.352-7.1L16.685,33H13.917L6.351,35.161A7.381,7.381,0,0,0,1,42.258V56.989A3.691,3.691,0,0,0,4.691,60.68H7.459A3.691,3.691,0,0,1,3.768,56.989Z" transform="translate(-0.077 -2.552)" fill="#44a7d8"/>
      <path id="Trazado_1220316" data-name="Trazado 1220316" d="M36.768,27.757V12.072a11.066,11.066,0,0,1,9.687-10.98A11,11,0,0,0,34,12.072V27.757a7.381,7.381,0,0,0,7.381,7.381h2.768A7.381,7.381,0,0,1,36.768,27.757Z" transform="translate(-2.63 -0.077)" fill="#b26049"/>
      <path id="Trazado_1220317" data-name="Trazado 1220317" d="M60.37,42.258V56.989A3.691,3.691,0,0,1,56.68,60.68H29V42.258a7.381,7.381,0,0,1,5.352-7.1L41.917,33h5.536l7.566,2.161A7.381,7.381,0,0,1,60.37,42.258Z" transform="translate(-2.243 -2.552)" fill="#f2a7b1"/>
      <path id="Trazado_1220318" data-name="Trazado 1220318" d="M43,28h5.536v4.613a2.768,2.768,0,0,1-5.536,0Z" transform="translate(-3.326 -2.166)" fill="#ffddb0" stroke="#000" stroke-linecap="round" stroke-linejoin="round" stroke-width="2"/>
      <path id="Trazado_1220319" data-name="Trazado 1220319" d="M9,11H25.608V21.149A8.3,8.3,0,0,1,9,21.149Z" transform="translate(-0.696 -0.851)" fill="#f7d1c6"/>
      <path id="Trazado_1220320" data-name="Trazado 1220320" d="M25.222,24.6l-2.261-1.8a3.691,3.691,0,0,0-2.3-.8H14.018a3.69,3.69,0,0,0-2.3.8L9.456,24.6a8.3,8.3,0,0,0,15.766,0Z" transform="translate(-0.731 -1.702)" fill="#c67a60"/>
      <path id="Trazado_1220321" data-name="Trazado 1220321" d="M8.768,15v5.536a2.768,2.768,0,1,1,0-5.536Z" transform="translate(-0.464 -1.16)" fill="#f4b19f"/>
      <path id="Trazado_1220322" data-name="Trazado 1220322" d="M2.768,0V5.536A2.768,2.768,0,0,1,2.768,0Z" transform="translate(27.68 19.376) rotate(180)" fill="#f7d1c6"/>
      <path id="Trazado_1220323" data-name="Trazado 1220323" d="M45.3,29.453a8.3,8.3,0,0,1-8.3-8.3V14.691h3.691A7.381,7.381,0,0,0,46.6,11.738L47.149,11l.554.738a7.381,7.381,0,0,0,5.905,2.953v6.459A8.3,8.3,0,0,1,45.3,29.453Z" transform="translate(-2.862 -0.851)" fill="#f7d1c6"/>
      <path id="Trazado_1220324" data-name="Trazado 1220324" d="M11.768,21.149V11H9V21.149a8.259,8.259,0,0,0,9.688,8.179,8.3,8.3,0,0,1-6.92-8.179Z" transform="translate(-0.696 -0.851)" fill="#f4b19f"/>
      <path id="Trazado_1220325" data-name="Trazado 1220325" d="M36.768,15v5.536a2.768,2.768,0,1,1,0-5.536Z" transform="translate(-2.63 -1.16)" fill="#f4b19f"/>
      <path id="Trazado_1220326" data-name="Trazado 1220326" d="M2.768,0V5.536A2.768,2.768,0,1,1,2.768,0Z" transform="translate(53.514 19.376) rotate(180)" fill="#f7d1c6"/>
      <path id="Trazado_1220327" data-name="Trazado 1220327" d="M22.608,3.757V2.845A1.845,1.845,0,0,0,20.763,1H13.671A7.671,7.671,0,0,0,6,8.671a5.246,5.246,0,0,0,5.246,5.246,16.608,16.608,0,0,0,10.374-3.639l.065-.052a3.691,3.691,0,0,0,3.691,3.691V5.6a1.845,1.845,0,0,0-1.845-1.845Z" transform="translate(-0.464 -0.077)" fill="#c67a60"/>
      <path id="Trazado_1220328" data-name="Trazado 1220328" d="M57,49.012h5.536v9.216a3.691,3.691,0,0,1-3.691,3.691H57Z" transform="translate(-4.408 -3.791)" fill="#f7d1c6"/>
      <path id="Trazado_1220329" data-name="Trazado 1220329" d="M22.577,53.031H13.35a7.381,7.381,0,0,0-7.381,7.381v1.817H29.958V60.412A7.381,7.381,0,0,0,22.577,53.031Z" transform="translate(-0.462 -4.101)" fill="#f96464"/>
      <path id="Trazado_1220330" data-name="Trazado 1220330" d="M17,53h3.691v.923a1.845,1.845,0,0,1-3.691,0Z" transform="translate(-1.315 -4.099)" fill="#f7d1c6"/>
      <path id="Trazado_1220331" data-name="Trazado 1220331" d="M11,37H25.763v7.381a7.381,7.381,0,1,1-14.763,0Z" transform="translate(-0.851 -2.862)" fill="#f7d1c6"/>
      <path id="Trazado_1220332" data-name="Trazado 1220332" d="M13.768,44.381V37H11v7.381a7.367,7.367,0,0,0,8.765,7.247A7.381,7.381,0,0,1,13.768,44.381Z" transform="translate(-0.851 -2.862)" fill="#f4b19f"/>
      <path id="Trazado_1220333" data-name="Trazado 1220333" d="M18.723,30.244a8.581,8.581,0,0,1-1.384.12,8.28,8.28,0,0,1-7.88-5.7l2.261-1.8a.554.554,0,0,1,.12-.083,8.292,8.292,0,0,0,6.883,7.464Z" transform="translate(-0.732 -1.762)" fill="#b26049"/>
      <path id="Trazado_1220334" data-name="Trazado 1220334" d="M9.845,41h.923v3.691H9.845a1.845,1.845,0,1,1,0-3.691Z" transform="translate(-0.619 -3.171)" fill="#f4b19f"/>
      <path id="Trazado_1220335" data-name="Trazado 1220335" d="M1.845,0h.923V3.691H1.845A1.845,1.845,0,0,1,1.845,0Z" transform="translate(27.68 41.552) rotate(180)" fill="#f7d1c6"/>
      <path id="Trazado_1220336" data-name="Trazado 1220336" d="M25.763,40.072H21.755a3.691,3.691,0,0,1-2.61-1.081l-.764-.764-.764.764a3.691,3.691,0,0,1-2.61,1.081H11V36.381a7.381,7.381,0,1,1,14.763,0Z" transform="translate(-0.851 -2.243)" fill="#c67a60"/>
      <path id="Trazado_1220337" data-name="Trazado 1220337" d="M19.765,29.134A7.367,7.367,0,0,0,11,36.381v3.691h2.768V36.381a7.381,7.381,0,0,1,6-7.247Z" transform="translate(-0.851 -2.243)" fill="#b26049"/>
      <path id="Trazado_1220338" data-name="Trazado 1220338" d="M53.3,43H34.845L33,52.227H55.144Z" transform="translate(-2.552 -3.326)" fill="#c67a60"/>
      <path id="Trazado_1220339" data-name="Trazado 1220339" d="M37,37H51.763v7.381a7.381,7.381,0,0,1-14.763,0Z" transform="translate(-2.862 -2.862)" fill="#f7d1c6"/>
      <g id="Grupo_1242475" data-name="Grupo 1242475" transform="translate(31.37 13.84)">
        <path id="Trazado_1220340" data-name="Trazado 1220340" d="M39.768,44.381V37H37v7.381a7.367,7.367,0,0,0,8.765,7.247A7.381,7.381,0,0,1,39.768,44.381Z" transform="translate(-34.232 -16.702)" fill="#f4b19f"/>
        <path id="Trazado_1220341" data-name="Trazado 1220341" d="M35.845,41h.923v3.691h-.923a1.845,1.845,0,1,1,0-3.691Z" transform="translate(-34 -17.011)" fill="#f4b19f"/>
        <path id="Trazado_1220342" data-name="Trazado 1220342" d="M39.768,21.459V15H37v6.459a8.259,8.259,0,0,0,9.688,8.179,8.3,8.3,0,0,1-6.92-8.179Z" transform="translate(-34.232 -15)" fill="#f4b19f"/>
      </g>
      <path id="Trazado_1220343" data-name="Trazado 1220343" d="M1.845,0h.923V3.691H1.845A1.845,1.845,0,0,1,1.845,0Z" transform="translate(51.669 41.552) rotate(180)" fill="#f7d1c6"/>
      <path id="Trazado_1220344" data-name="Trazado 1220344" d="M51.608,40.072H47.917l-1.845-1.845-1.845,1.845H36.845A1.845,1.845,0,0,1,35,38.227a9.227,9.227,0,0,1,18.453,0A1.845,1.845,0,0,1,51.608,40.072Z" transform="translate(-2.707 -2.243)" fill="#c67a60"/>
      <path id="Trazado_1220345" data-name="Trazado 1220345" d="M37.768,38.227a9.22,9.22,0,0,1,7.843-9.111A9.16,9.16,0,0,0,35,38.227a1.845,1.845,0,0,0,1.845,1.845h2.768A1.845,1.845,0,0,1,37.768,38.227Z" transform="translate(-2.707 -2.243)" fill="#b26049"/>
      <path id="Trazado_1220346" data-name="Trazado 1220346" d="M11.537,59.613V57.768A2.768,2.768,0,0,0,8.769,55c-.1,0-.191.019-.287.029a7.358,7.358,0,0,0-2.465,4.74,2.762,2.762,0,0,0,5.52-.155Z" transform="translate(-0.465 -4.254)" fill="#d34444"/>
      <path id="Trazado_1220347" data-name="Trazado 1220347" d="M48.577,53.031H39.35a7.381,7.381,0,0,0-7.381,7.381v1.817H55.958V60.412A7.381,7.381,0,0,0,48.577,53.031Z" transform="translate(-2.473 -4.101)" fill="#fcab68"/>
      <path id="Trazado_1220348" data-name="Trazado 1220348" d="M42.118,53.031H39.35a7.381,7.381,0,0,0-7.381,7.381v1.817h2.768V60.412A7.381,7.381,0,0,1,42.118,53.031Z" transform="translate(-2.473 -4.101)" fill="#ea8e49"/>
      <path id="Trazado_1220349" data-name="Trazado 1220349" d="M43,53h3.691v.923a1.845,1.845,0,0,1-3.691,0Z" transform="translate(-3.326 -4.099)" fill="#f7d1c6"/>
      <rect id="Rect치ngulo_424212" data-name="Rect치ngulo 424212" width="5" height="7" rx="2.5" transform="translate(4 51)" fill="#f7d1c6"/>
      <path id="Trazado_1220350" data-name="Trazado 1220350" d="M5.928,59.613V57.768a2.759,2.759,0,0,1,1.845-2.6A2.737,2.737,0,0,0,6.851,55a2.768,2.768,0,0,0-2.768,2.768v1.845a2.768,2.768,0,0,0,2.768,2.768,2.737,2.737,0,0,0,.923-.17,2.759,2.759,0,0,1-1.845-2.6Z" transform="translate(-0.316 -4.254)" fill="#f4b19f"/>
      <rect id="Rect치ngulo_424213" data-name="Rect치ngulo 424213" width="5" height="7" rx="2.5" transform="translate(50 51)" fill="#f7d1c6"/>
      <path id="Trazado_1220351" data-name="Trazado 1220351" d="M8.768,8.671A7.671,7.671,0,0,1,16.439,1H13.671A7.671,7.671,0,0,0,6,8.671a5.246,5.246,0,0,0,5.246,5.246,16.556,16.556,0,0,0,1.74-.1A5.246,5.246,0,0,1,8.768,8.671Z" transform="translate(-0.464 -0.077)" fill="#b26049"/>
      <path id="Trazado_1220352" data-name="Trazado 1220352" d="M55.845,59.613V57.768a2.759,2.759,0,0,1,1.845-2.6,2.733,2.733,0,0,0-.923-.17A2.768,2.768,0,0,0,54,57.768v1.845a2.768,2.768,0,0,0,2.768,2.768,2.733,2.733,0,0,0,.923-.17,2.759,2.759,0,0,1-1.845-2.6Z" transform="translate(-4.176 -4.254)" fill="#f4b19f"/>
      <path id="Trazado_1220353" data-name="Trazado 1220353" d="M40.923,17a.923.923,0,0,0-.923.923V18.8a.923.923,0,1,0,1.845,0v-.877A.923.923,0,0,0,40.923,17Z" transform="translate(-3.094 -1.315)"/>
      <path id="Trazado_1220354" data-name="Trazado 1220354" d="M50.923,19.768a.923.923,0,0,0,.923-.923v-.923a.923.923,0,1,0-1.845,0v.923A.923.923,0,0,0,50.923,19.768Z" transform="translate(-3.867 -1.315)"/>
      <path id="Trazado_1220355" data-name="Trazado 1220355" d="M46.961,25.27a1.417,1.417,0,0,1-2.386,0,.923.923,0,1,0-1.3,1.3,3.215,3.215,0,0,0,5,0,.923.923,0,1,0-1.3-1.3Z" transform="translate(-3.326 -1.934)"/>
      <path id="Trazado_1220356" data-name="Trazado 1220356" d="M12.923,19.768a.923.923,0,0,0,.923-.923v-.923a.923.923,0,0,0-1.845,0v.923A.923.923,0,0,0,12.923,19.768Z" transform="translate(-0.928 -1.315)"/>
      <path id="Trazado_1220357" data-name="Trazado 1220357" d="M22.923,19.768a.923.923,0,0,0,.923-.923v-.923a.923.923,0,0,0-1.845,0v.923A.923.923,0,0,0,22.923,19.768Z" transform="translate(-1.702 -1.315)"/>
      <path id="Trazado_1220358" data-name="Trazado 1220358" d="M20.266,25.27a.923.923,0,0,0-1.3,0,1.417,1.417,0,0,1-2.386,0,.923.923,0,1,0-1.3,1.3,3.563,3.563,0,0,0,2.5,1.193,3.563,3.563,0,0,0,2.5-1.191.923.923,0,0,0,0-1.306Z" transform="translate(-1.16 -1.934)"/>
      <path id="Trazado_1220359" data-name="Trazado 1220359" d="M53.33,31.821a8.329,8.329,0,0,0,1.107-4.141V11.995a11.995,11.995,0,1,0-23.989,0V27.68a8.338,8.338,0,0,0,1.116,4.152,8.269,8.269,0,0,0-2.03.985A8.239,8.239,0,0,0,27.2,31.726l-1.915-.551a8.331,8.331,0,0,0-2.852-3.728A9.272,9.272,0,0,0,25.834,20.3v-.131a3.673,3.673,0,0,0,0-7.119V5.525a2.768,2.768,0,0,0-2.768-2.768A2.768,2.768,0,0,0,20.3,0H13.207A8.6,8.6,0,0,0,4.613,8.594a6.153,6.153,0,0,0,2.151,4.67,3.674,3.674,0,0,0,.617,6.9V20.3a9.21,9.21,0,0,0,4.4,7.864,8.34,8.34,0,0,0-1.737,2.411L6.023,31.722A8.338,8.338,0,0,0,0,39.706V54.437A4.619,4.619,0,0,0,4.613,59.05H54.437a4.619,4.619,0,0,0,4.613-4.613V39.706A8.335,8.335,0,0,0,53.33,31.821ZM57.2,39.706V44.3H52.612L52.02,41.34a2.738,2.738,0,0,0-.722-4,2.738,2.738,0,0,0,.37-1.357,10.091,10.091,0,0,0-.414-2.849l1.266.362A6.485,6.485,0,0,1,57.2,39.706ZM54.437,55.36a1.845,1.845,0,1,1-3.691,0V53.514a1.845,1.845,0,1,1,3.691,0ZM27.68,50.152V41.723a2.723,2.723,0,0,0,.269-3.812,6.429,6.429,0,0,1,3.673-4.146,10.118,10.118,0,0,0-.252,2.22,2.738,2.738,0,0,0,.369,1.357,2.738,2.738,0,0,0-.721,4l-1.47,7.381a.923.923,0,0,0,.905,1.107H31.7a8.358,8.358,0,0,0-2.2,2.716,8.344,8.344,0,0,0-1.821-2.393ZM8.3,39.674a.923.923,0,0,1,.923-.923V40.6A.923.923,0,0,1,8.3,39.674Zm2.768-.923h3.084A4.582,4.582,0,0,0,17.418,37.4l.113-.113.113.113A4.582,4.582,0,0,0,20.9,38.752h3.084V41.52a6.459,6.459,0,0,1-12.917,0Zm15.685.923a.923.923,0,0,1-.923.923V38.752A.923.923,0,0,1,26.757,39.674Zm-8.3,10.149a.923.923,0,1,1-1.845,0Zm7.327-7.381h.054v6.435A8.212,8.212,0,0,0,22.7,48.01a8.3,8.3,0,0,0,3.083-5.567Zm6.513-22.657a3.659,3.659,0,0,0,.923.382V20.3a9.156,9.156,0,0,0,3.17,6.945,10.214,10.214,0,0,0-3.414,3.288,6.389,6.389,0,0,1-.679-2.852Zm20.3-3.178a1.845,1.845,0,0,1-.923,1.6V15.011A1.845,1.845,0,0,1,52.592,16.608Zm0,3.178V27.68a6.366,6.366,0,0,1-1.121,3.6l-1.151-.329a10.208,10.208,0,0,0-2.676-3.039A9.269,9.269,0,0,0,51.669,20.3v-.131a3.659,3.659,0,0,0,.923-.382ZM51.466,47.978H46.727a8.3,8.3,0,0,0,3.045-5.536h.052a2.814,2.814,0,0,0,.525-.053ZM41.52,38.752a.923.923,0,0,0,.652-.27l1.193-1.193,1.193,1.193a.923.923,0,0,0,.652.27h2.768V41.52a6.459,6.459,0,0,1-12.917,0V38.752Zm8.3,1.845V38.752a.923.923,0,0,1,0,1.845Zm-16.608,0a.923.923,0,1,1,0-1.845Zm-.522,1.793a2.776,2.776,0,0,0,.522.053h.054a8.3,8.3,0,0,0,3.045,5.536H31.58ZM48.9,36.906H45.592l-1.575-1.575a.923.923,0,0,0-1.3,0l-1.575,1.575h-7a.923.923,0,0,1-.923-.923,8.3,8.3,0,1,1,16.608,0A.923.923,0,0,1,48.9,36.906Zm.923-17.531V20.3a7.405,7.405,0,0,1-3.967,6.525,10.014,10.014,0,0,0-7.585-.448,7.328,7.328,0,0,1-3.21-6.077V14.763h2.768a8.345,8.345,0,0,0,6.459-3.085,8.349,8.349,0,0,0,5.536,3.033ZM33.216,18.2a1.845,1.845,0,0,1,0-3.194Zm9.227,31.619a.923.923,0,1,1-1.845,0Zm9.227,0v.131c-.044.012-.088.028-.131.041-.066-.056-.128-.117-.2-.172ZM42.442,1.845A10.161,10.161,0,0,1,52.592,11.995V13.43a3.653,3.653,0,0,0-1.845-.513,6.491,6.491,0,0,1-5.167-2.583L45.026,9.6a.956.956,0,0,0-1.476,0L43,10.334a6.491,6.491,0,0,1-5.167,2.583H34.138a3.653,3.653,0,0,0-1.845.513V11.995A10.161,10.161,0,0,1,42.442,1.845ZM26.686,33.493a6.459,6.459,0,0,1,1.359.569,8.265,8.265,0,0,0-1.736,2.889,2.773,2.773,0,0,0-.474-.044V34.138a8.537,8.537,0,0,0-.051-.9ZM9.227,14.556a6.142,6.142,0,0,0,1.556.207,17.606,17.606,0,0,0,9.805-3.005,4.626,4.626,0,0,0,3.4,2.9s-.022,6.291-.066,6.611l-1.12-.891a4.631,4.631,0,0,0-2.874-1H13.286a4.631,4.631,0,0,0-2.87,1L9.3,21.264c-.046-.319-.076-6.708-.076-6.708Zm17.531,2.052a1.845,1.845,0,0,1-.923,1.6V15.011A1.845,1.845,0,0,1,26.757,16.608ZM13.207,1.845H20.3a.923.923,0,0,1,.923.923V3.68a.923.923,0,0,0,.923.923h.923a.923.923,0,0,1,.923.923v7.235a2.774,2.774,0,0,1-1.845-2.61.923.923,0,0,0-.554-.806.987.987,0,0,0-1.008.137,15.745,15.745,0,0,1-9.8,3.437A4.328,4.328,0,0,1,6.459,8.594,6.756,6.756,0,0,1,13.207,1.845ZM6.459,16.608a1.845,1.845,0,0,1,.923-1.6V18.2A1.845,1.845,0,0,1,6.459,16.608ZM9.833,23.2l1.728-1.373a2.768,2.768,0,0,1,1.725-.6h6.643a2.776,2.776,0,0,1,1.723.6L23.381,23.2a7.41,7.41,0,0,1-2.726,3.254,8.239,8.239,0,0,0-7.245.484A7.345,7.345,0,0,1,9.833,23.2Zm7.7,4.484a6.466,6.466,0,0,1,6.459,6.459v2.768H20.9a2.786,2.786,0,0,1-1.957-.81l-.765-.765a.923.923,0,0,0-1.3,0l-.765.765a2.786,2.786,0,0,1-1.957.81H11.072V34.138a6.466,6.466,0,0,1,6.459-6.459ZM1.845,54.437V39.706A6.485,6.485,0,0,1,6.53,33.493l2.833-.809a8.267,8.267,0,0,0-.136,1.455v2.768a2.768,2.768,0,1,0,0,5.536h.054a8.3,8.3,0,0,0,3.077,5.563,8.23,8.23,0,0,0-4.873,1.982c-.035-.01-.068-.023-.1-.032v-6.59a.923.923,0,1,0-1.845,0v6.59a3.691,3.691,0,0,0-2.768,3.56V55.36A3.659,3.659,0,0,0,3.029,56.7a2.768,2.768,0,0,1-1.184-2.263Zm2.768.923V53.514a1.845,1.845,0,0,1,3.691,0V55.36a1.845,1.845,0,0,1-3.691,0ZM28.565,57.2H9.636a3.653,3.653,0,0,0,.513-1.845V53.514a3.665,3.665,0,0,0-.991-2.5,6.405,6.405,0,0,1,3.721-1.193h1.883a2.768,2.768,0,1,0,5.536,0h1.807A6.477,6.477,0,0,1,28.565,56.3Zm1.883-.923a6.466,6.466,0,0,1,6.459-6.459h1.845a2.768,2.768,0,1,0,5.536,0h1.845a6.421,6.421,0,0,1,3.748,1.207,3.667,3.667,0,0,0-.98,2.483V55.36a3.653,3.653,0,0,0,.513,1.845H30.448ZM57.2,54.437A2.768,2.768,0,0,1,56.021,56.7a3.659,3.659,0,0,0,.261-1.341V53.514a3.691,3.691,0,0,0-2.768-3.56V46.144H57.2Z"/>
      <path id="Trazado_1220360" data-name="Trazado 1220360" d="M14.923,45.592a.923.923,0,0,0,.923-.923v-.746a.923.923,0,1,0-1.845,0v.746A.923.923,0,0,0,14.923,45.592Z" transform="translate(-1.083 -3.326)"/>
      <path id="Trazado_1220361" data-name="Trazado 1220361" d="M22.923,45.592a.923.923,0,0,0,.923-.923v-.746a.923.923,0,1,0-1.845,0v.746A.923.923,0,0,0,22.923,45.592Z" transform="translate(-1.702 -3.326)"/>
      <path id="Trazado_1220362" data-name="Trazado 1220362" d="M16.27,49.575a3.563,3.563,0,0,0,2.5,1.193,3.563,3.563,0,0,0,2.5-1.191.923.923,0,1,0-1.3-1.3,1.417,1.417,0,0,1-2.386,0,.923.923,0,1,0-1.3,1.3Z" transform="translate(-1.237 -3.713)"/>
      <path id="Trazado_1220363" data-name="Trazado 1220363" d="M40.923,45.592a.923.923,0,0,0,.923-.923v-.746a.923.923,0,1,0-1.845,0v.746A.923.923,0,0,0,40.923,45.592Z" transform="translate(-3.094 -3.326)"/>
      <path id="Trazado_1220364" data-name="Trazado 1220364" d="M48.923,45.592a.923.923,0,0,0,.923-.923v-.746a.923.923,0,1,0-1.845,0v.746A.923.923,0,0,0,48.923,45.592Z" transform="translate(-3.712 -3.326)"/>
      <path id="Trazado_1220365" data-name="Trazado 1220365" d="M42.27,49.575a3.215,3.215,0,0,0,5,0,.923.923,0,1,0-1.3-1.3,1.417,1.417,0,0,1-2.386,0,.923.923,0,1,0-1.3,1.3Z" transform="translate(-3.248 -3.712)"/>
    </g>
  </g>
</svg>
