<svg xmlns="http://www.w3.org/2000/svg" xmlns:xlink="http://www.w3.org/1999/xlink" width="113" height="113" viewBox="0 0 113 113">
  <defs>
    <filter id="Trazado_982547" x="0" y="0" width="113" height="113" filterUnits="userSpaceOnUse">
      <feOffset dy="3" input="SourceAlpha"/>
      <feGaussianBlur stdDeviation="3" result="blur"/>
      <feFlood flood-opacity="0.161"/>
      <feComposite operator="in" in2="blur"/>
      <feComposite in="SourceGraphic"/>
    </filter>
  </defs>
  <g id="Grupo_1242620" data-name="Grupo 1242620" transform="translate(-3155.344 -5151.168)">
    <g id="Grupo_1242102" data-name="Grupo 1242102" transform="translate(2800 -7532)">
      <g id="Grupo_1240425" data-name="Grupo 1240425" transform="translate(364.344 12689.168)">
        <g id="Grupo_1239772" data-name="Grupo 1239772" transform="translate(0 0)">
          <g id="Grupo_1236602" data-name="Grupo 1236602">
            <g id="Grupo_1236144" data-name="Grupo 1236144">
              <g id="Grupo_1235105" data-name="Grupo 1235105">
                <g id="Grupo_1223793" data-name="Grupo 1223793">
                  <g id="Grupo_1208028" data-name="Grupo 1208028">
                    <g id="Grupo_1177675" data-name="Grupo 1177675">
                      <g id="Grupo_1176928" data-name="Grupo 1176928" transform="translate(0)">
                        <g id="Grupo_1172322" data-name="Grupo 1172322">
                          <g id="Grupo_1164700" data-name="Grupo 1164700">
                            <g id="Grupo_1160931" data-name="Grupo 1160931">
                              <g id="Grupo_1160749" data-name="Grupo 1160749">
                                <g id="Grupo_1158891" data-name="Grupo 1158891">
                                  <g id="Grupo_1157406" data-name="Grupo 1157406">
                                    <g id="Grupo_1155793" data-name="Grupo 1155793">
                                      <g id="Grupo_1154704" data-name="Grupo 1154704">
                                        <g id="Grupo_1150790" data-name="Grupo 1150790">
                                          <g id="Grupo_1154214" data-name="Grupo 1154214" transform="translate(0)">
                                            <g id="Grupo_1152583" data-name="Grupo 1152583">
                                              <g id="Grupo_1146973" data-name="Grupo 1146973">
                                                <g id="Grupo_1146954" data-name="Grupo 1146954">
                                                  <g transform="matrix(1, 0, 0, 1, -9, -6)" filter="url(#Trazado_982547)">
                                                    <g id="Trazado_982547-2" data-name="Trazado 982547" transform="translate(9 6)" fill="#d9d5e3">
                                                      <path d="M 47.50000762939453 93.49986267089844 C 41.28937911987305 93.49986267089844 35.26534271240234 92.28383636474609 29.59519386291504 89.88558197021484 C 24.11772727966309 87.56880950927734 19.19814109802246 84.25183868408203 14.97310066223145 80.02679443359375 C 10.74804782867432 75.8017578125 7.431074142456055 70.88218688964844 5.114300727844238 65.40471649169922 C 2.716034412384033 59.73458480834961 1.500007629394531 53.71054458618164 1.500007629394531 47.49993133544922 C 1.500007629394531 41.2893180847168 2.716034412384033 35.26527786254883 5.114300727844238 29.59514427185059 C 7.431074142456055 24.11767768859863 10.74804782867432 19.19810485839844 14.97310066223145 14.97306442260742 C 19.19814109802246 10.74802494049072 24.11772727966309 7.431051254272461 29.59519386291504 5.114277839660645 C 35.26534271240234 2.71602463722229 41.28937911987305 1.499997973442078 47.50000762939453 1.499997973442078 C 53.71063613891602 1.499997973442078 59.73467254638672 2.71602463722229 65.40482330322266 5.114277839660645 C 70.88228607177734 7.431051254272461 75.80187225341797 10.74802494049072 80.02691650390625 14.97306442260742 C 84.25196838378906 19.19810485839844 87.56893920898438 24.11767768859863 89.88571166992188 29.59514427185059 C 92.28398132324219 35.26527786254883 93.50000762939453 41.2893180847168 93.50000762939453 47.49993133544922 C 93.50000762939453 53.71054458618164 92.28398132324219 59.73458480834961 89.88571166992188 65.40471649169922 C 87.56893920898438 70.88218688964844 84.25196838378906 75.8017578125 80.02691650390625 80.02679443359375 C 75.80187225341797 84.25183868408203 70.88228607177734 87.56880950927734 65.40482330322266 89.88558197021484 C 59.73467254638672 92.28383636474609 53.71063613891602 93.49986267089844 47.50000762939453 93.49986267089844 Z" stroke="none"/>
                                                      <path d="M 47.50000762939453 2.999992370605469 C 41.4912223815918 2.999992370605469 35.66377639770508 4.1761474609375 30.17951202392578 6.495796203613281 C 24.88085174560547 8.736930847167969 20.12152862548828 11.94596099853516 16.03376007080078 16.03372955322266 C 11.94597625732422 20.12148284912109 8.736961364746094 24.88080596923828 6.495803833007812 30.17946624755859 C 4.176162719726562 35.66371536254883 3.000007629394531 41.49116134643555 3.000007629394531 47.49993133544922 C 3.000007629394531 53.50870132446289 4.176162719726562 59.33614730834961 6.495803833007812 64.82038879394531 C 8.736961364746094 70.11905670166016 11.94597625732422 74.87836456298828 16.03376007080078 78.96613311767578 C 20.12152862548828 83.05390167236328 24.88085174560547 86.26291656494141 30.17951202392578 88.50406646728516 C 35.66377639770508 90.82369995117188 41.4912223815918 91.99985504150391 47.50000762939453 91.99985504150391 C 53.50879287719727 91.99985504150391 59.33623886108398 90.82369995117188 64.82049560546875 88.50406646728516 C 70.11916351318359 86.26291656494141 74.87848663330078 83.05390167236328 78.96625518798828 78.96613311767578 C 83.05403900146484 74.87836456298828 86.26305389404297 70.11905670166016 88.50421142578125 64.82038879394531 C 90.8238525390625 59.33614730834961 92.00000762939453 53.50870132446289 92.00000762939453 47.49993133544922 C 92.00000762939453 41.49116134643555 90.8238525390625 35.66371536254883 88.50421142578125 30.17946624755859 C 86.26305389404297 24.88080596923828 83.05403900146484 20.12148284912109 78.96625518798828 16.03372955322266 C 74.87848663330078 11.94596099853516 70.11916351318359 8.736930847167969 64.82049560546875 6.495796203613281 C 59.33623886108398 4.1761474609375 53.50879287719727 2.999992370605469 47.50000762939453 2.999992370605469 M 47.50000762939453 -7.62939453125e-06 C 73.73352813720703 -7.62939453125e-06 95.00000762939453 21.26644134521484 95.00000762939453 47.49993133544922 C 95.00000762939453 73.73342132568359 73.73352813720703 94.99985504150391 47.50000762939453 94.99985504150391 C 21.26648712158203 94.99985504150391 7.62939453125e-06 73.73342132568359 7.62939453125e-06 47.49993133544922 C 7.62939453125e-06 21.26644134521484 21.26648712158203 -7.62939453125e-06 47.50000762939453 -7.62939453125e-06 Z" stroke="none" fill="#453179"/>
                                                    </g>
                                                  </g>
                                                </g>
                                              </g>
                                            </g>
                                          </g>
                                        </g>
                                      </g>
                                    </g>
                                  </g>
                                </g>
                              </g>
                            </g>
                          </g>
                        </g>
                      </g>
                    </g>
                  </g>
                </g>
              </g>
            </g>
          </g>
        </g>
      </g>
    </g>
    <g id="educacion_13_" data-name="educacion (13)" transform="translate(3182.128 5170.549)">
      <g id="Grupo_1242619" data-name="Grupo 1242619" transform="translate(1.018 5.712)">
        <path id="Trazado_1220901" data-name="Trazado 1220901" d="M99.683,233.691a11.7,11.7,0,0,0-.07,8.661l.954,1.869H59.391s-7.666-4.307,0-11.974l40.82-.841Z" transform="translate(-50.503 -205.853)" fill="#f1f2f2"/>
        <path id="Trazado_1220902" data-name="Trazado 1220902" d="M100.57,244.22H59.394s-7.666-4.308,0-11.974l40.821-.842-.529,2.286a11.211,11.211,0,0,0-.582,1.857H61.74a2.624,2.624,0,1,0,0,5.248H99.118a10.078,10.078,0,0,0,.5,1.555Z" transform="translate(-50.506 -205.852)" fill="#dee1e1"/>
        <path id="Trazado_1220903" data-name="Trazado 1220903" d="M83.911,235.323l-37.638-.059c-4.509,0-8.382-2.876-8.382-7.386a10.273,10.273,0,0,1,.153-3.184,8.168,8.168,0,0,1,7.66-5.332H84.317a1.842,1.842,0,0,1,0,3.683H55.094l-2.854.67-2.482-.67H45.7a4.481,4.481,0,0,0,0,8.963H84.317a1.843,1.843,0,0,1,1.829,2.058C86.039,234.981,84.855,235.323,83.911,235.323Z" transform="translate(-34.47 -195.207)" fill="#b7e546"/>
        <path id="Trazado_1220904" data-name="Trazado 1220904" d="M83.814,271.079a1.841,1.841,0,0,1-1.828,1.625L62.91,273.847,43.373,272.7A8.168,8.168,0,0,1,35.9,261.235v1.679a8.165,8.165,0,0,0,8.165,8.165Z" transform="translate(-32.139 -232.22)" fill="#abd641"/>
        <path id="Trazado_1220905" data-name="Trazado 1220905" d="M146.951,256.461v-5.369h-3.827l-1.359.136.082,5a.232.232,0,0,0,.317.216l.96-.235,1.074-.421a.231.231,0,0,1,.169,0l2.267.888A.232.232,0,0,0,146.951,256.461Z" transform="translate(-126.327 -223.254)" fill="#ef5227"/>
        <path id="Trazado_1220906" data-name="Trazado 1220906" d="M141.979,251.095v5.118l-1.192.467a.232.232,0,0,1-.317-.216v-5.369Z" transform="translate(-125.182 -223.257)" fill="#d83724"/>
        <path id="Trazado_1220907" data-name="Trazado 1220907" d="M136.246,173.2v2.618l-.116,1.161a.813.813,0,0,1-.813.813l-30.936-.116a.812.812,0,0,1-.813-.813l-.232-3.662,15.881-.759Z" transform="translate(-92.359 -153.73)" fill="#fdcd08"/>
        <path id="Trazado_1220908" data-name="Trazado 1220908" d="M437.99,197.8c-.727,1.791-1.458,3.559-2.185,5.35a1.626,1.626,0,0,0,1.492,2.244l1.344.116h3.269a1.626,1.626,0,0,0,1.492-2.244l-1.515-3.736-.953-1.73H437.99Z" transform="translate(-386.127 -176.147)" fill="#fdcd08"/>
        <path id="Trazado_1220909" data-name="Trazado 1220909" d="M438.279,197.858a4.413,4.413,0,0,0,2.727-.66l-.815-2.036-1.347.4h0l-1.755-.234c-.222.547-.544,1.323-.766,1.87h0l-1.515,3.734a1.626,1.626,0,0,0,1.492,2.244h1.857a1.626,1.626,0,0,1-1.492-2.244l1.132-2.789A.469.469,0,0,1,438.279,197.858Z" transform="translate(-385.246 -173.816)" fill="#faab18"/>
        <path id="Trazado_1220910" data-name="Trazado 1220910" d="M452.642,160.524a2.7,2.7,0,0,0-1.809-2.559c-.273-.095-.67.074-.974.074a2.28,2.28,0,0,0-2.391,2.485,2.361,2.361,0,0,0,2.587,2.39c.3,0,.505.263.778.169A2.7,2.7,0,0,0,452.642,160.524Z" transform="translate(-396.544 -140.912)" fill="#fdcd08"/>
        <path id="Trazado_1220911" data-name="Trazado 1220911" d="M449.426,162.189a2.641,2.641,0,0,1-.871.146,2.705,2.705,0,0,1,0-5.41,2.641,2.641,0,0,1,.871.146,2.715,2.715,0,0,0,0,5.118Z" transform="translate(-395.137 -140.018)" fill="#faab18"/>
        <path id="Trazado_1220912" data-name="Trazado 1220912" d="M66.783,21.956l-7.657,2.651-2.089-.214L42.176,30.475a4.871,4.871,0,0,1-3.187,0L24.127,24.63l-2.089-.023-7.657-2.651a.974.974,0,0,1,0-1.841l24.9-8.619a3.983,3.983,0,0,1,2.606,0l24.9,8.619A.974.974,0,0,1,66.783,21.956Z" transform="translate(-13.15 -11.277)" fill="#868491"/>
        <path id="Trazado_1220913" data-name="Trazado 1220913" d="M122.425,83.078v.786l-16.951,5.868a4.871,4.871,0,0,1-3.188,0l-16.95-5.868v-.786a3.415,3.415,0,0,1,2.814-3.364,89.153,89.153,0,0,1,31.461,0,3.418,3.418,0,0,1,2.814,3.364Z" transform="translate(-76.448 -70.533)" fill="#77777f"/>
        <path id="Trazado_1220914" data-name="Trazado 1220914" d="M138.014,98.988v6.922H105.452l-.116-6.69a1.328,1.328,0,0,1,1.093-1.307c.332-.059.431-.349.764-.4a87.037,87.037,0,0,1,29.727.173,1.329,1.329,0,0,1,1.093,1.307Z" transform="translate(-94.126 -86.444)" fill="#868491"/>
        <path id="Trazado_1220915" data-name="Trazado 1220915" d="M136.246,175.814v1.277a.813.813,0,0,1-.813.813H104.149a.813.813,0,0,1-.813-.813V173.2l1.045-.759,1.045.759v2.037a.58.58,0,0,0,.58.58Z" transform="translate(-92.359 -153.729)" fill="#faab18"/>
        <path id="Trazado_1220916" data-name="Trazado 1220916" d="M105.425,106.6v8.4h-2.089v-6.922a1.328,1.328,0,0,1,1.093-1.307C104.761,106.718,105.093,106.66,105.425,106.6Z" transform="translate(-92.359 -95.539)" fill="#77777f"/>
        <path id="Trazado_1220917" data-name="Trazado 1220917" d="M82.783,390.539a10.922,10.922,0,0,1,0-8.359l.353-1.569H35.669s-5.343,5.809.347,11.5l47.428.356Z" transform="translate(-30.535 -337.739)" fill="#f1f2f2"/>
        <path id="Trazado_1220918" data-name="Trazado 1220918" d="M83.444,392.469l-47.428-.355c-5.691-5.69-.347-11.5-.347-11.5l47.694.088-.581,1.48a10.875,10.875,0,0,0-.519,1.583H38.7a2.624,2.624,0,1,0,0,5.248H82.278a11.014,11.014,0,0,0,.5,1.529Z" transform="translate(-30.535 -337.742)" fill="#dee1e1"/>
        <path id="Trazado_1220919" data-name="Trazado 1220919" d="M65.629,375.956l-42.915-.079c-4.509,0-8.476-2.545-8.476-7.054,0-1.431-.35-3.4.3-4.571a8.162,8.162,0,0,1,7.149-4.219H66.436a1.842,1.842,0,1,1,0,3.683H55.348l-2.9.641-2.439-.641H21.684a4.481,4.481,0,1,0,0,8.963H66.436a1.843,1.843,0,0,1,1.812,2.174C68.091,375.711,66.533,375.956,65.629,375.956Z" transform="translate(-13.52 -319.549)" fill="#ef5227"/>
        <path id="Trazado_1220920" data-name="Trazado 1220920" d="M63.5,403.626a1.844,1.844,0,0,1-1.812,1.509H16.933a8.166,8.166,0,0,1-6.888-12.551v2.876a8.165,8.165,0,0,0,8.165,8.165Z" transform="translate(-8.768 -348.323)" fill="#d83724"/>
        <path id="Trazado_1220921" data-name="Trazado 1220921" d="M329.593,397.161v-5.412H326l-1.595.1.085,5.083a.232.232,0,0,0,.317.216L326,396.82l.842-.33a.232.232,0,0,1,.169,0l2.267.888a.232.232,0,0,0,.317-.216Z" transform="translate(-287.765 -347.584)" fill="#fdcd08"/>
        <path id="Trazado_1220922" data-name="Trazado 1220922" d="M324.881,391.745v5.072l-1.424.557a.232.232,0,0,1-.317-.216v-5.413Z" transform="translate(-286.648 -347.58)" fill="#faab18"/>
      </g>
      <path id="Trazado_1220923" data-name="Trazado 1220923" d="M59.249,32.124l-1.932-4.763a3.537,3.537,0,0,0-1.8-5.707c0-.229,0-5.966,0-6.209a1.807,1.807,0,0,0-1.23-1.728L29.815,5.244a4.806,4.806,0,0,0-3.132,0l-6.094,2.11A.871.871,0,1,0,21.159,9l6.094-2.11a3.057,3.057,0,0,1,1.993,0l24.476,8.473a.087.087,0,0,1,0,.165L45.3,18.444v-.261A2.174,2.174,0,0,0,43.5,16.042a86.133,86.133,0,0,0-30.51,0A2.174,2.174,0,0,0,11.2,18.183v.261L2.777,15.527a.087.087,0,0,1,0-.165l14.472-5.01a.871.871,0,1,0-.57-1.645L2.207,13.717a1.828,1.828,0,0,0,0,3.455l9,3.114V28.9A9.032,9.032,0,0,0,7.085,45.4a9.034,9.034,0,0,0,1.95,17.856H53.787a2.712,2.712,0,0,0,.055-5.423,9.974,9.974,0,0,1-.021-7.224,2.712,2.712,0,0,0-.034-5.424h-.538A2.711,2.711,0,0,0,50.717,41.5h-.023a9.968,9.968,0,0,1-.164-6.764,2.445,2.445,0,0,0,1.8.789h4.648a2.449,2.449,0,0,0,2.033-1.085,2.478,2.478,0,0,0,.241-2.319Zm-2.834-7.051a1.764,1.764,0,1,1-1.764-1.788A1.778,1.778,0,0,1,56.415,25.073Zm-2.634-7.724v4.3a3.537,3.537,0,0,0-1.8,5.707l-.607,1.5H45.3V20.287ZM13.3,17.756a84.414,84.414,0,0,1,29.895,0,.434.434,0,0,1,.358.428v5.934H38.19a.871.871,0,1,0,0,1.741h5.365v3H12.944v-3H34.128a.871.871,0,0,0,0-1.741H12.944V18.184a.434.434,0,0,1,.358-.428ZM54.758,47.9a.972.972,0,0,1-.971.971H9.035a5.352,5.352,0,1,0,0,10.7H43.414a.871.871,0,1,0,0-1.741H9.035a3.611,3.611,0,1,1,0-7.221H36.492v4.88a.871.871,0,0,0,1.188.811l2.35-.92,2.351.92a.871.871,0,0,0,1.188-.811v-4.88h8.4a11.685,11.685,0,0,0,.017,7.221H47.477a.871.871,0,0,0,0,1.741h6.31a.971.971,0,1,1,0,1.942H9.035a7.294,7.294,0,1,1,0-14.588H53.787a.972.972,0,0,1,.971.971ZM38.233,50.611h3.595v3.6l-1.48-.579a.87.87,0,0,0-.635,0l-1.48.579Zm-14.9-7.367H50.717a.971.971,0,1,1,0,1.942H12.1a7.294,7.294,0,0,1,0-14.588H50.672c-.215.577-.613,1.4-.746,1.942H12.1a5.352,5.352,0,1,0,0,10.7h7.165a.871.871,0,1,0,0-1.741H12.1a3.611,3.611,0,1,1,0-7.221h3.183V39.12a.871.871,0,0,0,1.188.811l2.351-.92,2.351.92a.871.871,0,0,0,1.188-.811V34.282h26.48a11.686,11.686,0,0,0,0,7.221H23.332a.871.871,0,0,0,0,1.741Zm-6.3-8.963h3.595v3.562l-1.48-.579a.87.87,0,0,0-.635,0l-1.48.579Zm40.536-.811a.706.706,0,0,1-.589.316H52.327a.706.706,0,0,1-.589-.316.73.73,0,0,1-.072-.692l1.781-4.39a3.485,3.485,0,0,0,2.407,0l1.781,4.39A.73.73,0,0,1,57.564,33.471Z" transform="translate(0 0)"/>
    </g>
  </g>
</svg>
