<svg xmlns="http://www.w3.org/2000/svg" xmlns:xlink="http://www.w3.org/1999/xlink" width="108" height="108" viewBox="0 0 108 108">
  <defs>
    <filter id="Trazado_904820" x="0" y="0" width="108" height="108" filterUnits="userSpaceOnUse">
      <feOffset dy="3" input="SourceAlpha"/>
      <feGaussianBlur stdDeviation="3" result="blur"/>
      <feFlood flood-opacity="0.161"/>
      <feComposite operator="in" in2="blur"/>
      <feComposite in="SourceGraphic"/>
    </filter>
  </defs>
  <g id="Grupo_1242631" data-name="Grupo 1242631" transform="translate(-200.058 -6321.022)">
    <g id="Grupo_1242108" data-name="Grupo 1242108" transform="translate(0 -2065.978)">
      <g id="Grupo_1226222" data-name="Grupo 1226222" transform="translate(209.059 8393)">
        <g id="Grupo_1223550" data-name="Grupo 1223550" transform="translate(0 0)">
          <g id="Grupo_1223164" data-name="Grupo 1223164">
            <g id="Grupo_1203639" data-name="Grupo 1203639">
              <g id="Grupo_1202437" data-name="Grupo 1202437">
                <g id="Grupo_1177315" data-name="Grupo 1177315">
                  <g id="Grupo_1173585" data-name="Grupo 1173585">
                    <g id="Grupo_1173428" data-name="Grupo 1173428">
                      <g id="Grupo_1171958" data-name="Grupo 1171958">
                        <g id="Grupo_1167341" data-name="Grupo 1167341">
                          <g id="Grupo_1166792" data-name="Grupo 1166792">
                            <g transform="matrix(1, 0, 0, 1, -9, -6)" filter="url(#Trazado_904820)">
                              <g id="Trazado_904820-2" data-name="Trazado 904820" transform="translate(9 6)" fill="#edf3fc">
                                <path d="M 44.99999618530273 88.49999237060547 C 39.12687301635742 88.49999237060547 33.43022155761719 87.35006713867188 28.06829643249512 85.08216857910156 C 22.88852119445801 82.89130401611328 18.23629570007324 79.75457763671875 14.24084663391113 75.75914001464844 C 10.24540901184082 71.76369476318359 7.108683586120605 67.11146545410156 4.917821407318115 61.93169403076172 C 2.649921178817749 56.56976699829102 1.499996185302734 50.87311553955078 1.499996185302734 44.99999237060547 C 1.499996185302734 39.12686920166016 2.649921178817749 33.43021774291992 4.917821407318115 28.06829261779785 C 7.108683586120605 22.88851737976074 10.24540901184082 18.23630523681641 14.24084663391113 14.24085521697998 C 18.23629570007324 10.24540519714355 22.88852119445801 7.108692169189453 28.06829643249512 4.917829990386963 C 33.43022155761719 2.649929761886597 39.12687301635742 1.500004887580872 44.99999618530273 1.500004887580872 C 50.87311935424805 1.500004887580872 56.56977081298828 2.649929761886597 61.93169784545898 4.917829990386963 C 67.11147308349609 7.108692169189453 71.76369476318359 10.24540519714355 75.75914764404297 14.24085521697998 C 79.75458526611328 18.23630523681641 82.89131164550781 22.88851737976074 85.08216857910156 28.06829261779785 C 87.35007476806641 33.43021774291992 88.5 39.12686920166016 88.5 44.99999237060547 C 88.5 50.87311553955078 87.35007476806641 56.56976699829102 85.08216857910156 61.93169403076172 C 82.89131164550781 67.11146545410156 79.75458526611328 71.76369476318359 75.75914764404297 75.75914001464844 C 71.76369476318359 79.75457763671875 67.11147308349609 82.89130401611328 61.93169784545898 85.08216857910156 C 56.56977081298828 87.35006713867188 50.87311935424805 88.49999237060547 44.99999618530273 88.49999237060547 Z" stroke="none"/>
                                <path d="M 44.99999618530273 2.999992370605469 C 39.32870864868164 2.999992370605469 33.82865142822266 4.11004638671875 28.65262603759766 6.299331665039062 C 23.65165710449219 8.414566040039062 19.15968322753906 11.44333648681641 15.301513671875 15.30150604248047 C 11.44333648681641 19.15967559814453 8.414566040039062 23.65164947509766 6.299339294433594 28.65262222290039 C 4.110054016113281 33.82864761352539 2.999992370605469 39.32870483398438 2.999992370605469 44.99999237060547 C 2.999992370605469 50.67127990722656 4.110054016113281 56.17132186889648 6.299339294433594 61.34736633300781 C 8.414566040039062 66.34833526611328 11.44333648681641 70.84029388427734 15.301513671875 74.69846343994141 C 19.15968322753906 78.55663299560547 23.65165710449219 81.58540344238281 28.65262603759766 83.70063781738281 C 33.82865142822266 85.88992309570312 39.32870864868164 86.99997711181641 44.99999618530273 86.99997711181641 C 50.67128372192383 86.99997711181641 56.17134094238281 85.88992309570312 61.34736633300781 83.70063781738281 C 66.34834289550781 81.58540344238281 70.84030914306641 78.55663299560547 74.69847869873047 74.69846343994141 C 78.55665588378906 70.84029388427734 81.58542633056641 66.34833526611328 83.70065307617188 61.34736633300781 C 85.88993835449219 56.17132186889648 87 50.67127990722656 87 44.99999237060547 C 87 39.32870483398438 85.88993835449219 33.82864761352539 83.70065307617188 28.65262222290039 C 81.58542633056641 23.65164947509766 78.55665588378906 19.15967559814453 74.69847869873047 15.30150604248047 C 70.84030914306641 11.44333648681641 66.34834289550781 8.414566040039062 61.34736633300781 6.299331665039062 C 56.17134094238281 4.11004638671875 50.67128372192383 2.999992370605469 44.99999618530273 2.999992370605469 M 44.99999618530273 -7.62939453125e-06 C 69.85281372070312 -7.62939453125e-06 90 20.14717864990234 90 44.99999237060547 C 90 69.85279083251953 69.85281372070312 89.99997711181641 44.99999618530273 89.99997711181641 C 20.14717864990234 89.99997711181641 -7.62939453125e-06 69.85279083251953 -7.62939453125e-06 44.99999237060547 C -7.62939453125e-06 20.14717864990234 20.14717864990234 -7.62939453125e-06 44.99999618530273 -7.62939453125e-06 Z" stroke="none" fill="#5692e8"/>
                              </g>
                            </g>
                          </g>
                        </g>
                      </g>
                    </g>
                  </g>
                </g>
              </g>
            </g>
          </g>
        </g>
      </g>
    </g>
    <g id="Page-1" transform="translate(223.618 6338)">
      <g id="_026---Idea" data-name="026---Idea" transform="translate(0.424)">
        <path id="Shape" d="M25.808,50.861l-.457,5.521H3.46a2.03,2.03,0,0,1-2-2.415L5.906,31.152A1.015,1.015,0,0,1,6.9,30.33H9.722L6.342,50.648a1.023,1.023,0,0,0,1.309,1.137,34.719,34.719,0,0,1,18.156-.924Z" transform="translate(-0.409 0.452)" fill="sienna"/>
        <path id="Shape-2" data-name="Shape" d="M56.9,56.382H35.007l-.457-5.521a34.719,34.719,0,0,1,18.156.924,1.023,1.023,0,0,0,1.309-1.137L50.636,30.33h2.821a1.015,1.015,0,0,1,.995.822L58.9,53.967a2.03,2.03,0,0,1-2,2.415Z" transform="translate(0.084 0.452)" fill="sienna"/>
        <path id="Shape-3" data-name="Shape" d="M58.661,53.967,54.216,31.152a1.015,1.015,0,0,0-.995-.822H50.4l.007.041a1.015,1.015,0,0,1,.764.781l4.445,22.815a2.03,2.03,0,0,1-2,2.415h3.045a2.03,2.03,0,0,0,2-2.415Z" transform="translate(0.32 0.452)" fill="#783e22"/>
        <path id="Shape-4" data-name="Shape" d="M53.128,51.826A34.719,34.719,0,0,0,34.971,50.9a23.5,23.5,0,0,0-4.618,1.461A23.5,23.5,0,0,0,25.736,50.9a34.719,34.719,0,0,0-18.156.924A1.023,1.023,0,0,1,6.27,50.69L9.65,30.372l.284-1.715a1.023,1.023,0,0,1,.853-.842c.69-.1,1.4-.2,2.111-.284a7.239,7.239,0,0,0,6.434,3.928,7.317,7.317,0,0,0,2.507-.447,5.345,5.345,0,0,0,9.1,1.746,8.8,8.8,0,0,0,3.187.6h.061c.213,1.827,1.167,2.9,4.354,3.968a5.551,5.551,0,0,1,2.517,1.664,2.15,2.15,0,0,0,2.486.639,2.119,2.119,0,0,0,1.279-1.938,2.065,2.065,0,0,0-.1-.65,8.959,8.959,0,0,0-1.34-2.7,7.549,7.549,0,0,0,3.846-5.277,5.261,5.261,0,0,0,.944-1.482c.589.071,1.167.142,1.746.233a1.023,1.023,0,0,1,.853.842l.284,1.715,3.38,20.318a1.023,1.023,0,0,1-1.309,1.137Z" transform="translate(-0.337 0.41)" fill="#f5f5f5"/>
        <path id="Shape-5" data-name="Shape" d="M53.829,50.689,50.45,30.371l-.284-1.715a1.023,1.023,0,0,0-.853-.842c-.578-.091-1.157-.162-1.746-.233a5.277,5.277,0,0,1-.507.9,1,1,0,0,1,.058.172l.284,1.715,3.38,20.318a.982.982,0,0,1-.1.609c.609.159,1.218.331,1.834.529a1.023,1.023,0,0,0,1.315-1.138Z" transform="translate(0.27 0.411)" fill="#cfd8dc"/>
        <path id="Shape-6" data-name="Shape" d="M35.149,56.081c0,1.116-2.273,2.03-5.074,2.03S25,57.2,25,56.081l.457-5.521a23.5,23.5,0,0,1,4.618,1.461,23.5,23.5,0,0,1,4.618-1.461Z" transform="translate(-0.058 0.753)" fill="#783e22"/>
        <path id="Shape-7" data-name="Shape" d="M48.536,25.736a5.127,5.127,0,0,1-.447,2.121,5.261,5.261,0,0,1-.944,1.482A7.549,7.549,0,0,1,43.3,34.616a8.959,8.959,0,0,1,1.34,2.7,2.065,2.065,0,0,1,.1.65A2.119,2.119,0,0,1,43.462,39.9a2.15,2.15,0,0,1-2.486-.639A5.551,5.551,0,0,0,38.458,37.6c-3.187-1.066-4.141-2.141-4.354-3.968h-.061a8.8,8.8,0,0,1-3.187-.6,5.345,5.345,0,0,1-9.1-1.746,7.251,7.251,0,0,1-8.312-11.143,2.964,2.964,0,0,1-.183-1.035A3.161,3.161,0,0,1,15.8,16c-.01-.122-.02-.244-.02-.376a4.1,4.1,0,0,1,4.1-4.1,4,4,0,0,1,1.776.406A5.994,5.994,0,0,1,26.807,9a5.886,5.886,0,0,1,3.938,1.492,3.146,3.146,0,0,1,5.582.457A8.229,8.229,0,0,1,37.2,10.9a7.569,7.569,0,0,1,7.53,6.942h.03A3.146,3.146,0,0,1,47.907,21a3.257,3.257,0,0,1-.406,1.563,5.379,5.379,0,0,1,1.035,3.177Z" transform="translate(-0.252 0.134)" fill="#e91e63"/>
        <path id="Shape-8" data-name="Shape" d="M47.209,22.559A3.257,3.257,0,0,0,47.615,21a3.146,3.146,0,0,0-3.146-3.156h-.03a7.569,7.569,0,0,0-7.53-6.942,8.229,8.229,0,0,0-.873.051A3.135,3.135,0,0,0,31.6,9.4a3.122,3.122,0,0,1,1.39,1.55,8.229,8.229,0,0,1,.873-.051,7.569,7.569,0,0,1,7.53,6.942h.03A3.146,3.146,0,0,1,44.57,21a3.257,3.257,0,0,1-.406,1.563A5.379,5.379,0,0,1,45.2,25.736a5.127,5.127,0,0,1-.447,2.121,5.261,5.261,0,0,1-.944,1.482,7.549,7.549,0,0,1-3.846,5.277,8.96,8.96,0,0,1,1.34,2.7,2.065,2.065,0,0,1,.1.65,2.1,2.1,0,0,1-.591,1.431,2.1,2.1,0,0,0,3.635-1.431,2.065,2.065,0,0,0-.1-.65,8.959,8.959,0,0,0-1.34-2.7,7.549,7.549,0,0,0,3.846-5.277,5.261,5.261,0,0,0,.944-1.482,5.127,5.127,0,0,0,.447-2.121,5.379,5.379,0,0,0-1.035-3.177Z" transform="translate(0.04 0.134)" fill="#ad1457"/>
        <path id="Shape-9" data-name="Shape" d="M40.656,25.491a1.015,1.015,0,1,0-1.814.913,1.511,1.511,0,0,1-.489,1.913,1.531,1.531,0,0,1-2.2-.562,1.015,1.015,0,1,0-1.816.908A3.536,3.536,0,1,0,40.656,25.5Z" transform="translate(0.079 0.371)" fill="#ad1457"/>
        <path id="Shape-10" data-name="Shape" d="M34.621,25.069a6.06,6.06,0,0,0,2.516-3.863,1.015,1.015,0,1,0-1.993-.382A4.045,4.045,0,0,1,33.463,23.4a4.143,4.143,0,0,1-5.342-.609,1.016,1.016,0,0,0-1.5,1.369,6.12,6.12,0,0,0,3.253,1.876,3.023,3.023,0,0,1-2.47,1.271,1.015,1.015,0,1,0,0,2.03,5.033,5.033,0,0,0,4.728-3.255,6.115,6.115,0,0,0,2.492-1.014Z" transform="translate(-0.038 0.298)" fill="#ad1457"/>
        <path id="Shape-11" data-name="Shape" d="M21.182,27.261a1.522,1.522,0,0,1-1.946-1.446V25.79a1,1,0,0,0-1.015-1,1.025,1.025,0,0,0-1.015,1.027,3.542,3.542,0,0,0,3.534,3.541,3.6,3.6,0,0,0,1.015-.149,1.015,1.015,0,0,0-.578-1.946Z" transform="translate(-0.174 0.369)" fill="#ad1457"/>
        <path id="Shape-12" data-name="Shape" d="M27.883,17.015A1.015,1.015,0,0,0,26.868,16,4.674,4.674,0,0,0,22.2,20.668a1.015,1.015,0,1,0,2.03,0,2.639,2.639,0,0,1,2.639-2.639,1.015,1.015,0,0,0,1.015-1.015Z" transform="translate(-0.1 0.238)" fill="#ad1457"/>
        <g id="Grupo_1242630" data-name="Grupo 1242630" transform="translate(5.561)">
          <path id="Shape-13" data-name="Shape" d="M30.015,3.045A1.015,1.015,0,0,1,29,2.03V1.015a1.015,1.015,0,1,1,2.03,0V2.03A1.015,1.015,0,0,1,30.015,3.045Z" transform="translate(-5.56)" fill="#ffdc00"/>
          <path id="Shape-14" data-name="Shape" d="M46.132,9.928A1.015,1.015,0,0,1,45.414,8.2l1.015-1.015a1.015,1.015,0,1,1,1.435,1.435L46.849,9.63a1.015,1.015,0,0,1-.718.3Z" transform="translate(-5.32 0.102)" fill="#ffdc00"/>
          <path id="Shape-15" data-name="Shape" d="M13.913,9.928a1.015,1.015,0,0,1-.718-.3L12.181,8.616a1.015,1.015,0,1,1,1.435-1.435L14.63,8.2a1.015,1.015,0,0,1-.718,1.732Z" transform="translate(-5.815 0.102)" fill="#ffdc00"/>
          <path id="Shape-16" data-name="Shape" d="M21.613,5.746a1.015,1.015,0,0,1-.938-.626L19.51,2.307a1.015,1.015,0,1,1,1.874-.777l1.166,2.813A1.015,1.015,0,0,1,22,5.67a1.029,1.029,0,0,1-.389.076Z" transform="translate(-5.702 0.013)" fill="#ffdc00"/>
          <path id="Shape-17" data-name="Shape" d="M38.434,5.746a1.029,1.029,0,0,1-.389-.077A1.015,1.015,0,0,1,37.5,4.343l1.166-2.813a1.015,1.015,0,1,1,1.875.777L39.372,5.12a1.015,1.015,0,0,1-.938.626Z" transform="translate(-5.434 0.013)" fill="#ffdc00"/>
          <path id="Shape-18" data-name="Shape" d="M50.34,17.629a1.015,1.015,0,0,1-.389-1.954l2.813-1.165a1.015,1.015,0,0,1,.776,1.876l-2.812,1.165a1.015,1.015,0,0,1-.389.078Z" transform="translate(-5.257 0.215)" fill="#ffdc00"/>
          <path id="Shape-19" data-name="Shape" d="M9.731,17.629a1.015,1.015,0,0,1-.389-.078L6.53,16.386a1.015,1.015,0,1,1,.776-1.876l2.813,1.165a1.015,1.015,0,0,1-.389,1.954Z" transform="translate(-5.903 0.215)" fill="#ffdc00"/>
        </g>
        <path id="Shape-20" data-name="Shape" d="M55.958,31.295a2.03,2.03,0,0,0-1.992-1.647h-1.96l-.144-.864a2.04,2.04,0,0,0-1.7-1.682c-.193-.03-.388-.051-.579-.077a6.191,6.191,0,0,0-.771-4.525,4.153,4.153,0,0,0-3.009-5.556,8.636,8.636,0,0,0-8.437-7.049c-.1,0-.192.013-.288.016a4.129,4.129,0,0,0-6.316-.786A6.966,6.966,0,0,0,26.976,8a7.046,7.046,0,0,0-5.539,2.728,5.055,5.055,0,0,0-6.461,4.543,4.177,4.177,0,0,0-2.559,3.848,4.128,4.128,0,0,0,.1.866,8.168,8.168,0,0,0-.973,7c-.272.038-.55.071-.812.11a2.042,2.042,0,0,0-1.709,1.681l-.144.867H6.915a2.03,2.03,0,0,0-1.991,1.643L.48,54.1A3.045,3.045,0,0,0,3.475,57.73H24.639c.84,1.386,3.394,2.03,5.8,2.03,2.382,0,4.911-.628,5.776-2.03h21.19A3.045,3.045,0,0,0,60.4,54.105ZM15.486,20.956a2.143,2.143,0,0,1,1.1-3.98,2.1,2.1,0,0,1,1.7.861,1.015,1.015,0,0,0,1.63-1.21A4.1,4.1,0,0,0,17.038,15a3.085,3.085,0,0,1,3.009-2.443,3.164,3.164,0,0,1,.369.041,6.666,6.666,0,0,0-.213.635,1.015,1.015,0,0,0,1.965.507,4.936,4.936,0,0,1,.527-1.271,5.012,5.012,0,0,1,4.281-2.443,4.929,4.929,0,0,1,2.688.812,4.125,4.125,0,0,0-.238,1.331,1.015,1.015,0,1,0,2.03,0,2.135,2.135,0,1,1,4.27,0,1.015,1.015,0,1,0,2.03,0c0-.078-.019-.152-.023-.23a6.588,6.588,0,0,1,6.01,5.081,4.1,4.1,0,0,0-1.312.655A1.015,1.015,0,0,0,43.647,19.3a2.139,2.139,0,0,1,3.138,2.768,2.165,2.165,0,0,1-.961.889,1.015,1.015,0,0,0,.432,1.928,1,1,0,0,0,.43-.1,4.168,4.168,0,0,0,.758-.474,4.335,4.335,0,0,1-.859,4.328l-.024.025a4.383,4.383,0,0,1-5.176.95,4.112,4.112,0,0,1-1.2-.905,1.015,1.015,0,1,0-1.5,1.371,6.152,6.152,0,0,0,1.775,1.346,6.252,6.252,0,0,0,4.688.433,6.469,6.469,0,0,1-4.179,2.563,1.015,1.015,0,0,0,.159,2.017,1.08,1.08,0,0,0,.161-.012,8.34,8.34,0,0,0,1.8-.526,9.075,9.075,0,0,1,.757,1.743,1.046,1.046,0,0,1,.053.328,1.1,1.1,0,0,1-.666,1.007,1.149,1.149,0,0,1-1.31-.352,6.478,6.478,0,0,0-2.971-1.974c-2.193-.735-3.04-1.391-3.4-2.106a9.743,9.743,0,0,0,1.556-.325,1.015,1.015,0,0,0-.6-1.94,7.691,7.691,0,0,1-1.752.322A7.533,7.533,0,0,1,31.4,32.1a1.015,1.015,0,0,0-1.138.283A4.346,4.346,0,0,1,23.253,27.3a1.017,1.017,0,0,0-1.744-1.046,6.286,6.286,0,0,0-.812,4.332,6.2,6.2,0,0,1-7.017-8.494,4.091,4.091,0,0,0,.755.6,1.015,1.015,0,0,0,1.047-1.739ZM11.02,29.109c.468-.069.951-.13,1.431-.193a8.194,8.194,0,0,0,8.9,3.611,6.357,6.357,0,0,0,9.958,1.688,9.743,9.743,0,0,0,2.118.384c.49,1.859,1.907,2.986,4.884,3.983a4.5,4.5,0,0,1,2.066,1.361,3.232,3.232,0,0,0,2.452,1.152,3.082,3.082,0,0,0,1.2-.246,3.125,3.125,0,0,0,1.9-2.873,3.011,3.011,0,0,0-.154-.96,11.094,11.094,0,0,0-.9-2.065,8.555,8.555,0,0,0,3.372-5.158,6.357,6.357,0,0,0,.585-.818c.34.044.68.082,1.022.139l3.664,22.037a34.837,34.837,0,0,0-22.068,0v-12.7a1.015,1.015,0,0,0-2.03,0V51.155a34.843,34.843,0,0,0-22.068-.008ZM2.684,55.326a1.007,1.007,0,0,1-.213-.832L6.915,31.677H8.539L5.354,50.817a2.037,2.037,0,0,0,2.619,2.267,33.953,33.953,0,0,1,16.763-1.064l-.3,3.679H3.475a1.022,1.022,0,0,1-.791-.373Zm27.756,2.4c-2.445,0-3.847-.723-4.053-1.044l.349-4.212A21.688,21.688,0,0,1,30,53.568a1.024,1.024,0,0,0,.438.1,1.009,1.009,0,0,0,.439-.1,21.617,21.617,0,0,1,3.265-1.1l.349,4.218c-.206.323-1.609,1.045-4.053,1.045Zm27.756-2.4a1.022,1.022,0,0,1-.791.373H36.449l-.3-3.686a33.963,33.963,0,0,1,16.77,1.073,2.036,2.036,0,0,0,2.61-2.272L52.344,31.678h1.624l4.445,22.815A1.007,1.007,0,0,1,58.2,55.326Z" transform="translate(-0.424 0.119)"/>
      </g>
    </g>
  </g>
</svg>
