<svg xmlns="http://www.w3.org/2000/svg" xmlns:xlink="http://www.w3.org/1999/xlink" width="113" height="113" viewBox="0 0 113 113">
  <defs>
    <filter id="Trazado_982547" x="0" y="0" width="113" height="113" filterUnits="userSpaceOnUse">
      <feOffset dy="3" input="SourceAlpha"/>
      <feGaussianBlur stdDeviation="3" result="blur"/>
      <feFlood flood-opacity="0.161"/>
      <feComposite operator="in" in2="blur"/>
      <feComposite in="SourceGraphic"/>
    </filter>
  </defs>
  <g id="Grupo_1242533" data-name="Grupo 1242533" transform="translate(-901.292 -906.963)">
    <g id="Grupo_1241890" data-name="Grupo 1241890" transform="translate(0 -3985)">
      <g id="Grupo_1241018" data-name="Grupo 1241018" transform="translate(545.948 -7791.204)">
        <g id="Grupo_1240425" data-name="Grupo 1240425" transform="translate(364.344 12689.168)">
          <g id="Grupo_1239772" data-name="Grupo 1239772" transform="translate(0 0)">
            <g id="Grupo_1236602" data-name="Grupo 1236602">
              <g id="Grupo_1236144" data-name="Grupo 1236144">
                <g id="Grupo_1235105" data-name="Grupo 1235105">
                  <g id="Grupo_1223793" data-name="Grupo 1223793">
                    <g id="Grupo_1208028" data-name="Grupo 1208028">
                      <g id="Grupo_1177675" data-name="Grupo 1177675">
                        <g id="Grupo_1176928" data-name="Grupo 1176928" transform="translate(0)">
                          <g id="Grupo_1172322" data-name="Grupo 1172322">
                            <g id="Grupo_1164700" data-name="Grupo 1164700">
                              <g id="Grupo_1160931" data-name="Grupo 1160931">
                                <g id="Grupo_1160749" data-name="Grupo 1160749">
                                  <g id="Grupo_1158891" data-name="Grupo 1158891">
                                    <g id="Grupo_1157406" data-name="Grupo 1157406">
                                      <g id="Grupo_1155793" data-name="Grupo 1155793">
                                        <g id="Grupo_1154704" data-name="Grupo 1154704">
                                          <g id="Grupo_1150790" data-name="Grupo 1150790">
                                            <g id="Grupo_1154214" data-name="Grupo 1154214" transform="translate(0)">
                                              <g id="Grupo_1152583" data-name="Grupo 1152583">
                                                <g id="Grupo_1146973" data-name="Grupo 1146973">
                                                  <g id="Grupo_1146954" data-name="Grupo 1146954">
                                                    <g transform="matrix(1, 0, 0, 1, -9, -6)" filter="url(#Trazado_982547)">
                                                      <g id="Trazado_982547-2" data-name="Trazado 982547" transform="translate(9 6)" fill="#c3f3fb">
                                                        <path d="M 47.50000762939453 93.49986267089844 C 41.28937911987305 93.49986267089844 35.26534271240234 92.28383636474609 29.59519386291504 89.88558197021484 C 24.11772727966309 87.56880950927734 19.19814109802246 84.25183868408203 14.97310066223145 80.02679443359375 C 10.74804782867432 75.8017578125 7.431074142456055 70.88218688964844 5.114300727844238 65.40471649169922 C 2.716034412384033 59.73458480834961 1.500007629394531 53.71054458618164 1.500007629394531 47.49993133544922 C 1.500007629394531 41.2893180847168 2.716034412384033 35.26527786254883 5.114300727844238 29.59514427185059 C 7.431074142456055 24.11767768859863 10.74804782867432 19.19810485839844 14.97310066223145 14.97306442260742 C 19.19814109802246 10.74802494049072 24.11772727966309 7.431051254272461 29.59519386291504 5.114277839660645 C 35.26534271240234 2.71602463722229 41.28937911987305 1.499997973442078 47.50000762939453 1.499997973442078 C 53.71063613891602 1.499997973442078 59.73467254638672 2.71602463722229 65.40482330322266 5.114277839660645 C 70.88228607177734 7.431051254272461 75.80187225341797 10.74802494049072 80.02691650390625 14.97306442260742 C 84.25196838378906 19.19810485839844 87.56893920898438 24.11767768859863 89.88571166992188 29.59514427185059 C 92.28398132324219 35.26527786254883 93.50000762939453 41.2893180847168 93.50000762939453 47.49993133544922 C 93.50000762939453 53.71054458618164 92.28398132324219 59.73458480834961 89.88571166992188 65.40471649169922 C 87.56893920898438 70.88218688964844 84.25196838378906 75.8017578125 80.02691650390625 80.02679443359375 C 75.80187225341797 84.25183868408203 70.88228607177734 87.56880950927734 65.40482330322266 89.88558197021484 C 59.73467254638672 92.28383636474609 53.71063613891602 93.49986267089844 47.50000762939453 93.49986267089844 Z" stroke="none"/>
                                                        <path d="M 47.50000762939453 2.999992370605469 C 41.4912223815918 2.999992370605469 35.66377639770508 4.1761474609375 30.17951202392578 6.495796203613281 C 24.88085174560547 8.736930847167969 20.12152862548828 11.94596099853516 16.03376007080078 16.03372955322266 C 11.94597625732422 20.12148284912109 8.736961364746094 24.88080596923828 6.495803833007812 30.17946624755859 C 4.176162719726562 35.66371536254883 3.000007629394531 41.49116134643555 3.000007629394531 47.49993133544922 C 3.000007629394531 53.50870132446289 4.176162719726562 59.33614730834961 6.495803833007812 64.82038879394531 C 8.736961364746094 70.11905670166016 11.94597625732422 74.87836456298828 16.03376007080078 78.96613311767578 C 20.12152862548828 83.05390167236328 24.88085174560547 86.26291656494141 30.17951202392578 88.50406646728516 C 35.66377639770508 90.82369995117188 41.4912223815918 91.99985504150391 47.50000762939453 91.99985504150391 C 53.50879287719727 91.99985504150391 59.33623886108398 90.82369995117188 64.82049560546875 88.50406646728516 C 70.11916351318359 86.26291656494141 74.87848663330078 83.05390167236328 78.96625518798828 78.96613311767578 C 83.05403900146484 74.87836456298828 86.26305389404297 70.11905670166016 88.50421142578125 64.82038879394531 C 90.8238525390625 59.33614730834961 92.00000762939453 53.50870132446289 92.00000762939453 47.49993133544922 C 92.00000762939453 41.49116134643555 90.8238525390625 35.66371536254883 88.50421142578125 30.17946624755859 C 86.26305389404297 24.88080596923828 83.05403900146484 20.12148284912109 78.96625518798828 16.03372955322266 C 74.87848663330078 11.94596099853516 70.11916351318359 8.736930847167969 64.82049560546875 6.495796203613281 C 59.33623886108398 4.1761474609375 53.50879287719727 2.999992370605469 47.50000762939453 2.999992370605469 M 47.50000762939453 -7.62939453125e-06 C 73.73352813720703 -7.62939453125e-06 95.00000762939453 21.26644134521484 95.00000762939453 47.49993133544922 C 95.00000762939453 73.73342132568359 73.73352813720703 94.99985504150391 47.50000762939453 94.99985504150391 C 21.26648712158203 94.99985504150391 7.62939453125e-06 73.73342132568359 7.62939453125e-06 47.49993133544922 C 7.62939453125e-06 21.26644134521484 21.26648712158203 -7.62939453125e-06 47.50000762939453 -7.62939453125e-06 Z" stroke="none" fill="#497f88"/>
                                                      </g>
                                                    </g>
                                                  </g>
                                                </g>
                                              </g>
                                            </g>
                                          </g>
                                        </g>
                                      </g>
                                    </g>
                                  </g>
                                </g>
                              </g>
                            </g>
                          </g>
                        </g>
                      </g>
                    </g>
                  </g>
                </g>
              </g>
            </g>
          </g>
        </g>
      </g>
    </g>
    <g id="epidemiologia" transform="translate(925.886 921.135)">
      <g id="Grupo_1242532" data-name="Grupo 1242532" transform="translate(0.935 9.414)">
        <g id="Grupo_1242493" data-name="Grupo 1242493" transform="translate(3.631)">
          <g id="Grupo_1242492" data-name="Grupo 1242492">
            <g id="Grupo_1242491" data-name="Grupo 1242491">
              <circle id="Elipse_12829" data-name="Elipse 12829" cx="27.341" cy="27.341" r="27.341" transform="translate(0 0)" fill="#7dacdd"/>
              <path id="Trazado_1220397" data-name="Trazado 1220397" d="M264.018,43.32A27.34,27.34,0,0,1,236.677,70.66q-1.394,0-2.751-.137a27.342,27.342,0,0,0,0-54.406q1.357-.136,2.751-.137A27.34,27.34,0,0,1,264.018,43.32Z" transform="translate(-209.337 -15.979)" fill="#629bd5"/>
              <g id="Grupo_1242489" data-name="Grupo 1242489" transform="translate(23.373)">
                <path id="Trazado_1220398" data-name="Trazado 1220398" d="M228.136,15.978a27.56,27.56,0,0,0-3.8.264l-.158,1.455a1.183,1.183,0,0,0,.865,1.269l3.449.941a1.183,1.183,0,0,1,.489.27l2.62,2.408a1.183,1.183,0,0,1,.376.748l.3,2.883a1.183,1.183,0,0,0,.823,1.006l.7.219a1.183,1.183,0,0,0,1.481-.77l.916-2.877a1.183,1.183,0,0,1,.739-.759l2.934-1.018a1.183,1.183,0,0,0,.786-.969l.242-1.916a27.217,27.217,0,0,0-12.757-3.155Z" transform="translate(-224.169 -15.978)" fill="#27e19d"/>
              </g>
              <path id="Trazado_1220399" data-name="Trazado 1220399" d="M233.989,16.116A27.211,27.211,0,0,1,248.4,22.041l.065-.023a1.183,1.183,0,0,0,.786-.969l.242-1.916a27.218,27.218,0,0,0-12.757-3.155c-.926,0-1.841.048-2.743.138Z" transform="translate(-209.392 -15.978)" fill="#26d192"/>
              <g id="Grupo_1242490" data-name="Grupo 1242490" transform="translate(0.312 1.881)">
                <path id="Trazado_1220400" data-name="Trazado 1220400" d="M47.019,53.954,47.2,55.51a1.1,1.1,0,0,0,.611.862l3.6,1.756a1.093,1.093,0,0,1,.583.714l.641,2.485a1.1,1.1,0,0,0,1.265.808l.637-.118a1.116,1.116,0,0,1,.353-.007l7.587.779a1.1,1.1,0,0,1,.943,1l.177,2.252a1.1,1.1,0,0,0,.4.763l2.431,3.707a1.1,1.1,0,0,1,.4.849v12.5q-.329.007-.662.007A27.223,27.223,0,0,1,53.191,80.6l-.007,0,.667-5.592a1.1,1.1,0,0,0-.2-.781l-4.624-6.3a1.1,1.1,0,0,1-.1-1.13l.828-1.711a1.1,1.1,0,0,0,.062-.8l-.839-2.752a1.1,1.1,0,0,0-.69-.718L43.39,59.105a1.1,1.1,0,0,1-.737-.971l-.207-3.392a1.1,1.1,0,0,0-.582-.9L39.13,52.385A27.379,27.379,0,0,1,56.175,31.068l-3.027,5.941a1.1,1.1,0,0,0-.076.808l.739,2.528a1.1,1.1,0,0,0,.55.668l1.655.856a1.1,1.1,0,0,0,1.552-.634l1.113-3.4a1.1,1.1,0,0,1,1.175-.75l4.479.535a1.1,1.1,0,0,1,.9.712l2.111,5.733a1.1,1.1,0,0,1-.557,1.373l-8.774,3.71a1.106,1.106,0,0,0-.408.274l-3.538,3.774a1.1,1.1,0,0,1-1.385.181l-1.909-1.188a1.1,1.1,0,0,0-.935-.108l-2.084.708a1.1,1.1,0,0,0-.739,1.168Z" transform="translate(-39.13 -31.068)" fill="#27e19d"/>
              </g>
              <path id="Trazado_1220401" data-name="Trazado 1220401" d="M350.362,148.256l-6.917-.763a1.1,1.1,0,0,0-1.04.489l-2.04,3.1a1.1,1.1,0,0,1-.615.453l-4.136,1.191a1.122,1.122,0,0,0-.811,1.078v13.037l6.884,3.3a1.1,1.1,0,0,1,.625.992v7.51l.27.711a27.361,27.361,0,0,0,7.781-31.1Z" transform="translate(-297.641 -131.096)" fill="#27e19d"/>
              <path id="Trazado_1220402" data-name="Trazado 1220402" d="M397.328,148.556a27.376,27.376,0,0,1-2.282,25.86v5.167l.27.711a27.361,27.361,0,0,0,7.781-31.1Z" transform="translate(-350.376 -132.033)" fill="#26d192"/>
            </g>
          </g>
        </g>
        <g id="Grupo_1242531" data-name="Grupo 1242531" transform="translate(0 28.84)">
          <g id="Grupo_1242508" data-name="Grupo 1242508" transform="translate(35.861)">
            <g id="Grupo_1242500" data-name="Grupo 1242500" transform="translate(8.694)">
              <g id="Grupo_1242499" data-name="Grupo 1242499">
                <g id="Grupo_1242497" data-name="Grupo 1242497">
                  <g id="Grupo_1242496" data-name="Grupo 1242496">
                    <g id="Grupo_1242494" data-name="Grupo 1242494" transform="translate(0 7.395)">
                      <path id="Trazado_1220403" data-name="Trazado 1220403" d="M380.124,320.928H367.24a2.252,2.252,0,0,1-2.252-2.252v-3.269a8.694,8.694,0,0,1,17.388,0v3.269A2.252,2.252,0,0,1,380.124,320.928Z" transform="translate(-364.988 -306.713)" fill="#e33c53"/>
                      <path id="Trazado_1220404" data-name="Trazado 1220404" d="M405.4,308.205a8.7,8.7,0,0,0-9.743,0,4.9,4.9,0,0,0,9.743,0Z" transform="translate(-391.834 -306.713)" fill="#c83146"/>
                    </g>
                    <g id="Grupo_1242495" data-name="Grupo 1242495" transform="translate(3.798)">
                      <circle id="Elipse_12830" data-name="Elipse 12830" cx="4.896" cy="4.896" r="4.896" fill="#e8576b"/>
                      <path id="Trazado_1220405" data-name="Trazado 1220405" d="M425.985,252.275a4.9,4.9,0,0,1-6.841,4.494,4.6,4.6,0,0,0,0-8.99,4.9,4.9,0,0,1,6.838,4.5Z" transform="translate(-416.192 -247.379)" fill="#e33c53"/>
                    </g>
                  </g>
                </g>
                <g id="Grupo_1242498" data-name="Grupo 1242498" transform="translate(3.798 16.045)">
                  <path id="Trazado_1220406" data-name="Trazado 1220406" d="M398.621,391.051H397.2a1.736,1.736,0,0,1-1.736-1.736v-13.2h4.9v13.2A1.736,1.736,0,0,1,398.621,391.051Z" transform="translate(-395.461 -376.118)" fill="#e33c53"/>
                  <path id="Trazado_1220407" data-name="Trazado 1220407" d="M437.9,391.051H436.48a1.736,1.736,0,0,1-1.736-1.736v-13.2h4.9v13.2A1.736,1.736,0,0,1,437.9,391.051Z" transform="translate(-429.848 -376.118)" fill="#e33c53"/>
                </g>
              </g>
            </g>
            <g id="Grupo_1242507" data-name="Grupo 1242507">
              <g id="Grupo_1242506" data-name="Grupo 1242506">
                <g id="Grupo_1242504" data-name="Grupo 1242504">
                  <g id="Grupo_1242503" data-name="Grupo 1242503">
                    <g id="Grupo_1242501" data-name="Grupo 1242501" transform="translate(0 7.395)">
                      <path id="Trazado_1220408" data-name="Trazado 1220408" d="M310.368,320.928H297.484a2.252,2.252,0,0,1-2.252-2.252v-3.269a8.694,8.694,0,0,1,17.388,0v3.269A2.252,2.252,0,0,1,310.368,320.928Z" transform="translate(-295.232 -306.713)" fill="#e8576b"/>
                      <path id="Trazado_1220409" data-name="Trazado 1220409" d="M335.643,308.205a8.7,8.7,0,0,0-9.743,0,4.9,4.9,0,0,0,9.743,0Z" transform="translate(-322.078 -306.713)" fill="#e33c53"/>
                    </g>
                    <g id="Grupo_1242502" data-name="Grupo 1242502" transform="translate(3.798)">
                      <circle id="Elipse_12831" data-name="Elipse 12831" cx="4.896" cy="4.896" r="4.896" fill="#ee7382"/>
                      <path id="Trazado_1220410" data-name="Trazado 1220410" d="M356.229,252.275a4.9,4.9,0,0,1-6.841,4.494,4.6,4.6,0,0,0,0-8.99,4.9,4.9,0,0,1,6.838,4.5Z" transform="translate(-346.436 -247.379)" fill="#e8576b"/>
                    </g>
                  </g>
                </g>
                <g id="Grupo_1242505" data-name="Grupo 1242505" transform="translate(3.786 16.045)">
                  <path id="Trazado_1220411" data-name="Trazado 1220411" d="M328.782,391.051h-1.435a1.736,1.736,0,0,1-1.736-1.736v-13.2h4.908v13.2A1.736,1.736,0,0,1,328.782,391.051Z" transform="translate(-325.611 -376.118)" fill="#e8576b"/>
                  <path id="Trazado_1220412" data-name="Trazado 1220412" d="M368.148,391.051h-1.423a1.736,1.736,0,0,1-1.736-1.736v-13.2h4.9v13.2A1.736,1.736,0,0,1,368.148,391.051Z" transform="translate(-360.08 -376.118)" fill="#e8576b"/>
                </g>
              </g>
            </g>
          </g>
          <g id="Grupo_1242523" data-name="Grupo 1242523" transform="translate(0 0.01)">
            <g id="Grupo_1242515" data-name="Grupo 1242515">
              <g id="Grupo_1242514" data-name="Grupo 1242514">
                <g id="Grupo_1242512" data-name="Grupo 1242512">
                  <g id="Grupo_1242511" data-name="Grupo 1242511">
                    <g id="Grupo_1242509" data-name="Grupo 1242509" transform="translate(0 7.395)">
                      <path id="Trazado_1220413" data-name="Trazado 1220413" d="M9.752,321.012H22.636a2.252,2.252,0,0,0,2.252-2.252v-3.269a8.694,8.694,0,0,0-17.388,0v3.269A2.252,2.252,0,0,0,9.752,321.012Z" transform="translate(-7.5 -306.797)" fill="#e33c53"/>
                      <path id="Trazado_1220414" data-name="Trazado 1220414" d="M38.168,308.289a8.7,8.7,0,0,1,9.743,0,4.9,4.9,0,0,1-9.743,0Z" transform="translate(-34.346 -306.797)" fill="#c83146"/>
                    </g>
                    <g id="Grupo_1242510" data-name="Grupo 1242510" transform="translate(3.797)">
                      <circle id="Elipse_12832" data-name="Elipse 12832" cx="4.896" cy="4.896" r="4.896" fill="#e8576b"/>
                      <path id="Trazado_1220415" data-name="Trazado 1220415" d="M68.493,252.36a4.9,4.9,0,0,1-6.841,4.494,4.6,4.6,0,0,0,0-8.99,4.9,4.9,0,0,1,6.838,4.5Z" transform="translate(-58.7 -247.464)" fill="#e33c53"/>
                    </g>
                  </g>
                </g>
                <g id="Grupo_1242513" data-name="Grupo 1242513" transform="translate(3.798 16.045)">
                  <path id="Trazado_1220416" data-name="Trazado 1220416" d="M78.992,391.136h1.423a1.736,1.736,0,0,0,1.736-1.736V376.2h-4.9v13.2A1.736,1.736,0,0,0,78.992,391.136Z" transform="translate(-72.36 -376.203)" fill="#e33c53"/>
                  <path id="Trazado_1220417" data-name="Trazado 1220417" d="M39.709,391.136h1.423a1.736,1.736,0,0,0,1.736-1.736V376.2h-4.9v13.2A1.736,1.736,0,0,0,39.709,391.136Z" transform="translate(-37.973 -376.203)" fill="#e33c53"/>
                </g>
              </g>
            </g>
            <g id="Grupo_1242522" data-name="Grupo 1242522" transform="translate(8.694)">
              <g id="Grupo_1242521" data-name="Grupo 1242521">
                <g id="Grupo_1242519" data-name="Grupo 1242519">
                  <g id="Grupo_1242518" data-name="Grupo 1242518">
                    <g id="Grupo_1242516" data-name="Grupo 1242516" transform="translate(0 7.395)">
                      <path id="Trazado_1220418" data-name="Trazado 1220418" d="M79.508,321.012H92.392a2.252,2.252,0,0,0,2.252-2.252v-3.269a8.694,8.694,0,0,0-17.388,0v3.269A2.252,2.252,0,0,0,79.508,321.012Z" transform="translate(-77.256 -306.797)" fill="#e8576b"/>
                      <path id="Trazado_1220419" data-name="Trazado 1220419" d="M107.924,308.289a8.7,8.7,0,0,1,9.743,0,4.9,4.9,0,0,1-9.743,0Z" transform="translate(-104.102 -306.797)" fill="#e33c53"/>
                    </g>
                    <g id="Grupo_1242517" data-name="Grupo 1242517" transform="translate(3.797)">
                      <circle id="Elipse_12833" data-name="Elipse 12833" cx="4.896" cy="4.896" r="4.896" fill="#ee7382"/>
                      <path id="Trazado_1220420" data-name="Trazado 1220420" d="M138.249,252.36a4.9,4.9,0,0,1-6.841,4.494,4.6,4.6,0,0,0,0-8.99,4.9,4.9,0,0,1,6.838,4.5Z" transform="translate(-128.456 -247.464)" fill="#e8576b"/>
                    </g>
                  </g>
                </g>
                <g id="Grupo_1242520" data-name="Grupo 1242520" transform="translate(3.798 16.045)">
                  <path id="Trazado_1220421" data-name="Trazado 1220421" d="M148.749,391.136h1.4a1.736,1.736,0,0,0,1.736-1.736V376.2h-4.872v13.2A1.736,1.736,0,0,0,148.749,391.136Z" transform="translate(-142.117 -376.203)" fill="#e8576b"/>
                  <path id="Trazado_1220422" data-name="Trazado 1220422" d="M109.465,391.136h1.423a1.736,1.736,0,0,0,1.736-1.736V376.2h-4.9v13.2A1.736,1.736,0,0,0,109.465,391.136Z" transform="translate(-107.729 -376.203)" fill="#e8576b"/>
                </g>
              </g>
            </g>
          </g>
          <g id="Grupo_1242530" data-name="Grupo 1242530" transform="translate(22.259 0.01)">
            <g id="Grupo_1242529" data-name="Grupo 1242529">
              <g id="Grupo_1242527" data-name="Grupo 1242527">
                <g id="Grupo_1242526" data-name="Grupo 1242526">
                  <g id="Grupo_1242524" data-name="Grupo 1242524" transform="translate(0 7.395)">
                    <path id="Trazado_1220423" data-name="Trazado 1220423" d="M201.236,321.012H188.352a2.252,2.252,0,0,1-2.252-2.252v-3.269a8.694,8.694,0,0,1,17.388,0v3.269A2.252,2.252,0,0,1,201.236,321.012Z" transform="translate(-186.1 -306.797)" fill="#fdb0a0"/>
                    <path id="Trazado_1220424" data-name="Trazado 1220424" d="M226.511,308.289a8.7,8.7,0,0,0-9.743,0,4.9,4.9,0,0,0,9.743,0Z" transform="translate(-212.946 -306.797)" fill="#f89f8e"/>
                  </g>
                  <g id="Grupo_1242525" data-name="Grupo 1242525" transform="translate(3.798)">
                    <circle id="Elipse_12834" data-name="Elipse 12834" cx="4.896" cy="4.896" r="4.896" fill="#ffcec0"/>
                    <path id="Trazado_1220425" data-name="Trazado 1220425" d="M247.1,252.36a4.9,4.9,0,0,1-6.841,4.494,4.6,4.6,0,0,0,0-8.99,4.9,4.9,0,0,1,6.838,4.5Z" transform="translate(-237.304 -247.464)" fill="#fdb0a0"/>
                  </g>
                </g>
              </g>
              <g id="Grupo_1242528" data-name="Grupo 1242528" transform="translate(3.798 16.045)">
                <path id="Trazado_1220426" data-name="Trazado 1220426" d="M219.733,391.136h-1.423a1.736,1.736,0,0,1-1.736-1.736V376.2h4.9v13.2A1.736,1.736,0,0,1,219.733,391.136Z" transform="translate(-216.573 -376.203)" fill="#fdb0a0"/>
                <path id="Trazado_1220427" data-name="Trazado 1220427" d="M259.016,391.136h-1.423a1.736,1.736,0,0,1-1.736-1.736V376.2h4.9v13.2A1.736,1.736,0,0,1,259.016,391.136Z" transform="translate(-250.96 -376.203)" fill="#fdb0a0"/>
              </g>
            </g>
          </g>
        </g>
      </g>
      <path id="Trazado_1220428" data-name="Trazado 1220428" d="M59.2,46.122a5.811,5.811,0,0,0,.583-4.6,28.548,28.548,0,0,0,.4-4.765A28.284,28.284,0,0,0,19.1,11.537a28.538,28.538,0,0,0-9.76,8.173.935.935,0,1,0,1.491,1.128,26.659,26.659,0,0,1,9.044-7.6l-1.819,3.57a2.027,2.027,0,0,0-.14,1.495l.739,2.526a2.042,2.042,0,0,0,1.018,1.238l1.655.856a2.035,2.035,0,0,0,2.87-1.174l1.114-3.4a.164.164,0,0,1,.175-.111l4.48.535a.166.166,0,0,1,.135.106l2.112,5.734a.165.165,0,0,1-.073.2l-2.767,1.17a.935.935,0,1,0,.728,1.722l2.8-1.182.04-.018a2.026,2.026,0,0,0,1.03-2.539L31.86,18.231a2.026,2.026,0,0,0-1.668-1.316l-4.479-.535a2.037,2.037,0,0,0-2.175,1.388l-1.113,3.4a.166.166,0,0,1-.234.094l-1.654-.856a.165.165,0,0,1-.083-.1l-.739-2.527a.166.166,0,0,1,.012-.121l2.865-5.622a25.9,25.9,0,0,1,4.45-1.245l-.026.239A2.108,2.108,0,0,0,28.565,13.3l3.449.941a.247.247,0,0,1,.1.057l2.62,2.408a.249.249,0,0,1,.079.157l.3,2.883a2.116,2.116,0,0,0,1.473,1.8l.7.219a2.118,2.118,0,0,0,2.652-1.378l.916-2.877a.249.249,0,0,1,.155-.159l2.934-1.018A2.1,2.1,0,0,0,45.348,14.6l.067-.527A26.585,26.585,0,0,1,55.774,25.466l-5.3-.585a2.027,2.027,0,0,0-1.924.905l-2.04,3.1a.166.166,0,0,1-.093.068L42.28,30.149a2.066,2.066,0,0,0-1.488,1.976V39.7a5.8,5.8,0,0,0-.312,6.42,9.751,9.751,0,0,0-1.792,1.408,9.594,9.594,0,0,0-1.769-1.4,5.829,5.829,0,1,0-10.7-4.263l-2.272-.233a5.823,5.823,0,0,0-6.6-4.225l-3.387-1.653a.165.165,0,0,1-.091-.129l-.179-1.554a.168.168,0,0,1,.111-.177l2.084-.708a.165.165,0,0,1,.14.017l1.909,1.187a2.041,2.041,0,0,0,2.561-.335l3.538-3.773a.172.172,0,0,1,.063-.042l.027-.011,2.183-.923a.935.935,0,1,0-.728-1.722l-2.171.918a2.053,2.053,0,0,0-.737.5l-3.538,3.774a.167.167,0,0,1-.209.027l-1.909-1.188a2.028,2.028,0,0,0-1.729-.2l-2.085.708a2.049,2.049,0,0,0-1.366,2.16l.18,1.557a2.027,2.027,0,0,0,1.129,1.594l1.878.917a5.877,5.877,0,0,0-1.048.924,5.832,5.832,0,0,0-4.348-1.949c-.119,0-.236,0-.353.012L9.126,34.91a2.047,2.047,0,0,0-1.077-1.673L5.915,32.1a26.331,26.331,0,0,1,2.761-7.917A.935.935,0,1,0,7.033,23.3a28.227,28.227,0,0,0-3.064,9.1.927.927,0,0,0-.024.173,28.3,28.3,0,0,0,.088,8.956,5.811,5.811,0,0,0,.582,4.608A9.689,9.689,0,0,0,0,54.353v3.269a3.19,3.19,0,0,0,3.186,3.186H3.8v6.7a2.674,2.674,0,0,0,2.671,2.671H7.892a2.657,2.657,0,0,0,1.736-.645,2.657,2.657,0,0,0,1.736.645h1.424a2.674,2.674,0,0,0,1.188-.282,2.651,2.651,0,0,0,1.186.282h1.423a2.657,2.657,0,0,0,1.736-.645,2.657,2.657,0,0,0,1.736.645h1.417a2.674,2.674,0,0,0,2.671-2.671V63.95c.637.181,1.281.341,1.928.476v3.08a2.674,2.674,0,0,0,2.671,2.671H30.17a2.657,2.657,0,0,0,1.736-.645,2.657,2.657,0,0,0,1.736.645h1.423a2.674,2.674,0,0,0,2.671-2.671v-3.08q.971-.2,1.928-.476V67.5a2.674,2.674,0,0,0,2.671,2.671h1.417a2.657,2.657,0,0,0,1.736-.645,2.657,2.657,0,0,0,1.736.645h1.423a2.651,2.651,0,0,0,1.186-.281,2.671,2.671,0,0,0,1.189.281h1.424a2.657,2.657,0,0,0,1.736-.645,2.657,2.657,0,0,0,1.736.645h1.423A2.674,2.674,0,0,0,60.014,67.5V60.8h.611a3.19,3.19,0,0,0,3.186-3.186V54.342A9.686,9.686,0,0,0,59.2,46.122Zm-15.7-31.755a.247.247,0,0,1-.165.2l-2.934,1.018a2.128,2.128,0,0,0-1.324,1.358l-.916,2.877a.249.249,0,0,1-.311.162l-.7-.219a.248.248,0,0,1-.173-.211l-.3-2.883A2.117,2.117,0,0,0,36,15.332l-2.62-2.408a2.127,2.127,0,0,0-.876-.484L29.056,11.5a.247.247,0,0,1-.181-.266l.079-.723a26.974,26.974,0,0,1,2.952-.163A26.244,26.244,0,0,1,43.652,13.11Zm7.395,30.979a5.808,5.808,0,0,0,0-4.394,3.961,3.961,0,1,1,0,4.394ZM42.8,31.945l4.136-1.191a2.036,2.036,0,0,0,1.138-.838l2.04-3.1a.166.166,0,0,1,.156-.074l6.347.7a26.275,26.275,0,0,1,1.7,9.314c0,.732-.031,1.465-.091,2.195a5.819,5.819,0,0,0-8.385.319,5.818,5.818,0,0,0-7.174-1.215V32.125a.188.188,0,0,1,.135-.18ZM31.906,39.2a3.961,3.961,0,1,1-3.961,3.961A3.966,3.966,0,0,1,31.906,39.2Zm-6.789,8.335a9.759,9.759,0,0,0-1.781-1.4,5.789,5.789,0,0,0,.8-2.6l1.965.2a5.787,5.787,0,0,0,.788,2.395A9.6,9.6,0,0,0,25.116,47.534ZM22.283,43.16A3.961,3.961,0,1,1,18.322,39.2,3.966,3.966,0,0,1,22.283,43.16Zm-9.36-2.2a5.813,5.813,0,0,0,0,4.395,3.961,3.961,0,1,1,0-4.395Zm-5.75-6.074a.167.167,0,0,1,.088.136l.167,2.737a5.846,5.846,0,0,0-1.836,1.2c-.06-.732-.092-1.469-.092-2.2a26.438,26.438,0,0,1,.139-2.68Zm.72,33.419H6.469a.8.8,0,0,1-.8-.8v-13.2a.935.935,0,0,0-1.869,0v4.63H3.186a1.318,1.318,0,0,1-1.317-1.317V54.353a7.806,7.806,0,0,1,3.966-6.77,5.78,5.78,0,0,0,4.506,1.362,9.6,9.6,0,0,0-1.648,5.408V67.506A.8.8,0,0,1,7.892,68.308Zm2.671-.8V60.522a3.167,3.167,0,0,0,1.317.286h.611v6.7a2.659,2.659,0,0,0,.123.8h-1.25A.8.8,0,0,1,10.563,67.506Zm11.714,0a.8.8,0,0,1-.8.8H20.059a.8.8,0,0,1-.8-.8V58.112a.935.935,0,0,0-1.869,0v9.394a.8.8,0,0,1-.8.8H15.163a.8.8,0,0,1-.8-.8v-13.2a.935.935,0,0,0-1.869,0v4.63H11.88a1.318,1.318,0,0,1-1.317-1.317V54.353a7.7,7.7,0,0,1,3.966-6.77,5.813,5.813,0,0,0,7.584,0,7.857,7.857,0,0,1,1.808,1.4,9.634,9.634,0,0,0-1.644,5.367V67.506ZM24.147,62V60.522a3.167,3.167,0,0,0,1.317.286h.611v1.705C25.426,62.367,24.781,62.2,24.147,62Zm10.919,6.307H33.642a.8.8,0,0,1-.8-.8V58.112a.935.935,0,1,0-1.869,0v9.394a.8.8,0,0,1-.8.8H28.746a.8.8,0,0,1-.8-.8v-13.2a.935.935,0,0,0-1.869,0v4.63h-.611a1.318,1.318,0,0,1-1.317-1.317V54.353a7.8,7.8,0,0,1,3.966-6.77,5.813,5.813,0,0,0,7.586,0,7.806,7.806,0,0,1,3.966,6.77v3.269a1.318,1.318,0,0,1-1.317,1.317h-.611v-4.63a.935.935,0,0,0-1.869,0v9.241a.937.937,0,0,0,0,.208v3.748a.8.8,0,0,1-.8.8Zm2.671-5.795v-1.7h.611a3.167,3.167,0,0,0,1.317-.286V62c-.635.195-1.279.366-1.928.512ZM47.225,68.3a.8.8,0,0,1-.8-.8V58.1a.935.935,0,0,0-1.869,0V67.5a.8.8,0,0,1-.8.8H42.336a.8.8,0,0,1-.8-.8V54.353a9.636,9.636,0,0,0-1.649-5.372A7.853,7.853,0,0,1,41.7,47.574a5.768,5.768,0,0,0,1.246.822.935.935,0,0,0,.817-1.681,3.962,3.962,0,1,1,3.343.052.935.935,0,1,0,.763,1.707,5.82,5.82,0,0,0,1.418-.9,7.8,7.8,0,0,1,3.964,6.768v3.269a1.318,1.318,0,0,1-1.317,1.317H51.32V54.3a.935.935,0,0,0-1.869,0V67.5a.8.8,0,0,1-.8.8H47.225Zm5.221,0H51.2a2.663,2.663,0,0,0,.123-.8V60.8h.611a3.167,3.167,0,0,0,1.317-.286V67.5A.8.8,0,0,1,52.447,68.3Zm9.5-10.686a1.318,1.318,0,0,1-1.317,1.317h-.611V54.3a.935.935,0,1,0-1.869,0V67.5a.8.8,0,0,1-.8.8H55.919a.8.8,0,0,1-.8-.8V54.342a9.638,9.638,0,0,0-1.674-5.411,5.792,5.792,0,0,0,4.532-1.359,7.8,7.8,0,0,1,3.966,6.77Z"/>
    </g>
  </g>
</svg>
