<svg xmlns="http://www.w3.org/2000/svg" xmlns:xlink="http://www.w3.org/1999/xlink" width="113" height="113" viewBox="0 0 113 113">
  <defs>
    <filter id="Trazado_982547" x="0" y="0" width="113" height="113" filterUnits="userSpaceOnUse">
      <feOffset dy="3" input="SourceAlpha"/>
      <feGaussianBlur stdDeviation="3" result="blur"/>
      <feFlood flood-opacity="0.161"/>
      <feComposite operator="in" in2="blur"/>
      <feComposite in="SourceGraphic"/>
    </filter>
  </defs>
  <g id="Grupo_1242542" data-name="Grupo 1242542" transform="translate(-1216.438 -906.962)">
    <g id="Grupo_1241918" data-name="Grupo 1241918" transform="translate(0 -3985)">
      <g id="Grupo_1241019" data-name="Grupo 1241019" transform="translate(545.948 -7791.204)">
        <g id="Grupo_1240427" data-name="Grupo 1240427" transform="translate(679.49 12689.167)">
          <g id="Grupo_1239780" data-name="Grupo 1239780" transform="translate(0 0)">
            <g id="Grupo_1236603" data-name="Grupo 1236603">
              <g id="Grupo_1236145" data-name="Grupo 1236145">
                <g id="Grupo_1235107" data-name="Grupo 1235107">
                  <g id="Grupo_1223796" data-name="Grupo 1223796">
                    <g id="Grupo_1208038" data-name="Grupo 1208038">
                      <g id="Grupo_1202104" data-name="Grupo 1202104">
                        <g id="Grupo_1201923" data-name="Grupo 1201923">
                          <g id="Grupo_1176928" data-name="Grupo 1176928" transform="translate(0)">
                            <g id="Grupo_1172322" data-name="Grupo 1172322">
                              <g id="Grupo_1164700" data-name="Grupo 1164700">
                                <g id="Grupo_1160931" data-name="Grupo 1160931">
                                  <g id="Grupo_1160749" data-name="Grupo 1160749">
                                    <g id="Grupo_1158891" data-name="Grupo 1158891">
                                      <g id="Grupo_1157406" data-name="Grupo 1157406">
                                        <g id="Grupo_1155793" data-name="Grupo 1155793">
                                          <g id="Grupo_1154704" data-name="Grupo 1154704">
                                            <g id="Grupo_1150790" data-name="Grupo 1150790">
                                              <g id="Grupo_1154214" data-name="Grupo 1154214" transform="translate(0)">
                                                <g id="Grupo_1152583" data-name="Grupo 1152583">
                                                  <g id="Grupo_1146973" data-name="Grupo 1146973">
                                                    <g id="Grupo_1146954" data-name="Grupo 1146954">
                                                      <g transform="matrix(1, 0, 0, 1, -9, -6)" filter="url(#Trazado_982547)">
                                                        <g id="Trazado_982547-2" data-name="Trazado 982547" transform="translate(9 6)" fill="#c3f3fb">
                                                          <path d="M 47.50000762939453 93.49986267089844 C 41.28937911987305 93.49986267089844 35.26534271240234 92.28383636474609 29.59519386291504 89.88558197021484 C 24.11772727966309 87.56880950927734 19.19814109802246 84.25183868408203 14.97310066223145 80.02679443359375 C 10.74804782867432 75.8017578125 7.431074142456055 70.88218688964844 5.114300727844238 65.40471649169922 C 2.716034412384033 59.73458480834961 1.500007629394531 53.71054458618164 1.500007629394531 47.49993133544922 C 1.500007629394531 41.2893180847168 2.716034412384033 35.26527786254883 5.114300727844238 29.59514427185059 C 7.431074142456055 24.11767768859863 10.74804782867432 19.19810485839844 14.97310066223145 14.97306442260742 C 19.19814109802246 10.74802494049072 24.11772727966309 7.431051254272461 29.59519386291504 5.114277839660645 C 35.26534271240234 2.71602463722229 41.28937911987305 1.499997973442078 47.50000762939453 1.499997973442078 C 53.71063613891602 1.499997973442078 59.73467254638672 2.71602463722229 65.40482330322266 5.114277839660645 C 70.88228607177734 7.431051254272461 75.80187225341797 10.74802494049072 80.02691650390625 14.97306442260742 C 84.25196838378906 19.19810485839844 87.56893920898438 24.11767768859863 89.88571166992188 29.59514427185059 C 92.28398132324219 35.26527786254883 93.50000762939453 41.2893180847168 93.50000762939453 47.49993133544922 C 93.50000762939453 53.71054458618164 92.28398132324219 59.73458480834961 89.88571166992188 65.40471649169922 C 87.56893920898438 70.88218688964844 84.25196838378906 75.8017578125 80.02691650390625 80.02679443359375 C 75.80187225341797 84.25183868408203 70.88228607177734 87.56880950927734 65.40482330322266 89.88558197021484 C 59.73467254638672 92.28383636474609 53.71063613891602 93.49986267089844 47.50000762939453 93.49986267089844 Z" stroke="none"/>
                                                          <path d="M 47.50000762939453 2.999992370605469 C 41.4912223815918 2.999992370605469 35.66377639770508 4.1761474609375 30.17951202392578 6.495796203613281 C 24.88085174560547 8.736930847167969 20.12152862548828 11.94596099853516 16.03376007080078 16.03372955322266 C 11.94597625732422 20.12148284912109 8.736961364746094 24.88080596923828 6.495803833007812 30.17946624755859 C 4.176162719726562 35.66371536254883 3.000007629394531 41.49116134643555 3.000007629394531 47.49993133544922 C 3.000007629394531 53.50870132446289 4.176162719726562 59.33614730834961 6.495803833007812 64.82038879394531 C 8.736961364746094 70.11905670166016 11.94597625732422 74.87836456298828 16.03376007080078 78.96613311767578 C 20.12152862548828 83.05390167236328 24.88085174560547 86.26291656494141 30.17951202392578 88.50406646728516 C 35.66377639770508 90.82369995117188 41.4912223815918 91.99985504150391 47.50000762939453 91.99985504150391 C 53.50879287719727 91.99985504150391 59.33623886108398 90.82369995117188 64.82049560546875 88.50406646728516 C 70.11916351318359 86.26291656494141 74.87848663330078 83.05390167236328 78.96625518798828 78.96613311767578 C 83.05403900146484 74.87836456298828 86.26305389404297 70.11905670166016 88.50421142578125 64.82038879394531 C 90.8238525390625 59.33614730834961 92.00000762939453 53.50870132446289 92.00000762939453 47.49993133544922 C 92.00000762939453 41.49116134643555 90.8238525390625 35.66371536254883 88.50421142578125 30.17946624755859 C 86.26305389404297 24.88080596923828 83.05403900146484 20.12148284912109 78.96625518798828 16.03372955322266 C 74.87848663330078 11.94596099853516 70.11916351318359 8.736930847167969 64.82049560546875 6.495796203613281 C 59.33623886108398 4.1761474609375 53.50879287719727 2.999992370605469 47.50000762939453 2.999992370605469 M 47.50000762939453 -7.62939453125e-06 C 73.73352813720703 -7.62939453125e-06 95.00000762939453 21.26644134521484 95.00000762939453 47.49993133544922 C 95.00000762939453 73.73342132568359 73.73352813720703 94.99985504150391 47.50000762939453 94.99985504150391 C 21.26648712158203 94.99985504150391 7.62939453125e-06 73.73342132568359 7.62939453125e-06 47.49993133544922 C 7.62939453125e-06 21.26644134521484 21.26648712158203 -7.62939453125e-06 47.50000762939453 -7.62939453125e-06 Z" stroke="none" fill="#497f88"/>
                                                        </g>
                                                      </g>
                                                    </g>
                                                  </g>
                                                </g>
                                              </g>
                                            </g>
                                          </g>
                                        </g>
                                      </g>
                                    </g>
                                  </g>
                                </g>
                              </g>
                            </g>
                          </g>
                        </g>
                      </g>
                    </g>
                  </g>
                </g>
              </g>
            </g>
          </g>
        </g>
      </g>
    </g>
    <g id="psicologia_1_" data-name="psicologia (1)" transform="translate(1195.138 926.63)">
      <g id="Grupo_1242540" data-name="Grupo 1242540" transform="translate(51.562 5.764)">
        <g id="Grupo_1242534" data-name="Grupo 1242534" transform="translate(29.584)">
          <path id="Trazado_1220429" data-name="Trazado 1220429" d="M299.232,53.655h-1.666a.888.888,0,0,1-.849-.643,10.306,10.306,0,0,0-.821-1.981.889.889,0,0,1,.145-1.055L297.22,48.8a.882.882,0,0,0,0-1.248l-2.029-2.029a.882.882,0,0,0-1.248,0L292.765,46.7a.889.889,0,0,1-1.055.145,10.32,10.32,0,0,0-1.981-.821.888.888,0,0,1-.643-.849V43.508a.882.882,0,0,0-.882-.882h-2.869a.882.882,0,0,0-.882.882v1.666a.888.888,0,0,1-.643.849,10.3,10.3,0,0,0-1.981.821.889.889,0,0,1-1.055-.145l-1.178-1.178a.882.882,0,0,0-1.248,0l-2.029,2.029a.878.878,0,0,0-.243.459,21.28,21.28,0,0,1,13.018,18.668.888.888,0,0,1,.635-.755,10.309,10.309,0,0,0,1.981-.821.889.889,0,0,1,1.055.145l1.178,1.178a.882.882,0,0,0,1.248,0l2.029-2.029a.882.882,0,0,0,0-1.248l-1.178-1.178a.889.889,0,0,1-.145-1.056,10.3,10.3,0,0,0,.821-1.981.888.888,0,0,1,.849-.643h1.666a.882.882,0,0,0,.882-.882V54.537A.882.882,0,0,0,299.232,53.655Z" transform="translate(-276.075 -42.626)" fill="#cbc4cc"/>
          <path id="Trazado_1220430" data-name="Trazado 1220430" d="M320.986,97.387a21.142,21.142,0,0,1,5.271,9.3,6.379,6.379,0,1,0-6.409-10.395Q320.434,96.817,320.986,97.387Z" transform="translate(-313.929 -87.177)" fill="#e5e1e5"/>
          <path id="Trazado_1220431" data-name="Trazado 1220431" d="M342.43,128.4a2.392,2.392,0,1,0-2.254-3.649A21.151,21.151,0,0,1,342.43,128.4Z" transform="translate(-331.508 -112.671)" fill="#fff"/>
        </g>
        <g id="Grupo_1242539" data-name="Grupo 1242539" transform="translate(0 0.007)">
          <g id="Grupo_1242536" data-name="Grupo 1242536" transform="translate(0 3.602)">
            <path id="Trazado_1220432" data-name="Trazado 1220432" d="M102.584,97.738l-2.2-3.581a2.741,2.741,0,0,1-.388-1.667q.074-.89.075-1.8A21.38,21.38,0,0,0,79.431,69.323c-.417-.014-.831-.015-1.242-.005a8.522,8.522,0,0,1-1.775,11.677,4.683,4.683,0,0,0-1.846,3.384h.473a.731.731,0,0,1,.731.731v4.059a.731.731,0,0,1-.731.731h-.974v.731a2.841,2.841,0,0,1-5.682,0V89.9h-.974a.731.731,0,0,1-.731-.731V85.109a.731.731,0,0,1,.731-.731h.473a4.622,4.622,0,0,0-1.819-3.363,8.529,8.529,0,0,1-3.117-4.746,21.323,21.323,0,0,0,2.595,31.275,2.19,2.19,0,0,1,.843,1.726v11.3H84.223v-3.115a2.192,2.192,0,0,1,2.192-2.192h5.654a6.173,6.173,0,0,0,6.173-6.173v-6.87a.921.921,0,0,1,.921-.921h1.431A2.336,2.336,0,0,0,102.584,97.738Z" transform="translate(-57.311 -69.311)" fill="#ffcebf"/>
            <g id="Grupo_1242535" data-name="Grupo 1242535" transform="translate(20.877)">
              <path id="Trazado_1220433" data-name="Trazado 1220433" d="M219.483,411.291v3.115h4.982v-3.115a2.192,2.192,0,0,1,2.192-2.192h-4.982A2.192,2.192,0,0,0,219.483,411.291Z" transform="translate(-218.429 -363.148)" fill="#ffb09e"/>
              <path id="Trazado_1220434" data-name="Trazado 1220434" d="M236.086,97.735l-2.2-3.581a2.741,2.741,0,0,1-.388-1.667q.074-.89.075-1.8A21.38,21.38,0,0,0,212.933,69.32q-.625-.021-1.243-.006.18.255.341.524c9.486,2.042,16.559,9.563,16.559,19.713v19.535c0,3.409-4.592,6.173-8,6.173h4.982a6.173,6.173,0,0,0,6.173-6.173v-6.87a.921.921,0,0,1,.921-.921H234.1A2.336,2.336,0,0,0,236.086,97.735Z" transform="translate(-211.69 -69.308)" fill="#ffb09e"/>
            </g>
            <path id="Trazado_1220435" data-name="Trazado 1220435" d="M113.591,110.467a8.51,8.51,0,0,1-3.308,6.118,4.683,4.683,0,0,0-1.846,3.384h.473a.731.731,0,0,1,.731.731v4.059a.731.731,0,0,1-.731.731h-.974v.731a2.841,2.841,0,0,1-5.682,0v-.731h-.974a.731.731,0,0,1-.731-.731V120.7a.731.731,0,0,1,.731-.731h.473a4.622,4.622,0,0,0-1.819-3.363l-.081-.063a15.926,15.926,0,1,0,13.737-6.075Z" transform="translate(-91.181 -104.901)" fill="#bd80e1"/>
            <path id="Trazado_1220436" data-name="Trazado 1220436" d="M142.777,145.265c-.233,0-.465.009-.694.024a8.572,8.572,0,0,1-1.425,1.388,4.683,4.683,0,0,0-1.846,3.384h.473a.731.731,0,0,1,.731.731v4.059a.731.731,0,0,1-.731.731h-.974v.731a2.841,2.841,0,0,1-5.682,0v-.731h-.974l-.017,0c-.022.285-.036.572-.036.862a11.176,11.176,0,1,0,11.176-11.176Z" transform="translate(-121.555 -134.993)" fill="#af66da"/>
            <path id="Trazado_1220437" data-name="Trazado 1220437" d="M125.915,455H99.9a1.461,1.461,0,0,1-1.461-1.461v-4.819A1.461,1.461,0,0,1,99.9,447.26h22.564a4.911,4.911,0,0,1,4.911,4.911v1.369A1.461,1.461,0,0,1,125.915,455Z" transform="translate(-92.878 -396.149)" fill="#ffe177"/>
            <path id="Trazado_1220438" data-name="Trazado 1220438" d="M122.464,447.259h-1.2a4.891,4.891,0,0,1,.489,2.138v1.369a1.461,1.461,0,0,1-1.461,1.461H98.439v1.311A1.461,1.461,0,0,0,99.9,455h26.014a1.461,1.461,0,0,0,1.461-1.461V452.17A4.91,4.91,0,0,0,122.464,447.259Z" transform="translate(-92.877 -396.148)" fill="#ffd15b"/>
          </g>
          <path id="Trazado_1220439" data-name="Trazado 1220439" d="M176.852,181.422a6.246,6.246,0,0,0-2.762.641v4.055a.731.731,0,0,1-.731.731h-.974v.731a2.837,2.837,0,0,1-1.381,2.434,6.286,6.286,0,1,0,5.847-8.59Z" transform="translate(-155.63 -162.659)" fill="#bd80e1"/>
          <g id="Grupo_1242538" data-name="Grupo 1242538" transform="translate(5.392)">
            <g id="Grupo_1242537" data-name="Grupo 1242537">
              <path id="Trazado_1220440" data-name="Trazado 1220440" d="M139.2,220.548v.866a2.841,2.841,0,1,0,5.682,0v-.866Z" transform="translate(-133.516 -196.494)" fill="#554e56"/>
              <path id="Trazado_1220441" data-name="Trazado 1220441" d="M151.481,220.548v.866a2.839,2.839,0,0,1-1.463,2.484,2.84,2.84,0,0,0,4.219-2.484v-.866Z" transform="translate(-142.873 -196.494)" fill="#433f43"/>
              <path id="Trazado_1220442" data-name="Trazado 1220442" d="M105.362,42.682a8.523,8.523,0,0,0-4.818,15.3,4.62,4.62,0,0,1,1.828,3.5h6.666a4.676,4.676,0,0,1,1.855-3.519,8.523,8.523,0,0,0-5.53-15.279Z" transform="translate(-97.181 -42.675)" fill="#ffe177"/>
              <path id="Trazado_1220443" data-name="Trazado 1220443" d="M146.335,42.682a8.4,8.4,0,0,0-1.773.262,8.523,8.523,0,0,1,3.065,15.016,4.676,4.676,0,0,0-1.855,3.519h4.238a4.676,4.676,0,0,1,1.855-3.519,8.523,8.523,0,0,0-5.53-15.279Z" transform="translate(-138.155 -42.675)" fill="#ffd15b"/>
              <path id="Trazado_1220444" data-name="Trazado 1220444" d="M134.953,186.251h-7.63a.73.73,0,0,1-.731-.73v-4.059a.73.73,0,0,1,.731-.731h7.63a.73.73,0,0,1,.731.731v4.059A.73.73,0,0,1,134.953,186.251Z" transform="translate(-122.615 -162.062)" fill="#cbc4cc"/>
              <path id="Trazado_1220445" data-name="Trazado 1220445" d="M165.95,180.731h-3.513a.731.731,0,0,1,.731.731v4.059a.731.731,0,0,1-.731.73h3.513a.73.73,0,0,0,.731-.73v-4.059A.73.73,0,0,0,165.95,180.731Z" transform="translate(-153.612 -162.062)" fill="#b5adb6"/>
            </g>
            <circle id="Elipse_12835" data-name="Elipse 12835" cx="3.653" cy="3.653" r="3.653" transform="translate(4.87 4.87)" fill="#fff"/>
            <path id="Trazado_1220446" data-name="Trazado 1220446" d="M151.395,78.69a3.631,3.631,0,0,0-1.378.271,3.651,3.651,0,0,1,0,6.764,3.652,3.652,0,1,0,1.378-7.035Z" transform="translate(-142.872 -73.82)" fill="#efedef"/>
          </g>
        </g>
      </g>
      <g id="Grupo_1242541" data-name="Grupo 1242541" transform="translate(50.663 0)">
        <path id="Trazado_1220447" data-name="Trazado 1220447" d="M104.3,46.156h-1.567a11.354,11.354,0,0,0-.836-2.018l1.108-1.108a1.9,1.9,0,0,0,0-2.682l-2.029-2.029a1.9,1.9,0,0,0-2.682,0l-1.108,1.108a11.354,11.354,0,0,0-2.018-.836V37.024a1.9,1.9,0,0,0-1.9-1.9H90.405a1.9,1.9,0,0,0-1.9,1.9v1.567a11.34,11.34,0,0,0-2.018.836l-1.108-1.108a1.9,1.9,0,0,0-2.682,0L80.85,40.169q-1-.376-2.031-.655c-.113-.292-.234-.581-.365-.864a1.014,1.014,0,0,0-1.933.37,22.564,22.564,0,0,0-2.805-.272c-.251-.009-.511-.011-.774-.011a9.721,9.721,0,0,0-.856-.942A9.471,9.471,0,0,0,65.1,35.141,9.525,9.525,0,0,0,56.1,46.412a22.719,22.719,0,0,0-2.066,2.745,1.014,1.014,0,0,0-1.745,1c.162.385.343.766.539,1.137a22.1,22.1,0,0,0-2.162,7.51,1.014,1.014,0,0,0,.9,1.114,1.045,1.045,0,0,0,.106.006,1.014,1.014,0,0,0,1.007-.909,20.1,20.1,0,0,1,4.152-10.31,9.552,9.552,0,0,0,2.028,2.838A16.755,16.755,0,0,0,55.845,61.2,16.94,16.94,0,1,0,85.912,50.491a1.014,1.014,0,0,0-1.571,1.283A14.912,14.912,0,1,1,57.873,61.2a14.747,14.747,0,0,1,2.5-8.267,3.616,3.616,0,0,1,.564,1.033,1.746,1.746,0,0,0-1.021,1.585v4.059a1.739,1.739,0,0,0,.681,1.379c0,.07,0,.143,0,.212A12.182,12.182,0,0,0,78.827,71.779a1.014,1.014,0,1,0-1.009-1.76,10.15,10.15,0,0,1-14.787-5.975,3.842,3.842,0,0,0,3.406.757,7.3,7.3,0,1,0,4.04-10.528,1.756,1.756,0,0,0-.458-.308,3.761,3.761,0,0,1,1.263-1.727,9.7,9.7,0,0,0,1.3-1.2l.2,0a10.154,10.154,0,0,1,7.776,16.693,1.014,1.014,0,1,0,1.552,1.306A12.182,12.182,0,0,0,73.95,49.064a9.444,9.444,0,0,0,.9-2.631,14.834,14.834,0,0,1,6.841,2.807,1.014,1.014,0,0,0,1.213-1.626,16.856,16.856,0,0,0-7.9-3.207,9.489,9.489,0,0,0-.808-3.6A20.365,20.365,0,0,1,93.307,61.129c0,.57-.024,1.148-.072,1.716a3.732,3.732,0,0,0,.535,2.282l2.2,3.581a1.322,1.322,0,0,1-1.126,2.014H93.415a1.938,1.938,0,0,0-1.936,1.936v6.87a5.164,5.164,0,0,1-5.159,5.159H80.667a3.21,3.21,0,0,0-3.206,3.206v1.954H69.214a1.014,1.014,0,0,0,0,2.028H81.15a3.9,3.9,0,0,1,3.9,3.9V97.14a.447.447,0,0,1-.447.447H58.585a.447.447,0,0,1-.447-.447V92.322a.447.447,0,0,1,.447-.447h5.9a1.014,1.014,0,0,0,0-2.028H61.651V79.71a3.185,3.185,0,0,0-1.233-2.525,20.2,20.2,0,0,1-7.7-13.659,1.014,1.014,0,1,0-2.015.236A22.219,22.219,0,0,0,59.17,78.783a1.169,1.169,0,0,1,.453.927V89.846H58.585a2.478,2.478,0,0,0-2.475,2.475V97.14a2.478,2.478,0,0,0,2.475,2.475H84.6a2.478,2.478,0,0,0,2.475-2.475V95.771a5.932,5.932,0,0,0-5.925-5.925H79.489V87.892a1.179,1.179,0,0,1,1.177-1.177H86.32a7.2,7.2,0,0,0,7.187-7.187V72.75h1.338a3.35,3.35,0,0,0,2.854-5.1l-2.2-3.581a1.716,1.716,0,0,1-.241-1.051c.052-.624.079-1.258.079-1.885,0-.266-.006-.531-.015-.8a11.351,11.351,0,0,0,1.869-.786L98.3,60.655a1.9,1.9,0,0,0,2.682,0l2.029-2.029a1.9,1.9,0,0,0,0-2.682L101.9,54.836a11.343,11.343,0,0,0,.836-2.018H104.3a1.9,1.9,0,0,0,1.9-1.9V48.052a1.9,1.9,0,0,0-1.9-1.9ZM65.477,62.894a1.83,1.83,0,0,1-1.8-1.543h3.61A1.83,1.83,0,0,1,65.477,62.894Zm-2.841-3.572h-.69V55.832h7.063v3.491H62.636Zm8.4.284V56.223a5.21,5.21,0,0,1,1.748-.3A5.272,5.272,0,1,1,68.2,63.793a3.845,3.845,0,0,0,1.122-2.444,1.746,1.746,0,0,0,1.716-1.743Zm-.99-8.977A5.762,5.762,0,0,0,67.953,53.8H63a5.659,5.659,0,0,0-2.073-3.156,7.509,7.509,0,0,1,4.244-13.479,7.509,7.509,0,0,1,4.873,13.461Zm22.646-.066a22.312,22.312,0,0,0-1.434-2.321,1.364,1.364,0,0,1,.581-.133,1.374,1.374,0,0,1,.853,2.454Zm11.478.227h-1.534a1.892,1.892,0,0,0-1.821,1.368,9.324,9.324,0,0,1-.74,1.786,1.892,1.892,0,0,0,.32,2.256l1.085,1.085-1.842,1.842-1.085-1.085a1.892,1.892,0,0,0-2.256-.32,9.285,9.285,0,0,1-1.147.521q-.129-1-.346-1.987a7.43,7.43,0,0,0,4.428-6.77,7.33,7.33,0,0,0-.7-3.146A1.014,1.014,0,0,0,96.7,47.2a5.317,5.317,0,0,1,.509,2.282,5.392,5.392,0,0,1-2.937,4.782q-.3-.942-.688-1.853A3.4,3.4,0,1,0,90,46.623q-.468-.549-.973-1.073-.185-.191-.375-.378a5.357,5.357,0,0,1,5.129-.686,1.014,1.014,0,0,0,.735-1.891,7.375,7.375,0,0,0-7.392,1.2,22.3,22.3,0,0,0-4.276-2.762l1.191-1.191,1.085,1.085a1.893,1.893,0,0,0,2.256.32,9.334,9.334,0,0,1,1.787-.74,1.891,1.891,0,0,0,1.368-1.821V37.155h2.605V38.69a1.891,1.891,0,0,0,1.368,1.821,9.319,9.319,0,0,1,1.786.74,1.893,1.893,0,0,0,2.256-.32l1.085-1.085,1.842,1.842L100.4,42.773a1.893,1.893,0,0,0-.32,2.256,9.322,9.322,0,0,1,.74,1.786,1.891,1.891,0,0,0,1.821,1.368h1.534v2.605Z" transform="translate(-50.663 -30.377)"/>
        <path id="Trazado_1220448" data-name="Trazado 1220448" d="M94.826,16.623a1.009,1.009,0,0,0,.609-.2,12.435,12.435,0,0,1,1.035-.7,1.014,1.014,0,0,0-1.049-1.736,14.4,14.4,0,0,0-1.205.814,1.014,1.014,0,0,0,.61,1.825Z" transform="translate(-87.976 -11.966)"/>
        <path id="Trazado_1220449" data-name="Trazado 1220449" d="M57.543,70.723a1.013,1.013,0,0,0,1.207-.775,12.174,12.174,0,0,1,.327-1.2,1.014,1.014,0,0,0-1.927-.632,14.227,14.227,0,0,0-.382,1.4A1.014,1.014,0,0,0,57.543,70.723Z" transform="translate(-55.922 -58.297)"/>
        <path id="Trazado_1220450" data-name="Trazado 1220450" d="M70.563,39.767a1.014,1.014,0,0,0,1.4-.3,12.358,12.358,0,0,1,.729-1.014,1.014,1.014,0,0,0-1.585-1.266,14.408,14.408,0,0,0-.849,1.181A1.014,1.014,0,0,0,70.563,39.767Z" transform="translate(-67.47 -31.826)"/>
        <path id="Trazado_1220451" data-name="Trazado 1220451" d="M55.718,105.269a1.015,1.015,0,0,0,1.005-1.157,12.31,12.31,0,0,1-.113-1.243,1.014,1.014,0,1,0-2.027.08,14.32,14.32,0,0,0,.131,1.449A1.014,1.014,0,0,0,55.718,105.269Z" transform="translate(-54.053 -88.115)"/>
        <path id="Trazado_1220452" data-name="Trazado 1220452" d="M160.447,2.026a12.25,12.25,0,0,1,1.239.149,1.014,1.014,0,0,0,.344-2A14.383,14.383,0,0,0,160.586,0a1.014,1.014,0,0,0-.139,2.024Z" transform="translate(-144.784 0)"/>
        <path id="Trazado_1220453" data-name="Trazado 1220453" d="M125.916,3.779a1.016,1.016,0,0,0,.288-.042,12.226,12.226,0,0,1,1.213-.292,1.014,1.014,0,0,0-.373-1.994,14.178,14.178,0,0,0-1.415.341,1.014,1.014,0,0,0,.287,1.987Z" transform="translate(-114.862 -1.24)"/>
        <path id="Trazado_1220454" data-name="Trazado 1220454" d="M223.013,30.984a1.014,1.014,0,0,0,1.567-1.288,14.426,14.426,0,0,0-.979-1.076,1.014,1.014,0,0,0-1.429,1.439A12.44,12.44,0,0,1,223.013,30.984Z" transform="translate(-198.72 -24.495)"/>
        <path id="Trazado_1220455" data-name="Trazado 1220455" d="M193.84,10.467a12.2,12.2,0,0,1,1.107.574,1.014,1.014,0,0,0,1.024-1.751,14.3,14.3,0,0,0-1.291-.669,1.014,1.014,0,0,0-.84,1.847Z" transform="translate(-173.964 -7.376)"/>
        <path id="Trazado_1220456" data-name="Trazado 1220456" d="M130.362,71.19a4.667,4.667,0,1,0,4.667,4.667A4.672,4.672,0,0,0,130.362,71.19Zm0,7.305A2.639,2.639,0,1,1,133,75.857,2.642,2.642,0,0,1,130.362,78.5Z" transform="translate(-115.548 -61.563)"/>
      </g>
    </g>
  </g>
</svg>
