<svg xmlns="http://www.w3.org/2000/svg" xmlns:xlink="http://www.w3.org/1999/xlink" width="295" height="358" viewBox="0 0 295 358">
  <defs>
    <clipPath id="clip-path">
      <rect id="Rectángulo_424214" data-name="Rectángulo 424214" width="295" height="358" transform="translate(180 2559)" fill="#fff" stroke="#707070" stroke-width="1"/>
    </clipPath>
    <linearGradient id="linear-gradient" x1="0.037" y1="4.977" x2="1.317" y2="4.77" gradientUnits="objectBoundingBox">
      <stop offset="0" stop-color="#94452e"/>
      <stop offset="1" stop-color="#763532"/>
    </linearGradient>
  </defs>
  <g id="Enmascarar_grupo_1211496" data-name="Enmascarar grupo 1211496" transform="translate(-180 -2559)" clip-path="url(#clip-path)">
    <g id="Grupo_1242543" data-name="Grupo 1242543" transform="translate(-152 -31.079)">
      <path id="Trazado_1220458" data-name="Trazado 1220458" d="M594.5,162.5c3.827-.418,6.987,2.452,10.127,4.272l-4.878,2.824-1.166.576a5.879,5.879,0,0,1-4.593.371,4.641,4.641,0,0,1-2.606-2.623,4.258,4.258,0,0,1,.074-3.157C592.051,163.453,593.255,162.992,594.5,162.5Z" transform="translate(-88.824 2463.545)" fill="#f3cb3c"/>
      <path id="Trazado_1220459" data-name="Trazado 1220459" d="M395.422,162.631a5.664,5.664,0,0,1,1.421.1,4.548,4.548,0,0,1,3.115,2.108,3.354,3.354,0,0,1,.374,2.81,4.263,4.263,0,0,1-2.158,2.658c-1.884.962-3.543.48-5.444-.109a41.05,41.05,0,0,1-6.046-3.28C389.48,165.3,392.2,163.251,395.422,162.631Z" transform="translate(56.714 2463.422)" fill="#f3cb3c"/>
      <path id="Trazado_1220460" data-name="Trazado 1220460" d="M500.053,48.037a10.04,10.04,0,0,1,1.632,2.218c1,1.572,2.314,3.407,2.7,5.251a4.683,4.683,0,0,1-.606,3.614,4.792,4.792,0,0,1-3.526,2.06,4.922,4.922,0,0,1-2.331-.658,4.552,4.552,0,0,1-1.96-3.069C495.379,54.231,498.3,50.5,500.053,48.037Z" transform="translate(-21.029 2545)" fill="#f3cb3c"/>
      <path id="Trazado_1220461" data-name="Trazado 1220461" d="M500.562,253.719a4.271,4.271,0,0,1,2.475.461,4.086,4.086,0,0,1,2.091,2.5c.974,3.427-2.07,7.935-3.666,10.842l-.126.175-.244-.011-3.047-5.772c-.732-1.729-1.433-3.734-.633-5.559A4.845,4.845,0,0,1,500.562,253.719Z" transform="translate(-21.861 2398.583)" fill="#f3cb3c"/>
      <path id="Trazado_1220462" data-name="Trazado 1220462" d="M424.734,80.032l4.343,1.589a13.5,13.5,0,0,1,3.832,1.69,5.654,5.654,0,0,1,2.163,3.374,4.479,4.479,0,0,1-1.105,3.524,4.591,4.591,0,0,1-2.643,1.162,4.53,4.53,0,0,1-3.585-.966C425.075,88.132,424.971,83.271,424.734,80.032Z" transform="translate(29.626 2522.222)" fill="#f3cb3c"/>
      <path id="Trazado_1220463" data-name="Trazado 1220463" d="M573.1,81.3l.365,0,.13.254c-.362,2.56-.781,5.924-2,8.222a4.712,4.712,0,0,1-6.843,1.932,5.277,5.277,0,0,1-1.528-2.125,4.829,4.829,0,0,1,.47-3.593C565.337,82.988,570.065,82.163,573.1,81.3Z" transform="translate(-68.842 2521.319)" fill="#f3cb3c"/>
      <path id="Trazado_1220464" data-name="Trazado 1220464" d="M566.647,229.507a4.771,4.771,0,0,1,2.3.736c3.216,2.081,3.578,7.637,4.319,11.1l-3.408-1.06a24.41,24.41,0,0,1-4.409-1.816,5.727,5.727,0,0,1-2.844-3.357,5.142,5.142,0,0,1,.571-3.7A4.834,4.834,0,0,1,566.647,229.507Z" transform="translate(-68.44 2415.809)" fill="#f3cb3c"/>
      <path id="Trazado_1220465" data-name="Trazado 1220465" d="M429.316,228.862a8.233,8.233,0,0,1,1.731.27,4.026,4.026,0,0,1,2.253,1.988,4.426,4.426,0,0,1,.3,3.195l-.066.187-.344.942c-1.122,2.422-4.142,3.373-6.454,4.228l-3.73,1.1c.545-3.067.638-6.8,2.363-9.463A5.5,5.5,0,0,1,429.316,228.862Z" transform="translate(30.853 2416.268)" fill="#f3cb3c"/>
      <path id="Trazado_1220466" data-name="Trazado 1220466" d="M121.805,175.118l7.23,25.167a20.371,20.371,0,0,1-4.066,1.495c-1.629-4.042-2.6-8.459-3.826-12.639-1.009-3.425-2.321-6.894-3.113-10.366a2.8,2.8,0,0,1,.032-1.519C118.518,176.1,120.749,175.513,121.805,175.118Z" transform="translate(248.036 2454.529)" fill="#18497a"/>
      <path id="Trazado_1220467" data-name="Trazado 1220467" d="M78.6,625.107c-3.861-1.923-6.49-6.1-7.364-10.261-.687-3.266-.769-6.308-2-9.481A18.375,18.375,0,0,1,79.973,609.1a29.526,29.526,0,0,1,3.068,3.026l.474.776a7.9,7.9,0,0,1,1.117,3.292l-.173.267a5.816,5.816,0,0,0-4.493,2.042,7.906,7.906,0,0,0-1.7,4.952l.162.707Z" transform="translate(282.709 2148.23)" fill="#0b203d"/>
      <path id="Trazado_1220468" data-name="Trazado 1220468" d="M43.976,670.118a6.275,6.275,0,0,1-2.687-.617c-3.107-1.367-5.524-4.143-7.5-6.8a18.669,18.669,0,0,1-2.6-4.3c1.024-3,4.758-6.675,7.408-8.385.94-.607,2.046-1.315,3.2-1.044l.216.056c2.267.545,4.093,4.038,5.447,5.776L50.7,658.56l-4.109,7.976a15.949,15.949,0,0,0-1.557,3.539Z" transform="translate(309.802 2117.232)" fill="#d55344"/>
      <path id="Trazado_1220469" data-name="Trazado 1220469" d="M760,291.789l.221.062c1.281.336,2.151-.222,3.374-.439a3.578,3.578,0,0,1,3.192,1.684l.7,1.336,1.521.442,16.611,5.776c-2.11,3.6-3.9,7.34-6.366,10.723A40.866,40.866,0,0,1,776.3,314.9a13.809,13.809,0,0,0-1.763,2.034,25.014,25.014,0,0,0-1.477,3.774l-2.946,7.541L754.2,322.93c1.375-3.521,3.385-6.963,4.067-10.71.606-3.335-.493-6.924-1.2-10.171a14.069,14.069,0,0,1-.487-5.312l.052-.262C757.06,294.238,758.231,293.082,760,291.789Z" transform="translate(-204.926 2371.76)" fill="#c97a53"/>
      <path id="Trazado_1220470" data-name="Trazado 1220470" d="M800.246,301.971l1.521.442.647,2.622,8.921,4.164c.876.416,3.4,1.5,3.712,2.377l-.255.228a13.226,13.226,0,0,1-4.18-1.342l-7.272-3.376.079,2.395c-.105,2.862-.753,6.23-2.945,8.241l-.266-.024a28.31,28.31,0,0,0,1.6-7.264A24.511,24.511,0,0,0,800.246,301.971Z" transform="translate(-237.68 2364.221)" fill="#994a37"/>
      <path id="Trazado_1220471" data-name="Trazado 1220471" d="M139.478,259.469a3.675,3.675,0,0,1,2.745,1.179,5.287,5.287,0,0,1,.938,1.847,5.42,5.42,0,0,1-.389,1.207l.138,1a3.414,3.414,0,0,1,2.636,1.227,3,3,0,0,1,.777,2.176,3.4,3.4,0,0,1-1.283,2.189l-.1.077.134.694a15.363,15.363,0,0,1,2.013,1.96,4.32,4.32,0,0,1-.185,3.444,11.815,11.815,0,0,1-2.289,2.342c-2.281.9-5.135,2.257-7.554,2.577a3.618,3.618,0,0,0,1.143,1.251c2.783,1.666,5.843-.751,8.612-1.385l.162-.035,2.363-.929,14.492-5.443a25.466,25.466,0,0,1,.391,9.565,15.846,15.846,0,0,0-.36,2.838,10.091,10.091,0,0,0,.877,1.979l4.4,9.389-15.861,6.92-4.219-11.217a14.7,14.7,0,0,1-2.675-1.3c-3.853-2.21-9.07-6.132-11.146-10.19a13.692,13.692,0,0,1-.92-2.746l-.3-.672-3.336-9.548a28.641,28.641,0,0,1-1.281-3.582,4.048,4.048,0,0,1,.347-2.431c.624-1.31,2.076-1.6,3.334-2.023a20.372,20.372,0,0,0,4.066-1.495Z" transform="translate(239.918 2394.479)" fill="#c97a53"/>
      <path id="Trazado_1220472" data-name="Trazado 1220472" d="M156.927,298.021c-1.907.912-3.936,1.591-5.922,2.308a42.819,42.819,0,0,1-4.563,1.522c-.38-.252-.339-.463-.443-.895.447-.627,9.489-3.314,10.794-3.629Z" transform="translate(228.062 2367.527)" fill="#994a37"/>
      <path id="Trazado_1220473" data-name="Trazado 1220473" d="M149.828,275.165a7.882,7.882,0,0,1-3.365,1.738l-3.684,1.333a13.1,13.1,0,0,1-3.042,1.139c-.311.023-.443-.182-.676-.369l.077-.371a10.646,10.646,0,0,1,2.523-1.121c2.516-.989,5.606-1.81,7.873-3.252l.155-.1Z" transform="translate(233.001 2384.019)" fill="#994a37"/>
      <path id="Trazado_1220474" data-name="Trazado 1220474" d="M192.9,331.756c2.346.927,5.039,2.251,6.05,4.744a.943.943,0,0,1,0,.862c-.4.226-.4.194-.859.1a21.492,21.492,0,0,0-1.717-2.141c-1.574-1.509-3.788-2.069-5.837-2.636Z" transform="translate(196.354 2343.016)" fill="#931d24"/>
      <path id="Trazado_1220475" data-name="Trazado 1220475" d="M468.247,113.285a18.29,18.29,0,0,1,10.971,3.01,18.588,18.588,0,0,1,7.586,11.518,17.084,17.084,0,0,1-3,13.252c-2.983,4.233-7.4,6.406-12.383,7.234a16.83,16.83,0,0,1-11.908-3.279,17.609,17.609,0,0,1-6.95-11.74,18.3,18.3,0,0,1,3.872-13.718A16.964,16.964,0,0,1,468.247,113.285Z" transform="translate(9.927 2498.569)" fill="#f3cb3c"/>
      <path id="Trazado_1220476" data-name="Trazado 1220476" d="M513.7,123.973a7.958,7.958,0,0,1,5.058,1.709,7.231,7.231,0,0,1,2,3.046,10.367,10.367,0,0,0,.721,1.956,11.524,11.524,0,0,0,1.643,1.7,6.868,6.868,0,0,1,2.156,4.579,5.791,5.791,0,0,1-1.609,4.046c-1.436,1.481-3.292,1.482-5.2,1.455.065,1.6.431,4.006-.467,5.392a4.745,4.745,0,0,1-3.435,1.941,7.156,7.156,0,0,1-2.46-.394,7.831,7.831,0,0,1-4.2-4.3,5.341,5.341,0,0,1,1.513-6.007,11.115,11.115,0,0,0,1.595-1.145,8.66,8.66,0,0,0,.51-1.348l1.459-3.5a5.838,5.838,0,0,1-3.038-.95,4.457,4.457,0,0,1-1.632-2.949,4.9,4.9,0,0,1,1-3.348A6.03,6.03,0,0,1,513.7,123.973Z" transform="translate(-29.311 2490.94)" fill="#f3d778"/>
      <path id="Trazado_1220477" data-name="Trazado 1220477" d="M385.338,351.51a8.447,8.447,0,0,1,1.769-6.45,13.193,13.193,0,0,1,2.34-2.016c-1.736-2.945-2.574-5.647-1.664-9.051a9.914,9.914,0,0,1,4.548-5.826,9.119,9.119,0,0,1,7.146-.929,1.31,1.31,0,0,0,.443.037c.611-3.408,1.931-6.214,4.846-8.264a10.642,10.642,0,0,1,4.161-1.737,11.781,11.781,0,0,1,8.824,1.733,11.079,11.079,0,0,0,1.192.754,11.023,11.023,0,0,1,7.584-2.141,10.531,10.531,0,0,1,7.555,3.908l1.2,1.633,2.048-.444a8.572,8.572,0,0,1,3.231.148l.231.042a10.84,10.84,0,0,1,6.493,4.626,9.73,9.73,0,0,1,1.405,6.681,7.328,7.328,0,0,0-.188,1.307c.029.1.21.055.315.083a13.7,13.7,0,0,1,3.655,1.4,10.22,10.22,0,0,1,4.8,10.62,8.912,8.912,0,0,1-3.764,5.691,16.9,16.9,0,0,1-.086,2.57,5.809,5.809,0,0,1-4.524-1.284,23.219,23.219,0,0,1-2.816-2.642,13.294,13.294,0,0,0-.037-4.1c-.769-3.432-3.927-5.279-6.71-6.96a3.33,3.33,0,0,0-.718-.36,9.352,9.352,0,0,0-1.305.8,8.894,8.894,0,0,1-2.2.846c-2.692.658-4.8-.035-7.1-1.438a9.882,9.882,0,0,1-1.353,3.318c-2.317,3.267-6.138,5.186-10.083,3.737a11.012,11.012,0,0,1-1.824-.934c-.18-.107-.341-.4-.537-.327a8.014,8.014,0,0,0-.863.938,9.733,9.733,0,0,1-5.285,2.928c-3.283.55-5.426-.479-8.06-2.34a5.145,5.145,0,0,0-1.325,1.276c-2.277,1.909-3.851,3.195-7.007,2.914a12.267,12.267,0,0,1-3.75-1.214,6.157,6.157,0,0,0-2.4-.832Z" transform="translate(57.701 2353.496)" fill="#18497a"/>
      <path id="Trazado_1220478" data-name="Trazado 1220478" d="M606.035,444.251c.749-.114,1.521-.089,2.265-.249a9.235,9.235,0,0,0,2.344-1.037,16.888,16.888,0,0,1-.086,2.57A5.808,5.808,0,0,1,606.035,444.251Z" transform="translate(-99.445 2263.845)" fill="#063264"/>
      <path id="Trazado_1220479" data-name="Trazado 1220479" d="M131.355,146.564l21.243-8.126,6.14-2.347a20.818,20.818,0,0,1,2.745-.983,4.542,4.542,0,0,1,2.719.258,4.82,4.82,0,0,1,2.837,3.191c.868,2.536,1.469,5.216,2.179,7.8l4.171,15.124,3.077,11.063a38.826,38.826,0,0,1,1.488,5.561,5.9,5.9,0,0,1-.6,2.458,4.309,4.309,0,0,1-1.65,1.667,23.3,23.3,0,0,1-3.383,1.352l-7.059,2.66-14.492,5.443-2.363.929-.162.035c-2.769.634-5.829,3.051-8.612,1.385a3.618,3.618,0,0,1-1.143-1.251c2.419-.32,5.273-1.674,7.554-2.577a11.815,11.815,0,0,0,2.289-2.342,4.32,4.32,0,0,0,.185-3.444,15.362,15.362,0,0,0-2.013-1.96l-.134-.694.1-.077a3.4,3.4,0,0,0,1.283-2.189,3,3,0,0,0-.777-2.176,3.414,3.414,0,0,0-2.636-1.227l-.138-1a5.42,5.42,0,0,0,.389-1.207,5.287,5.287,0,0,0-.938-1.847,3.675,3.675,0,0,0-2.745-1.179l-2.325.867Z" transform="translate(238.487 2483.083)" fill="#3d9dc6"/>
      <path id="Trazado_1220480" data-name="Trazado 1220480" d="M153.83,178.7c.583.333.7,1.195.923,1.82l1.658,4.437-5.57,2.421-.259-.026c-.739-.624-1.937-5.022-2.37-6.317Z" transform="translate(226.486 2451.981)" fill="#2583af"/>
      <path id="Trazado_1220481" data-name="Trazado 1220481" d="M195.172,149.349h.368a40.569,40.569,0,0,1,2.14,6.283l-19.5,7.668-2.428-6.2Z" transform="translate(206.878 2472.875)" fill="#2583af"/>
      <path id="Trazado_1220482" data-name="Trazado 1220482" d="M184.809,280.608l26.6-10.494,1.66,4.976c-3.242,1.576-6.759,2.708-10.12,4.022l-13.874,5.338c-1.76.657-4.923,2.27-6.736,1.944a11.817,11.817,0,0,0,2.289-2.342A4.32,4.32,0,0,0,184.809,280.608Z" transform="translate(202.193 2386.9)" fill="#2583af"/>
      <path id="Trazado_1220483" data-name="Trazado 1220483" d="M163.272,225.118l-.505-2.192L192.5,211.217l1.968,5.875-19.53,7.735c-2.553,1.008-5.678,1.872-7.984,3.316a5.287,5.287,0,0,0-.938-1.847A3.675,3.675,0,0,0,163.272,225.118Z" transform="translate(216.124 2428.83)" fill="#2583af"/>
      <path id="Trazado_1220484" data-name="Trazado 1220484" d="M729.667,153.245l-11.306-3.687a37.692,37.692,0,0,1-5.069-1.657,2.892,2.892,0,0,1-1.342-1.237,2.858,2.858,0,0,1-.3-1.952,50.73,50.73,0,0,1,1.607-5.3l3.47-11.04,5.5-17.729,2.555-8.264c.368-1.187.63-2.473,1.08-3.626a3.645,3.645,0,0,1,2.144-1.735,4,4,0,0,1,2.54-.068c2.722.684,5.409,1.871,8.083,2.749l20.163,6.832,10.954,3.7c1.678.586,3.467,1.121,5.081,1.862a3.723,3.723,0,0,1,2.041,2.312l.081.226.09.2a2.735,2.735,0,0,1-.06,1.871c-.939,3.586-2.316,7.154-3.444,10.7l-5.851,18.5c-1.527,4.71-2.6,9.919-4.6,14.428a4.938,4.938,0,0,1-2.839,2.813c-1.631.528-3.446-.544-4.957-1.036l-16.611-5.776-1.521-.442-.7-1.336a3.578,3.578,0,0,0-3.192-1.684c-1.224.218-2.094.775-3.374.439Z" transform="translate(-174.592 2510.304)" fill="#fefcfb"/>
      <path id="Trazado_1220485" data-name="Trazado 1220485" d="M798.045,178.4l14.312,5.015L807.969,197c-.811.157-3.033-.877-3.89-1.179l-10.34-3.593Z" transform="translate(-233.074 2452.191)" fill="#3d9dc6"/>
      <path id="Trazado_1220486" data-name="Trazado 1220486" d="M853.66,197.941,868.049,203l-4.557,13.815-14.46-5.084Z" transform="translate(-272.438 2438.281)" fill="#7dc962"/>
      <path id="Trazado_1220487" data-name="Trazado 1220487" d="M741.794,158.755l14.579,5.118-4.4,13.811-14.442-5.019Z" transform="translate(-193.059 2466.178)" fill="#7dc962"/>
      <path id="Trazado_1220488" data-name="Trazado 1220488" d="M836.191,252.978l9.24,3.2a39.2,39.2,0,0,1,5.16,1.867l-4.485,13.983-14.274-4.778a4.208,4.208,0,0,1,.335-1.369l1.14-3.573Z" transform="translate(-260.191 2399.1)" fill="#f3cb3c"/>
      <path id="Trazado_1220489" data-name="Trazado 1220489" d="M871.756,141.556l8.7,3.139c1.318.475,4.351,1.082,5.084,2.265a1.984,1.984,0,0,1,.044,1.012c-.228,1-.733,1.944-1.029,2.931-1.008,3.369-1.942,6.814-3.182,10.106l-14.249-5.1Z" transform="translate(-285.318 2478.423)" fill="#3d9dc6"/>
      <path id="Trazado_1220490" data-name="Trazado 1220490" d="M724.408,214.435l14.446,4.878-4.685,14.5-8.471-2.945a44.118,44.118,0,0,1-5.589-2.1Z" transform="translate(-180.656 2426.539)" fill="#d38758"/>
      <path id="Trazado_1220491" data-name="Trazado 1220491" d="M779.5,232.989,793.611,238c-.428,1.836-1.15,3.613-1.708,5.414-.909,2.934-1.6,6.131-2.937,8.895l-14.218-4.7Z" transform="translate(-219.554 2413.33)" fill="#f3cb3c"/>
      <path id="Trazado_1220492" data-name="Trazado 1220492" d="M759.023,104.326l14.019,4.5-3.3,10.646c-.284.92-.667,3.116-1.376,3.66l-14.339-4.908,2.9-9.7a21.567,21.567,0,0,1,1.039-3.363A2.635,2.635,0,0,1,759.023,104.326Z" transform="translate(-204.806 2504.927)" fill="#127451"/>
      <path id="Trazado_1220493" data-name="Trazado 1220493" d="M814.911,122.084l14.758,5.046-4.79,14.173-.277.151L810.32,136.43Z" transform="translate(-244.878 2492.285)" fill="#127451"/>
      <path id="Trazado_1220494" data-name="Trazado 1220494" d="M394.464,407.427a5.144,5.144,0,0,1,1.325-1.276c2.634,1.861,4.777,2.889,8.06,2.34a9.733,9.733,0,0,0,5.285-2.928,8.014,8.014,0,0,1,.863-.938c.2-.074.357.22.537.327a11.013,11.013,0,0,0,1.824.934c3.945,1.449,7.767-.47,10.083-3.737a9.884,9.884,0,0,0,1.353-3.318c2.3,1.4,4.407,2.1,7.1,1.438a8.9,8.9,0,0,0,2.2-.846,9.35,9.35,0,0,1,1.305-.8,3.33,3.33,0,0,1,.718.36c2.782,1.681,5.94,3.528,6.71,6.96a13.294,13.294,0,0,1,.037,4.1,23.219,23.219,0,0,0,2.816,2.642,5.808,5.808,0,0,0,4.524,1.284,44.144,44.144,0,0,1-.855,7.939l-.611,2.625a8.92,8.92,0,0,1,5.962,3.063,8.068,8.068,0,0,1,1.576,6.089,8.769,8.769,0,0,1-3.233,5.436,8.3,8.3,0,0,1-3.184,1.4,10.844,10.844,0,0,1-4.027-.045c-.438,1.561-.649,3.188-1.149,4.732a29.73,29.73,0,0,1-10.653,14.957c-.811.617-1.69,1.154-2.55,1.7a5.637,5.637,0,0,0-.832.528,17.587,17.587,0,0,0-.022,2.437l0,8.954a17.963,17.963,0,0,0,.14,4.269c.084.8-.577,1.642-.965,2.322-1.182,2.162-2.612,4.193-3.919,6.281l-4.312,7.021a48.583,48.583,0,0,0-3.521,5.319l-.351.226a16.121,16.121,0,0,0-1.926-3.575l-6.765-12.027a42.969,42.969,0,0,0-2.653-4.78,2.041,2.041,0,0,1-.438-1.4,15.4,15.4,0,0,0,.136-4.179l.046-8.367.018-2.217a17.121,17.121,0,0,1-1.8-1.018c-7.538-4.594-11.49-12.526-13.5-20.823a10.508,10.508,0,0,0-2.619-.073,11.15,11.15,0,0,1-4.175-1.462,8.948,8.948,0,0,1-3.261-4.426,8.136,8.136,0,0,1,.479-6.028c1.537-3.11,3.9-3.361,6.843-4.389a36.7,36.7,0,0,1-1.58-5.829,13.348,13.348,0,0,0-.419-2.367,5.642,5.642,0,0,0-1.088-.9c-1.845-1.517-2.452-3.492-2.865-5.765l.172-1.3a6.157,6.157,0,0,1,2.4.832,12.269,12.269,0,0,0,3.75,1.214C390.613,410.621,392.187,409.336,394.464,407.427Z" transform="translate(61.908 2295.415)" fill="#d38758"/>
      <path id="Trazado_1220495" data-name="Trazado 1220495" d="M400.614,464.13a7.831,7.831,0,0,0,4.251-1.058,5.392,5.392,0,0,1,1-.531,1.608,1.608,0,0,1,.467.111c-.64,2.581-1.292,5.69-3.753,7.139a1.077,1.077,0,0,1-.388.168A36.693,36.693,0,0,1,400.614,464.13Z" transform="translate(46.797 2249.91)" fill="#0b203d"/>
      <path id="Trazado_1220496" data-name="Trazado 1220496" d="M458.647,487.845a4.1,4.1,0,0,1,.815-.03,2.378,2.378,0,0,1,1.378.981,4.715,4.715,0,0,1,.647,3.7,3.116,3.116,0,0,1-1.648,2.027l-.33.028a1.759,1.759,0,0,1-1.564-.554,4.825,4.825,0,0,1-.868-3.563A3.883,3.883,0,0,1,458.647,487.845Z" transform="translate(6.622 2231.924)" fill="#0b203d"/>
      <path id="Trazado_1220497" data-name="Trazado 1220497" d="M553.434,487.358l.232.071a2.818,2.818,0,0,1,1.76,1.6,5.165,5.165,0,0,1-.025,3.655,2.62,2.62,0,0,1-1.8,1.581l-1.054-.241a2.166,2.166,0,0,1-1.158-1.311,5.1,5.1,0,0,1-.039-3.157A3.345,3.345,0,0,1,553.434,487.358Z" transform="translate(-60.35 2232.241)" fill="#0b203d"/>
      <path id="Trazado_1220498" data-name="Trazado 1220498" d="M504.309,485.846a2.755,2.755,0,0,1,.716.486c.153.924-.8,2.094-1.172,3.013a23.584,23.584,0,0,0-1.683,7.151,26.306,26.306,0,0,0,.059,2.893,4.857,4.857,0,0,0,.031.858c.286.536,3.586.309,4.206.686.158.1.24.28.36.42l-.243,1.038c-1.354-.211-3.7-.12-4.859-.675a1.167,1.167,0,0,1-.65-.718,14.565,14.565,0,0,1-.238-3.887A20.83,20.83,0,0,1,504.309,485.846Z" transform="translate(-24.534 2233.318)" fill="url(#linear-gradient)"/>
      <path id="Trazado_1220499" data-name="Trazado 1220499" d="M543.609,462.043a6.769,6.769,0,0,1,1.737.09c1.8.23,4.484,1.352,5.565,2.839a.908.908,0,0,1,.234,1.009,2.284,2.284,0,0,1-1.171.858,6.678,6.678,0,0,1-2.044-1.3l-1.577-.73c-2.09-.763-4.056-.064-5.97.823a3.369,3.369,0,0,1-1.1-1.944C540.328,462.52,542.144,462.239,543.609,462.043Z" transform="translate(-51.925 2250.284)" fill="#0b203d"/>
      <path id="Trazado_1220500" data-name="Trazado 1220500" d="M448.435,461.877a9.866,9.866,0,0,1,2.961.058,9.388,9.388,0,0,1,2.518.962,1.244,1.244,0,0,1,.7.9,1.845,1.845,0,0,1-.251.592,8.812,8.812,0,0,1-1.021,1.094,11.168,11.168,0,0,1-1.43-.618,5.766,5.766,0,0,0-3.4-.39l-.174.047a11.57,11.57,0,0,0-2.439.93,8.749,8.749,0,0,1-1.8,1.039,2.637,2.637,0,0,1-1.261-1.128c-.015-.2-.082-.39.028-.564C443.883,463.183,446.688,462.32,448.435,461.877Z" transform="translate(16.762 2250.442)" fill="#0b203d"/>
      <path id="Trazado_1220501" data-name="Trazado 1220501" d="M611.113,500.556a7.078,7.078,0,0,1,1.434.008,3.765,3.765,0,0,1,2.509,1.789,4.264,4.264,0,0,1,.586,3.323,4.924,4.924,0,0,1-2.3,3.186,8.429,8.429,0,0,1-1.918.642,8.314,8.314,0,0,1-2.123-.81C609.784,506.18,610.063,502.877,611.113,500.556Z" transform="translate(-101.767 2222.87)" fill="#994a37"/>
      <path id="Trazado_1220502" data-name="Trazado 1220502" d="M616.138,505.784a1.979,1.979,0,0,1,1.425.552,2.742,2.742,0,0,1,.72,2.05,3.6,3.6,0,0,1-1.377,2.826,6.337,6.337,0,0,1-1.627.436l-.2-.238Z" transform="translate(-105.883 2219.124)" fill="#c97a53"/>
      <path id="Trazado_1220503" data-name="Trazado 1220503" d="M390.543,500.55c.759-.033,1.955-.269,2.55.3a3.762,3.762,0,0,1,.644,1.745,27.919,27.919,0,0,1,1.013,5.081,6.544,6.544,0,0,1-3.012,1.688,5.528,5.528,0,0,1-1.344-.115,3.635,3.635,0,0,1-2.357-1.777,5.369,5.369,0,0,1-.334-4.483C388.191,501.617,389.31,501.088,390.543,500.55Z" transform="translate(56.228 2222.904)" fill="#994a37"/>
      <path id="Trazado_1220504" data-name="Trazado 1220504" d="M395.142,505.487c.391.023.793-.044,1.092.247.873.849,1.16,3.738,1.151,4.924-.511.673-.723.617-1.52.766a3.663,3.663,0,0,1-1.546-.464c-.838-.6-.863-1.253-.987-2.192a3.282,3.282,0,0,1,.037-1.6A3.063,3.063,0,0,1,395.142,505.487Z" transform="translate(52.039 2219.335)" fill="#c97a53"/>
      <path id="Trazado_1220505" data-name="Trazado 1220505" d="M595.824,438.257a23.223,23.223,0,0,0,2.816,2.642,5.809,5.809,0,0,0,4.524,1.284,44.147,44.147,0,0,1-.855,7.939l-.611,2.625a10.109,10.109,0,0,1-3.493-3.021C595.891,446.711,595.3,441.939,595.824,438.257Z" transform="translate(-92.05 2267.197)" fill="#0b203d"/>
      <path id="Trazado_1220506" data-name="Trazado 1220506" d="M385.436,431.354l.172-1.3a6.157,6.157,0,0,1,2.4.832,12.269,12.269,0,0,0,3.75,1.214c3.156.28,4.73-1.005,7.007-2.914-.154,2.214-.171,4.462-1.207,6.479-.576,1.122-1.391,2.146-2.033,3.241a1.609,1.609,0,0,0-.467-.111,5.4,5.4,0,0,0-1,.531,7.831,7.831,0,0,1-4.251,1.058,13.351,13.351,0,0,0-.419-2.367,5.642,5.642,0,0,0-1.088-.9C386.456,435.6,385.849,433.627,385.436,431.354Z" transform="translate(57.603 2273.652)" fill="#063264"/>
      <path id="Trazado_1220507" data-name="Trazado 1220507" d="M485.366,554.807l11.226.008a13.737,13.737,0,0,1,2.863.015,1.83,1.83,0,0,1,.368.253,7.163,7.163,0,0,1-2.249,5.541l-.769.612a7,7,0,0,1-5.188,1.37,8.172,8.172,0,0,1-5.133-3.2A5.978,5.978,0,0,1,485.366,554.807Z" transform="translate(-13.471 2184.273)" fill="#fefcfb"/>
      <path id="Trazado_1220508" data-name="Trazado 1220508" d="M439.041,515.106a6.387,6.387,0,0,1,3.622.9,6.25,6.25,0,0,1,2.673,3.826,5.211,5.211,0,0,1-.714,4.476,6.143,6.143,0,0,1-4.425,2.808,6.453,6.453,0,0,1-3.746-.856,6.33,6.33,0,0,1-2.7-3.8,5.836,5.836,0,0,1,.673-4.369A6.678,6.678,0,0,1,439.041,515.106Z" transform="translate(23.317 2212.497)" fill="#c97a53"/>
      <path id="Trazado_1220509" data-name="Trazado 1220509" d="M554.216,515.108a6.988,6.988,0,0,1,4.452.879,5.785,5.785,0,0,1,2.592,3.674l.04.244a5.956,5.956,0,0,1-.712,4.089,6.274,6.274,0,0,1-4.2,2.94,5.665,5.665,0,0,1-3.8-.543,6.719,6.719,0,0,1-3.16-4.016,5.594,5.594,0,0,1,.661-4.068A6.712,6.712,0,0,1,554.216,515.108Z" transform="translate(-59.047 2212.52)" fill="#c97a53"/>
      <path id="Trazado_1220510" data-name="Trazado 1220510" d="M468.209,620.37a43.863,43.863,0,0,0,4.279,1.693,26.892,26.892,0,0,0,17.922-.979l2.213-.953.095,2.39,0,8.954a17.962,17.962,0,0,0,.14,4.269c.084.8-.577,1.641-.965,2.322-1.182,2.162-2.612,4.193-3.919,6.281l-4.312,7.021a48.584,48.584,0,0,0-3.521,5.319l-.351.226a16.12,16.12,0,0,0-1.926-3.575L471.1,641.31a42.962,42.962,0,0,0-2.653-4.78,2.041,2.041,0,0,1-.438-1.4,15.405,15.405,0,0,0,.136-4.179l.046-8.367Z" transform="translate(-1.182 2137.718)" fill="#d38758"/>
      <path id="Trazado_1220511" data-name="Trazado 1220511" d="M468.658,620.37a43.863,43.863,0,0,0,4.279,1.693,26.892,26.892,0,0,0,17.922-.979l2.213-.953.095,2.39,0,8.954a17.962,17.962,0,0,0,.14,4.269c.084.8-.577,1.641-.965,2.322l-23.7-15.48Z" transform="translate(-1.631 2137.718)" fill="#994a37"/>
      <path id="Trazado_1220512" data-name="Trazado 1220512" d="M565.457,424.983l12.554-26.667,2.429.743,15.918,5.318,3.318,1.239-5.312,13.017a35.6,35.6,0,0,1,4.06.334,31.483,31.483,0,0,1,18.124,10.379,47.654,47.654,0,0,1,4.935,6.685c.64,1.061,1.133,2.321,1.841,3.316a45.57,45.57,0,0,1,3.747,21.386,31.582,31.582,0,0,1-1.265,8.091l-1.5,4.558c-1.1,2.094-2.225,3.581-4.568,4.307l-.9.262a14.89,14.89,0,0,0-2.021.175,29.46,29.46,0,0,1-9.91,19.348,22.317,22.317,0,0,1-2.8,1.876A30.342,30.342,0,0,1,599.4,501.5c-6.341,2.123-11.444.566-17.191-2.3l.037,1.292-.24,13.076-1.5.9-7.412,3.627a23.835,23.835,0,0,0-2.934,1.633L559.7,526.105l-5.379,3.713c-1.956,1.411-3.317,2.293-4.363,4.562a45.461,45.461,0,0,1-1.616,4.475l-5.19,13.767c-.755,1.986-1.309,4.412-2.362,6.235l-4.349-10.571-8.446-20.869a3.35,3.35,0,0,0-2.371-2.3,41.1,41.1,0,0,0-5.2,2.216l-8.626,3.9-.076-31.345a12.849,12.849,0,0,1-1.6-1.114,48.584,48.584,0,0,1,3.521-5.319l4.312-7.021c1.308-2.088,2.738-4.119,3.919-6.281.389-.681,1.049-1.519.965-2.322a17.96,17.96,0,0,1-.14-4.269l0-8.954a17.587,17.587,0,0,1,.022-2.437,5.635,5.635,0,0,1,.832-.528c.859-.547,1.739-1.084,2.55-1.7a29.73,29.73,0,0,0,10.653-14.957c.5-1.544.711-3.17,1.149-4.732a10.844,10.844,0,0,0,4.027.045,8.3,8.3,0,0,0,3.184-1.4,8.769,8.769,0,0,0,3.233-5.436,8.068,8.068,0,0,0-1.576-6.089,8.92,8.92,0,0,0-5.962-3.063l.611-2.625a138.822,138.822,0,0,1,17.436,1.935A46.446,46.446,0,0,1,565.457,424.983Z" transform="translate(-31.165 2295.632)" fill="#f0ad15"/>
      <path id="Trazado_1220513" data-name="Trazado 1220513" d="M522.843,674.327c2.308.278,4.9,1.478,7.122,2.236,1.491.508,3.077.869,4.521,1.5-.8,3.554-1,7.3-1.507,10.908a123.8,123.8,0,0,1-4.707,21.525c-2.537-2.49-5.293-4.63-7.968-6.959l-5.5-4.749a20.944,20.944,0,0,0-3.079-2.4,12.843,12.843,0,0,1-1.6-1.114,48.587,48.587,0,0,1,3.521-5.319l4.312-7.021c1.308-2.088,2.738-4.119,3.919-6.281C522.267,675.969,522.927,675.13,522.843,674.327Z" transform="translate(-31.165 2099.135)" fill="#f3cb3c"/>
      <path id="Trazado_1220514" data-name="Trazado 1220514" d="M572.365,479.444a138.816,138.816,0,0,1,17.436,1.935,46.446,46.446,0,0,1,6.6,1.36l-30.971,56.581c-1.444-.629-3.03-.99-4.521-1.5-2.223-.757-4.814-1.958-7.122-2.236a17.957,17.957,0,0,1-.14-4.269l0-8.954a17.577,17.577,0,0,1,.022-2.437,5.641,5.641,0,0,1,.832-.528c.859-.547,1.739-1.084,2.55-1.7A29.729,29.729,0,0,0,567.7,502.741c.5-1.544.711-3.17,1.149-4.732a10.845,10.845,0,0,0,4.027.045,8.3,8.3,0,0,0,3.184-1.4,8.769,8.769,0,0,0,3.233-5.436,8.068,8.068,0,0,0-1.576-6.089,8.92,8.92,0,0,0-5.962-3.063Z" transform="translate(-62.106 2237.875)" fill="#edf3fc"/>
      <path id="Trazado_1220515" data-name="Trazado 1220515" d="M647.924,660.024c1.011,1.943,2.118,3.918,4.346,4.632a6.573,6.573,0,0,0,1.305.291l.177,0a5.92,5.92,0,0,0,3.108-1.177c.293,7.11,1.858,14.345,7.249,19.38a21.465,21.465,0,0,0,3.327,2.353l.037,1.292-.24,13.076-1.5.9-7.412,3.627a23.86,23.86,0,0,0-2.934,1.633l-10.465,6.384-5.379,3.713c-1.956,1.411-3.317,2.293-4.363,4.562-3.085-3.825-5.158-8.062-5.332-13.031a25.754,25.754,0,0,1,7.036-17.813,16.543,16.543,0,0,1-2.08-2.945c-2.544-4.546-3.643-9.711-2.162-14.786a15.047,15.047,0,0,1,6-8.5,19.491,19.491,0,0,1,4.513-1.9,23.016,23.016,0,0,0,4.574-1.584Z" transform="translate(-116.39 2109.318)" fill="#18497a"/>
      <path id="Trazado_1220516" data-name="Trazado 1220516" d="M690.775,674.213l.177,0a5.92,5.92,0,0,0,3.108-1.177c.293,7.11,1.858,14.345,7.249,19.38a21.466,21.466,0,0,0,3.327,2.353l.037,1.292-.24,13.076-1.5.9-7.412,3.627a23.852,23.852,0,0,0-2.934,1.633l-10.465,6.384a1.468,1.468,0,0,1,.005-.636,21.713,21.713,0,0,1,1.408-2.979l2.855-6.724c.586-1.547,1.024-3.2,1.462-4.793a97.737,97.737,0,0,0,3.02-21.785Z" transform="translate(-153.589 2100.052)" fill="#0b203d"/>
      <path id="Trazado_1220517" data-name="Trazado 1220517" d="M720.737,468.841a35.6,35.6,0,0,1,4.06.334,31.483,31.483,0,0,1,18.124,10.379,47.664,47.664,0,0,1,4.935,6.685c.64,1.061,1.133,2.321,1.841,3.316a45.57,45.57,0,0,1,3.747,21.386,31.582,31.582,0,0,1-1.265,8.091l-1.5,4.558c-1.1,2.094-2.225,3.581-4.568,4.307l-.9.262a14.889,14.889,0,0,0-2.021.175,29.46,29.46,0,0,1-9.91,19.348,22.317,22.317,0,0,1-2.8,1.876,30.339,30.339,0,0,1-4.711,2.148c-6.341,2.123-11.444.566-17.191-2.3a21.463,21.463,0,0,1-3.327-2.353c-5.391-5.035-6.956-12.271-7.249-19.38a5.92,5.92,0,0,1-3.108,1.177l-.177,0a6.577,6.577,0,0,1-1.305-.291c-2.228-.715-3.334-2.69-4.346-4.632a15.33,15.33,0,0,1-.81-8.125,31.635,31.635,0,0,1-.626-7.823c0-10.487,3.221-22.47,10.872-30.071A30.882,30.882,0,0,1,720.737,468.841Z" transform="translate(-157.538 2245.424)" fill="#d38758"/>
      <path id="Trazado_1220518" data-name="Trazado 1220518" d="M711.888,613.932l3.477-1.356v6.305C714.493,616.7,714.085,615.163,711.888,613.932Z" transform="translate(-174.803 2143.097)" fill="#0b203d"/>
      <path id="Trazado_1220519" data-name="Trazado 1220519" d="M828.231,613.234l2.041-.03a5.894,5.894,0,0,1,4.127,2.155,2.356,2.356,0,0,1,.549,2.143l-.245.146a9.6,9.6,0,0,0-1.753-1.767,7.691,7.691,0,0,0-5.9-.585,4.043,4.043,0,0,1-1.894.388,1.753,1.753,0,0,1-.092-1.153,3.458,3.458,0,0,1,1.9-.973Z" transform="translate(-255.338 2142.65)" fill="#050d23"/>
      <path id="Trazado_1220520" data-name="Trazado 1220520" d="M744.168,613.118a13.212,13.212,0,0,1,3.09.1c.954.188,2.582.669,3.142,1.494a1.909,1.909,0,0,1-.578,1.17,13.9,13.9,0,0,0-4.91-1.131,8.925,8.925,0,0,0-5.33,2.628l-.228-.056a2.379,2.379,0,0,1,.344-1.676C740.726,614.036,742.392,613.481,744.168,613.118Z" transform="translate(-194.346 2142.74)" fill="#0b203d"/>
      <path id="Trazado_1220521" data-name="Trazado 1220521" d="M701.485,633.711a3.6,3.6,0,0,1,2.682.515c.608.4,1.115.715,1.267,1.448-1.325,1.516-2.263-.41-3.878-.129a1.208,1.208,0,0,0-.264.489c-.28,1.285.445,2.552,1.019,3.643a8.264,8.264,0,0,1,.933,1.939c-.226.356-.4.356-.787.5a4.017,4.017,0,0,1-1.426-1.714c-.869-1.577-1.705-3.448-1.126-5.265C700.164,634.326,700.782,634.093,701.485,633.711Z" transform="translate(-166.135 2128.079)" fill="#994a37"/>
      <path id="Trazado_1220522" data-name="Trazado 1220522" d="M789.654,642.089c.542.187.7.172,1.029.659l-1.243,7.745c1.147-.066,2.522-.375,3.431.4a1.483,1.483,0,0,1-.3,1.241,26.815,26.815,0,0,1-4.788-.33l-.069-.177a9.044,9.044,0,0,1,.273-2.221l.713-4.058a13.55,13.55,0,0,1,.448-2.418A4.318,4.318,0,0,1,789.654,642.089Z" transform="translate(-228.775 2122.086)" fill="#994a37"/>
      <path id="Trazado_1220523" data-name="Trazado 1220523" d="M883.16,633.055a3.171,3.171,0,0,1,1.833.239,2.832,2.832,0,0,1,1.251,1.716c.252,1.352-.651,3.109-1.409,4.209-.454.659-1.683,2.2-2.511,2.282-.35.036-.475-.172-.736-.38a1.491,1.491,0,0,1,.222-1.149c.831-1.015,2.31-2.687,2.4-4.053.025-.366-.2-.5-.419-.767-1.262-.315-1.534,1.409-2.612,1.7l-.285-.284a3.518,3.518,0,0,1-.025-1.322A3.828,3.828,0,0,1,883.16,633.055Z" transform="translate(-295.065 2128.534)" fill="#994a37"/>
      <path id="Trazado_1220524" data-name="Trazado 1220524" d="M753.08,632.576a4.231,4.231,0,0,1,1.193.069,3.792,3.792,0,0,1,2.238,1.792,3.239,3.239,0,0,1,.246,2.588,4.241,4.241,0,0,1-2.7,2.407,6.045,6.045,0,0,1-2.2-.314,3.375,3.375,0,0,1-1.7-1.987,3.966,3.966,0,0,1,.279-2.695A3.609,3.609,0,0,1,753.08,632.576Z" transform="translate(-201.959 2128.866)" fill="#050d23"/>
      <path id="Trazado_1220525" data-name="Trazado 1220525" d="M829.067,632.531a7.651,7.651,0,0,1,1.941.276,3.538,3.538,0,0,1,2.046,1.961,2.555,2.555,0,0,1,.054,2.166,4.254,4.254,0,0,1-2.518,2.4,5.582,5.582,0,0,1-1.559-.021,3.574,3.574,0,0,1-2.244-1.534,3.891,3.891,0,0,1-.405-2.67A4.565,4.565,0,0,1,829.067,632.531Z" transform="translate(-256.247 2128.89)" fill="#050d23"/>
      <path id="Trazado_1220526" data-name="Trazado 1220526" d="M736.075,666.276a4.486,4.486,0,0,1,1.763.174,4.028,4.028,0,0,1,2.429,2.066,3.63,3.63,0,0,1,.086,3.05,4.437,4.437,0,0,1-2.606,2.339,4.6,4.6,0,0,1-2.249-.086,3.583,3.583,0,0,1-2.049-1.937,4.2,4.2,0,0,1-.114-3.081A4.694,4.694,0,0,1,736.075,666.276Z" transform="translate(-189.901 2104.878)" fill="#d55344"/>
      <path id="Trazado_1220527" data-name="Trazado 1220527" d="M844.712,666.272a5.247,5.247,0,0,1,2.253.205,4.237,4.237,0,0,1,2.384,2.379,3.952,3.952,0,0,1-.237,3.216,4.013,4.013,0,0,1-2.68,2.024,4.244,4.244,0,0,1-2.168-.129,3.968,3.968,0,0,1-2.179-2.146,4.17,4.17,0,0,1-.049-3.234A4.566,4.566,0,0,1,844.712,666.272Z" transform="translate(-267.241 2104.89)" fill="#d55344"/>
      <path id="Trazado_1220528" data-name="Trazado 1220528" d="M771.994,691.91l14.889.009a11.363,11.363,0,0,1-2.306,5.551,7.328,7.328,0,0,1-3.806,2.108,6.866,6.866,0,0,1-5.694-1.462C772.961,696.513,772.345,694.438,771.994,691.91Z" transform="translate(-217.593 2086.618)" fill="#fefcfb"/>
      <path id="Trazado_1220529" data-name="Trazado 1220529" d="M720.737,468.841a35.6,35.6,0,0,1,4.06.334,31.483,31.483,0,0,1,18.124,10.379,47.655,47.655,0,0,1,4.935,6.685c.64,1.061,1.133,2.321,1.841,3.316a45.57,45.57,0,0,1,3.747,21.386,31.582,31.582,0,0,1-1.265,8.091,6.864,6.864,0,0,1-.379-2.142,8.129,8.129,0,0,0-.812-2.364,4.875,4.875,0,0,0-2.978-2.612,3.6,3.6,0,0,0-2.934.2c-1.675,1.011-2.183,3.243-2.632,5a42.329,42.329,0,0,0-.5-4.994,4.928,4.928,0,0,0-1.386-.955l-3.274-2.017a84.139,84.139,0,0,1-11.146-8.593,93.034,93.034,0,0,1-7.2-7.763c-5.73,7.1-12.567,13.445-20.845,17.468l-3.477,1.356a3.806,3.806,0,0,0-3.338.416,9.544,9.544,0,0,0-3.022,3.772,31.635,31.635,0,0,1-.626-7.823c0-10.487,3.221-22.47,10.872-30.071A30.882,30.882,0,0,1,720.737,468.841Z" transform="translate(-157.538 2245.424)" fill="#18497a"/>
      <path id="Trazado_1220530" data-name="Trazado 1220530" d="M737.5,491.884a13.571,13.571,0,0,1,2.561-.079A24.94,24.94,0,0,1,753,495.875c6.4,4.152,10.056,11.184,11.566,18.464-1.417-1.486-2.619-3.19-4.028-4.7-4.748-5.089-11.335-10.055-18.37-11.148l-.262-.039a22.219,22.219,0,0,0-4.28-.166,18.912,18.912,0,0,0-4.683,1.062c-5.975,2-11.325,6.3-15.606,10.827-1.172,1.238-2.132,2.646-3.26,3.924A26.7,26.7,0,0,1,720,500.815,25.177,25.177,0,0,1,737.5,491.884Z" transform="translate(-176.361 2229.09)" fill="#d55344"/>
      <path id="Trazado_1220531" data-name="Trazado 1220531" d="M686.844,540.742a6.548,6.548,0,0,1,2.369,1.388,59.8,59.8,0,0,1,12.335,12.175,84.155,84.155,0,0,1,17.285,50.519,67.07,67.07,0,0,1-.475,9.439l-1.449,8.972a18.3,18.3,0,0,0-.665,3.455,5.125,5.125,0,0,0,.432,1.009l1.242,2.744c1.351,3.192,2.365,6.588,3.768,9.734V753.4a1.5,1.5,0,0,1-.631.314,19.008,19.008,0,0,1-2.924.023l-7.274.014-9.8-.012a28.349,28.349,0,0,1-3.866-.026,1.9,1.9,0,0,1-.716-.282l-.393.219c-.97.34-9.554.2-10.432-.173l-.535.006-.387.179a16.083,16.083,0,0,1-3.729.075H670.8c-1.232,0-3.114.251-4.231-.274l-.552.017-.383.182a18.425,18.425,0,0,1-4.243.078l-8.332,0c-1.245,0-3.173.248-4.306-.265l-.536.023-.237.109a9.241,9.241,0,0,1-2.8.124l-6.9.012-14.332,0c-2.3,0-4.7.13-6.99-.023a2.371,2.371,0,0,1-.8-.239l-.732-.075-.214-9.475a10.616,10.616,0,0,0,0-1.3l.014-10.916a6.49,6.49,0,0,0,2.931-.6l.472-23.352c-1.648,1.3-3.455,2.463-5.2,3.638-2.5,1.685-6.066,4.543-9.187,4.581a4.7,4.7,0,0,1-3.36-1.391c-2.287-2.411-1.493-5.707-.973-8.614l.74-4.258a14.86,14.86,0,0,0,.539-2.93v-.193l.17-.017.381-.576-.024-.026a3.147,3.147,0,0,1,.055-1.682l.818-5.321,2.811-15.119.578-2.2-4.736-3.5-.41-.515c-.145-.638,2.4-6.681,2.789-7.709l.681-1.666c1.053-1.824,1.608-4.25,2.362-6.235l5.19-13.767a45.468,45.468,0,0,0,1.616-4.475c1.046-2.269,2.407-3.15,4.363-4.562l5.379-3.713,10.465-6.384a23.86,23.86,0,0,1,2.934-1.633l7.412-3.627,1.5-.9.24-13.076-.037-1.292c5.747,2.869,10.85,4.426,17.191,2.3a30.348,30.348,0,0,0,4.711-2.148,22.321,22.321,0,0,0,2.8-1.876,29.46,29.46,0,0,0,9.91-19.348,14.891,14.891,0,0,1,2.021-.175l.9-.262c2.343-.726,3.473-2.213,4.568-4.307l1.5-4.558a31.582,31.582,0,0,0,1.265-8.091A45.568,45.568,0,0,0,686.844,540.742Z" transform="translate(-94.685 2194.236)" fill="#127451"/>
      <path id="Trazado_1220532" data-name="Trazado 1220532" d="M824.39,991.968c.445.1.551.176.977-.029a2.361,2.361,0,0,0,1.306-1.285,45.478,45.478,0,0,0,.057-6.672,20.1,20.1,0,0,0-1.918-.876l-6.5-2.745c-1.1-.449-2.913-.859-3.6-1.85a4.634,4.634,0,0,1,.176-2.031c.245-.271.427-.608.826-.625a7.146,7.146,0,0,1,2.135.712c1.322.5,8.271,3.437,9.131,3.215.07-1.063-10.112-3.48-11.338-4.923a4.122,4.122,0,0,1-.026-1.5,1.619,1.619,0,0,1,.859-1.2c.983-.2,2.237.476,3.184.809l7.771,2.836.325-.225c-.417-.631-1.915-.959-2.645-1.227-2.521-.922-5.258-1.7-7.676-2.86-.262-.354-.392-.466-.381-.927A2.713,2.713,0,0,1,818.1,968.7c1.307-.25,2.909.557,4.109,1l5.763,2.145.258-.228c-.312-.515-.935-.643-1.487-.867l-4.624-1.745a3.31,3.31,0,0,1-1.85-1.079,2.785,2.785,0,0,1,.949-2.349,6.768,6.768,0,0,1,2.592.682l4.87,1.8c1.326.179,4.326,2.716,5.151,3.837,1.084,1.474,1.7,10.885,1.938,13.149a10.193,10.193,0,0,0,.223,2.164,6.96,6.96,0,0,0,.748.36l4.469,2,.422-.069a1.658,1.658,0,0,0,1.143.758.692.692,0,0,0,.312-.052c.928-1.616.315-4.2,1.463-5.6l.262.786a1.523,1.523,0,0,0,.953-.21l.109-.239,12.122-6a45.882,45.882,0,0,1,4.619-2.411L866.1,997.9l1.22,7.686a25.81,25.81,0,0,1,.506,4.169,6.92,6.92,0,0,1-1.271,3.569,7.379,7.379,0,0,1-4.921,3.085,7.8,7.8,0,0,1-6.016-1.317l-10.307-7.695c-1.4-1.052-3.679-2.336-4.745-3.708-1.082-.058-11.889-8.308-13.545-9.553C826.105,993.446,825.447,992.418,824.39,991.968Z" transform="translate(-247.979 1891.794)" fill="#c97a53"/>
      <path id="Trazado_1220533" data-name="Trazado 1220533" d="M924.825,1054.98a4.642,4.642,0,0,0,1.341,1.028l10.791,4.895c1.007.467,3.21,1.106,3.854,1.95.117.153.04.274.01.452l-.392.5c-3.23-.974-6.584-3.264-9.545-4.86a36.017,36.017,0,0,1-5.01-2.757A5.457,5.457,0,0,1,924.825,1054.98Z" transform="translate(-326.396 1828.143)" fill="#063264"/>
      <path id="Trazado_1220534" data-name="Trazado 1220534" d="M913.3,1037.22c.928-1.616.315-4.2,1.463-5.6l.262.786a1.523,1.523,0,0,0,.953-.21l.989,6.972C915.877,1038.664,914.066,1038.1,913.3,1037.22Z" transform="translate(-318.192 1844.773)" fill="#fefcfb"/>
      <path id="Trazado_1220535" data-name="Trazado 1220535" d="M641.772,946.615l.056,11.162,9.251-2.354a8.543,8.543,0,0,1,3-.541,2,2,0,0,1,.871,1.715,2.816,2.816,0,0,1-.059,1.259c-1.558.918-11.919,3.6-12.292,4.68l.3.167c2.473-1.127,5.146-1.907,7.72-2.784,1.751-.6,3.936-1.645,5.787-1.539a1.664,1.664,0,0,1,.8,1.094,1.945,1.945,0,0,1-.252,1.484c-.627.822-2.561,1.235-3.537,1.584l-7.188,2.708a9.935,9.935,0,0,0-3.042,1.245l.161.265c1.688-.458,12.677-4.917,13.327-4.75a3.139,3.139,0,0,1,.487.219,2.64,2.64,0,0,1,.61,2.287,1.863,1.863,0,0,1-.679.691,37.827,37.827,0,0,1-4.309,1.726l-7.07,3.123c-.593.274-1.85.663-2.142,1.213a1.362,1.362,0,0,0,.405.1,12.233,12.233,0,0,0,2.76-1.221l6.313-2.789a5.863,5.863,0,0,1,2-.66c.174.035.3.19.45.285a2.941,2.941,0,0,1,.139,2.181c-.494,1.184-10.865,5.358-12.473,7.067a1.1,1.1,0,0,0-.128,1.089l.079.147a10.8,10.8,0,0,1-.431,2.843,7.086,7.086,0,0,1-1.258,1.005l-10.817,7.358c-.9.6-2.648,2.094-3.664,2.279-1.336,1.426-3.6,2.619-5.245,3.719a25.278,25.278,0,0,1-3.065,2.025c-1.648,1.3-3.455,2.463-5.2,3.638-2.5,1.685-6.066,4.543-9.187,4.581a4.7,4.7,0,0,1-3.36-1.391c-2.287-2.411-1.493-5.707-.973-8.614l.74-4.258a14.859,14.859,0,0,0,.539-2.93v-.193l.17-.017.381-.576-.024-.026a3.147,3.147,0,0,1,.055-1.682l.818-5.321,2.811-15.119.578-2.2c3.437,1.847,6.632,3.921,10.192,5.577,1.946.9,4.047,1.406,5.967,2.29a2.1,2.1,0,0,0,1.673.389,3.2,3.2,0,0,0,.808-.262l.9,4.192a6.114,6.114,0,0,0,.526,1.979l.457.063a3.106,3.106,0,0,0,1.509-1.02l.472.069,2.338-1.095a4.818,4.818,0,0,0,.872-.409,8.3,8.3,0,0,0,.585-1.584l1.877-5.024c1.131-3.059,2.3-6.21,3.71-9.146a14.042,14.042,0,0,1,3.865-1.007Z" transform="translate(-94.685 1905.29)" fill="#c97a53"/>
      <path id="Trazado_1220536" data-name="Trazado 1220536" d="M606.725,1070.271l.2.026c.778.066,9.773-4.716,11.517-5.534a11.021,11.021,0,0,1,2.513-1.078,3.089,3.089,0,0,1,1.513.279,10.863,10.863,0,0,1-2.889,1.6l-7.117,3.382a50.212,50.212,0,0,1-5.737,2.832l-.33-.167-.046-.769Z" transform="translate(-99.665 1821.955)" fill="#063264"/>
      <path id="Trazado_1220537" data-name="Trazado 1220537" d="M673.083,1029.38a2.1,2.1,0,0,0,1.673.389,3.2,3.2,0,0,0,.808-.262l.9,4.192a6.114,6.114,0,0,0,.526,1.979,4.041,4.041,0,0,1-1.881,1.19l-4.2,1.93Z" transform="translate(-145.624 1846.368)" fill="#fefcfb"/>
      <path id="Trazado_1220538" data-name="Trazado 1220538" d="M870.023,824.684l6.376,3.524c4.618,2.573,9.719,5.371,12.811,9.829a42.172,42.172,0,0,1,2.672,4.282,21.058,21.058,0,0,0,1.58,3.107,145.534,145.534,0,0,1,5.1,15.818c1.053,4.3,1.7,8.708,2.47,13.07-1.07.553-2.931,1.132-3.807,1.91a45.906,45.906,0,0,0-4.619,2.411l-12.121,6-.109.239a1.523,1.523,0,0,1-.953.21l-.262-.786c-1.147,1.4-.535,3.984-1.463,5.6a.694.694,0,0,1-.312.052,1.659,1.659,0,0,1-1.143-.758l-.422.069-4.469-2a6.944,6.944,0,0,1-.748-.36,10.192,10.192,0,0,1-.223-2.164c-.238-2.264-.855-11.675-1.939-13.149-.824-1.121-3.825-3.658-5.151-3.837l.035-22.7,4.249.054Z" transform="translate(-282.59 1992.094)" fill="#f3d778"/>
      <path id="Trazado_1220539" data-name="Trazado 1220539" d="M908.249,940.2c.394-.487.624-7.571.749-8.712a299.811,299.811,0,0,1,5.471-35.156c.476,3.613.012,7.615-.236,11.244l-2.282,22.745c-.165,1.3-.153,3.941-.784,4.984-1.147,1.4-.535,3.984-1.463,5.6a.694.694,0,0,1-.312.052A1.658,1.658,0,0,1,908.249,940.2Z" transform="translate(-314.595 1941.083)" fill="#f3cb3c"/>
      <path id="Trazado_1220540" data-name="Trazado 1220540" d="M647.691,801.479l10.051,24.133-6.926-.031a14.328,14.328,0,0,0-3.515.143,3.344,3.344,0,0,0-1.374.818,3,3,0,0,0-.523,2.2l.031,14.551-.041,10.988a14.04,14.04,0,0,0-3.865,1.007c-1.414,2.936-2.579,6.086-3.71,9.146l-1.877,5.024a8.306,8.306,0,0,1-.584,1.584,4.82,4.82,0,0,1-.872.409l-2.338,1.095-.472-.069a3.106,3.106,0,0,1-1.509,1.02l-.457-.063a6.115,6.115,0,0,1-.526-1.979l-.9-4.192a3.193,3.193,0,0,1-.808.262,2.1,2.1,0,0,1-1.673-.389c-1.92-.884-4.021-1.386-5.967-2.29-3.561-1.656-6.755-3.731-10.193-5.577l-4.736-3.5-.41-.515c-.145-.638,2.4-6.681,2.789-7.709l.681-1.666c1.053-1.824,1.608-4.25,2.362-6.235l5.19-13.767a45.461,45.461,0,0,0,1.616-4.475c1.046-2.269,2.407-3.15,4.363-4.562l5.379-3.713,10.465-6.384a23.852,23.852,0,0,1,2.934-1.633Z" transform="translate(-98.347 2008.614)" fill="#f3d778"/>
      <path id="Trazado_1220541" data-name="Trazado 1220541" d="M672.05,938.372a34.477,34.477,0,0,1-.96-4.69L668.835,920.5l-2.175-13.247-.509-3.4a7.535,7.535,0,0,1-.179-1.351,3.635,3.635,0,0,1,.33-.72,1.743,1.743,0,0,1,1.144-.417,1.357,1.357,0,0,1,.771,1.137l1.814,10.647,3.953,21.969,1,6.177a7.738,7.738,0,0,0,.452,2.29,3.106,3.106,0,0,1-1.509,1.02l-.457-.063a6.115,6.115,0,0,1-.526-1.979Z" transform="translate(-142.111 1937.503)" fill="#f3cb3c"/>
      <path id="Trazado_1220542" data-name="Trazado 1220542" d="M728.874,801.479l10.051,24.133L732,825.581a14.328,14.328,0,0,0-3.515.143,3.344,3.344,0,0,0-1.374.818,3,3,0,0,0-.523,2.2l-7.927.015-.131-22.016a23.856,23.856,0,0,1,2.934-1.633Z" transform="translate(-179.53 2008.614)" fill="#fefcfb"/>
      <path id="Trazado_1220543" data-name="Trazado 1220543" d="M798.24,658.881c6.158,1.8,12.274,4.436,15.507,10.405a13.939,13.939,0,0,1,1.522,4.687c.638,4.288-.816,8.959-2.707,12.774a23.315,23.315,0,0,0-1.6,2.988c0,.046.07.058.1.087l.7.586a74,74,0,0,1,8.023,7.041c4.4,4.906,5.34,11.247,3.5,17.461a29.54,29.54,0,0,1-4.665,9.331l-2.655,3.148a21.067,21.067,0,0,1-1.58-3.107A42.16,42.16,0,0,0,811.718,720c-3.092-4.458-8.193-7.256-12.811-9.83l-6.376-3.524-2.447,20.429-4.249-.054a3.791,3.791,0,0,0-.837-1.89c-1.193-1.282-2.458-1.051-4.044-1.058l-16.462.021-10.051-24.133,1.5-.9.24-13.076-.037-1.292c5.747,2.869,10.85,4.426,17.191,2.3a30.344,30.344,0,0,0,4.711-2.148,22.321,22.321,0,0,0,2.8-1.876,29.46,29.46,0,0,0,9.91-19.348,14.89,14.89,0,0,1,2.021-.175l.9-.262C796.015,662.462,797.145,660.974,798.24,658.881Z" transform="translate(-205.097 2110.132)" fill="#18497a"/>
      <path id="Trazado_1220544" data-name="Trazado 1220544" d="M836.379,696.138a22.309,22.309,0,0,0,2.8-1.876,29.46,29.46,0,0,0,9.91-19.348,14.881,14.881,0,0,1,2.021-.175l-.456,43.018-11.313-6.192c-.847-.648-1.865-1.1-2.732-1.777a34.818,34.818,0,0,1-.166-4.826Z" transform="translate(-263.43 2098.842)" fill="#050d23"/>
      <path id="Trazado_1220545" data-name="Trazado 1220545" d="M756.144,748.48c5.747,2.869,10.85,4.426,17.191,2.3a30.342,30.342,0,0,0,4.711-2.148l.061,8.825a34.817,34.817,0,0,0,.166,4.826c.867.678,1.886,1.128,2.732,1.777l11.313,6.192.211.179-2.447,20.429-4.249-.054a3.791,3.791,0,0,0-.837-1.89c-1.193-1.282-2.458-1.051-4.044-1.058l-16.462.021-10.051-24.133,1.5-.9.24-13.076Z" transform="translate(-205.097 2046.345)" fill="#c97a53"/>
      <path id="Trazado_1220546" data-name="Trazado 1220546" d="M760.354,748.48c5.747,2.869,10.85,4.426,17.191,2.3a30.342,30.342,0,0,0,4.711-2.148l.061,8.825a34.817,34.817,0,0,0,.166,4.826c.867.678,1.886,1.128,2.732,1.777l-1.592,4.282a68.951,68.951,0,0,1-6.5-5.4L766.6,754.293c-1.691-1.393-4.123-4.095-6.21-4.521Z" transform="translate(-209.307 2046.345)" fill="#ad6434"/>
      <path id="Trazado_1220547" data-name="Trazado 1220547" d="M825.654,802.571l11.313,6.192.211.179-2.447,20.429-4.249-.054a3.791,3.791,0,0,0-.837-1.89c-1.193-1.282-2.458-1.051-4.044-1.058h-8.445l6.906-19.516Z" transform="translate(-249.745 2007.837)" fill="#fefcfb"/>
      <path id="Trazado_1220548" data-name="Trazado 1220548" d="M726.047,540.742a6.548,6.548,0,0,1,2.369,1.388,59.792,59.792,0,0,1,12.335,12.175,84.156,84.156,0,0,1,17.285,50.519,67.079,67.079,0,0,1-.475,9.439l-1.449,8.972a18.3,18.3,0,0,0-.665,3.455,5.129,5.129,0,0,0,.432,1.009l1.242,2.744c1.351,3.192,2.365,6.588,3.768,9.734V753.4a1.5,1.5,0,0,1-.631.314,19.008,19.008,0,0,1-2.924.023l-7.274.014-9.8-.012a28.349,28.349,0,0,1-3.866-.026,1.894,1.894,0,0,1-.716-.282l-.393.219c-.97.34-9.554.2-10.432-.173l-.535.006-.387.179a16.083,16.083,0,0,1-3.729.075H710c-1.232,0-3.114.251-4.231-.274l-.552.017-.383.182a18.426,18.426,0,0,1-4.243.078l-8.332,0c-1.245,0-3.173.248-4.306-.265l-.536.023-.237.109a9.24,9.24,0,0,1-2.8.124l-6.9.012-14.332,0c-2.3,0-4.7.13-6.99-.023a2.371,2.371,0,0,1-.8-.239l-.732-.075-.214-9.475a10.616,10.616,0,0,0,0-1.3l.014-10.916a6.49,6.49,0,0,0,2.931-.6l.472-23.352a25.274,25.274,0,0,0,3.065-2.025c1.642-1.1,3.909-2.293,5.245-3.719,1.015-.184,2.768-1.68,3.664-2.279l10.817-7.358a7.084,7.084,0,0,0,1.258-1.005,10.8,10.8,0,0,0,.431-2.843,2.185,2.185,0,0,0,1.372,1.17,16.711,16.711,0,0,0,3.988.081l10.459-.032,7.9.012a31.5,31.5,0,0,0,3.615-.014,2.238,2.238,0,0,0,.649-.21c1.056.449,1.715,1.478,2.632,2.166,1.655,1.245,12.463,9.5,13.545,9.553,1.065,1.371,3.34,2.656,4.744,3.708l10.307,7.695a7.8,7.8,0,0,0,6.016,1.317,7.378,7.378,0,0,0,4.921-3.085,6.919,6.919,0,0,0,1.271-3.569,25.8,25.8,0,0,0-.506-4.169l-1.22-7.686-3.484-21.373c.876-.778,2.737-1.357,3.807-1.91-.766-4.362-1.417-8.766-2.47-13.07a145.573,145.573,0,0,0-5.1-15.818l2.655-3.148a29.54,29.54,0,0,0,4.665-9.331c1.839-6.214.895-12.555-3.5-17.461a74,74,0,0,0-8.023-7.041l-.7-.586c-.035-.029-.1-.042-.1-.087a23.3,23.3,0,0,1,1.6-2.988c1.892-3.815,3.346-8.486,2.707-12.774a13.94,13.94,0,0,0-1.522-4.687c-3.232-5.969-9.348-8.6-15.506-10.405l1.5-4.558a31.582,31.582,0,0,0,1.265-8.091A45.568,45.568,0,0,0,726.047,540.742Z" transform="translate(-133.888 2194.236)" fill="#edf3fc"/>
      <path id="Trazado_1220549" data-name="Trazado 1220549" d="M878.947,1115.593l4.78-.02a3.014,3.014,0,0,1,1.552.176,24.883,24.883,0,0,0,.688,3.777l1.723,7.237-7.255-.029Z" transform="translate(-293.735 1785.016)" fill="#5a73ab"/>
      <path id="Trazado_1220550" data-name="Trazado 1220550" d="M693.352,1115.41c1.62.141,3.268.084,4.894.078a13.1,13.1,0,0,0,2.607-.072,6.566,6.566,0,0,1-.028,1.216,11.618,11.618,0,0,0-.262,2.348,1.324,1.324,0,0,1-.01.7,12.325,12.325,0,0,0-.287,2.322l-.486,4.624-7.48,0a17.62,17.62,0,0,0,1.037-3.768C693.62,1120.495,693.3,1117.818,693.352,1115.41Z" transform="translate(-160.857 1785.122)" fill="#5a73ab"/>
      <path id="Trazado_1220551" data-name="Trazado 1220551" d="M894.816,1244.033l-.442-2.408c-.273-1.429-.325-3.077-.515-4.546l-.551-5.427-.151-1.786,9.4-.055,1.787,8.519a48.8,48.8,0,0,0,1.292,5.658l-.393.219C904.278,1244.546,895.694,1244.41,894.816,1244.033Z" transform="translate(-303.851 1703.679)" fill="#5a73ab"/>
      <path id="Trazado_1220552" data-name="Trazado 1220552" d="M721.153,1115.185a21.121,21.121,0,0,0,4.544.1l6.108,0a13.983,13.983,0,0,0,3.543-.176l-.187,6.629a5.89,5.89,0,0,0,.009,2.253l-.072.253a10.326,10.326,0,0,0-.078,2.045L720,1126.38l.753-6.8a22.26,22.26,0,0,0,.31-3.077Z" transform="translate(-180.576 1785.336)" fill="#5a73ab"/>
      <path id="Trazado_1220553" data-name="Trazado 1220553" d="M828.981,1115.68l14.2.012a10.613,10.613,0,0,0,.241,3.12c.137.383.029.415.025.786a4.482,4.482,0,0,0,.185.749c.117.6.1,1.27.164,1.887l.661,4.546-11.582.014c-.721,0-3.047.23-3.589-.1a8.753,8.753,0,0,0-.116-2.731l.061-.207a11.025,11.025,0,0,0-.032-2.688C829.141,1119.27,829.175,1117.469,828.981,1115.68Z" transform="translate(-258.163 1784.93)" fill="#5a73ab"/>
      <path id="Trazado_1220554" data-name="Trazado 1220554" d="M774.283,1115.31a33.566,33.566,0,0,0,5.3.112l9.836-.006c-.067,1.193-.289,5.88.174,6.678l.109.173-.086.121a1.308,1.308,0,0,0-.077,1.109l.1.187a15,15,0,0,0-.025,2.717l-15.637.078a11.7,11.7,0,0,0,.017-1.924,1.055,1.055,0,0,1,.02-.66,9.924,9.924,0,0,0,.13-2.823Z" transform="translate(-218.985 1785.193)" fill="#5a73ab"/>
      <path id="Trazado_1220555" data-name="Trazado 1220555" d="M884.331,1155.12a3.837,3.837,0,0,0,2.325.34l4.886-.014,4.536,20.526-.415-.02-.339.144a63.6,63.6,0,0,1-8.524-.043,4.071,4.071,0,0,0-.26-1.409l-.111-.2a5.916,5.916,0,0,0-.3-3l-.061-.153c.329-.755-.242-2.189-.222-3.077a2.062,2.062,0,0,0-.281-1.348c-.266-.317.038-.311.041-.712a24.237,24.237,0,0,0-.313-2.489Z" transform="translate(-297.568 1756.852)" fill="#5a73ab"/>
      <path id="Trazado_1220556" data-name="Trazado 1220556" d="M770.846,1243.87c.174-2.1.151-4.22.164-6.329,0-.68.141-1.406.116-2.071a11.291,11.291,0,0,1,.034-2.331,18.777,18.777,0,0,0,.032-3.431l12.172-.017c1.234,0,3.273-.279,4.417.1l.105,3.86.224,10.233-.383.182a18.425,18.425,0,0,1-4.243.078l-8.332,0C773.907,1244.132,771.979,1244.383,770.846,1243.87Z" transform="translate(-216.776 1703.836)" fill="#5a73ab"/>
      <path id="Trazado_1220557" data-name="Trazado 1220557" d="M831.867,1244.075a6.227,6.227,0,0,1-.016-1.639c0-.467-.154-.585-.041-1.092a15.591,15.591,0,0,0-.137-2.915l-.021-1.44a6.454,6.454,0,0,0-.088-1.792l.061-.19a8.356,8.356,0,0,0-.044-2.774c-.117-.706.028-1.593-.014-2.342l17.147.035,1.2,10.218c.175,1.178.052,2.887.5,3.953l-.387.179a16.083,16.083,0,0,1-3.729.075H836.1C834.866,1244.346,832.985,1244.6,831.867,1244.075Z" transform="translate(-259.981 1703.622)" fill="#5a73ab"/>
      <path id="Trazado_1220558" data-name="Trazado 1220558" d="M711.311,1053.71a2.185,2.185,0,0,0,1.372,1.17,16.714,16.714,0,0,0,3.988.081l10.459-.032,7.9.012a31.5,31.5,0,0,0,3.615-.014,2.238,2.238,0,0,0,.649-.21c1.056.449,1.715,1.478,2.632,2.166,1.655,1.245,12.463,9.5,13.545,9.553-.961,1.083-.207,4.753-1.044,5.283a3.015,3.015,0,0,0-1.552-.176l-4.78.02-.19.011-14.2-.011h-.381l-9.836.006a33.552,33.552,0,0,1-5.3-.112l-.527-.058a13.983,13.983,0,0,1-3.543.176l-6.108,0a21.121,21.121,0,0,1-4.544-.1l-.581.017a13.1,13.1,0,0,1-2.607.072c-1.626.006-3.274.063-4.894-.078a37.737,37.737,0,0,0-.235-4.29c1.015-.184,2.768-1.679,3.664-2.279l10.817-7.358a7.087,7.087,0,0,0,1.258-1.005A10.805,10.805,0,0,0,711.311,1053.71Z" transform="translate(-162.88 1829.047)" fill="#f3d778"/>
      <path id="Trazado_1220559" data-name="Trazado 1220559" d="M657.7,1191.259l.123-.21a23.409,23.409,0,0,0,1.518-5.079l2.771-10.757,5.406-19.189,5.862-.184c.523,0,1.259-.141,1.66.19a3.447,3.447,0,0,0,.028,1.7l.323-.222.236-1.726,10.531-.012a22.789,22.789,0,0,1,4.524.063l.008,1.723a13.436,13.436,0,0,1-.031,2.285,12.36,12.36,0,0,0-.046,3.183,1.176,1.176,0,0,1-.094.582,12.926,12.926,0,0,0-.038,2.593c0,.51-.024,1.023.016,1.53a2.327,2.327,0,0,1-.055.576,1.315,1.315,0,0,0,.114.91l.263-.061a5.509,5.509,0,0,0,.109-1.472l.166-4.244c.011-.219.008-.144-.078-.392l.067-.242a8.762,8.762,0,0,0,0-1.991l.164-4.967a23.877,23.877,0,0,1,4.542-.081l11.1-.014c0,1.42-.083,2.881.054,4.292a3.283,3.283,0,0,1-.008.637,1.6,1.6,0,0,0,.236.974l-.082.251a9.957,9.957,0,0,0,.085,3.293l-.07.23a2.846,2.846,0,0,0,.07,1.262c.044.285.029.187-.049.481a2.137,2.137,0,0,0,.014,1.005l.345.176a10.952,10.952,0,0,0,.087-3.057l-.2-9.524,15.186.078.441,4.148a4.569,4.569,0,0,0,.4,2.057c-.4.933.217,3.581.291,4.7l.236.354-.073.2a5.868,5.868,0,0,0,.184,1.994c.264,2.377.759,4.871.794,7.251l-17.045.037c-.036-2.218.127-4.607-.13-6.8-.06-.51.045-1-.252-1.423l-.317.349a12.23,12.23,0,0,0,.1,1.259,9.411,9.411,0,0,1-.046,2.354c-.092.547.158,1.08.015,1.636a1.281,1.281,0,0,0,.031.723,2.111,2.111,0,0,1-.01.6l.043,1.268-8.394.02a39.18,39.18,0,0,0-3.991.046,40.628,40.628,0,0,1-4.1-.058l.029-2.1.019-1.711.1-3.229-.23-.228c-.412.533-.268,1.2-.286,1.87l-.175,5.381L673.3,1176.5a16.9,16.9,0,0,1,.177-1.783l.2-1.57c.084-.51.047-1,.143-1.515l.834-7.528.243-1.93a3.4,3.4,0,0,0,.04-.827c-.051-1.077.748-2.63.212-3.592-.506.426-.478,1.87-.552,2.578a1.344,1.344,0,0,0,.089.642l-.111.2a11.057,11.057,0,0,0-.293,1.867,8.842,8.842,0,0,0-.049,1.08c-.269,2.558-.5,5.453-1,7.957a1.686,1.686,0,0,0,.029,1.144l-.115.158a14.05,14.05,0,0,0-.417,3.175l-10.52.043-.2.308c.553.366,1.939.182,2.646.182l8.038-.014-.2,1.9.233.17c.514-.565.216-1.406.591-2.066l16.858-.043-.234,10.913a24.274,24.274,0,0,0-.047,2.748.888.888,0,0,1-.135.573l-.237.109a9.245,9.245,0,0,1-2.8.124l-6.9.011-14.332,0c-2.3,0-4.7.13-6.99-.023A2.378,2.378,0,0,1,657.7,1191.259Z" transform="translate(-136.224 1756.45)" fill="#5a73ab"/>
      <path id="Trazado_1220560" data-name="Trazado 1220560" d="M77.057,393.919l1.106-.59a1.335,1.335,0,0,1,.35.211,18.164,18.164,0,0,1,1.416,3.081l4.133,8.037,13.762,26.289c2.2,4.18,4.241,8.63,6.654,12.681l5.283-5.253a16.619,16.619,0,0,1,3.171-2.844,11.149,11.149,0,0,0,4.175,1.462,10.506,10.506,0,0,1,2.619.073c2.013,8.3,5.965,16.228,13.5,20.823a17.126,17.126,0,0,0,1.8,1.018l-.018,2.217-.046,8.367a15.4,15.4,0,0,1-.136,4.179,2.041,2.041,0,0,0,.438,1.4,42.967,42.967,0,0,1,2.653,4.78l6.765,12.027a16.119,16.119,0,0,1,1.926,3.575l.351-.226a12.844,12.844,0,0,0,1.6,1.114l.076,31.345,8.626-3.9a41.089,41.089,0,0,1,5.2-2.217,3.35,3.35,0,0,1,2.371,2.3l8.446,20.869,4.349,10.571-.681,1.666c-.391,1.028-2.934,7.071-2.789,7.709l.41.515,4.736,3.5-.578,2.2-2.811,15.119-.818,5.321a3.147,3.147,0,0,0-.055,1.682l.024.026-.381.576-.17.017v.193a14.865,14.865,0,0,1-.539,2.93l-.74,4.258c-.52,2.907-1.313,6.2.973,8.614a4.7,4.7,0,0,0,3.36,1.391c3.121-.037,6.687-2.9,9.187-4.581,1.743-1.175,3.551-2.333,5.2-3.638l-.472,23.352a6.492,6.492,0,0,1-2.931.6l-.014,10.916a10.621,10.621,0,0,1,0,1.3l.214,9.475a1.42,1.42,0,0,1-.63.314,37.212,37.212,0,0,1-5.1.023l-13.137.017-14.917-.014a48.816,48.816,0,0,1-6.194-.026,1.8,1.8,0,0,1-.733-.308,1.4,1.4,0,0,1-.618.308,38,38,0,0,1-5.125.023l-13.017.014-15.165-.011a49.809,49.809,0,0,1-6.224-.026,1.877,1.877,0,0,1-.741-.305,1.644,1.644,0,0,1-1.607.066,1.687,1.687,0,0,1-.624.239,41.243,41.243,0,0,1-4.386.017l-9.828.014-26.615-.023a1.68,1.68,0,0,1-.874-.317,2.331,2.331,0,0,1-.382.239,9.151,9.151,0,0,1-2.639.084l-7.975.017-21.006,0c-3.435-.006-6.978.161-10.4-.029a2.432,2.432,0,0,1-.823-.239,1.834,1.834,0,0,1-.618.239,28.586,28.586,0,0,1-4.1.026l-10.588,0a24.439,24.439,0,0,1-3.954-.029A1.87,1.87,0,0,1,0,648.452V512.433a92.343,92.343,0,0,1,6.892-9.677,108.8,108.8,0,0,1,10.813-10.914,39.791,39.791,0,0,1,4.072-3.675l1.06-.043a15.936,15.936,0,0,1,1.557-3.539L28.5,476.61l.99-1.657-.186-.8-.172-.941-.162-.707a7.906,7.906,0,0,1,1.7-4.952,5.816,5.816,0,0,1,4.493-2.042l.173-.267a7.9,7.9,0,0,0-1.117-3.292l-.474-.776-.287-1.9c-1.287-8.106.14-17.528,5.09-24.238,4.042-5.478,10.492-8.913,17.361-7.376a11.733,11.733,0,0,1,2.257.716,11.053,11.053,0,0,0,1.852.922,15.907,15.907,0,0,0,2.8-1.167,22.845,22.845,0,0,1,5.366-1.281l-9.962-24.727,2.966-1.284Z" transform="translate(332 2299.182)" fill="#f0ad15"/>
      <path id="Trazado_1220561" data-name="Trazado 1220561" d="M495.442,1070.58a2.294,2.294,0,0,0,.726,1.6c.277,1.141,2.583,6.453,3.282,6.983a21.619,21.619,0,0,0,1.546,3.817,10.74,10.74,0,0,0,1.108,2.3,1.868,1.868,0,0,1-1.462.683,1.116,1.116,0,0,1-.471-.112,1.586,1.586,0,0,1-1.27.17,2.859,2.859,0,0,1-2-1.57,33.116,33.116,0,0,1-1.982-4.641c-.93-2.149-2.075-4.215-2.867-6.421A14.317,14.317,0,0,0,495.442,1070.58Z" transform="translate(-18.299 1817.037)" fill="#063264"/>
      <path id="Trazado_1220562" data-name="Trazado 1220562" d="M508.7,747.023a12.841,12.841,0,0,0,1.6,1.114l.076,31.345-2.251.992.093-32.979.132-.247Z" transform="translate(-29.741 2047.382)" fill="#bb8d17"/>
      <path id="Trazado_1220563" data-name="Trazado 1220563" d="M507.545,1118.75a2.859,2.859,0,0,0,2,1.57,1.586,1.586,0,0,0,1.27-.17,5.408,5.408,0,0,1-.869.614,14.873,14.873,0,0,1-.01,3.221,19.5,19.5,0,0,0,.088,3.858c.007.89-.12,1.777-.12,2.673l.06,12.229c0,1.91-.381,4.258.116,6.1a1.587,1.587,0,0,1-.646.34,4,4,0,0,1-2.43-.259c.539-.614.322-4.465.323-5.442l.023-18.492C507.355,1123.014,507.084,1120.663,507.545,1118.75Z" transform="translate(-28.942 1782.744)" fill="#bb8d17"/>
      <path id="Trazado_1220564" data-name="Trazado 1220564" d="M427.6,895.148l9.983,22.668,2.646,6.051-2.448,1.677a3.586,3.586,0,0,1-1.033.663l-11.9-26.437a3.482,3.482,0,0,1-.239-2.973C425.082,895.8,426.621,895.488,427.6,895.148Z" transform="translate(29.891 1941.93)" fill="#063264"/>
      <path id="Trazado_1220565" data-name="Trazado 1220565" d="M455.9,991.883a3.488,3.488,0,0,1,2.4,1.564,5,5,0,0,1,.562,1.736l.5,1.415a3.358,3.358,0,0,1,2.312.951,3.908,3.908,0,0,1,.405,3.094,3.511,3.511,0,0,0-.1.5l.261.164,2.069,1.536c.3.841.88,2.123.457,2.987a1.306,1.306,0,0,1-.246.372l.185.565a6.353,6.353,0,0,1,1.523,1.752l.14.277c-.033.879.119,1.648-.591,2.3-1.008.916-2.168,1.688-3.248,2.521-.37.282-.948.9-1.412.939a14.316,14.316,0,0,1-3.39,2.815,9.924,9.924,0,0,1-1.777.954,1.821,1.821,0,0,1-1.481-.078,4.053,4.053,0,0,1-2.09-2.826,10.716,10.716,0,0,0-.2-1.616,6.551,6.551,0,0,1-1.7-1.005,4.84,4.84,0,0,1-1.264-3.587l0-.135-1.132-.527c-1.9-1.181-1.623-2.642-2.023-4.457a4.636,4.636,0,0,1-1.622-1.106,3,3,0,0,1-.565-2.3c.215-1.8,5.175-4.428,6.749-5.606a3.583,3.583,0,0,0,1.033-.663l2.448-1.677Z" transform="translate(16.031 1873.063)" fill="#c97a53"/>
      <path id="Trazado_1220566" data-name="Trazado 1220566" d="M474.013,1003.34l.5,1.414a17.5,17.5,0,0,1-3.745,2.593c-1.3.847-2.537,1.775-3.876,2.57a5.987,5.987,0,0,1-1.776.838,14.085,14.085,0,0,1,2.6-2.443C469.764,1006.607,472.025,1005.089,474.013,1003.34Z" transform="translate(0.878 1864.906)" fill="#994a37"/>
      <path id="Trazado_1220567" data-name="Trazado 1220567" d="M490.643,1042.165a24.069,24.069,0,0,1-3.121,1.962l-4.356,2.973a13.894,13.894,0,0,1-2.176,1.38c-.347.147-.341.112-.694-.026l-.025-.455c.893-.948,8.251-6,9.12-6.156l1.067-.242Z" transform="translate(-9.911 1837.668)" fill="#994a37"/>
      <path id="Trazado_1220568" data-name="Trazado 1220568" d="M481.09,1022.866a5.012,5.012,0,0,1-1.769,1.478l-3.647,2.466c-1.211.847-2.361,1.838-3.645,2.573a11.192,11.192,0,0,1-1.715.738,3.6,3.6,0,0,1,.754-1.054c1.6-1.357,3.436-2.547,5.117-3.806,1.29-.968,2.955-2.6,4.47-3.1l.173.542Z" transform="translate(-2.823 1851.508)" fill="#994a37"/>
      <path id="Trazado_1220569" data-name="Trazado 1220569" d="M423.419,676.141a21.009,21.009,0,0,0,4.7-1.405c2.633-.847,5.338-1.549,7.921-2.534a2.041,2.041,0,0,0,.438,1.4,42.966,42.966,0,0,1,2.653,4.78l6.765,12.027a16.121,16.121,0,0,1,1.926,3.575l-.132.247-16.621,12.24-7.966-29.95Z" transform="translate(30.788 2100.648)" fill="#f3cb3c"/>
      <path id="Trazado_1220570" data-name="Trazado 1220570" d="M371.113,539.819a11.148,11.148,0,0,0,4.175,1.462,10.509,10.509,0,0,1,2.619.073c2.013,8.3,5.965,16.228,13.5,20.823a17.127,17.127,0,0,0,1.8,1.018l-.018,2.217-.046,8.367a15.405,15.405,0,0,1-.136,4.179c-2.582.984-5.287,1.686-7.921,2.534a21.012,21.012,0,0,1-4.7,1.405c-.09-1.088-1.133-2.64-1.649-3.64l-5.009-9.477-11.073-20.862,5.283-5.253A16.619,16.619,0,0,1,371.113,539.819Z" transform="translate(73.818 2194.894)" fill="#edf3fc"/>
      <path id="Trazado_1220571" data-name="Trazado 1220571" d="M371.829,1206.13a71.164,71.164,0,0,0,8.816,2.074c.934.19,2.545.677,3.431.4l.548.035c1.746,1.279,19.511,2.532,22.724,2.668a14.251,14.251,0,0,0,2.582.121,1.519,1.519,0,0,0,.632-.291,4,4,0,0,0,2.43.259,1.587,1.587,0,0,0,.646-.34,1.8,1.8,0,0,0,.914.107c-.763.573-1.2.426-2.138.426l.116,15.516a1.4,1.4,0,0,1-.618.308,38.012,38.012,0,0,1-5.125.023l-13.017.014-15.165-.012a49.786,49.786,0,0,1-6.224-.026,1.878,1.878,0,0,1-.741-.305,29.1,29.1,0,0,1,.029-4.8l.063-5.865Z" transform="translate(67.5 1720.537)" fill="#203b3a"/>
      <path id="Trazado_1220572" data-name="Trazado 1220572" d="M384.889,1214.71l.548.035a7.7,7.7,0,0,1-2.146,5.9,12.547,12.547,0,0,1-8.521,3.924,10.2,10.2,0,0,1-1.874-.127c-.338-.444-.189-1.046-.169-1.6a1.586,1.586,0,0,0,.476.193,9.537,9.537,0,0,0,4.041-.5,9.293,9.293,0,0,0,6.478-5.6C384.115,1215.929,383.954,1215.364,384.889,1214.71Z" transform="translate(66.686 1714.429)" fill="#050d23"/>
      <path id="Trazado_1220573" data-name="Trazado 1220573" d="M372.311,1206.13a71.166,71.166,0,0,0,8.816,2.074c.934.19,2.545.677,3.431.4-.935.654-.773,1.219-1.166,2.221a9.292,9.292,0,0,1-6.478,5.6,9.533,9.533,0,0,1-4.041.5,1.583,1.583,0,0,1-.476-.193l-.184-.3Z" transform="translate(67.017 1720.537)" fill="#203b3a"/>
      <path id="Trazado_1220574" data-name="Trazado 1220574" d="M533.238,989.913l4.736,3.5-.578,2.2-2.811,15.119-.818,5.321a3.147,3.147,0,0,0-.055,1.682l.024.026-.381.576-.17.017c-2.707.925-5.332,2.181-7.945,3.342l-11.812,5.168a14.861,14.861,0,0,1-2.479,1.1,2.055,2.055,0,0,1-.468-.107,10.743,10.743,0,0,1-1.108-2.3,21.621,21.621,0,0,1-1.546-3.817c-.7-.53-3.005-5.842-3.282-6.983a2.294,2.294,0,0,1-.726-1.6c.464-.037,1.041-.657,1.412-.939,1.08-.833,2.24-1.6,3.248-2.521.71-.648.558-1.417.591-2.3l-.14-.277a6.354,6.354,0,0,0-1.523-1.752l-.185-.565a1.306,1.306,0,0,0,.246-.372c.423-.864-.152-2.146-.457-2.987a56.336,56.336,0,0,1,6.109-2.622l14.182-5.9,3.717-1.533a8.788,8.788,0,0,0,1.72-.794A4.144,4.144,0,0,0,533.238,989.913Z" transform="translate(-26.676 1874.465)" fill="#3d9dc6"/>
      <path id="Trazado_1220575" data-name="Trazado 1220575" d="M509.071,1050.6c.422.792,1.086,1.962.808,2.878-.318,1.054-2.543,2.362-3.392,3.065a8.591,8.591,0,0,1-1.674,1.325.736.736,0,0,1-.267.092,2.294,2.294,0,0,1-.726-1.6c.464-.037,1.041-.657,1.412-.939,1.08-.833,2.24-1.6,3.248-2.521C509.19,1052.248,509.038,1051.479,509.071,1050.6Z" transform="translate(-26.676 1831.261)" fill="#2583af"/>
      <path id="Trazado_1220576" data-name="Trazado 1220576" d="M517.732,1073.188a1.562,1.562,0,0,0,.42.1,5.7,5.7,0,0,0,1.134-.449l3.388-1.449,10.994-4.71c3.577-1.51,7.342-2.8,10.823-4.5l-.818,5.321a3.147,3.147,0,0,0-.055,1.682l.024.026-.381.576-.17.017c-2.707.925-5.333,2.181-7.945,3.342l-11.812,5.168a14.86,14.86,0,0,1-2.479,1.1,2.054,2.054,0,0,1-.468-.107,10.743,10.743,0,0,1-1.108-2.3A21.626,21.626,0,0,1,517.732,1073.188Z" transform="translate(-36.581 1823.017)" fill="#2583af"/>
      <path id="Trazado_1220577" data-name="Trazado 1220577" d="M541.127,989.913l4.736,3.5-.578,2.2-23.032,9.478-3.817,1.544a3.229,3.229,0,0,1-1.617.484,6.355,6.355,0,0,0-1.523-1.752l-.185-.565a1.305,1.305,0,0,0,.246-.372c.424-.864-.152-2.146-.457-2.987a56.336,56.336,0,0,1,6.109-2.622l14.182-5.9,3.717-1.533a8.788,8.788,0,0,0,1.72-.794A4.144,4.144,0,0,0,541.127,989.913Z" transform="translate(-34.565 1874.465)" fill="#2583af"/>
      <path id="Trazado_1220578" data-name="Trazado 1220578" d="M261.646,698.472a37.8,37.8,0,0,0,2.773-5.166,45.258,45.258,0,0,0,1.932-6.634l.287.1a6.476,6.476,0,0,0,3.091.4c1.958-.238,3.428-2.035,4.58-3.45L285.7,709.044a50.315,50.315,0,0,1-10.387,5.934l.581,11.969a40.631,40.631,0,0,0,.186,4.141l-12.194-5.439c-2.335-.221-4.6-1.65-6.845-2.351l-1.169-4.963c-.562-.948-.614-2.659-.815-3.742l-1.565-8.577A23.588,23.588,0,0,0,261.646,698.472Z" transform="translate(151.539 2092.448)" fill="#d55344"/>
      <path id="Trazado_1220579" data-name="Trazado 1220579" d="M261.646,734.923c.779,1.127.749,2.806,1.067,4.119l2.281,9.185c.472,1.878,1.167,3.8,1.533,5.691a61.24,61.24,0,0,1-10.661.869c-.562-.948-.614-2.659-.815-3.742l-1.565-8.577A23.588,23.588,0,0,0,261.646,734.923Z" transform="translate(151.539 2055.996)" fill="#931d24"/>
      <path id="Trazado_1220580" data-name="Trazado 1220580" d="M272.411,794.709a54.694,54.694,0,0,0,8.782-2.489l.581,11.969a40.633,40.633,0,0,0,.186,4.142l-12.194-5.439c-2.335-.221-4.6-1.65-6.845-2.351l-1.169-4.963A61.24,61.24,0,0,0,272.411,794.709Z" transform="translate(145.657 2015.206)" fill="#edf3fc"/>
      <path id="Trazado_1220581" data-name="Trazado 1220581" d="M458.75,844.591l8.626-3.9a41.089,41.089,0,0,1,5.2-2.217,3.35,3.35,0,0,1,2.371,2.3l8.446,20.869,4.349,10.571-.681,1.666c-.391,1.028-2.934,7.071-2.789,7.709l.41.515a4.141,4.141,0,0,1-.5.686,8.792,8.792,0,0,1-1.72.794l-3.717,1.533-14.182,5.9a56.324,56.324,0,0,0-6.109,2.622l-2.069-1.535-.261-.164a3.508,3.508,0,0,1,.1-.5,3.908,3.908,0,0,0-.405-3.094,3.358,3.358,0,0,0-2.312-.951l-.5-1.414a5,5,0,0,0-.562-1.736,3.488,3.488,0,0,0-2.4-1.564l-1.8.852-2.646-6.051L435.608,854.8l20.891-9.222Z" transform="translate(21.885 1982.273)" fill="#3d9dc6"/>
      <path id="Trazado_1220582" data-name="Trazado 1220582" d="M458.535,893.122l.339.044a3.656,3.656,0,0,1,.59.778c.7,1.28,2.143,3.637,1.751,5.03a7.15,7.15,0,0,1-2.9,1.723l-4.05,1.719-.241-.053c-1.3-.372-1.7-2.382-2.252-3.5a3.552,3.552,0,0,1-.447-2.23C452.2,894.972,456.7,893.767,458.535,893.122Z" transform="translate(10.706 1943.372)" fill="#2583af"/>
      <path id="Trazado_1220583" data-name="Trazado 1220583" d="M507.547,856.808l1.034.067c1.25,1.184,2.044,3.835,2.738,5.444a1.35,1.35,0,0,1-.142.54,2.894,2.894,0,0,1-.986.939,27.441,27.441,0,0,1-2.662,1.122l-5.7,2.433c-3.55,1.486-7.135,3.294-10.8,4.453a2.694,2.694,0,0,1-1.355,0c-.845-.339-1.633-3-2.013-3.875a1.85,1.85,0,0,1-.216-1.566,2.417,2.417,0,0,1,.867-1.111,29.788,29.788,0,0,1,4.288-2.033Z" transform="translate(-14.943 1969.224)" fill="#2583af"/>
      <path id="Trazado_1220584" data-name="Trazado 1220584" d="M470.261,934.719l37.8-15.828,4.349,10.571-.681,1.666c-.391,1.028-2.934,7.071-2.789,7.709l.41.515a4.142,4.142,0,0,1-.5.686,8.792,8.792,0,0,1-1.72.794l-3.717,1.533-14.182,5.9a56.334,56.334,0,0,0-6.109,2.622l-2.069-1.535-.261-.164a3.509,3.509,0,0,1,.1-.5,3.908,3.908,0,0,0-.405-3.094,3.358,3.358,0,0,0-2.312-.951l-.5-1.414a5,5,0,0,0-.562-1.736,3.488,3.488,0,0,0-2.4-1.564l-1.8.852Z" transform="translate(-2.785 1925.027)" fill="#3d9dc6"/>
      <path id="Trazado_1220585" data-name="Trazado 1220585" d="M470.261,934.719l37.8-15.828,4.349,10.571-.681,1.666-.2-.2a6.054,6.054,0,0,1-.9-1.927l-1.384-3.382c-2.921.975-5.747,2.289-8.588,3.477l-16.3,6.842-6.462,2.644a19.158,19.158,0,0,0-3.183,1.337l-1.8.852Z" transform="translate(-2.785 1925.027)" fill="#2583af"/>
      <path id="Trazado_1220586" data-name="Trazado 1220586" d="M517.323,1098.144a2.054,2.054,0,0,0,.468.107,14.874,14.874,0,0,0,2.479-1.1l11.812-5.168c2.613-1.161,5.238-2.417,7.945-3.342v.193a14.864,14.864,0,0,1-.539,2.93l-.74,4.258c-.52,2.907-1.313,6.2.973,8.614a4.7,4.7,0,0,0,3.36,1.391c3.121-.037,6.687-2.9,9.187-4.581,1.743-1.175,3.551-2.333,5.2-3.639L557,1121.159a6.491,6.491,0,0,1-2.931.6l-.014,10.916a10.628,10.628,0,0,1,0,1.3l.214,9.475a1.422,1.422,0,0,1-.63.314,37.251,37.251,0,0,1-5.1.023l-13.137.017-14.917-.014a48.839,48.839,0,0,1-6.194-.026,1.8,1.8,0,0,1-.733-.308l-.116-15.516c.938,0,1.376.147,2.138-.426a1.8,1.8,0,0,1-.914-.107c-.5-1.844-.117-4.192-.116-6.1l-.06-12.229c0-.9.127-1.783.12-2.673a19.494,19.494,0,0,1-.088-3.857,14.871,14.871,0,0,0,.01-3.221,5.415,5.415,0,0,0,.869-.614,1.117,1.117,0,0,0,.471.112A1.868,1.868,0,0,0,517.323,1098.144Z" transform="translate(-33.518 1804.18)" fill="#f0ad15"/>
      <path id="Trazado_1220587" data-name="Trazado 1220587" d="M539.656,1206.881l.176.055c1.54.4,12.732-2.5,14.233-3.316l-.014,10.916a10.616,10.616,0,0,1,0,1.3l.214,9.475a1.419,1.419,0,0,1-.63.314,37.192,37.192,0,0,1-5.1.023l-13.137.017-14.917-.014a48.794,48.794,0,0,1-6.194-.026,1.8,1.8,0,0,1-.733-.308l-.116-15.516c.938,0,1.376.147,2.138-.426l.376.167c1.876.507,21.323-1.6,22.667-2.48A1.15,1.15,0,0,0,539.656,1206.881Z" transform="translate(-33.518 1722.324)" fill="#0b203d"/>
      <path id="Trazado_1220588" data-name="Trazado 1220588" d="M600.838,1215.119a1.15,1.15,0,0,0,1.045-.179c.714,2.46,2.421,5.494,4.73,6.756,2.217,1.213,4.494,1.216,6.948,1.2a8.953,8.953,0,0,0,2.393-.15l.324-.147a10.616,10.616,0,0,1,0,1.3c-.761.749-2.662.691-3.748.712-3.3.069-6.576-.683-8.95-3.083A9.122,9.122,0,0,1,600.838,1215.119Z" transform="translate(-95.745 1714.265)" fill="#050d23"/>
      <path id="Trazado_1220589" data-name="Trazado 1220589" d="M604.465,1206.881l.176.055c1.54.4,12.732-2.5,14.233-3.316l-.014,10.916-.324.147a8.948,8.948,0,0,1-2.393.15c-2.454.02-4.731.017-6.948-1.2C606.886,1212.375,605.179,1209.341,604.465,1206.881Z" transform="translate(-98.327 1722.324)" fill="#0b203d"/>
      <path id="Trazado_1220590" data-name="Trazado 1220590" d="M139.736,509.543a21.031,21.031,0,0,1,15.761,5.532,24.113,24.113,0,0,1,8.069,16.7c.238,4.052-.587,9.778-3.072,13.062a5.359,5.359,0,0,1,.609,1.5c1.981.193,3.568.571,4.891,2.182a7.9,7.9,0,0,1,1.429,5.673,12.418,12.418,0,0,1-2.029,5.488c-1.152,1.414-2.623,3.212-4.58,3.45a6.476,6.476,0,0,1-3.091-.4l-.287-.1a45.256,45.256,0,0,1-1.932,6.634,37.8,37.8,0,0,1-2.773,5.166,23.588,23.588,0,0,1-8.159,7.545l-1.031.422a22.9,22.9,0,0,1-13.875,1.207,32.457,32.457,0,0,1-5.465-2.078,23.84,23.84,0,0,1-8.645-7.766,42.014,42.014,0,0,1-4.758-11.043,6.812,6.812,0,0,1-1.806.364,8.953,8.953,0,0,1-3.241-.443,10.468,10.468,0,0,1-4.711-4.992l-.186-.8-.172-.941-.162-.707a7.906,7.906,0,0,1,1.7-4.953,5.816,5.816,0,0,1,4.493-2.042l.173-.267a7.9,7.9,0,0,0-1.117-3.292l-.474-.776-.287-1.9c-1.287-8.106.14-17.528,5.09-24.238,4.042-5.478,10.492-8.913,17.361-7.376a11.729,11.729,0,0,1,2.257.716,11.052,11.052,0,0,0,1.852.922,15.909,15.909,0,0,0,2.8-1.167A22.844,22.844,0,0,1,139.736,509.543Z" transform="translate(260.455 2216.489)" fill="#d55344"/>
      <path id="Trazado_1220591" data-name="Trazado 1220591" d="M124.807,586.795c1.959-.858,4.02-1.44,5.965-2.346a43.434,43.434,0,0,0,18.04-15.558,33.163,33.163,0,0,0,3.592,6.2,25.481,25.481,0,0,0,11.549,8A49.735,49.735,0,0,0,171.8,585.3l3.585.527a5.587,5.587,0,0,1,1.446.235,1.937,1.937,0,0,1,.439.608l.168.416a45.48,45.48,0,0,1-5.7,2.762c-.432-.35-.7-.833-1.1-1.217a8.738,8.738,0,0,0-2.4-1.616,9.99,9.99,0,0,0-7.889-.449l-.179.057a8.5,8.5,0,0,0-3.589,2.381c-.256.287-1.458,2.282-1.476,2.289s-.474-.194-.506-.207a10.631,10.631,0,0,0-2.256-.646l-.232-.046a5.917,5.917,0,0,0-4.618,1.128c-1.509-2.789-3.119-4.527-6.235-5.457a10.224,10.224,0,0,0-7.619.847,11.957,11.957,0,0,0-3.234,2.861Z" transform="translate(243.148 2174.197)" fill="#f1b78b"/>
      <path id="Trazado_1220592" data-name="Trazado 1220592" d="M107.5,628.287l5.591,2.98a11.957,11.957,0,0,1,3.234-2.861,10.223,10.223,0,0,1,7.619-.847c3.116.93,4.726,2.668,6.235,5.457a5.917,5.917,0,0,1,4.618-1.128l.232.046a10.632,10.632,0,0,1,2.256.646c.032.013.5.211.506.207s1.22-2,1.476-2.289a8.5,8.5,0,0,1,3.589-2.381l.179-.057a9.99,9.99,0,0,1,7.889.449,8.737,8.737,0,0,1,2.4,1.616c.4.383.673.867,1.1,1.217a45.48,45.48,0,0,0,5.7-2.762l.364.043a5.36,5.36,0,0,1,.609,1.5c1.981.193,3.568.571,4.891,2.182a7.9,7.9,0,0,1,1.429,5.673,12.417,12.417,0,0,1-2.029,5.488c-1.152,1.414-2.623,3.212-4.58,3.45a6.477,6.477,0,0,1-3.091-.4l-.287-.1a45.256,45.256,0,0,1-1.932,6.634,37.8,37.8,0,0,1-2.773,5.166,23.588,23.588,0,0,1-8.159,7.545l-1.031.422a22.9,22.9,0,0,1-13.875,1.207,32.462,32.462,0,0,1-5.465-2.078,23.84,23.84,0,0,1-8.645-7.766A42.014,42.014,0,0,1,110.8,646.5a6.812,6.812,0,0,1-1.806.364,8.953,8.953,0,0,1-3.241-.443,10.467,10.467,0,0,1-4.711-4.992l-.186-.8-.172-.941-.162-.707a7.906,7.906,0,0,1,1.7-4.952,5.815,5.815,0,0,1,4.493-2.042l.173-.267a7.9,7.9,0,0,0-1.117-3.292A7.216,7.216,0,0,1,107.5,628.287Z" transform="translate(260.455 2132.704)" fill="#f1b78b"/>
      <path id="Trazado_1220593" data-name="Trazado 1220593" d="M112.269,653.678a1.929,1.929,0,0,1,1.278.05l1.119,5.015a17.743,17.743,0,0,1,.693,2.547c-.474-.218-.927.045-1.43.035a4.857,4.857,0,0,0-1.815.28l-.227.076a2.437,2.437,0,0,1-.769.024c-1.116-.213-1.8-1.423-2.306-2.32a7.237,7.237,0,0,1,.322-3.258C109.745,654.712,110.917,654.178,112.269,653.678Z" transform="translate(254.561 2113.896)" fill="#d38758"/>
      <path id="Trazado_1220594" data-name="Trazado 1220594" d="M302.212,650.186a4.355,4.355,0,0,1,.916.04,3.238,3.238,0,0,1,2.217,1.22,5.393,5.393,0,0,1,.795,4.018,4.836,4.836,0,0,1-2.539,3.165,18.3,18.3,0,0,1-3.544.944l.531-8.909C300.964,650.263,301.689,650.263,302.212,650.186Z" transform="translate(118.385 2116.328)" fill="#d38758"/>
      <path id="Trazado_1220595" data-name="Trazado 1220595" d="M190.788,704.293l15.809.022c-.058,3.026-.5,5.088-2.465,7.457a8.059,8.059,0,0,1-3.33,2.021,6.923,6.923,0,0,1-5.74-.608,8.76,8.76,0,0,1-3.9-4.988A13.748,13.748,0,0,1,190.788,704.293Z" transform="translate(196.176 2077.802)" fill="#fefcfb"/>
      <path id="Trazado_1220596" data-name="Trazado 1220596" d="M120.531,628.287l5.591,2.98a11.957,11.957,0,0,1,3.234-2.861,10.223,10.223,0,0,1,7.619-.847c3.116.93,4.726,2.668,6.235,5.457a5.917,5.917,0,0,1,4.618-1.128l.232.046a10.631,10.631,0,0,1,2.256.646c.032.013.5.211.506.207s1.22-2,1.476-2.289a8.5,8.5,0,0,1,3.589-2.381l.179-.057a9.99,9.99,0,0,1,7.889.449,8.737,8.737,0,0,1,2.4,1.616c.4.383.673.867,1.1,1.217a45.483,45.483,0,0,0,5.7-2.762l.364.043a5.36,5.36,0,0,1,.609,1.5,31.293,31.293,0,0,0-5.969,3.821l.066.27a9.955,9.955,0,0,1-1.359,7.275,8.377,8.377,0,0,1-4.764,3.445,8.018,8.018,0,0,1-5.254-.5l-.186-.135a6.284,6.284,0,0,1-2.283-1.494,11.732,11.732,0,0,1-3.765-8.254,8.073,8.073,0,0,0-2.746-.971,5.617,5.617,0,0,0-4.313,1.4l-.113,1.1a12.563,12.563,0,0,1-4.476,7.351,8.866,8.866,0,0,1-6.67,1.854l-1.171-.219a9.125,9.125,0,0,1-5.526-4.476c-1.409-2.547-1.2-4.765-.4-7.454a20.906,20.906,0,0,0-4.884-2.644l-.279.375a1.791,1.791,0,0,1,.072,1.155l-.374-.033.173-.267a7.9,7.9,0,0,0-1.117-3.292A7.216,7.216,0,0,1,120.531,628.287Z" transform="translate(247.425 2132.704)" fill="#2583af"/>
      <path id="Trazado_1220597" data-name="Trazado 1220597" d="M237.342,647.171l-.045-.092c-.565-.583-1.216-1.051-1.748-1.686a10.523,10.523,0,0,1-2.087-5.2,5.54,5.54,0,0,1,1.323-4.03c1.672-2.028,3.771-2.618,6.282-2.879,2.437.315,4.729.809,6.309,2.879a7.8,7.8,0,0,1,1.257,5.538,7.958,7.958,0,0,1-3.292,5.2,7.124,7.124,0,0,1-5.4,1.2A10.847,10.847,0,0,1,237.342,647.171Z" transform="translate(165.811 2128.353)" fill="#f1b78b"/>
      <path id="Trazado_1220598" data-name="Trazado 1220598" d="M248.085,652.252a2.5,2.5,0,0,1,1.544.274,2.981,2.981,0,0,1,1.257,1.552c.036.3-.069.334-.235.564-.129-.344-.024-.2-.323-.433-.395.271-.394.259-.518.72l.262.4a2.928,2.928,0,0,1,.909.206,4.887,4.887,0,0,1-.586,2.49,3.212,3.212,0,0,1-1.905.763,2.088,2.088,0,0,1-1.425-.813,3.972,3.972,0,0,1-.545-2.944A3.383,3.383,0,0,1,248.085,652.252Z" transform="translate(156.54 2114.856)" fill="#0b203d"/>
      <path id="Trazado_1220599" data-name="Trazado 1220599" d="M151.636,632.573a9.136,9.136,0,0,1,4.646.744,8.082,8.082,0,0,1,4.1,4.511,6.914,6.914,0,0,1-.791,5.314,8.651,8.651,0,0,1-5.631,4.56,7.675,7.675,0,0,1-3.277-.024,7.925,7.925,0,0,1-5.092-3.861,6.608,6.608,0,0,1-.713-5.338,7.279,7.279,0,0,1,.988-2.349C147.229,633.994,149.251,633.1,151.636,632.573Z" transform="translate(229.039 2128.876)" fill="#f1b78b"/>
      <path id="Trazado_1220600" data-name="Trazado 1220600" d="M172.378,652.546a7.142,7.142,0,0,1,1.384-.016,1.672,1.672,0,0,1,1.177.7,1.939,1.939,0,0,1,.528,1.436c-.523.241-.569-.21-1.13-.31l-.34.581c.157,1.4.688.788,1.475,1.44a5.511,5.511,0,0,1-.645,2.012,3.1,3.1,0,0,1-1.627.932c-.787.148-1.394-.4-2.021-.8a7.81,7.81,0,0,1-.521-3.223A3.816,3.816,0,0,1,172.378,652.546Z" transform="translate(210.522 2114.674)" fill="#0b203d"/>
      <path id="Trazado_1220601" data-name="Trazado 1220601" d="M29.494,676.663a10.467,10.467,0,0,0,4.711,4.992,8.955,8.955,0,0,0,3.241.443,6.812,6.812,0,0,0,1.806-.364,42.014,42.014,0,0,0,4.758,11.044,23.84,23.84,0,0,0,8.645,7.766,32.463,32.463,0,0,0,5.465,2.078A22.9,22.9,0,0,0,72,701.414l1.031-.422,1.565,8.577c.2,1.083.254,2.794.815,3.742l1.169,4.963c2.244.7,4.51,2.13,6.845,2.351l12.194,5.439,5.952,3.2a20.4,20.4,0,0,1,3.623,2.286,16.82,16.82,0,0,1,4.777,7.676,42.843,42.843,0,0,1,1.273,7.424l1.348,9.117,4.6,33.092c.639,5.284,1.5,10.648,1.612,15.971a16.285,16.285,0,0,1-1.362,7.277,6.055,6.055,0,0,1-3.551,3.342l-.423.121-.236.072c-1.805.5-4.206-.8-5.717-1.7a13.786,13.786,0,0,1-3.226-2.207l-.157,16.859,3.2.6-.1,10.311-.063,5.865a29.1,29.1,0,0,0-.029,4.8,1.644,1.644,0,0,1-1.607.066,1.688,1.688,0,0,1-.624.239,41.2,41.2,0,0,1-4.386.017l-9.828.014-26.615-.023a1.682,1.682,0,0,1-.874-.317,2.335,2.335,0,0,1-.382.239,9.153,9.153,0,0,1-2.639.084l-7.975.017-21.006,0c-3.435-.006-6.978.161-10.4-.029a2.431,2.431,0,0,1-.823-.239,1.833,1.833,0,0,1-.618.239,28.586,28.586,0,0,1-4.1.026l-10.588,0a24.439,24.439,0,0,1-3.954-.029A1.872,1.872,0,0,1,0,850.162V714.143a92.347,92.347,0,0,1,6.892-9.677,108.8,108.8,0,0,1,10.813-10.914,39.791,39.791,0,0,1,4.072-3.675l1.06-.043a15.935,15.935,0,0,1,1.557-3.539L28.5,678.32Z" transform="translate(332 2097.472)" fill="#4f9a63"/>
      <path id="Trazado_1220602" data-name="Trazado 1220602" d="M103.836,1029.93a5.623,5.623,0,0,1,.605,2.339c.338,1.979.5,4.079.977,6.021-.489.23-1.872,1.089-2.288,1l-.083-1.446Z" transform="translate(258.64 1845.976)" fill="#fefcfb"/>
      <path id="Trazado_1220603" data-name="Trazado 1220603" d="M336.3,1037.96c.539,1.654.934,3.362,1.36,5.044.077.305.405,1.25.289,1.5a3.492,3.492,0,0,1-2.208-.438l-.422.473a1.14,1.14,0,0,0-.22-.262,2.136,2.136,0,0,1-.821-.758C335.158,1041.809,335.573,1039.76,336.3,1037.96Z" transform="translate(94.022 1840.26)" fill="#fefcfb"/>
      <path id="Trazado_1220604" data-name="Trazado 1220604" d="M339.361,1059.15a3.492,3.492,0,0,0,2.208.438c.862.763,3.132,1.135,4.279,1.616,3.176,1.331,9.8,5.194,11.683,8.185l-.222.556c-.583.173-1.143-.5-1.618-.87a53.774,53.774,0,0,0-9.958-6.326l-5.263-2.3A1.618,1.618,0,0,1,339.361,1059.15Z" transform="translate(90.404 1825.174)" fill="#203b3a"/>
      <path id="Trazado_1220605" data-name="Trazado 1220605" d="M327.567,1136.123l-.366-.058-.136-12.6c.242.167,2.211,1.386,2.258,1.512.285.778-.234,2.037.114,2.878l.084.147.237,7.364A4.3,4.3,0,0,1,327.567,1136.123Z" transform="translate(99.158 1779.384)" fill="#127451"/>
      <path id="Trazado_1220606" data-name="Trazado 1220606" d="M292.138,1054.093a2.658,2.658,0,0,0,.238-.746,4.524,4.524,0,0,1,1.881.184,7.639,7.639,0,0,1-.585,3.129,23.769,23.769,0,0,1-3.554,7.1,10.359,10.359,0,0,1-2.028,2.267,6.269,6.269,0,0,1-1.574-1.294l-.163-.213a9.2,9.2,0,0,0,1.971-2.264l.232-.078A17.624,17.624,0,0,0,292.138,1054.093Z" transform="translate(128.142 1829.327)" fill="#203b3a"/>
      <path id="Trazado_1220607" data-name="Trazado 1220607" d="M133.491,1063.54a7.815,7.815,0,0,0,1.489,1.622l-2.239,1-.139-.066a10.373,10.373,0,0,1-2.59-2.9,40.664,40.664,0,0,1-5.475-10.535l1.943-.608.544.441a17.68,17.68,0,0,0,2.014,4.676,32.911,32.911,0,0,0,4.177,6.277Z" transform="translate(243.341 1830.222)" fill="#203b3a"/>
      <path id="Trazado_1220608" data-name="Trazado 1220608" d="M64.314,1055.359c.327-.052.513-.153.81.017l.093.513a5.19,5.19,0,0,1-.088,1.763c-.18.409-2.457,1.573-2.988,1.893l-7.224,4.382a29.874,29.874,0,0,1-4.131,2.394c-.4-.308-.605-.349-.7-.859a14.788,14.788,0,0,1,3.079-2.789,80.407,80.407,0,0,1,7.839-5.24c.844-.5,2.636-1.135,3.152-1.844Z" transform="translate(296.343 1827.928)" fill="#203b3a"/>
      <path id="Trazado_1220609" data-name="Trazado 1220609" d="M95.373,986.564l-1.236-16.215a95.245,95.245,0,0,1-.336-11.7c.705,2.985,4.456,18.576,3.511,20.337l-.119.2L96.4,987.1l-.127,0-.093-.513C95.886,986.411,95.7,986.512,95.373,986.564Z" transform="translate(265.283 1896.723)" fill="#127451"/>
      <path id="Trazado_1220610" data-name="Trazado 1220610" d="M324.086,967.91a5.553,5.553,0,0,1-.489.426l-3.636-.821,9.342-35.758a91.8,91.8,0,0,1-.632,19.393,42.257,42.257,0,0,1-2.5,11.059l-.064.144C325.379,964.153,324.964,966.2,324.086,967.91Z" transform="translate(104.215 1915.867)" fill="#127451"/>
      <path id="Trazado_1220611" data-name="Trazado 1220611" d="M200.676,1077.95a3.465,3.465,0,0,0,1.452.749c.495,1.026,1.424,1.818,2.008,2.829a6.35,6.35,0,0,1-.341,2.622,2.824,2.824,0,0,1-1.648,1.415c-1.625.556-3.884.337-5.591.337h-8.681l-8.644.035c-1.548.006-3.158.1-4.7-.026a2.719,2.719,0,0,1-1.016-.291,3.828,3.828,0,0,1-1.818-2.437c-.479-1.789.343-3,1.211-4.46a1.98,1.98,0,0,0,1.11-.585l.57.228a11.678,11.678,0,0,0,2.46.043l6.233-.032c5.445-.026,11.082.285,16.5-.1A1.863,1.863,0,0,0,200.676,1077.95Z" transform="translate(209.864 1811.79)" fill="#b0d0e1"/>
      <path id="Trazado_1220612" data-name="Trazado 1220612" d="M158.5,759.558a32.458,32.458,0,0,0,5.465,2.078,22.9,22.9,0,0,0,13.875-1.207l1.031-.422,1.565,8.577c.2,1.083.254,2.794.815,3.742l1.169,4.963c2.244.7,4.51,2.13,6.845,2.351a22.929,22.929,0,0,1-2.141,2.585l-1.822,1.8a24.721,24.721,0,0,1-17.775,5.827,26.023,26.023,0,0,1-13.354-4.713,37.538,37.538,0,0,1-5.5-5.393c2.724-.614,5.638-2.277,8.266-3.32l.274-3.764,1-11.2Z" transform="translate(226.151 2038.458)" fill="#f1b78b"/>
      <path id="Trazado_1220613" data-name="Trazado 1220613" d="M182.071,759.558a32.457,32.457,0,0,0,5.465,2.078,22.9,22.9,0,0,0,13.875-1.207l1.031-.422,1.565,8.577c.2,1.083.254,2.794.815,3.742l1.169,4.963c2.244.7,4.51,2.13,6.845,2.351a22.926,22.926,0,0,1-2.141,2.585,15.383,15.383,0,0,0-2.886-1.731l-3.91-2.459-11.392-7.754a67.21,67.21,0,0,1-10.722-8.82Z" transform="translate(202.584 2038.458)" fill="#d38758"/>
      <path id="Trazado_1220614" data-name="Trazado 1220614" d="M171.072,936.365l-.029-17.3c0-2.287-.317-5.083.053-7.3a3.911,3.911,0,0,1,.909-1.627,3.187,3.187,0,0,1,2.351-1.2l15.055-.034,6.6-.054a23.567,23.567,0,0,1,3.69.052,3.572,3.572,0,0,1,1.85.964,4.324,4.324,0,0,1,1.2,2.135,17.282,17.282,0,0,1,.017,2.583l-.034,4.919.014,16.647a19.043,19.043,0,0,0-4.29-2.512,16.434,16.434,0,0,0-7.947-.484c-1.536.25-2.535,1.228-3.7,2.184-.04.032-.069.1-.12.1-.089-.006-.157-.086-.236-.127a13.54,13.54,0,0,0-10.306-1.283A23.056,23.056,0,0,0,171.072,936.365Z" transform="translate(210.322 1932.212)" fill="#b0d0e1"/>
      <path id="Trazado_1220615" data-name="Trazado 1220615" d="M185.645,941.19a4.815,4.815,0,0,1,.975.067,2.024,2.024,0,0,1,1.214.991,2.092,2.092,0,0,1,.338,1.634,2.98,2.98,0,0,1-1.624,1.714l-.738-.034a1.778,1.778,0,0,1-1.294-.8,2.224,2.224,0,0,1-.346-1.884A2.857,2.857,0,0,1,185.645,941.19Z" transform="translate(200.941 1909.152)" fill="#0b203d"/>
      <path id="Trazado_1220616" data-name="Trazado 1220616" d="M185.579,920.513a2.688,2.688,0,0,1,1.925.843,2.2,2.2,0,0,1,.405,1.787c-.2.964-.95,1.416-1.727,1.884a3.612,3.612,0,0,1-.625-.069,2.376,2.376,0,0,1-1.581-1.175,2.272,2.272,0,0,1-.212-1.721A2.8,2.8,0,0,1,185.579,920.513Z" transform="translate(201.237 1923.872)" fill="#0b203d"/>
      <path id="Trazado_1220617" data-name="Trazado 1220617" d="M144.2,995.9a23.056,23.056,0,0,1,5.082-2.343,13.54,13.54,0,0,1,10.306,1.283c.079.04.147.121.236.127.052.006.08-.066.12-.1,1.163-.956,2.162-1.934,3.7-2.184a16.433,16.433,0,0,1,7.947.484,19.043,19.043,0,0,1,4.29,2.512,7.851,7.851,0,0,1,1.673,1.91,12.37,12.37,0,0,1,1.061,4.422l.621,5.186a8.914,8.914,0,0,0,.193,1.87s.322.115.345.124c.867.305,2.793.542,3.346,1.17l-.031.38a17.624,17.624,0,0,1-3.583,8.081l-.232.078-.186.061c-1.187.291-3.262-.527-4.288-1.15a3.465,3.465,0,0,1-1.452-.749,1.861,1.861,0,0,1-.888.323c-5.421.389-11.058.078-16.5.1l-6.233.032a11.682,11.682,0,0,1-2.46-.043l-.57-.228a1.98,1.98,0,0,1-1.11.585,32.705,32.705,0,0,1-3.946,2.374,4.183,4.183,0,0,1-2,.876l-.276-.086a32.908,32.908,0,0,1-4.177-6.277,17.679,17.679,0,0,1-2.014-4.676l.122.017a19.485,19.485,0,0,0,4.156-1.538,10.494,10.494,0,0,0,.793-1.9l2.052-4.69a20.158,20.158,0,0,1,1.886-3.9A16.417,16.417,0,0,1,144.2,995.9Z" transform="translate(237.195 1872.682)" fill="#f1b78b"/>
      <path id="Trazado_1220618" data-name="Trazado 1220618" d="M236.412,1038.88c.9.4,2.714.951,3.367,1.674l-.163.3-.568.274a12.781,12.781,0,0,1-2.733-1.475Z" transform="translate(163.765 1839.605)" fill="#d55344"/>
      <path id="Trazado_1220619" data-name="Trazado 1220619" d="M239.313,997.409c2.148,1.334,5.625,3.172,7.066,5.246l-.326.694-5.2-3.742a9.487,9.487,0,0,1-2.039-1.363Z" transform="translate(161.984 1869.129)" fill="#d55344"/>
      <path id="Trazado_1220620" data-name="Trazado 1220620" d="M199.434,1022.572l.807-.052.239.265-.042.36c-1.552.53-3.192.87-4.77,1.34-1.023.3-2.747,1.152-3.755.919a2.609,2.609,0,0,1-.856.51l-.35-.248.131-.308C192.318,1024.056,197.392,1022.912,199.434,1022.572Z" transform="translate(196.234 1851.252)" fill="#d55344"/>
      <path id="Trazado_1220621" data-name="Trazado 1220621" d="M190.968,1008.8l.886-.052.4.539a1.05,1.05,0,0,1-.209.271,10.778,10.778,0,0,1-2.292.519l-6.411,1.737a2.764,2.764,0,0,1-.941.153l-.312-.426.123-.36A47.394,47.394,0,0,1,190.968,1008.8Z" transform="translate(202.37 1861.055)" fill="#d55344"/>
      <path id="Trazado_1220622" data-name="Trazado 1220622" d="M197.233,1034.49a5.166,5.166,0,0,0,.911.193l.1.314c-.789.853-2.128,1.135-3.157,1.619l-3.628,1.849c-.839.438-2,1.363-2.912,1.455l-.484.475-.315-.153-.11-.475a7.551,7.551,0,0,1,2.22-1.622,37.708,37.708,0,0,1,4.415-2.328A10.2,10.2,0,0,0,197.233,1034.49Z" transform="translate(198.42 1842.73)" fill="#d55344"/>
      <path id="Trazado_1220623" data-name="Trazado 1220623" d="M180.1,1058.51a5.8,5.8,0,0,0,2.277-1.239c2.281-1.648,4.292-3.607,6.616-5.209a4.186,4.186,0,0,1,2.326-1.126,2.551,2.551,0,0,0,1.459-.444l.182-.112c1.7.931,3.348,1.965,5.108,2.786,1.035.484,2.237.706,3.22,1.279,1.9,1.106,3.277,2.953,5.355,3.834l.112.043a1.863,1.863,0,0,1-.888.323c-5.421.389-11.058.078-16.5.1l-6.233.032a11.678,11.678,0,0,1-2.46-.043Z" transform="translate(203.781 1831.418)" fill="#2583af"/>
      <path id="Trazado_1220624" data-name="Trazado 1220624" d="M252.457,1131.809v-3l5.382,3.6a7.872,7.872,0,0,0,2.223,1.216l-.157,16.859,3.2.6-.1,10.311-.062,5.865a29.1,29.1,0,0,0-.029,4.8,1.644,1.644,0,0,1-1.607.066,1.687,1.687,0,0,1-.624.239,41.243,41.243,0,0,1-4.386.017l-9.828.014-26.615-.023a1.68,1.68,0,0,1-.874-.317c-.133-1.714-.016-3.515-.015-5.243l0-9.994a21.722,21.722,0,0,0-.152-5.007l.183-.066a19.64,19.64,0,0,1-.113-3.316,12.024,12.024,0,0,1,.085-3.27c1.193.475,3.482.138,4.8.055a107.679,107.679,0,0,0,18.45-2.6l4.557-1.19a14.672,14.672,0,0,1,2.558-.91,1.608,1.608,0,0,1,.415.158,5.883,5.883,0,0,1,.749-.749,4.3,4.3,0,0,0,2.191-.752Z" transform="translate(176.222 1775.582)" fill="#0b203d"/>
      <path id="Trazado_1220625" data-name="Trazado 1220625" d="M218.972,1174.084c1.193.475,3.482.138,4.8.055a107.667,107.667,0,0,0,18.45-2.6l4.557-1.19a14.672,14.672,0,0,1,2.558-.91,1.607,1.607,0,0,1,.415.158l.24,4.462-.062,1.031a30.19,30.19,0,0,1-5.6,2.1,83.792,83.792,0,0,1-21.283,3.48,18.66,18.66,0,0,1-4.05,0,19.637,19.637,0,0,1-.113-3.316A12.025,12.025,0,0,1,218.972,1174.084Z" transform="translate(176.222 1746.66)" fill="#050d23"/>
      <path id="Trazado_1220626" data-name="Trazado 1220626" d="M328.91,1131.809v-3l5.382,3.6a7.872,7.872,0,0,0,2.223,1.216l-.157,16.859,3.2.6-.1,10.311-.063,5.865a29.1,29.1,0,0,0-.029,4.8,1.644,1.644,0,0,1-1.607.066,10.178,10.178,0,0,1-.846-2.106l-1.852-4.638-6.038-14.182c-.78-1.8-2.329-4.16-2.58-6.064l-.24-4.462a5.876,5.876,0,0,1,.749-.749,4.3,4.3,0,0,0,2.191-.752Z" transform="translate(99.77 1775.582)" fill="#edf3fc"/>
      <path id="Trazado_1220627" data-name="Trazado 1220627" d="M29.493,676.663a10.467,10.467,0,0,0,4.711,4.992,8.955,8.955,0,0,0,3.241.443,6.812,6.812,0,0,0,1.806-.364,42.014,42.014,0,0,0,4.758,11.044,23.84,23.84,0,0,0,8.645,7.766l-.285,1.9-1,11.2-.274,3.764c-2.628,1.043-5.542,2.706-8.266,3.32a44.418,44.418,0,0,0-5.617,2.313l-8.8,3.855a34.654,34.654,0,0,0-6.283,3.232A15.281,15.281,0,0,0,18,734.8a27.646,27.646,0,0,0-3.284,9.548c-.61,3.771-.7,7.719-1.008,11.53L12,778.737l-1.43,19.722L9.937,806.9a9.747,9.747,0,0,0,.351,2.792,7.647,7.647,0,0,0,3.5,4.477,8.3,8.3,0,0,0,6.445.372A16.136,16.136,0,0,0,23.46,812.7l5.494-3.5c.432,2.818.58,7.629,3.094,9.487a2.908,2.908,0,0,0,.752.418,106.212,106.212,0,0,0,25.783,4.31c1.243.049,3.49.377,4.611-.135a12.025,12.025,0,0,0-.085,3.27,19.639,19.639,0,0,0,.113,3.316l-.183.066a21.722,21.722,0,0,1,.152,5.007l0,9.994c0,1.729-.118,3.529.015,5.243a2.331,2.331,0,0,1-.382.239,9.151,9.151,0,0,1-2.639.083l-7.975.017-21.006,0c-3.435-.006-6.978.161-10.4-.029a2.432,2.432,0,0,1-.823-.239,1.834,1.834,0,0,1-.618.239,28.586,28.586,0,0,1-4.1.026l-10.588,0a24.439,24.439,0,0,1-3.954-.029A1.871,1.871,0,0,1,0,850.162V714.143a92.347,92.347,0,0,1,6.892-9.677A108.8,108.8,0,0,1,17.7,693.552a39.791,39.791,0,0,1,4.072-3.675l1.06-.043a15.936,15.936,0,0,1,1.557-3.539L28.5,678.32Z" transform="translate(332.001 2097.472)" fill="#edf3fc"/>
      <path id="Trazado_1220628" data-name="Trazado 1220628" d="M80.886,676.663a10.467,10.467,0,0,0,4.711,4.992l-2.175,6.516a24.9,24.9,0,0,1-1.446,3.727,18.065,18.065,0,0,1-9.788,3.026l2.041-5.089a15.934,15.934,0,0,1,1.557-3.539L79.9,678.32Z" transform="translate(280.609 2097.472)" fill="#0b203d"/>
      <path id="Trazado_1220629" data-name="Trazado 1220629" d="M93.414,693.992a8.953,8.953,0,0,0,3.241.443,6.812,6.812,0,0,0,1.806-.364,42.014,42.014,0,0,0,4.758,11.043,23.84,23.84,0,0,0,8.645,7.766l-.285,1.9-1,11.2a69.954,69.954,0,0,1-13.409-1.75c-4.9-1.24-9.712-2.44-14-5.24l5.106-10.854a19.568,19.568,0,0,0,1.5-3.782l.021-.125a24.9,24.9,0,0,0,1.446-3.727Z" transform="translate(272.791 2085.135)" fill="#d55344"/>
      <path id="Trazado_1220630" data-name="Trazado 1220630" d="M137.827,732.6a23.84,23.84,0,0,0,8.645,7.766l-.285,1.9-1,11.2a69.959,69.959,0,0,1-13.409-1.75,99.641,99.641,0,0,0,4.379-12.393l1.172-4.3A20.211,20.211,0,0,1,137.827,732.6Z" transform="translate(238.183 2057.648)" fill="#931d24"/>
      <path id="Trazado_1220631" data-name="Trazado 1220631" d="M82.171,1171.08a106.206,106.206,0,0,0,25.783,4.31c1.243.049,3.49.377,4.611-.135a12.025,12.025,0,0,0-.085,3.27,19.638,19.638,0,0,0,.113,3.316l-.183.066a21.721,21.721,0,0,1,.152,5.007l0,9.994c0,1.729-.118,3.529.015,5.243a2.33,2.33,0,0,1-.382.239,9.151,9.151,0,0,1-2.639.084l-7.975.017-21.006,0c-3.435-.006-6.978.161-10.4-.029a2.429,2.429,0,0,1-.823-.239L81.79,1176.34A32.535,32.535,0,0,0,82.171,1171.08Z" transform="translate(282.63 1745.49)" fill="#18497a"/>
      <path id="Trazado_1220632" data-name="Trazado 1220632" d="M112.915,1171.08a106.206,106.206,0,0,0,25.783,4.31c1.243.049,3.49.377,4.611-.135a12.025,12.025,0,0,0-.085,3.27,19.639,19.639,0,0,0,.113,3.316l-.183.066a80.9,80.9,0,0,1-23.529-2.789c-1.889-.5-3.806-1.057-5.64-1.734a5.14,5.14,0,0,1-1.077-.4,3.547,3.547,0,0,1-.373-.64A32.535,32.535,0,0,0,112.915,1171.08Z" transform="translate(251.885 1745.49)" fill="#0b203d"/>
    </g>
  </g>
</svg>
