<svg id="neurona_4_" data-name="neurona (4)" xmlns="http://www.w3.org/2000/svg" width="67.288" height="67.288" viewBox="0 0 67.288 67.288">
  <path id="Trazado_1220216" data-name="Trazado 1220216" d="M72.816,33.968a16.983,16.983,0,0,1-5.068,2.053,5.169,5.169,0,0,0,5.068.854v4.6a22.3,22.3,0,0,1-5.751-1.293c-.057,1.446,1.239,2.606,2.584,3.137,1.021.4,2.124.577,3.167.908v5.622a3.48,3.48,0,0,1-.874-.171,10.2,10.2,0,0,1-3.776-2.96,17.013,17.013,0,0,0-6.944-4.8c-2.715-.842-5.976-.419-7.921,1.655-2.366,2.522-2.063,6.738-.116,9.594s5.149,4.591,8.358,5.873,6.583,2.238,9.533,4.041a11.781,11.781,0,0,1,1.739,1.3v8.441H56.6a24,24,0,0,1-3.647-5.031c-2.636-4.438-4.292-9.734-7.876-13.45a7.841,7.841,0,0,0-7.484-1.8,15.023,15.023,0,0,0-6.754,4.221c-1.9,1.9-3.516,4.066-5.353,6.028-1.439,1.535-3.015,2.948-4.328,4.592-1.092,1.367-1.061,3.538-1.128,5.437h-4.5c-.3-1.823.113-3.286-.225-5.128-1.818,1.434-3.87,3.04-4.842,5.128H7.5V71.15a5.824,5.824,0,0,1,.426-.925c1.037-1.8,3.063-2.826,4.228-4.545a10.027,10.027,0,0,0-4.654.444V62.356c2.111.258,4.154-1.055,6.07-2.084,4.073-2.188,8.875-3.431,11.882-6.946a10.991,10.991,0,0,0,.538-13.61c-6.269-1.585-13.413.216-17.344,5.349A10.349,10.349,0,0,1,7.5,46.381v-6a29.961,29.961,0,0,1,4.124-3.283,12.438,12.438,0,0,0-4.124.745V33.695a20.012,20.012,0,0,1,3.974-.593L7.5,32.5V27.186a13.191,13.191,0,0,1,9.118,1.724c1.638,1.015,3.05,2.393,4.8,3.2s4.073.862,5.365-.566c1.44-1.593.905-4.123,0-6.072-3.42-7.373-11.212-10.575-19.286-11V10.811c.864-.071,5.393.222,7.589,1.327C13.236,10.7,9.921,8.433,9.308,7.713A1.938,1.938,0,0,1,9.151,7.5h6.993l6.016,3.175A4.968,4.968,0,0,1,20.775,7.5H25.34a54.465,54.465,0,0,0,2.179,8.979c1.091,3.255,2.72,6.659,5.8,8.18,3.767,1.86,8.588.084,11.2-3.2S47.918,13.766,47.9,9.565c0-.685-.022-1.381.021-2.065h3.848a27.017,27.017,0,0,1-.344,5.42A13.626,13.626,0,0,0,55.03,7.5h3.61a74.794,74.794,0,0,1-3.151,6.839c2.72.1,4.594-2.6,5.938-4.965A20.668,20.668,0,0,1,62.609,7.5h3.912c-1.256,3.209-2.774,6.693-5.581,8.7-3.747,2.677-9.585,3.731-10.912,8.139-1.074,3.563,1.216,7.561,4.562,9.188s7.4,1.225,10.822-.222a31.648,31.648,0,0,0,7.4-4.726Z" transform="translate(-6.514 -6.514)" fill="#fa6f5f"/>
  <g id="Grupo_1242441" data-name="Grupo 1242441" transform="translate(0.986 0.986)">
    <path id="Trazado_1220217" data-name="Trazado 1220217" d="M310.844,16.831c-3.747,2.677-10.184,3.1-11.511,7.505-1.074,3.563,1.216,7.561,4.562,9.188a11.7,11.7,0,0,0,6.841.9,10.356,10.356,0,0,1-2.9-.9c-3.346-1.627-5.635-5.625-4.562-9.188,1.327-4.408,7.165-5.462,10.912-8.139,2.807-2,4.325-5.488,5.581-8.7h-3.912c-.023.032-.045.066-.068.1C314.551,10.793,313.623,14.847,310.844,16.831Z" transform="translate(-260.748 -7.5)" fill="#eb5e4e"/>
    <path id="Trazado_1220218" data-name="Trazado 1220218" d="M7.681,232.68c-.06,0-.121,0-.181.005v.117C7.561,232.762,7.621,232.72,7.681,232.68Z" transform="translate(-7.5 -203.087)" fill="#eb5e4e"/>
    <path id="Trazado_1220219" data-name="Trazado 1220219" d="M332.977,280.69c-3.209-1.283-6.411-3.017-8.358-5.873s-2.25-7.072.116-9.594a7.567,7.567,0,0,1,6.935-1.9,8.864,8.864,0,0,0-10.484,2.965,8.439,8.439,0,0,0-.24,8.242c1.494,3.117,4.879,4.876,8.089,6.159s6.583,2.238,9.533,4.041l.018.011a3.644,3.644,0,0,1,1.721,3.113v6.612h3.943v-8.441a11.78,11.78,0,0,0-1.739-1.3C339.56,282.928,336.188,281.973,332.977,280.69Z" transform="translate(-278.933 -229.152)" fill="#eb5e4e"/>
  </g>
  <circle id="Elipse_12819" data-name="Elipse 12819" cx="7.622" cy="7.622" r="7.622" transform="translate(25.057 24.255)" fill="#fedd7a"/>
  <path id="Trazado_1220220" data-name="Trazado 1220220" d="M235.634,184.557a7.63,7.63,0,0,0-1.971.259,7.623,7.623,0,0,1,0,14.727,7.623,7.623,0,1,0,1.971-14.986Z" transform="translate(-202.955 -160.302)" fill="#f5d269"/>
  <g id="Grupo_1242442" data-name="Grupo 1242442" transform="translate(0 0)">
    <path id="Trazado_1220221" data-name="Trazado 1220221" d="M198.016,27.454V22.062a.986.986,0,0,0-1.6-.768,31.048,31.048,0,0,1-7.17,4.586c-3.576,1.509-7.223,1.6-10.008.244-3.109-1.512-4.926-5.108-4.049-8.017.775-2.574,3.48-3.892,6.344-5.287a29.24,29.24,0,0,0,4.2-2.334c3.008-2.147,4.577-5.693,5.927-9.14A.986.986,0,0,0,190.735,0h-3.912a.985.985,0,0,0-.8.41,21.476,21.476,0,0,0-1.24,1.963A11.175,11.175,0,0,1,181.574,6.3c.791-1.626,1.526-3.284,2.195-4.952A.986.986,0,0,0,182.854,0h-3.61a.986.986,0,0,0-.927.65,12.779,12.779,0,0,1-1.364,2.712q.059-1.2.014-2.414A.986.986,0,0,0,175.982,0h-3.848a.986.986,0,0,0-.984.923c-.127,2,.572,8.685-3.183,13.4-2.21,2.777-6.554,4.633-10,2.933-3-1.483-4.517-5.134-5.536-8.327a.986.986,0,0,0-1.878.6c1.206,3.779,2.954,7.724,6.541,9.5a9.117,9.117,0,0,0,6.763.386,11.743,11.743,0,0,0,5.65-3.859c3.129-3.933,3.573-8.65,3.583-13.584h1.923a26.012,26.012,0,0,1-.35,4.273.986.986,0,0,0,1.636.89,14.582,14.582,0,0,0,3.616-5.163h1.463c-.776,1.829-1.632,3.639-2.552,5.4a.986.986,0,0,0,.837,1.442c4.161.15,6.236-4.694,7.673-6.838h1.939c-1.128,2.717-2.491,5.335-4.7,6.91a27.845,27.845,0,0,1-3.914,2.166c-3.119,1.52-6.345,3.091-7.369,6.49a8.074,8.074,0,0,0,.693,6.059,9.838,9.838,0,0,0,4.382,4.3c3.3,1.6,7.538,1.531,11.637-.2a28.792,28.792,0,0,0,6.035-3.613v2.833a18.235,18.235,0,0,1-4.35,1.643.986.986,0,0,0-.37,1.7,6.113,6.113,0,0,0,4.72,1.359v2.235a21.26,21.26,0,0,1-4.423-1.113.986.986,0,0,0-1.327.886c-.05,1.284.759,3.126,3.206,4.092a21.6,21.6,0,0,0,2.544.735v3.6c-2.38-1.135-4.924-5.917-10.316-7.591a8.7,8.7,0,0,0-8.932,1.922c-2.856,3.044-2.24,7.849-.211,10.823,1.092,1.6,3.193,3.99,8.807,6.233,3.246,1.3,6.524,2.219,9.386,3.967a10.757,10.757,0,0,1,1.266.9v7H181.22a24.889,24.889,0,0,1-3.209-4.548c-1.033-1.739-1.945-3.681-2.839-5.507a.986.986,0,0,0-1.771.867c.926,1.892,1.843,3.842,2.915,5.647a24.715,24.715,0,0,0,3.808,5.235.986.986,0,0,0,.686.278h16.22a.986.986,0,0,0,.986-.986V57.861a.985.985,0,0,0-.326-.732,12.727,12.727,0,0,0-1.884-1.4c-3.045-1.861-6.492-2.841-9.682-4.115-5.113-2.044-6.963-4.125-7.91-5.513-1.619-2.374-2.055-6.152.02-8.364,1.772-1.89,4.747-2.058,6.91-1.388,1.325.412,3.444,1.33,6.526,4.54a10.916,10.916,0,0,0,4.173,3.211,4.462,4.462,0,0,0,1.122.22.986.986,0,0,0,1.05-.984V37.709a.985.985,0,0,0-.687-.939c-1.072-.34-2.163-.514-3.1-.885a4.223,4.223,0,0,1-1.036-.591,23.327,23.327,0,0,0,3.754.646.986.986,0,0,0,1.073-.982v-4.6a.986.986,0,0,0-1.335-.922,4.113,4.113,0,0,1-1.916.228,12.554,12.554,0,0,0,2.824-1.4.986.986,0,0,0,.427-.812Z" transform="translate(-130.728 0)"/>
    <path id="Trazado_1220222" data-name="Trazado 1220222" d="M42.458,51.474a22.44,22.44,0,0,0-3.189-4.337,8.837,8.837,0,0,0-8.434-2.07,15.736,15.736,0,0,0-7.211,4.481c-1.945,1.949-3.551,4.1-5.374,6.05-1.427,1.523-3.02,2.95-4.379,4.651-1.106,1.384-1.251,3.3-1.312,5.067H9.895c-.027-.493-.013-.976,0-1.476A12.956,12.956,0,0,0,9.755,61a.986.986,0,0,0-1.58-.6l-.055.043a18.007,18.007,0,0,0-4.776,4.873H1.971v-.5a4.673,4.673,0,0,1,.294-.614c.926-1.608,2.939-2.638,4.19-4.484a.986.986,0,0,0-.677-1.529,11,11,0,0,0-3.807.128V56.843c2.019-.154,3.874-1.317,5.551-2.217,4.042-2.171,8.986-3.458,12.164-7.173a11.977,11.977,0,0,0,.586-14.83.985.985,0,0,0-.556-.376c-6.664-1.685-13.658.3-17.745,4.947v-2.9A29.046,29.046,0,0,1,5.653,31.4a.986.986,0,0,0-.544-1.808H5.1a13.26,13.26,0,0,0-3.131.4V27.95a24.16,24.16,0,0,1,3.066-.38.986.986,0,0,0,.07-1.957l-2.168-.328-.968-.147V21.529a12.192,12.192,0,0,1,7.613,1.7c1.591.986,3.037,2.4,4.909,3.254a7.026,7.026,0,0,0,3.33.641A4.574,4.574,0,0,0,21,25.686c1.461-1.616,1.522-4.221.166-7.147a18.232,18.232,0,0,0-8.334-8.564A28.379,28.379,0,0,0,1.971,7.029V5.289A19.264,19.264,0,0,1,8.132,6.5.986.986,0,0,0,9.18,4.846c-.684-.533-1.567-1.177-2.421-1.8C6.3,2.713,5.784,2.335,5.3,1.971H9.385l5.8,3.061a.986.986,0,0,0,1.161-1.564,3.857,3.857,0,0,1-.9-1.5h2.543c.191,1.125.419,2.251.678,3.358a.986.986,0,1,0,1.919-.45c-.312-1.332-.576-2.693-.785-4.044A.985.985,0,0,0,18.826,0H14.26a.985.985,0,0,0-.984,1.044,6,6,0,0,0,.1.807L10.089.114A.988.988,0,0,0,9.629,0H2.636A.986.986,0,0,0,1.8,1.512a2.953,2.953,0,0,0,.24.326,14.418,14.418,0,0,0,2,1.662A20.641,20.641,0,0,0,.9,3.314.986.986,0,0,0,0,4.3V7.952a.986.986,0,0,0,.934.984,26.893,26.893,0,0,1,10.983,2.785,16.3,16.3,0,0,1,7.461,7.647c1.431,3.088.589,4.523.161,5-.7.772-2.317,1.206-4.223.332-1.625-.745-3.014-2.1-4.693-3.138A14.217,14.217,0,0,0,.817,19.7.986.986,0,0,0,0,20.671v5.315a.983.983,0,0,0,.2.6.984.984,0,0,0-.2.6v4.144a.986.986,0,0,0,1.272.943q-.493.431-.966.881A.986.986,0,0,0,0,33.862v6a.986.986,0,0,0,1.653.726A11.2,11.2,0,0,0,2.914,39.15c3.433-4.484,9.813-6.5,15.967-5.078a10,10,0,0,1-.693,12.1c-2.834,3.312-7.492,4.512-11.6,6.718-1.762.946-3.708,2.19-5.485,1.974a.986.986,0,0,0-1.1.979V59.61a.986.986,0,0,0,1.306.932,9.04,9.04,0,0,1,2.171-.457,13.576,13.576,0,0,0-2.92,3.134A4.2,4.2,0,0,0,0,64.635V66.3a.986.986,0,0,0,.986.986H3.944a.986.986,0,0,0,.894-.57,11.274,11.274,0,0,1,3.1-3.6c0,.22-.009.441-.015.666a13.452,13.452,0,0,0,.112,2.677.986.986,0,0,0,.973.826h4.5a.986.986,0,0,0,.985-.951q.009-.245.016-.5c.05-1.656.1-3.367.9-4.361,1.273-1.594,2.818-2.977,4.277-4.533,1.829-1.953,3.482-4.152,5.331-6.005a13.857,13.857,0,0,1,6.3-3.962,6.845,6.845,0,0,1,6.535,1.526,20.513,20.513,0,0,1,2.905,3.961.986.986,0,0,0,1.7-.993Z" transform="translate(0 0)"/>
    <path id="Trazado_1220223" data-name="Trazado 1220223" d="M187.8,180.344a.986.986,0,1,0-1.181-1.579,8.608,8.608,0,1,0,4.433-1.681.986.986,0,1,0,.162,1.965,6.637,6.637,0,1,1-3.414,1.3Z" transform="translate(-159.092 -153.786)"/>
  </g>
</svg>
