<svg xmlns="http://www.w3.org/2000/svg" xmlns:xlink="http://www.w3.org/1999/xlink" width="108" height="108" viewBox="0 0 108 108">
  <defs>
    <filter id="Trazado_904820" x="0" y="0" width="108" height="108" filterUnits="userSpaceOnUse">
      <feOffset dy="3" input="SourceAlpha"/>
      <feGaussianBlur stdDeviation="3" result="blur"/>
      <feFlood flood-opacity="0.161"/>
      <feComposite operator="in" in2="blur"/>
      <feComposite in="SourceGraphic"/>
    </filter>
  </defs>
  <g id="Grupo_1242560" data-name="Grupo 1242560" transform="translate(-200.058 -4189.276)">
    <g id="Grupo_1242096" data-name="Grupo 1242096" transform="translate(209.059 4195.276)">
      <g id="Grupo_1225969" data-name="Grupo 1225969" transform="translate(0 0)">
        <g id="Grupo_1223550" data-name="Grupo 1223550" transform="translate(0 0)">
          <g id="Grupo_1223164" data-name="Grupo 1223164">
            <g id="Grupo_1203639" data-name="Grupo 1203639">
              <g id="Grupo_1202437" data-name="Grupo 1202437">
                <g id="Grupo_1177315" data-name="Grupo 1177315">
                  <g id="Grupo_1173585" data-name="Grupo 1173585">
                    <g id="Grupo_1173428" data-name="Grupo 1173428">
                      <g id="Grupo_1171958" data-name="Grupo 1171958">
                        <g id="Grupo_1167341" data-name="Grupo 1167341">
                          <g id="Grupo_1166792" data-name="Grupo 1166792">
                            <g transform="matrix(1, 0, 0, 1, -9, -6)" filter="url(#Trazado_904820)">
                              <g id="Trazado_904820-2" data-name="Trazado 904820" transform="translate(9 6)" fill="#effbfe">
                                <path d="M 44.99999618530273 88.49995422363281 C 39.12687301635742 88.49995422363281 33.43022155761719 87.35002899169922 28.06829643249512 85.08213043212891 C 22.88852119445801 82.89126586914062 18.23629570007324 79.75455474853516 14.24084663391113 75.75910186767578 C 10.24540901184082 71.76364898681641 7.108683586120605 67.11144256591797 4.917821407318115 61.93166351318359 C 2.649921178817749 56.56974029541016 1.499996185302734 50.87310028076172 1.499996185302734 44.99997711181641 C 1.499996185302734 39.12685394287109 2.649921178817749 33.43021392822266 4.917821407318115 28.06828880310059 C 7.108683586120605 22.88851547241211 10.24540901184082 18.23630142211914 14.24084663391113 14.24085235595703 C 18.23629570007324 10.24540233612061 22.88852119445801 7.108689785003662 28.06829643249512 4.917827129364014 C 33.43022155761719 2.649927139282227 39.12687301635742 1.500002145767212 44.99999618530273 1.500002145767212 C 50.87311935424805 1.500002145767212 56.56977081298828 2.649927139282227 61.93169784545898 4.917827129364014 C 67.11147308349609 7.108689785003662 71.76369476318359 10.24540233612061 75.75914764404297 14.24085235595703 C 79.75458526611328 18.23630142211914 82.89131164550781 22.88851547241211 85.08216857910156 28.06828880310059 C 87.35007476806641 33.43021392822266 88.5 39.12685394287109 88.5 44.99997711181641 C 88.5 50.87310028076172 87.35007476806641 56.56974029541016 85.08216857910156 61.93166351318359 C 82.89131164550781 67.11144256591797 79.75458526611328 71.76364898681641 75.75914764404297 75.75910186767578 C 71.76369476318359 79.75455474853516 67.11147308349609 82.89126586914062 61.93169784545898 85.08213043212891 C 56.56977081298828 87.35002899169922 50.87311935424805 88.49995422363281 44.99999618530273 88.49995422363281 Z" stroke="none"/>
                                <path d="M 44.99999618530273 2.999992370605469 C 39.32870864868164 2.999992370605469 33.82865142822266 4.11004638671875 28.65262603759766 6.299331665039062 C 23.65165710449219 8.414566040039062 19.15968322753906 11.44333648681641 15.301513671875 15.30150604248047 C 11.44333648681641 19.15967559814453 8.414566040039062 23.65163421630859 6.299339294433594 28.65260696411133 C 4.110054016113281 33.82864761352539 2.999992370605469 39.32868957519531 2.999992370605469 44.99997711181641 C 2.999992370605469 50.6712646484375 4.110054016113281 56.17130661010742 6.299339294433594 61.34733581542969 C 8.414566040039062 66.34830474853516 11.44333648681641 70.84026336669922 15.301513671875 74.69844818115234 C 19.15968322753906 78.55661773681641 23.65165710449219 81.58537292480469 28.65262603759766 83.70062255859375 C 33.82865142822266 85.889892578125 39.32870864868164 86.99994659423828 44.99999618530273 86.99994659423828 C 50.67128372192383 86.99994659423828 56.17134094238281 85.889892578125 61.34736633300781 83.70062255859375 C 66.34834289550781 81.58537292480469 70.84030914306641 78.55661773681641 74.69847869873047 74.69844818115234 C 78.55665588378906 70.84026336669922 81.58542633056641 66.34830474853516 83.70065307617188 61.34733581542969 C 85.88993835449219 56.17130661010742 87 50.6712646484375 87 44.99997711181641 C 87 39.32868957519531 85.88993835449219 33.82864761352539 83.70065307617188 28.65260696411133 C 81.58542633056641 23.65163421630859 78.55665588378906 19.15967559814453 74.69847869873047 15.30150604248047 C 70.84030914306641 11.44333648681641 66.34834289550781 8.414566040039062 61.34736633300781 6.299331665039062 C 56.17134094238281 4.11004638671875 50.67128372192383 2.999992370605469 44.99999618530273 2.999992370605469 M 44.99999618530273 -7.62939453125e-06 C 69.85281372070312 -7.62939453125e-06 90 20.14717864990234 90 44.99997711181641 C 90 69.85277557373047 69.85281372070312 89.99994659423828 44.99999618530273 89.99994659423828 C 20.14717864990234 89.99994659423828 -7.62939453125e-06 69.85277557373047 -7.62939453125e-06 44.99997711181641 C -7.62939453125e-06 20.14717864990234 20.14717864990234 -7.62939453125e-06 44.99999618530273 -7.62939453125e-06 Z" stroke="none" fill="#497f88"/>
                              </g>
                            </g>
                          </g>
                        </g>
                      </g>
                    </g>
                  </g>
                </g>
              </g>
            </g>
          </g>
        </g>
      </g>
    </g>
    <g id="no-racismo_2_" data-name="no-racismo (2)" transform="translate(223.841 4207.172)">
      <g id="Grupo_1242558" data-name="Grupo 1242558" transform="translate(0.887 1.378)">
        <g id="XMLID_561_" transform="translate(38.811 17.029)">
          <g id="Grupo_1242544" data-name="Grupo 1242544">
            <path id="Trazado_1220633" data-name="Trazado 1220633" d="M351.432,158.8a2.2,2.2,0,1,1,4.393,0v21.8a6.814,6.814,0,0,1-2.335,5.134l-.189.164v6.023a1.545,1.545,0,0,1-1.545,1.545H341.684a1.545,1.545,0,0,1-1.545-1.545v-5.765l-1.209-.868a7.1,7.1,0,0,1-2.956-5.766v-9.313a2.245,2.245,0,0,1,2.239-2.245V154.945a2.2,2.2,0,0,1,4.393,0h.04v-.763a2.234,2.234,0,0,1,2.167-2.253,2.195,2.195,0,0,1,2.226,2.2v3.082a2.2,2.2,0,0,1,4.393,0Z" transform="translate(-335.974 -151.928)" fill="#ffdfcf"/>
          </g>
        </g>
        <path id="Trazado_1220634" data-name="Trazado 1220634" d="M354.2,278.734v-6.5a4.608,4.608,0,0,0-5.33-4.551v11.048Z" transform="translate(-308.534 -236.929)" fill="#ffcebf"/>
        <g id="XMLID_559_" transform="translate(0 17.029)">
          <g id="Grupo_1242547" data-name="Grupo 1242547">
            <path id="Trazado_1220635" data-name="Trazado 1220635" d="M340.464,295.341V305.87h-.325v-.05l-1.209-.868a7.1,7.1,0,0,1-2.956-5.766v-9.313a2.245,2.245,0,1,1,4.49,0Z" transform="translate(-297.163 -271.594)" fill="#ffdfcf"/>
            <g id="XMLID_562_" transform="translate(0 0.124)">
              <g id="Grupo_1242545" data-name="Grupo 1242545">
                <path id="Trazado_1220636" data-name="Trazado 1220636" d="M22.965,159.851a2.2,2.2,0,1,1,4.393,0v21.8a6.814,6.814,0,0,1-2.335,5.134l-.189.164v6.023a1.545,1.545,0,0,1-1.545,1.545H13.217a1.545,1.545,0,0,1-1.545-1.545v-5.765l-1.209-.868a7.1,7.1,0,0,1-2.956-5.766V171.26a2.245,2.245,0,0,1,2.239-2.245V156a2.2,2.2,0,0,1,4.393,0h.04v-.763a2.234,2.234,0,0,1,2.167-2.253,2.195,2.195,0,0,1,2.226,2.2v3.082a2.2,2.2,0,0,1,4.393,0Z" transform="translate(-7.507 -152.981)" fill="#ffe5c2"/>
              </g>
            </g>
            <path id="Trazado_1220637" data-name="Trazado 1220637" d="M32.333,280.071v-6.752a4.606,4.606,0,0,0-4.445-4.6v11.356Z" transform="translate(-25.48 -254.916)" fill="#fed2a4"/>
            <path id="Trazado_1220638" data-name="Trazado 1220638" d="M12,296.375V306.9h-.325v-.05l-1.209-.868a7.1,7.1,0,0,1-2.956-5.766v-9.313a2.245,2.245,0,0,1,4.49,0Z" transform="translate(-7.507 -272.506)" fill="#ffe5c2"/>
            <g id="Grupo_1242546" data-name="Grupo 1242546" transform="translate(38.811)">
              <path id="Trazado_1220639" data-name="Trazado 1220639" d="M343.929,198.367a1.545,1.545,0,0,1-1.545-1.545v-5.076a1.344,1.344,0,0,0-.56-1.091l-.649-.466a7.1,7.1,0,0,1-2.956-5.766v-9.313a2.245,2.245,0,0,1,2.239-2.245V159.846a2.2,2.2,0,0,1,.224-.961,2.227,2.227,0,0,0-.272-.017,2.195,2.195,0,0,0-2.2,2.2v13.017a2.245,2.245,0,0,0-2.239,2.245v9.313a7.1,7.1,0,0,0,2.956,5.766l1.209.868v5.765a1.545,1.545,0,0,0,1.545,1.545h10.073a1.545,1.545,0,0,0,1.51-1.218h-9.337Z" transform="translate(-335.974 -158.048)" fill="#ffcebf"/>
              <path id="Trazado_1220640" data-name="Trazado 1220640" d="M394.691,152.8a2.19,2.19,0,0,1,.178-.858,2.194,2.194,0,0,0-2.423,2.236v13.164a2.245,2.245,0,0,0,2.245-2.245Z" transform="translate(-385.773 -151.928)" fill="#ffcebf"/>
            </g>
          </g>
        </g>
        <g id="Grupo_1242549" data-name="Grupo 1242549" transform="translate(17.503 0.025)">
          <g id="XMLID_555_">
            <g id="Grupo_1242548" data-name="Grupo 1242548">
              <path id="Trazado_1220641" data-name="Trazado 1220641" d="M173.975,16.182a2.6,2.6,0,0,1,.764-1.846,2.786,2.786,0,0,1,3.833-.01,1.664,1.664,0,0,1,.624,1.3V42.156a6.738,6.738,0,0,1-3.015,5.616l-.691.457a.536.536,0,0,0-.239.445V65.291a1.269,1.269,0,0,1-1.269,1.269h-12a1.386,1.386,0,0,1-1.386-1.386V48.694l-1.437-1.033a8.437,8.437,0,0,1-3.513-6.852V29.742a2.667,2.667,0,0,1,2.668-2.668V11.605a1.66,1.66,0,0,1,.63-1.308,2.792,2.792,0,0,1,3.827.021,2.6,2.6,0,0,1,.764,1.846v-2.09a1.662,1.662,0,0,1,.623-1.3,2.786,2.786,0,0,1,3.832.01,2.6,2.6,0,0,1,.764,1.846v3.663a2.611,2.611,0,0,1,5.221,0Z" transform="translate(-155.644 -8.019)" fill="#eb9c8d"/>
            </g>
          </g>
        </g>
        <path id="Trazado_1220642" data-name="Trazado 1220642" d="M183.256,162.461v-8.142a5.037,5.037,0,0,0-5.032-5.031v13.173Z" transform="translate(-158.053 -132.571)" fill="#d78878"/>
        <g id="XMLID_558_" transform="translate(15.462 19.08)">
          <g id="Grupo_1242550" data-name="Grupo 1242550">
            <path id="Trazado_1220643" data-name="Trazado 1220643" d="M138.367,203.3a2.245,2.245,0,0,0,2.245-2.245v-7.7a2.183,2.183,0,0,1,.158-.811c-.069-.007-.139-.011-.21-.011a2.195,2.195,0,0,0-2.193,2.125Z" transform="translate(-138.367 -189.786)" fill="#fed2a4"/>
            <path id="Trazado_1220644" data-name="Trazado 1220644" d="M160.981,178.453v12.455h-.388l-1.437-1.033a8.437,8.437,0,0,1-3.513-6.852V171.956a2.669,2.669,0,0,1,5.337,0Z" transform="translate(-153.603 -169.288)" fill="#eb9c8d"/>
          </g>
        </g>
        <path id="Trazado_1220645" data-name="Trazado 1220645" d="M205.3,234.4l-4.1-4.114A3.5,3.5,0,0,1,205.763,225l.812.6a.239.239,0,0,0,.284,0l.812-.6a3.5,3.5,0,0,1,4.561,5.281l-4.1,4.114A2,2,0,0,1,205.3,234.4Z" transform="translate(-177.417 -198.733)" fill="#f07281"/>
        <g id="Grupo_1242551" data-name="Grupo 1242551" transform="translate(17.504 1.561)">
          <path id="Trazado_1220646" data-name="Trazado 1220646" d="M163.262,73.1V61.587a2.35,2.35,0,0,0-.963-1.9l-.474-.347a8.636,8.636,0,0,1-3.513-6.974V41.1a2.735,2.735,0,0,1,.781-1.921,2.64,2.64,0,0,1,1.887-.795V23.213a2.671,2.671,0,0,1,.906-2.011,2.616,2.616,0,0,0-1.118-.179,2.652,2.652,0,0,0-2.456,2.67V38.537a2.667,2.667,0,0,0-2.668,2.668V52.273a8.437,8.437,0,0,0,3.513,6.852l1.437,1.033V76.748a1.275,1.275,0,0,0,1.275,1.275h12.106a1.276,1.276,0,0,0,1.276-1.276V75.691h-9.4a2.593,2.593,0,0,1-2.594-2.593Z" transform="translate(-155.645 -21.018)" fill="#d78878"/>
        </g>
        <g id="Grupo_1242554" data-name="Grupo 1242554" transform="translate(25.394 0)">
          <g id="Grupo_1242552" data-name="Grupo 1242552">
            <path id="Trazado_1220647" data-name="Trazado 1220647" d="M222.421,27.572a2.668,2.668,0,0,0,2.668-2.668V10A2.671,2.671,0,0,1,226,7.991a2.613,2.613,0,0,0-1.079-.181,2.65,2.65,0,0,0-2.495,2.668Z" transform="translate(-222.421 -7.808)" fill="#d78878"/>
          </g>
          <g id="Grupo_1242553" data-name="Grupo 1242553" transform="translate(5.226 3.688)">
            <path id="Trazado_1220648" data-name="Trazado 1220648" d="M266.654,55.094a2.668,2.668,0,0,0,2.668-2.668v-11.6a2.673,2.673,0,0,1,.622-1.719,2.611,2.611,0,0,0-3.29,2.336Z" transform="translate(-266.654 -39.018)" fill="#d78878"/>
            <path id="Trazado_1220649" data-name="Trazado 1220649" d="M310.816,69.23a2.668,2.668,0,0,0,2.668-2.668V56.415a2.675,2.675,0,0,1,.369-1.36,2.549,2.549,0,0,0-.4-.036,2.61,2.61,0,0,0-2.633,2.47Z" transform="translate(-305.598 -53.128)" fill="#d78878"/>
          </g>
        </g>
        <path id="Trazado_1220650" data-name="Trazado 1220650" d="M378.043,342.414l-3.447-3.462a2.944,2.944,0,0,1,3.837-4.444l.684.506a.2.2,0,0,0,.239,0l.684-.506a2.944,2.944,0,0,1,3.837,4.444l-3.447,3.462A1.684,1.684,0,0,1,378.043,342.414Z" transform="translate(-330.465 -295.397)" fill="#f07281"/>
        <g id="Grupo_1242556" data-name="Grupo 1242556" transform="translate(0 17.153)">
          <g id="Grupo_1242555" data-name="Grupo 1242555">
            <path id="Trazado_1220651" data-name="Trazado 1220651" d="M16.355,199.419a2.436,2.436,0,0,1-2.437-2.437V192.8a1.344,1.344,0,0,0-.56-1.091l-.649-.466a7.1,7.1,0,0,1-2.956-5.766v-9.313a2.245,2.245,0,0,1,2.239-2.245V160.9a2.195,2.195,0,0,1,.224-.961,2.225,2.225,0,0,0-.272-.017,2.195,2.195,0,0,0-2.2,2.2v13.017a2.245,2.245,0,0,0-2.239,2.245v9.313a7.1,7.1,0,0,0,2.956,5.766l1.209.868v5.765a1.545,1.545,0,0,0,1.545,1.545H23.291a1.545,1.545,0,0,0,1.51-1.218Z" transform="translate(-7.508 -159.101)" fill="#fed2a4"/>
            <path id="Trazado_1220652" data-name="Trazado 1220652" d="M66.224,153.852a2.19,2.19,0,0,1,.178-.858,2.194,2.194,0,0,0-2.423,2.236v13.164a2.245,2.245,0,0,0,2.245-2.245Z" transform="translate(-57.307 -152.981)" fill="#fed2a4"/>
            <path id="Trazado_1220653" data-name="Trazado 1220653" d="M101.174,191.379a2.245,2.245,0,0,0,2.245-2.245V179.92a2.183,2.183,0,0,1,.174-.848,2.23,2.23,0,0,0-.224-.012,2.2,2.2,0,0,0-2.195,2.159Z" transform="translate(-90.107 -175.979)" fill="#fed2a4"/>
          </g>
          <path id="Trazado_1220654" data-name="Trazado 1220654" d="M49.285,342.415l-3.447-3.462a2.944,2.944,0,0,1,3.837-4.444l.684.506a.2.2,0,0,0,.239,0l.684-.506a2.944,2.944,0,0,1,3.837,4.444l-3.447,3.462a1.684,1.684,0,0,1-2.386,0Z" transform="translate(-40.552 -312.551)" fill="#f07281"/>
        </g>
        <g id="Grupo_1242557" data-name="Grupo 1242557" transform="translate(49.878 20.11)">
          <path id="Trazado_1220655" data-name="Trazado 1220655" d="M429.64,190.327a2.245,2.245,0,0,0,2.245-2.245v-9.213a2.182,2.182,0,0,1,.174-.848,2.227,2.227,0,0,0-.224-.012,2.2,2.2,0,0,0-2.195,2.159Z" transform="translate(-429.64 -178.008)" fill="#ffcebf"/>
          <path id="Trazado_1220656" data-name="Trazado 1220656" d="M466.834,202.249A2.245,2.245,0,0,0,469.079,200v-7.7a2.183,2.183,0,0,1,.158-.811c-.069-.007-.139-.011-.21-.011a2.195,2.195,0,0,0-2.193,2.125Z" transform="translate(-462.439 -189.887)" fill="#ffcebf"/>
        </g>
      </g>
      <g id="Grupo_1242559" data-name="Grupo 1242559" transform="translate(0 0.517)">
        <path id="Trazado_1220657" data-name="Trazado 1220657" d="M171.611,13.88a.886.886,0,0,0,.886-.886V5.55a1.724,1.724,0,1,1,3.449,0V20.922a.886.886,0,1,0,1.772,0V4.014a1.724,1.724,0,0,1,3.449,0V20.922a.886.886,0,0,0,1.772,0V7.676a1.724,1.724,0,1,1,3.449,0V20.922a.886.886,0,0,0,1.772,0V9.568h0a1.724,1.724,0,1,1,3.449,0v2.676a.886.886,0,1,0,1.772,0V9.567A3.494,3.494,0,0,0,188,6.625a3.493,3.493,0,0,0-5.059-1.989V4.014a3.5,3.5,0,0,0-6.727-1.336,3.494,3.494,0,0,0-5.487,2.873v7.444a.886.886,0,0,0,.886.886Z" transform="translate(-150.553 -0.517)"/>
        <path id="Trazado_1220658" data-name="Trazado 1220658" d="M319.8,125.108a.886.886,0,1,0-1.772,0v19.521a5.838,5.838,0,0,1-2.618,4.877l-.691.458a1.417,1.417,0,0,0-.636,1.184v17.884a.886.886,0,1,0,1.772,0V151.337l.534-.354a7.606,7.606,0,0,0,3.411-6.354Z" transform="translate(-276.973 -109.605)"/>
        <path id="Trazado_1220659" data-name="Trazado 1220659" d="M167.186,142.3a4.4,4.4,0,0,0-5.935-.668l-.427.316-.427-.316a4.407,4.407,0,0,0-5.147-.049V137.82a3.561,3.561,0,0,0-2.668-3.443v-2.913a.886.886,0,0,0-1.772,0v2.913a3.561,3.561,0,0,0-2.668,3.443v11.068a9.346,9.346,0,0,0,3.882,7.572l1.068.768v17.41a.886.886,0,1,0,1.772,0V156.773a.886.886,0,0,0-.369-.72l-1.437-1.033a7.57,7.57,0,0,1-3.144-6.132V137.82a1.782,1.782,0,0,1,3.565,0v6.571a4.4,4.4,0,0,0,1.2,3.856l4.1,4.114a2.887,2.887,0,0,0,4.092,0l4.1-4.114A4.406,4.406,0,0,0,167.186,142.3Zm-1.475,4.7-4.1,4.114a1.115,1.115,0,0,1-1.58,0l-4.1-4.114a2.609,2.609,0,0,1,1.856-4.453,2.6,2.6,0,0,1,1.55.509l.813.6a1.119,1.119,0,0,0,1.338,0l.812-.6A2.613,2.613,0,0,1,165.711,147Z" transform="translate(-130.637 -115.21)"/>
        <path id="Trazado_1220660" data-name="Trazado 1220660" d="M347.843,420.071l-1.209-.869a6.231,6.231,0,0,1-1-.9.886.886,0,1,0-1.321,1.182,8.005,8.005,0,0,0,1.289,1.162l.84.6V428.1a.886.886,0,0,0,1.772,0V420.79A.887.887,0,0,0,347.843,420.071Z" transform="translate(-303.429 -368.673)"/>
        <path id="Trazado_1220661" data-name="Trazado 1220661" d="M390.221,149.1a3.063,3.063,0,0,0-1.512.4,3.08,3.08,0,0,0-4.192-1.7v-.293a3.082,3.082,0,0,0-5.876-1.3.886.886,0,0,0-.818,1.548,1.3,1.3,0,0,1,.528,1.048v12.935a.886.886,0,0,0,1.772,0V147.511a1.31,1.31,0,1,1,2.621,0v14.228a.886.886,0,1,0,1.772,0V150.593a1.31,1.31,0,0,1,2.621,0v11.146a.886.886,0,1,0,1.772,0v-9.555a1.31,1.31,0,1,1,2.621,0v21.8a5.924,5.924,0,0,1-2.031,4.466l-.189.165a.886.886,0,0,0-.3.668v7.567a.886.886,0,0,0,1.772,0v-7.166a7.7,7.7,0,0,0,2.524-5.7v-21.8A3.086,3.086,0,0,0,390.221,149.1Z" transform="translate(-332.868 -127.424)"/>
        <path id="Trazado_1220662" data-name="Trazado 1220662" d="M372.948,327.22l-.276.2-.276-.2A3.83,3.83,0,0,0,367.4,333l3.447,3.462a2.57,2.57,0,0,0,3.642,0L377.94,333a3.83,3.83,0,0,0-4.992-5.782Zm3.737,4.531-3.447,3.462a.8.8,0,0,1-1.13,0h0l-3.447-3.462a2.055,2.055,0,0,1,1.462-3.507,2.047,2.047,0,0,1,1.221.4l.684.506a1.082,1.082,0,0,0,1.293,0l.684-.506a2.058,2.058,0,0,1,2.682,3.106Z" transform="translate(-323.014 -287.959)"/>
        <path id="Trazado_1220663" data-name="Trazado 1220663" d="M5.569,372.827l-1.209-.869a6.229,6.229,0,0,1-2.587-5.046v-1.6a.886.886,0,0,0-1.772,0v1.6A8.005,8.005,0,0,0,3.325,373.4l.84.6v6.856a.886.886,0,0,0,1.772,0v-7.31A.886.886,0,0,0,5.569,372.827Z" transform="translate(0 -321.429)"/>
        <path id="Trazado_1220664" data-name="Trazado 1220664" d="M148.865,360.153a.886.886,0,0,0-.886.886v6.332a5.9,5.9,0,0,1-1.122,1.316l-.189.165a.886.886,0,0,0-.3.668v7.567a.886.886,0,1,0,1.772,0V369.92a7.684,7.684,0,0,0,1.5-1.862.885.885,0,0,0,.118-.442v-6.577A.886.886,0,0,0,148.865,360.153Z" transform="translate(-129.069 -317.66)"/>
        <path id="Trazado_1220665" data-name="Trazado 1220665" d="M11.089,166.684l-.276.2-.276-.2a3.848,3.848,0,0,0-4.274-.187v-2.9a3.137,3.137,0,0,0-2.245-3V148.8a1.31,1.31,0,1,1,2.621,0v12.935a.886.886,0,0,0,1.772,0V147.511a1.31,1.31,0,0,1,2.621,0v14.228a.886.886,0,0,0,1.772,0V150.593a1.312,1.312,0,0,1,1.31-1.31,1.3,1.3,0,0,1,.537.117.886.886,0,0,0,.729-1.615,3.072,3.072,0,0,0-2.577.02v-.293a3.083,3.083,0,0,0-5.862-1.333,3.081,3.081,0,0,0-4.7,2.625V160.59a3.137,3.137,0,0,0-2.245,3v3.939a.886.886,0,0,0,1.772,0v-3.939a1.359,1.359,0,1,1,2.718,0v5.519a3.842,3.842,0,0,0,1.054,3.354l3.447,3.462a2.57,2.57,0,0,0,3.642,0l3.447-3.462a3.83,3.83,0,0,0-4.992-5.782Zm3.736,4.531-3.447,3.462a.8.8,0,0,1-1.13,0h0L6.8,171.215a2.055,2.055,0,0,1,1.462-3.507,2.047,2.047,0,0,1,1.221.4l.684.506a1.082,1.082,0,0,0,1.293,0l.684-.506a2.058,2.058,0,0,1,2.682,3.106Z" transform="translate(0 -127.424)"/>
      </g>
    </g>
  </g>
</svg>
