<svg xmlns="http://www.w3.org/2000/svg" xmlns:xlink="http://www.w3.org/1999/xlink" width="113" height="113" viewBox="0 0 113 113">
  <defs>
    <filter id="Trazado_982547" x="0" y="0" width="113" height="113" filterUnits="userSpaceOnUse">
      <feOffset dy="3" input="SourceAlpha"/>
      <feGaussianBlur stdDeviation="3" result="blur"/>
      <feFlood flood-opacity="0.161"/>
      <feComposite operator="in" in2="blur"/>
      <feComposite in="SourceGraphic"/>
    </filter>
  </defs>
  <g id="Grupo_1242606" data-name="Grupo 1242606" transform="translate(-355.344 -5170.168)">
    <g id="Grupo_1242099" data-name="Grupo 1242099" transform="translate(0 -7513)">
      <g id="Grupo_1240425" data-name="Grupo 1240425" transform="translate(364.344 12689.168)">
        <g id="Grupo_1239772" data-name="Grupo 1239772" transform="translate(0 0)">
          <g id="Grupo_1236602" data-name="Grupo 1236602">
            <g id="Grupo_1236144" data-name="Grupo 1236144">
              <g id="Grupo_1235105" data-name="Grupo 1235105">
                <g id="Grupo_1223793" data-name="Grupo 1223793">
                  <g id="Grupo_1208028" data-name="Grupo 1208028">
                    <g id="Grupo_1177675" data-name="Grupo 1177675">
                      <g id="Grupo_1176928" data-name="Grupo 1176928" transform="translate(0)">
                        <g id="Grupo_1172322" data-name="Grupo 1172322">
                          <g id="Grupo_1164700" data-name="Grupo 1164700">
                            <g id="Grupo_1160931" data-name="Grupo 1160931">
                              <g id="Grupo_1160749" data-name="Grupo 1160749">
                                <g id="Grupo_1158891" data-name="Grupo 1158891">
                                  <g id="Grupo_1157406" data-name="Grupo 1157406">
                                    <g id="Grupo_1155793" data-name="Grupo 1155793">
                                      <g id="Grupo_1154704" data-name="Grupo 1154704">
                                        <g id="Grupo_1150790" data-name="Grupo 1150790">
                                          <g id="Grupo_1154214" data-name="Grupo 1154214" transform="translate(0)">
                                            <g id="Grupo_1152583" data-name="Grupo 1152583">
                                              <g id="Grupo_1146973" data-name="Grupo 1146973">
                                                <g id="Grupo_1146954" data-name="Grupo 1146954">
                                                  <g transform="matrix(1, 0, 0, 1, -9, -6)" filter="url(#Trazado_982547)">
                                                    <g id="Trazado_982547-2" data-name="Trazado 982547" transform="translate(9 6)" fill="#d9d5e3">
                                                      <path d="M 47.50000762939453 93.49986267089844 C 41.28937911987305 93.49986267089844 35.26534271240234 92.28383636474609 29.59519386291504 89.88558197021484 C 24.11772727966309 87.56880950927734 19.19814109802246 84.25183868408203 14.97310066223145 80.02679443359375 C 10.74804782867432 75.8017578125 7.431074142456055 70.88218688964844 5.114300727844238 65.40471649169922 C 2.716034412384033 59.73458480834961 1.500007629394531 53.71054458618164 1.500007629394531 47.49993133544922 C 1.500007629394531 41.2893180847168 2.716034412384033 35.26527786254883 5.114300727844238 29.59514427185059 C 7.431074142456055 24.11767768859863 10.74804782867432 19.19810485839844 14.97310066223145 14.97306442260742 C 19.19814109802246 10.74802494049072 24.11772727966309 7.431051254272461 29.59519386291504 5.114277839660645 C 35.26534271240234 2.71602463722229 41.28937911987305 1.499997973442078 47.50000762939453 1.499997973442078 C 53.71063613891602 1.499997973442078 59.73467254638672 2.71602463722229 65.40482330322266 5.114277839660645 C 70.88228607177734 7.431051254272461 75.80187225341797 10.74802494049072 80.02691650390625 14.97306442260742 C 84.25196838378906 19.19810485839844 87.56893920898438 24.11767768859863 89.88571166992188 29.59514427185059 C 92.28398132324219 35.26527786254883 93.50000762939453 41.2893180847168 93.50000762939453 47.49993133544922 C 93.50000762939453 53.71054458618164 92.28398132324219 59.73458480834961 89.88571166992188 65.40471649169922 C 87.56893920898438 70.88218688964844 84.25196838378906 75.8017578125 80.02691650390625 80.02679443359375 C 75.80187225341797 84.25183868408203 70.88228607177734 87.56880950927734 65.40482330322266 89.88558197021484 C 59.73467254638672 92.28383636474609 53.71063613891602 93.49986267089844 47.50000762939453 93.49986267089844 Z" stroke="none"/>
                                                      <path d="M 47.50000762939453 2.999992370605469 C 41.4912223815918 2.999992370605469 35.66377639770508 4.1761474609375 30.17951202392578 6.495796203613281 C 24.88085174560547 8.736930847167969 20.12152862548828 11.94596099853516 16.03376007080078 16.03372955322266 C 11.94597625732422 20.12148284912109 8.736961364746094 24.88080596923828 6.495803833007812 30.17946624755859 C 4.176162719726562 35.66371536254883 3.000007629394531 41.49116134643555 3.000007629394531 47.49993133544922 C 3.000007629394531 53.50870132446289 4.176162719726562 59.33614730834961 6.495803833007812 64.82038879394531 C 8.736961364746094 70.11905670166016 11.94597625732422 74.87836456298828 16.03376007080078 78.96613311767578 C 20.12152862548828 83.05390167236328 24.88085174560547 86.26291656494141 30.17951202392578 88.50406646728516 C 35.66377639770508 90.82369995117188 41.4912223815918 91.99985504150391 47.50000762939453 91.99985504150391 C 53.50879287719727 91.99985504150391 59.33623886108398 90.82369995117188 64.82049560546875 88.50406646728516 C 70.11916351318359 86.26291656494141 74.87848663330078 83.05390167236328 78.96625518798828 78.96613311767578 C 83.05403900146484 74.87836456298828 86.26305389404297 70.11905670166016 88.50421142578125 64.82038879394531 C 90.8238525390625 59.33614730834961 92.00000762939453 53.50870132446289 92.00000762939453 47.49993133544922 C 92.00000762939453 41.49116134643555 90.8238525390625 35.66371536254883 88.50421142578125 30.17946624755859 C 86.26305389404297 24.88080596923828 83.05403900146484 20.12148284912109 78.96625518798828 16.03372955322266 C 74.87848663330078 11.94596099853516 70.11916351318359 8.736930847167969 64.82049560546875 6.495796203613281 C 59.33623886108398 4.1761474609375 53.50879287719727 2.999992370605469 47.50000762939453 2.999992370605469 M 47.50000762939453 -7.62939453125e-06 C 73.73352813720703 -7.62939453125e-06 95.00000762939453 21.26644134521484 95.00000762939453 47.49993133544922 C 95.00000762939453 73.73342132568359 73.73352813720703 94.99985504150391 47.50000762939453 94.99985504150391 C 21.26648712158203 94.99985504150391 7.62939453125e-06 73.73342132568359 7.62939453125e-06 47.49993133544922 C 7.62939453125e-06 21.26644134521484 21.26648712158203 -7.62939453125e-06 47.50000762939453 -7.62939453125e-06 Z" stroke="none" fill="#453179"/>
                                                    </g>
                                                  </g>
                                                </g>
                                              </g>
                                            </g>
                                          </g>
                                        </g>
                                      </g>
                                    </g>
                                  </g>
                                </g>
                              </g>
                            </g>
                          </g>
                        </g>
                      </g>
                    </g>
                  </g>
                </g>
              </g>
            </g>
          </g>
        </g>
      </g>
    </g>
    <g id="educacion_12_" data-name="educacion (12)" transform="translate(330.753 5189.817)">
      <g id="Grupo_1242604" data-name="Grupo 1242604" transform="translate(56.007 0.992)">
        <g id="Grupo_1242595" data-name="Grupo 1242595" transform="translate(1.5 49.845)">
          <path id="Trazado_1220870" data-name="Trazado 1220870" d="M79.186,384.458H77.864a3.965,3.965,0,0,0-4.009,3.967v3.306h1.322a3.306,3.306,0,0,0,3.306-3.306h.759a1.989,1.989,0,0,0,1.983-1.983A2.01,2.01,0,0,0,79.186,384.458Z" transform="translate(-73.855 -384.458)" fill="#ffbf9d"/>
          <path id="Trazado_1220871" data-name="Trazado 1220871" d="M384.441,384.458h1.322a3.965,3.965,0,0,1,4.009,3.967v3.306h-1.322a3.306,3.306,0,0,1-3.306-3.306h-.759a1.989,1.989,0,0,1-1.983-1.983A2.01,2.01,0,0,1,384.441,384.458Z" transform="translate(-341.603 -384.458)" fill="#ffd4bd"/>
        </g>
        <g id="Grupo_1242600" data-name="Grupo 1242600" transform="translate(0)">
          <g id="Grupo_1242596" data-name="Grupo 1242596" transform="translate(14.751 38.691)">
            <path id="Trazado_1220872" data-name="Trazado 1220872" d="M200.959,309.4a10.942,10.942,0,0,0-14.495-8.657l-6.356,5.948,5.51,4.971h13.377A1.984,1.984,0,0,0,200.959,309.4Z" transform="translate(-179.309 -300.107)" fill="#7ce3ff"/>
            <path id="Trazado_1220873" data-name="Trazado 1220873" d="M184.9,300.107a10.939,10.939,0,0,0-10.814,9.284,1.987,1.987,0,0,0,1.963,2.272h4.326v-.614a11.72,11.72,0,0,1,6.915-10.678A10.933,10.933,0,0,0,184.9,300.107Z" transform="translate(-174.066 -300.107)" fill="#2ed0fc"/>
          </g>
          <g id="Grupo_1242597" data-name="Grupo 1242597" transform="translate(0 15.396)">
            <circle id="Elipse_12836" data-name="Elipse 12836" cx="5.094" cy="5.094" r="5.094" fill="#ffbf9d"/>
            <circle id="Elipse_12837" data-name="Elipse 12837" cx="5.094" cy="5.094" r="5.094" transform="translate(40.981)" fill="#ffbf9d"/>
          </g>
          <g id="Grupo_1242598" data-name="Grupo 1242598" transform="translate(5.094)">
            <path id="Trazado_1220874" data-name="Trazado 1220874" d="M121.53,7.5,101.04,27.988l9.183,12.557a18.566,18.566,0,0,0,14.985,7.605,20.471,20.471,0,0,0,16.812-20.16Z" transform="translate(-101.04 -7.5)" fill="#ffd4bd"/>
            <path id="Trazado_1220875" data-name="Trazado 1220875" d="M107.832,145.106l-3.392-2.645-3.4,2.642a20.5,20.5,0,0,0,24.168,20.163A20.693,20.693,0,0,1,107.832,145.106Z" transform="translate(-101.04 -124.615)" fill="#ffbf9d"/>
          </g>
          <g id="Grupo_1242599" data-name="Grupo 1242599" transform="translate(5.094 0)">
            <path id="Trazado_1220876" data-name="Trazado 1220876" d="M340.57,77.428l-5.239,2.647-1.618,4.71a15.588,15.588,0,0,0,10.214,3.885A20.393,20.393,0,0,0,340.57,77.428Z" transform="translate(-302.947 -68.181)" fill="#ff6f4d"/>
            <path id="Trazado_1220877" data-name="Trazado 1220877" d="M192.517,20.286a27.134,27.134,0,0,1-4.179,2.237,20.514,20.514,0,0,0-2.8-1.8H172.441a8.735,8.735,0,0,0-8.732,8.732V36.6l2.9,2.216h7.408a22.646,22.646,0,0,0,21.271-16.494,1.832,1.832,0,0,0-2.771-2.035Z" transform="translate(-155.422 -18.328)" fill="#ff8f71"/>
            <path id="Trazado_1220878" data-name="Trazado 1220878" d="M124.927,7.78a20.527,20.527,0,0,0-18.244,6.09,20.415,20.415,0,0,0-5.642,14.118h11.186a5.59,5.59,0,0,1-.68-4.559A17.293,17.293,0,0,1,125.44,10.851l5.713-.956a20.335,20.335,0,0,0-6.225-2.114Z" transform="translate(-101.041 -7.5)" fill="#ff6f4d"/>
          </g>
        </g>
        <g id="Grupo_1242601" data-name="Grupo 1242601" transform="translate(10.957 26.078)">
          <ellipse id="Elipse_12838" data-name="Elipse 12838" cx="3.943" cy="3.14" rx="3.943" ry="3.14" fill="#ff8e9e"/>
          <ellipse id="Elipse_12839" data-name="Elipse 12839" cx="3.943" cy="3.14" rx="3.943" ry="3.14" transform="translate(21.37)" fill="#ff8e9e"/>
        </g>
        <g id="Grupo_1242602" data-name="Grupo 1242602" transform="translate(8.593 42.695)">
          <path id="Trazado_1220879" data-name="Trazado 1220879" d="M260.347,330.386h-1.041c-3.886,0-7.637,1.97-10.542,4.552l-1.441,1.281L246,338.463l1.322,3.046,16.992-5.833v-1.322A3.967,3.967,0,0,0,260.347,330.386Z" transform="translate(-230.331 -330.386)" fill="#efedff"/>
          <path id="Trazado_1220880" data-name="Trazado 1220880" d="M143.051,338.508a15.867,15.867,0,0,0-10.542-4.008h-.669a4.064,4.064,0,0,0-4.339,3.967v1.322l16.992,5.289v-5.289Z" transform="translate(-127.5 -333.956)" fill="#d4d4ff"/>
        </g>
        <g id="Grupo_1242603" data-name="Grupo 1242603" transform="translate(5.552 47.984)">
          <path id="Trazado_1220881" data-name="Trazado 1220881" d="M246.241,370.386h-5.074c-3.886,0-7.637,1.97-10.542,4.552l-1.441,1.281c-.4.8-3.675,9.994-4.086,10.817h8.173a15.868,15.868,0,0,1,7.9-2.1h5.074a2.975,2.975,0,0,0,2.975-2.975v-8.595A2.975,2.975,0,0,0,246.241,370.386Z" transform="translate(-209.15 -370.386)" fill="#c9aaf2"/>
          <path id="Trazado_1220882" data-name="Trazado 1220882" d="M124.533,386.442v-6.653l-1.441-1.281A15.867,15.867,0,0,0,112.55,374.5h-5.075a2.975,2.975,0,0,0-2.975,2.975v8.051a2.975,2.975,0,0,0,2.975,2.975h5.074a15.867,15.867,0,0,1,7.9,2.1,8.244,8.244,0,0,0,8.173,0A4.1,4.1,0,0,1,124.533,386.442Z" transform="translate(-104.5 -373.956)" fill="#b28ae4"/>
        </g>
        <path id="Trazado_1220883" data-name="Trazado 1220883" d="M73.855,404.747a2.645,2.645,0,0,0,2.645,2.645h2.216a2.979,2.979,0,0,0,2.826-2.037l.659-1.976a2.978,2.978,0,0,0-2.826-3.921H77.259Z" transform="translate(-72.355 -347.629)" fill="#ffbf9d"/>
        <path id="Trazado_1220884" data-name="Trazado 1220884" d="M382.355,404.747a2.645,2.645,0,0,1-2.645,2.645h-2.216a2.979,2.979,0,0,1-2.826-2.037l-.659-1.976a2.978,2.978,0,0,1,2.826-3.921h2.116Z" transform="translate(-332.686 -347.629)" fill="#ffd4bd"/>
      </g>
      <g id="Grupo_1242605" data-name="Grupo 1242605" transform="translate(55.015 0)">
        <path id="Trazado_1220885" data-name="Trazado 1220885" d="M226.314,208.77a2.907,2.907,0,0,0,2.9-2.9.992.992,0,1,0-1.983,0,.92.92,0,0,1-1.84,0,.992.992,0,1,0-1.983,0,.92.92,0,0,1-1.84,0,.992.992,0,1,0-1.983,0,2.9,2.9,0,0,0,4.815,2.182A2.89,2.89,0,0,0,226.314,208.77Z" transform="translate(-197.827 -177.784)"/>
        <path id="Trazado_1220886" data-name="Trazado 1220886" d="M176.025,179.295a2.815,2.815,0,0,0-2.812,2.812.992.992,0,1,0,1.983,0,.828.828,0,0,1,1.657,0,.992.992,0,1,0,1.983,0A2.815,2.815,0,0,0,176.025,179.295Z" transform="translate(-157.584 -155.587)"/>
        <path id="Trazado_1220887" data-name="Trazado 1220887" d="M297.249,183.1a.992.992,0,0,0,.992-.992.828.828,0,1,1,1.657,0,.992.992,0,0,0,1.983,0,2.812,2.812,0,0,0-5.624,0A.992.992,0,0,0,297.249,183.1Z" transform="translate(-264.358 -155.587)"/>
        <path id="Trazado_1220888" data-name="Trazado 1220888" d="M102.017,49.859a3.979,3.979,0,0,0-2.442-1.764v-.441A4.964,4.964,0,0,0,94.616,42.7,15.479,15.479,0,0,0,90.762,43,11.986,11.986,0,0,0,89.3,41.531,21.581,21.581,0,0,0,102.2,27.564a6.083,6.083,0,0,0,0-12.163,21.365,21.365,0,0,0-2.324-5.2,23.732,23.732,0,0,0,2.042-4.934,2.828,2.828,0,0,0-4.264-3.15,26.108,26.108,0,0,1-3.511,1.928,21.487,21.487,0,0,0-25.36.186.992.992,0,0,0,1.184,1.592,19.511,19.511,0,0,1,21.948-.889,26.083,26.083,0,0,1-8.043,1.43.992.992,0,0,0,.037,1.983A28.048,28.048,0,0,0,98.738,3.78a.844.844,0,0,1,1.271.945A21.527,21.527,0,0,1,79.686,20.488H62.119A19.439,19.439,0,0,1,67.172,8.356.992.992,0,1,0,65.705,7.02a21.426,21.426,0,0,0-4.72,8.381,6.083,6.083,0,0,0,0,12.163A21.583,21.583,0,0,0,73.88,41.532a12.22,12.22,0,0,0-1.787,1.881,20,20,0,0,0-3.154-.173A5.041,5.041,0,0,0,63.608,48.2v.441a3.969,3.969,0,0,0-2.023,1.207h-.07a4.985,4.985,0,0,0-5,4.959v3.306a3.64,3.64,0,0,0,3.636,3.636h.6a3.982,3.982,0,0,0,3.78,2.767h5.074a14.9,14.9,0,0,1,7.4,1.973,9.236,9.236,0,0,0,9.16,0,14.9,14.9,0,0,1,7.4-1.973h.549a.992.992,0,0,0,0-1.983h-.549a16.887,16.887,0,0,0-8.39,2.236,7.252,7.252,0,0,1-7.186,0,16.886,16.886,0,0,0-8.39-2.236H64.534a1.986,1.986,0,0,1-1.607-.825,3.964,3.964,0,0,0,3.208-2.674l.659-1.976a3.967,3.967,0,0,0-3.767-5.226h-.358a1.985,1.985,0,0,1,1.866-1.317h5.075a14.861,14.861,0,0,1,9.883,3.758l1.108.985v7.488a.992.992,0,1,0,1.983,0V55.255l1.108-.985c3.12-2.774,6.63-4.3,9.883-4.3h5.075a1.984,1.984,0,0,1,1.977,1.861h-.47a3.967,3.967,0,0,0-3.767,5.226l.659,1.976a3.964,3.964,0,0,0,3.208,2.674,1.985,1.985,0,0,1-1.607.825H98.09a.992.992,0,0,0,0,1.983h.559a3.982,3.982,0,0,0,3.78-2.767h.6a3.641,3.641,0,0,0,3.636-3.636V54.8a4.982,4.982,0,0,0-4.651-4.945Zm.67-32.436a4.1,4.1,0,0,1,0,8.118,21.515,21.515,0,0,0,0-8.118ZM57,21.482a4.108,4.108,0,0,1,3.5-4.059,21.54,21.54,0,0,0,0,8.119A4.108,4.108,0,0,1,57,21.482Zm6.027,32.33a1.985,1.985,0,0,1,1.885,2.616L64.253,58.4a1.985,1.985,0,0,1-1.885,1.359H60.151A1.655,1.655,0,0,1,58.5,58.109V54.8A2.943,2.943,0,0,1,60.6,51.962a5.5,5.5,0,0,0-.037.859.992.992,0,0,0,.992.992h1.467ZM93.75,17.446A23.9,23.9,0,0,0,98.7,12.121a19.4,19.4,0,0,1,2.363,8.33A14.527,14.527,0,0,1,93.5,17.637C93.585,17.574,93.668,17.511,93.75,17.446ZM62.118,22.472h17.6A23.152,23.152,0,0,0,91.8,18.832a16.53,16.53,0,0,0,9.265,3.608,19.5,19.5,0,0,1-38.948.032ZM88.65,43.623a21.837,21.837,0,0,0-7.058,4.567,18.42,18.42,0,0,0-7.3-4.311,10.151,10.151,0,0,1,1.9-1.6,21.544,21.544,0,0,0,10.8,0,9.957,9.957,0,0,1,1.658,1.347Zm8.942,4.361H93.574c-3.739,0-7.717,1.706-11.2,4.8l-.782.7-.782-.7a16.842,16.842,0,0,0-11.2-4.259H65.591V48.2a3.073,3.073,0,0,1,3.347-2.975c5.116,0,7.815,1.294,11.669,4.749l.324.29a.992.992,0,0,0,1.318,0l.36-.322a19.079,19.079,0,0,1,8.021-4.866,13.052,13.052,0,0,1,3.984-.4,2.979,2.979,0,0,1,2.975,2.975Zm7.094,10.125a1.655,1.655,0,0,1-1.653,1.653h-2.216A1.985,1.985,0,0,1,98.93,58.4l-.659-1.976a1.985,1.985,0,0,1,1.885-2.616h1.467a.992.992,0,0,0,.992-.992v-.846a2.942,2.942,0,0,1,2.069,2.83Z" transform="translate(-55.015 0)"/>
      </g>
    </g>
  </g>
</svg>
