<svg xmlns="http://www.w3.org/2000/svg" xmlns:xlink="http://www.w3.org/1999/xlink" width="97.533" height="97.533" viewBox="0 0 97.533 97.533">
  <defs>
    <filter id="Trazado_982547" x="0" y="0" width="97.533" height="97.533" filterUnits="userSpaceOnUse">
      <feOffset dy="3" input="SourceAlpha"/>
      <feGaussianBlur stdDeviation="3" result="blur"/>
      <feFlood flood-opacity="0.161"/>
      <feComposite operator="in" in2="blur"/>
      <feComposite in="SourceGraphic"/>
    </filter>
  </defs>
  <g id="Grupo_1242444" data-name="Grupo 1242444" transform="translate(-189.967 -8071.315)">
    <g id="Grupo_1241919" data-name="Grupo 1241919" transform="translate(-0.999 3449.592)">
      <g id="Grupo_1224767" data-name="Grupo 1224767" transform="translate(-0.001 3721.724)">
        <g id="Grupo_1203701" data-name="Grupo 1203701" transform="translate(199.967 906)">
          <g id="Grupo_1203355" data-name="Grupo 1203355" transform="translate(0)">
            <g id="Grupo_1202156" data-name="Grupo 1202156">
              <g id="Grupo_1177900" data-name="Grupo 1177900">
                <g id="Grupo_1172010" data-name="Grupo 1172010">
                  <g id="Grupo_1171046" data-name="Grupo 1171046">
                    <g id="Grupo_1148525" data-name="Grupo 1148525">
                      <g transform="matrix(1, 0, 0, 1, -9, -6)" filter="url(#Trazado_982547)">
                        <g id="Trazado_982547-2" data-name="Trazado 982547" transform="translate(9 6)" fill="#fdfbec">
                          <path d="M 39.7666015625 78.033203125 C 34.59997940063477 78.033203125 29.58870124816895 77.02164459228516 24.87196731567383 75.02663421630859 C 20.31538963317871 73.099365234375 16.22284507751465 70.34000396728516 12.70802402496338 66.82518005371094 C 9.193202018737793 63.31035614013672 6.433835029602051 59.21781158447266 4.506568431854248 54.66123580932617 C 2.511557102203369 49.94449996948242 1.500001549720764 44.93322372436523 1.500001549720764 39.7666015625 C 1.500001549720764 34.59997940063477 2.511557102203369 29.58870124816895 4.506568431854248 24.87196731567383 C 6.433835029602051 20.31538963317871 9.193202018737793 16.22284507751465 12.70802402496338 12.70802402496338 C 16.22284507751465 9.193202018737793 20.31538963317871 6.433835029602051 24.87196731567383 4.506568431854248 C 29.58870124816895 2.511557102203369 34.59997940063477 1.500001549720764 39.7666015625 1.500001549720764 C 44.93322372436523 1.500001549720764 49.94449996948242 2.511557102203369 54.66123580932617 4.506568431854248 C 59.21781158447266 6.433835029602051 63.31035614013672 9.193202018737793 66.82518005371094 12.70802402496338 C 70.34000396728516 16.22284507751465 73.099365234375 20.31538963317871 75.02663421630859 24.87196731567383 C 77.02164459228516 29.58870124816895 78.033203125 34.59997940063477 78.033203125 39.7666015625 C 78.033203125 44.93322372436523 77.02164459228516 49.94449996948242 75.02663421630859 54.66123580932617 C 73.099365234375 59.21781158447266 70.34000396728516 63.31035614013672 66.82518005371094 66.82518005371094 C 63.31035614013672 70.34000396728516 59.21781158447266 73.099365234375 54.66123580932617 75.02663421630859 C 49.94449996948242 77.02164459228516 44.93322372436523 78.033203125 39.7666015625 78.033203125 Z" stroke="none"/>
                          <path d="M 39.7666015625 3 C 34.80181503295898 3 29.98714065551758 3.971687316894531 25.45630264282227 5.888076782226562 C 21.07851409912109 7.739715576171875 17.146240234375 10.39113616943359 13.76869201660156 13.76869201660156 C 10.39113616943359 17.146240234375 7.739715576171875 21.07851409912109 5.888076782226562 25.45630264282227 C 3.971687316894531 29.98714065551758 3 34.80181503295898 3 39.7666015625 C 3 44.73138809204102 3.971687316894531 49.54606628417969 5.888076782226562 54.076904296875 C 7.739715576171875 58.45468902587891 10.39113616943359 62.386962890625 13.76869201660156 65.76451110839844 C 17.146240234375 69.14206695556641 21.07851409912109 71.79348754882812 25.45630264282227 73.64512634277344 C 29.98714065551758 75.56151580810547 34.80181503295898 76.533203125 39.7666015625 76.533203125 C 44.73138809204102 76.533203125 49.54606628417969 75.56151580810547 54.076904296875 73.64512634277344 C 58.45468902587891 71.79348754882812 62.386962890625 69.14206695556641 65.76451110839844 65.76451110839844 C 69.14206695556641 62.386962890625 71.79348754882812 58.45468902587891 73.64512634277344 54.076904296875 C 75.56151580810547 49.54606628417969 76.533203125 44.73138809204102 76.533203125 39.7666015625 C 76.533203125 34.80181503295898 75.56151580810547 29.98714065551758 73.64512634277344 25.45630264282227 C 71.79348754882812 21.07851409912109 69.14206695556641 17.146240234375 65.76451110839844 13.76869201660156 C 62.386962890625 10.39113616943359 58.45468902587891 7.739715576171875 54.076904296875 5.888076782226562 C 49.54606628417969 3.971687316894531 44.73138809204102 3 39.7666015625 3 M 39.7666015625 0 C 61.72908782958984 0 79.533203125 17.80411529541016 79.533203125 39.7666015625 C 79.533203125 61.72908782958984 61.72908782958984 79.533203125 39.7666015625 79.533203125 C 17.80411529541016 79.533203125 0 61.72908782958984 0 39.7666015625 C 0 17.80411529541016 17.80411529541016 0 39.7666015625 0 Z" stroke="none" fill="#83793c"/>
                        </g>
                      </g>
                    </g>
                  </g>
                </g>
              </g>
            </g>
          </g>
        </g>
      </g>
    </g>
    <g id="cerebro_7_" data-name="cerebro (7)" transform="translate(211.714 8088.597)">
      <g id="FlatOutline" transform="translate(2.366 1.359)">
        <path id="Trazado_1220224" data-name="Trazado 1220224" d="M16.931,55.242A4.936,4.936,0,0,1,12,50.311V5.935a4.931,4.931,0,0,1,9.834-.529l.055.512.513.037a7.421,7.421,0,0,1,6.856,7.375,6.885,6.885,0,0,1-.219,1.71l-.183.716.738.051a4.942,4.942,0,0,1,4.595,4.919,4.861,4.861,0,0,1-.947,2.894l-.378.518.53.359a7.31,7.31,0,0,1,.789,11.567l-.286.256.106.372a4.651,4.651,0,0,1,.188,1.292,4.922,4.922,0,0,1-4.4,4.9l-.512.055-.037.513A7.425,7.425,0,0,1,22.4,50.29l-.513.037-.055.512A4.922,4.922,0,0,1,16.931,55.242Z" transform="translate(12.653 -0.997)" fill="#edf2ff"/>
        <path id="Trazado_1220225" data-name="Trazado 1220225" d="M15.7,5.359V49.735A5.529,5.529,0,0,1,14.022,53.7,4.88,4.88,0,0,1,12,49.735V5.359A4.88,4.88,0,0,1,14.022,1.39,5.529,5.529,0,0,1,15.7,5.359Z" transform="translate(12.653 -0.421)" fill="#bed2e8"/>
        <g id="Grupo_1242443" data-name="Grupo 1242443" transform="translate(29.584 8.636)">
          <circle id="Elipse_12820" data-name="Elipse 12820" cx="1.233" cy="1.233" r="1.233" transform="translate(2.465 4.931)" fill="#4bfabf"/>
          <circle id="Elipse_12821" data-name="Elipse 12821" cx="1.233" cy="1.233" r="1.233" transform="translate(2.465 19.723)" fill="#4bfabf"/>
          <circle id="Elipse_12822" data-name="Elipse 12822" cx="1.233" cy="1.233" r="1.233" transform="translate(9.861 8.629)" fill="#4bfabf"/>
          <circle id="Elipse_12823" data-name="Elipse 12823" cx="1.233" cy="1.233" r="1.233" transform="translate(9.861 24.653)" fill="#4bfabf"/>
          <circle id="Elipse_12824" data-name="Elipse 12824" cx="1.233" cy="1.233" r="1.233" transform="translate(2.465 34.514)" fill="#4bfabf"/>
          <circle id="Elipse_12825" data-name="Elipse 12825" cx="1.233" cy="1.233" r="1.233" fill="#4bfabf"/>
        </g>
        <path id="Trazado_1220226" data-name="Trazado 1220226" d="M21.722,55.242a4.922,4.922,0,0,1-4.9-4.4l-.055-.512-.513-.037a7.425,7.425,0,0,1-6.835-6.835l-.037-.513-.512-.055a4.922,4.922,0,0,1-4.4-4.9,4.651,4.651,0,0,1,.188-1.293l.106-.372-.286-.256A7.31,7.31,0,0,1,5.261,24.5l.53-.359-.378-.518a4.861,4.861,0,0,1-.948-2.893A4.942,4.942,0,0,1,9.06,15.809l.738-.051-.183-.716a6.885,6.885,0,0,1-.219-1.71,7.421,7.421,0,0,1,6.856-7.375l.513-.037.055-.512a4.931,4.931,0,0,1,9.834.529V50.311a4.936,4.936,0,0,1-4.931,4.931Z" transform="translate(-2 -0.997)" fill="#fa8f82"/>
        <path id="Trazado_1220227" data-name="Trazado 1220227" d="M22.98,50.9a5.51,5.51,0,0,0,1.652,3.377,4.793,4.793,0,0,1-2.909.961,4.939,4.939,0,0,1-4.906-4.413l-.049-.493-.518-.049a7.4,7.4,0,0,1-6.829-6.829l-.049-.518-.493-.049A4.939,4.939,0,0,1,4.465,37.98a3.961,3.961,0,0,1,.2-1.282l.1-.394-.3-.247A7.426,7.426,0,0,1,2,30.584,7.327,7.327,0,0,1,5.253,24.5l.544-.371L5.4,23.607a4.859,4.859,0,0,1-.937-2.884,4.968,4.968,0,0,1,4.585-4.931l.74-.049-.173-.715a6.715,6.715,0,0,1-.222-1.7A7.416,7.416,0,0,1,16.25,5.955l.518-.049.049-.493A4.939,4.939,0,0,1,21.723,1a4.793,4.793,0,0,1,2.909.961A5.51,5.51,0,0,0,22.98,5.339a8.018,8.018,0,0,0-7.421,7.988,7.12,7.12,0,0,0,.247,1.874,5.532,5.532,0,0,0-5.177,5.522,5.466,5.466,0,0,0,1.06,3.254,8,8,0,0,0-3.525,6.607,7.9,7.9,0,0,0,2.687,5.941,4.962,4.962,0,0,0-.222,1.455A5.557,5.557,0,0,0,15.584,43.5a7.994,7.994,0,0,0,7.4,7.4Z" transform="translate(-2 -0.992)" fill="#e68477"/>
      </g>
      <g id="Outline" transform="translate(1.75 0.75)">
        <path id="Trazado_1220228" data-name="Trazado 1220228" d="M5.448,37.954A4.257,4.257,0,0,1,5.719,36.5a.616.616,0,0,0-.193-.687A6.706,6.706,0,0,1,6.51,24.647a.616.616,0,0,0,.147-.967,4.305,4.305,0,0,1,3.106-7.3,1.65,1.65,0,0,1,.219.022l.191.023a.629.629,0,0,0,.544-.237.616.616,0,0,0,.091-.586,6.7,6.7,0,0,1-.43-2.3,6.787,6.787,0,0,1,6.78-6.78.616.616,0,0,0,.616-.616,4.334,4.334,0,0,1,2.157-3.738A.617.617,0,0,0,19.313,1.1a5.572,5.572,0,0,0-2.738,4.208A8.024,8.024,0,0,0,9.146,13.3a7.493,7.493,0,0,0,.238,1.862A5.554,5.554,0,0,0,4.215,20.7a5.5,5.5,0,0,0,1.066,3.259,7.926,7.926,0,0,0-.855,12.536,5.276,5.276,0,0,0-.212,1.463,5.572,5.572,0,0,0,2.771,4.8.617.617,0,0,0,.619-1.067,4.334,4.334,0,0,1-2.157-3.738Z" transform="translate(-1.75 -0.357)" fill="#231f20"/>
        <path id="Trazado_1220229" data-name="Trazado 1220229" d="M47.893,30.95a7.99,7.99,0,0,0-3.532-6.6,5.5,5.5,0,0,0,1.067-3.259.616.616,0,0,0-1.233,0,4.29,4.29,0,0,1-1.21,2.983.616.616,0,0,0,.147.967A6.706,6.706,0,0,1,44.116,36.2a.616.616,0,0,0-.193.687,4.257,4.257,0,0,1,.272,1.457,4.32,4.32,0,0,1-4.314,4.314.616.616,0,0,0-.616.616,6.787,6.787,0,0,1-6.78,6.78.616.616,0,0,0-.616.616,4.314,4.314,0,1,1-8.629,0V6.3a4.314,4.314,0,0,1,8.629,0,.616.616,0,0,0,.616.616,6.787,6.787,0,0,1,6.78,6.78,6.7,6.7,0,0,1-.43,2.3.616.616,0,0,0,.091.586.654.654,0,0,0,.544.237l.191-.023a1.65,1.65,0,0,1,.219-.022,4.334,4.334,0,0,1,3.738,2.157.617.617,0,1,0,1.066-.619,5.572,5.572,0,0,0-4.426-2.758,7.493,7.493,0,0,0,.238-1.862A8.022,8.022,0,0,0,33.07,5.7,5.529,5.529,0,0,0,22.624,3.809,5.533,5.533,0,0,0,17.693.75a.616.616,0,0,0,0,1.233A4.32,4.32,0,0,1,22.007,6.3V50.673a4.314,4.314,0,1,1-8.629,0,.616.616,0,0,0-.616-.616,6.787,6.787,0,0,1-6.78-6.78.616.616,0,0,0-1.233,0,8.022,8.022,0,0,0,7.427,7.991,5.529,5.529,0,0,0,10.446,1.893A5.529,5.529,0,0,0,33.07,51.268a8.021,8.021,0,0,0,7.406-7.406,5.555,5.555,0,0,0,4.952-5.516,5.276,5.276,0,0,0-.212-1.463,7.947,7.947,0,0,0,2.677-5.933Z" transform="translate(2.646 -0.75)" fill="#231f20"/>
        <path id="Trazado_1220230" data-name="Trazado 1220230" d="M12.75,15.917a5.508,5.508,0,0,0,1.625,3.923l3.37,3.37a1.826,1.826,0,0,0,1.784,1.528,1.849,1.849,0,1,0,0-3.7,1.816,1.816,0,0,0-1.452.758l-2.831-2.831a4.286,4.286,0,0,1-1.264-3.052v-.845a4.286,4.286,0,0,1,1.264-3.052L18.077,9.19a1.816,1.816,0,0,0,1.452.758,1.849,1.849,0,1,0,0-3.7,1.826,1.826,0,0,0-1.784,1.528l-3.37,3.37a5.508,5.508,0,0,0-1.625,3.924Zm6.78,6.357a.616.616,0,1,1-.616.616A.616.616,0,0,1,19.53,22.275Zm0-14.792a.616.616,0,1,1-.616.616A.616.616,0,0,1,19.53,7.483Z" transform="translate(14.369 7.31)" fill="#231f20"/>
        <path id="Trazado_1220231" data-name="Trazado 1220231" d="M23.995,7.75A1.851,1.851,0,0,0,22.146,9.6a1.81,1.81,0,0,0,.194.791l-.014.006L18.118,14.6a1.862,1.862,0,0,1-1.307.542H15.366a.616.616,0,0,0,0,1.233h1.444a3.059,3.059,0,0,0,2.179-.9L23.2,11.268l.006-.014a1.81,1.81,0,0,0,.791.194,1.849,1.849,0,0,0,0-3.7Zm0,2.465a.616.616,0,1,1,.616-.616A.616.616,0,0,1,23.995,10.215Z" transform="translate(17.299 9.508)" fill="#231f20"/>
        <path id="Trazado_1220232" data-name="Trazado 1220232" d="M12.905,6.215A4.334,4.334,0,0,1,9.167,4.058.617.617,0,0,0,8.1,4.676a5.572,5.572,0,0,0,4.8,2.771.616.616,0,0,0,0-1.233Z" transform="translate(7.434 3.647)" fill="#231f20"/>
        <path id="Trazado_1220233" data-name="Trazado 1220233" d="M23.995,17.948a1.849,1.849,0,1,0-1.724-2.465h-6.9a.616.616,0,0,0,0,1.233h6.9A1.836,1.836,0,0,0,23.995,17.948Zm0-2.465a.616.616,0,1,1-.616.616A.616.616,0,0,1,23.995,15.483Z" transform="translate(17.299 19.032)" fill="#231f20"/>
        <path id="Trazado_1220234" data-name="Trazado 1220234" d="M12.75,18.254a5.508,5.508,0,0,0,1.625,3.923l3.37,3.37a1.826,1.826,0,0,0,1.784,1.529,1.849,1.849,0,0,0,0-3.7,1.816,1.816,0,0,0-1.452.758l-2.831-2.831a4.286,4.286,0,0,1-1.264-3.052V15.366a.616.616,0,0,0-1.233,0Zm6.78,6.357a.616.616,0,1,1-.616.616A.616.616,0,0,1,19.53,24.611Z" transform="translate(14.369 19.765)" fill="#231f20"/>
        <path id="Trazado_1220235" data-name="Trazado 1220235" d="M15.34,6.715a1.849,1.849,0,1,0,0-1.233H13.366a.616.616,0,1,0,0,1.233Zm1.724-1.233a.616.616,0,1,1-.616.616A.616.616,0,0,1,17.064,5.483Z" transform="translate(14.369 4.379)" fill="#231f20"/>
        <path id="Trazado_1220236" data-name="Trazado 1220236" d="M5.366,22.066a.616.616,0,0,0,0,1.233,5.535,5.535,0,0,0,5.491-4.987,5.535,5.535,0,0,0,4.987-5.49.616.616,0,0,0-1.233,0,4.314,4.314,0,1,1-8.052-2.158.616.616,0,0,0-1.066-.616A5.525,5.525,0,0,0,9.625,18.3a4.306,4.306,0,0,1-4.259,3.766Z" transform="translate(2.646 12.45)" fill="#231f20"/>
        <path id="Trazado_1220237" data-name="Trazado 1220237" d="M14.762,10.681a5.485,5.485,0,0,0-1.876.349,5.54,5.54,0,0,0-5.52-5.28.616.616,0,0,0,0,1.233A4.32,4.32,0,0,1,11.681,11.3a.575.575,0,0,0,.109.264,5.535,5.535,0,0,0-2.575,4.667.616.616,0,1,0,1.233,0,4.32,4.32,0,0,1,4.314-4.314.616.616,0,1,0,0-1.233Z" transform="translate(5.577 6.577)" fill="#231f20"/>
        <path id="Trazado_1220238" data-name="Trazado 1220238" d="M12.458,18.63a5.565,5.565,0,0,0-2.772-4.8.616.616,0,0,0-.616,1.066,4.317,4.317,0,0,1,0,7.474.616.616,0,1,0,.616,1.067,5.563,5.563,0,0,0,2.772-4.8Z" transform="translate(8.498 18.307)" fill="#231f20"/>
        <path id="Trazado_1220239" data-name="Trazado 1220239" d="M7.366,18.983A4.32,4.32,0,0,1,11.681,23.3a.616.616,0,0,0,1.233,0A5.553,5.553,0,0,0,7.366,17.75a.616.616,0,1,0,0,1.233Z" transform="translate(5.577 24.161)" fill="#231f20"/>
      </g>
    </g>
  </g>
</svg>
