<svg xmlns="http://www.w3.org/2000/svg" xmlns:xlink="http://www.w3.org/1999/xlink" width="97.533" height="97.533" viewBox="0 0 97.533 97.533">
  <defs>
    <filter id="Trazado_982547" x="0" y="0" width="97.533" height="97.533" filterUnits="userSpaceOnUse">
      <feOffset dy="3" input="SourceAlpha"/>
      <feGaussianBlur stdDeviation="3" result="blur"/>
      <feFlood flood-opacity="0.161"/>
      <feComposite operator="in" in2="blur"/>
      <feComposite in="SourceGraphic"/>
    </filter>
  </defs>
  <g id="Grupo_1242471" data-name="Grupo 1242471" transform="translate(-819.967 -8079.315)">
    <g id="Grupo_1242452" data-name="Grupo 1242452">
      <g id="Grupo_1241920" data-name="Grupo 1241920" transform="translate(629.001 3457.592)">
        <g id="Grupo_1224767" data-name="Grupo 1224767" transform="translate(-0.001 3721.724)">
          <g id="Grupo_1203701" data-name="Grupo 1203701" transform="translate(199.967 906)">
            <g id="Grupo_1203355" data-name="Grupo 1203355" transform="translate(0)">
              <g id="Grupo_1202156" data-name="Grupo 1202156">
                <g id="Grupo_1177900" data-name="Grupo 1177900">
                  <g id="Grupo_1172010" data-name="Grupo 1172010">
                    <g id="Grupo_1171046" data-name="Grupo 1171046">
                      <g id="Grupo_1148525" data-name="Grupo 1148525">
                        <g transform="matrix(1, 0, 0, 1, -9, -6)" filter="url(#Trazado_982547)">
                          <g id="Trazado_982547-2" data-name="Trazado 982547" transform="translate(9 6)" fill="#fdfbec">
                            <path d="M 39.7666015625 78.033203125 C 34.59997940063477 78.033203125 29.58870124816895 77.02164459228516 24.87196731567383 75.02663421630859 C 20.31538963317871 73.099365234375 16.22284507751465 70.34000396728516 12.70802402496338 66.82518005371094 C 9.193202018737793 63.31035614013672 6.433835029602051 59.21781158447266 4.506568431854248 54.66123580932617 C 2.511557102203369 49.94449996948242 1.500001549720764 44.93322372436523 1.500001549720764 39.7666015625 C 1.500001549720764 34.59997940063477 2.511557102203369 29.58870124816895 4.506568431854248 24.87196731567383 C 6.433835029602051 20.31538963317871 9.193202018737793 16.22284507751465 12.70802402496338 12.70802402496338 C 16.22284507751465 9.193202018737793 20.31538963317871 6.433835029602051 24.87196731567383 4.506568431854248 C 29.58870124816895 2.511557102203369 34.59997940063477 1.500001549720764 39.7666015625 1.500001549720764 C 44.93322372436523 1.500001549720764 49.94449996948242 2.511557102203369 54.66123580932617 4.506568431854248 C 59.21781158447266 6.433835029602051 63.31035614013672 9.193202018737793 66.82518005371094 12.70802402496338 C 70.34000396728516 16.22284507751465 73.099365234375 20.31538963317871 75.02663421630859 24.87196731567383 C 77.02164459228516 29.58870124816895 78.033203125 34.59997940063477 78.033203125 39.7666015625 C 78.033203125 44.93322372436523 77.02164459228516 49.94449996948242 75.02663421630859 54.66123580932617 C 73.099365234375 59.21781158447266 70.34000396728516 63.31035614013672 66.82518005371094 66.82518005371094 C 63.31035614013672 70.34000396728516 59.21781158447266 73.099365234375 54.66123580932617 75.02663421630859 C 49.94449996948242 77.02164459228516 44.93322372436523 78.033203125 39.7666015625 78.033203125 Z" stroke="none"/>
                            <path d="M 39.7666015625 3 C 34.80181503295898 3 29.98714065551758 3.971687316894531 25.45630264282227 5.888076782226562 C 21.07851409912109 7.739715576171875 17.146240234375 10.39113616943359 13.76869201660156 13.76869201660156 C 10.39113616943359 17.146240234375 7.739715576171875 21.07851409912109 5.888076782226562 25.45630264282227 C 3.971687316894531 29.98714065551758 3 34.80181503295898 3 39.7666015625 C 3 44.73138809204102 3.971687316894531 49.54606628417969 5.888076782226562 54.076904296875 C 7.739715576171875 58.45468902587891 10.39113616943359 62.386962890625 13.76869201660156 65.76451110839844 C 17.146240234375 69.14206695556641 21.07851409912109 71.79348754882812 25.45630264282227 73.64512634277344 C 29.98714065551758 75.56151580810547 34.80181503295898 76.533203125 39.7666015625 76.533203125 C 44.73138809204102 76.533203125 49.54606628417969 75.56151580810547 54.076904296875 73.64512634277344 C 58.45468902587891 71.79348754882812 62.386962890625 69.14206695556641 65.76451110839844 65.76451110839844 C 69.14206695556641 62.386962890625 71.79348754882812 58.45468902587891 73.64512634277344 54.076904296875 C 75.56151580810547 49.54606628417969 76.533203125 44.73138809204102 76.533203125 39.7666015625 C 76.533203125 34.80181503295898 75.56151580810547 29.98714065551758 73.64512634277344 25.45630264282227 C 71.79348754882812 21.07851409912109 69.14206695556641 17.146240234375 65.76451110839844 13.76869201660156 C 62.386962890625 10.39113616943359 58.45468902587891 7.739715576171875 54.076904296875 5.888076782226562 C 49.54606628417969 3.971687316894531 44.73138809204102 3 39.7666015625 3 M 39.7666015625 0 C 61.72908782958984 0 79.533203125 17.80411529541016 79.533203125 39.7666015625 C 79.533203125 61.72908782958984 61.72908782958984 79.533203125 39.7666015625 79.533203125 C 17.80411529541016 79.533203125 0 61.72908782958984 0 39.7666015625 C 0 17.80411529541016 17.80411529541016 0 39.7666015625 0 Z" stroke="none" fill="#83793c"/>
                          </g>
                        </g>
                      </g>
                    </g>
                  </g>
                </g>
              </g>
            </g>
          </g>
        </g>
      </g>
    </g>
    <g id="idea_4_" data-name="idea (4)" transform="translate(780.385 8096.949)">
      <g id="Grupo_1242469" data-name="Grupo 1242469" transform="translate(68.475 0.824)">
        <path id="Trazado_1220291" data-name="Trazado 1220291" d="M243.077,50.625V49.432a4.393,4.393,0,0,1,2.655-4.016,19.091,19.091,0,0,0,11.432-17.874,25.3,25.3,0,0,0-3.217-12.561,19.7,19.7,0,0,0-14.157-7.21,1.1,1.1,0,0,0-1.16,1.1v2.46l-2.256,17.921,1.613,20.874Z" transform="translate(-218.657 -7.74)" fill="#fee07d"/>
        <path id="Trazado_1220292" data-name="Trazado 1220292" d="M267.631,85.886A19.729,19.729,0,0,1,257.376,103.2s-1.857.539-2.395.775c-.493.216-.113.514-.487.873a4.353,4.353,0,0,0-1.347,3.144v1.193l-5.933-.642-.475-6.141a21.784,21.784,0,0,0,16.434-29.009A19.657,19.657,0,0,1,267.631,85.886Z" transform="translate(-227.883 -66.15)" fill="#fed062"/>
        <path id="Trazado_1220293" data-name="Trazado 1220293" d="M95.11,43.518V36.773l-.461-.762.461-.886v-3.1l-.626-.817.626-.831V28.2l-.73-.895.73-.755V16.773L94.4,15.9l.709-.779V11.163A3.64,3.64,0,0,0,91.572,7.5,3.6,3.6,0,0,0,88.2,9.709a.325.325,0,0,1-.417.175,4.5,4.5,0,0,0-6.094,3.452,1.878,1.878,0,0,1,.357.717c0,.333-.378.668-.309.98a4.493,4.493,0,0,0-3.59,5.422.327.327,0,0,1-.16.359,3.594,3.594,0,0,0-1.838,3.028c0,.036.5.608.5.608l-.022,1.291a5.39,5.39,0,0,0-.231,7.127c.834-.074,1.438.144,1.3,1.142a4.495,4.495,0,0,0,2.5,6s.023.616.023.964a6.746,6.746,0,0,1-.072.755c.381,2.848,2.988,4.482,5.938,4.482a5.916,5.916,0,0,0,.612-.032,6.527,6.527,0,0,0,4.553,3.226Z" transform="translate(-75.153 -7.5)" fill="#fe7f86"/>
        <path id="Trazado_1220294" data-name="Trazado 1220294" d="M135.491,320.768v7.015l-4.765-1.126a4.5,4.5,0,0,1-3.792-2.564l-1.016-.97-.8.879a5.848,5.848,0,0,1-4.6-5.022,21.852,21.852,0,0,0,14.971,1.788Z" transform="translate(-115.534 -284.75)" fill="#f76d7b"/>
        <path id="Trazado_1220295" data-name="Trazado 1220295" d="M215.795,452.853l-.025,4.154a1.067,1.067,0,0,1-1.067,1.067l-2.04.455h-6.5a1.067,1.067,0,0,1-1.067-1.067v-4.609Z" transform="translate(-190.817 -403.911)" fill="#f2f2f2"/>
        <path id="Trazado_1220296" data-name="Trazado 1220296" d="M277.571,457.187v3.51a1.066,1.066,0,0,1-1.066,1.067H273.95v-4.577l1.811-.7Z" transform="translate(-252.103 -407.147)" fill="#e5e5e5"/>
        <path id="Trazado_1220297" data-name="Trazado 1220297" d="M205.053,425.053l.124,2.71a1.017,1.017,0,0,1-1.017,1.017l-3.852.427h-8.075a1.017,1.017,0,0,1-1.017-1.017v-3.137Z" transform="translate(-178.461 -379.166)" fill="#e5e5e5"/>
        <path id="Trazado_1220298" data-name="Trazado 1220298" d="M193.1,389.448a.988.988,0,0,1,.988.988l.13,2.029a.988.988,0,0,1-.988.988l-5.277.445H178.32a.988.988,0,0,1-.988-.988V389.8a.988.988,0,0,1,.988-.988h9.629Z" transform="translate(-166.103 -346.91)" fill="#f2f2f2"/>
        <path id="Trazado_1220299" data-name="Trazado 1220299" d="M279.1,429v2.034a1.016,1.016,0,0,1-1.017,1.017h-4.13V429l2.759-.751Z" transform="translate(-252.103 -382.014)" fill="#d9d8db"/>
        <path id="Trazado_1220300" data-name="Trazado 1220300" d="M280.623,389.8v3.108a.989.989,0,0,1-.989.989H273.95V388.81h5.684A.989.989,0,0,1,280.623,389.8Z" transform="translate(-252.103 -346.906)" fill="#e5e5e5"/>
      </g>
      <g id="Grupo_1242470" data-name="Grupo 1242470" transform="translate(67.65 0)">
        <path id="Trazado_1220301" data-name="Trazado 1220301" d="M150.8,106.28a2.51,2.51,0,0,1-1.622,2.34.824.824,0,1,0,.578,1.544,4.166,4.166,0,0,0,2.691-3.884.824.824,0,1,0-1.648,0Z" transform="translate(-139.739 -93.867)"/>
        <path id="Trazado_1220302" data-name="Trazado 1220302" d="M96.725,39.4a20.555,20.555,0,0,0,5.556-34.078.824.824,0,1,0-1.107,1.222A18.907,18.907,0,0,1,96.11,37.872H92.04V22.958a7.612,7.612,0,0,0,4.272-6.86,2.347,2.347,0,1,0-4.695,0,2.955,2.955,0,0,1-2.362,2.89V16.856a.824.824,0,1,0-1.648,0v2.1a4.079,4.079,0,0,1-3.279-4.021.824.824,0,0,0-1.648,0,5.753,5.753,0,0,0,4.928,5.691V23.7H81.992a3.555,3.555,0,0,1-3.552-3.551.824.824,0,0,0-1.648,0A5.207,5.207,0,0,0,80.2,25.033a5.187,5.187,0,0,0-1.491,2.346.824.824,0,0,0,.546,1.03.8.8,0,0,0,.242.036.825.825,0,0,0,.788-.582,3.534,3.534,0,0,1,3.4-2.51h3.928v3.156A5.76,5.76,0,0,0,82.679,34.2a.824.824,0,1,0,1.648,0,4.111,4.111,0,0,1,3.279-4.02V41.9H86.6a.824.824,0,1,0,0,1.648h9.4a.165.165,0,0,1,.165.165v3.108a.165.165,0,0,1-.165.165H93.069a.824.824,0,1,0,0,1.648h1.575v1.21a.192.192,0,0,1-.192.192h-12.2a.192.192,0,0,1-.192-.192v-1.21h7.168a.824.824,0,0,0,0-1.648h-8.53a.165.165,0,0,1-.165-.165V43.717a.165.165,0,0,1,.165-.165h2.059a.827.827,0,0,0,.22-1.619,3.905,3.905,0,0,1-2.352-2.118,3.7,3.7,0,0,1-.314-1.547,3.628,3.628,0,0,1,.242-1.309.824.824,0,1,0-1.539-.592,5.282,5.282,0,0,0-.352,1.9,5.747,5.747,0,0,0,.1,1.08,5.058,5.058,0,0,1-4.513-5.015,5.426,5.426,0,0,0,4.095-1.243.824.824,0,1,0-1.086-1.24,3.469,3.469,0,0,1-5.8-2.71,3.473,3.473,0,0,1,1.314-2.714.824.824,0,1,0-1.015-1.3,5.328,5.328,0,0,0-.98.992,4.565,4.565,0,0,1-.235-6.491,4.485,4.485,0,0,1,3.287-1.41.824.824,0,1,0,0-1.648,6.125,6.125,0,0,0-3.512,1.089,2.859,2.859,0,0,1,1.563-2.894.823.823,0,0,0,.441-.973,3.7,3.7,0,0,1-.143-1.014,3.793,3.793,0,0,1,5.7-3.181.824.824,0,1,0,.844-1.415,5.61,5.61,0,0,0-2.947-.756,3.706,3.706,0,0,1,3.669-3.712,3.632,3.632,0,0,1,1.6.368.825.825,0,0,0,1.147-.495,2.772,2.772,0,0,1,5.416.831V8.449H85.412a2.31,2.31,0,0,1-2.218-1.635A.824.824,0,1,0,81.62,7.3a3.951,3.951,0,0,0,3.792,2.8h2.195v2.912a.824.824,0,1,0,1.648,0V1.915a.242.242,0,0,1,.076-.176.231.231,0,0,1,.171-.064,18.729,18.729,0,0,1,7.986,2.256.824.824,0,1,0,.786-1.448A20.345,20.345,0,0,0,89.591.03a1.871,1.871,0,0,0-1.809,1.1,4.418,4.418,0,0,0-6.82,1.159,5.321,5.321,0,0,0-6.827,5.455,5.32,5.32,0,0,0-3.543,5.865,4.465,4.465,0,0,0-1.628,5.33,6.213,6.213,0,0,0,1.058,8.706,5.279,5.279,0,0,0-.214,1.5,5.356,5.356,0,0,0,2.808,4.688c-.014.176-.022.352-.022.525a6.7,6.7,0,0,0,6.8,6.666,5.938,5.938,0,0,0,.724.977,1.815,1.815,0,0,0-1.242,1.719v3.108a1.814,1.814,0,0,0,1.526,1.788v1.235a1.844,1.844,0,0,0,1.525,1.812v2.714a1.893,1.893,0,0,0,1.89,1.891h9.055a1.893,1.893,0,0,0,1.89-1.891V51.66a1.844,1.844,0,0,0,1.525-1.812V48.613a1.814,1.814,0,0,0,1.526-1.788V43.717A1.815,1.815,0,0,0,96.005,41.9H94.647a3.6,3.6,0,0,1,2.078-2.5ZM93.118,54.375a.243.243,0,0,1-.242.243H83.821a.243.243,0,0,1-.242-.243V51.689h9.539ZM89.255,20.657a4.6,4.6,0,0,0,4.01-4.558.7.7,0,1,1,1.4,0,5.976,5.976,0,0,1-3.756,5.562.823.823,0,0,0-.515.764V37.872H89.255ZM92.971,41.9H89.255V39.52h4.729A5.193,5.193,0,0,0,92.971,41.9Z" transform="translate(-67.65 0)"/>
      </g>
    </g>
  </g>
</svg>
