<svg xmlns="http://www.w3.org/2000/svg" xmlns:xlink="http://www.w3.org/1999/xlink" width="113" height="113" viewBox="0 0 113 113">
  <defs>
    <filter id="Trazado_982547" x="0" y="0" width="113" height="113" filterUnits="userSpaceOnUse">
      <feOffset dy="3" input="SourceAlpha"/>
      <feGaussianBlur stdDeviation="3" result="blur"/>
      <feFlood flood-opacity="0.161"/>
      <feComposite operator="in" in2="blur"/>
      <feComposite in="SourceGraphic"/>
    </filter>
  </defs>
  <g id="Grupo_1242628" data-name="Grupo 1242628" transform="translate(-3470.49 -5151.167)">
    <g id="Grupo_1242103" data-name="Grupo 1242103" transform="translate(2800 -7532)">
      <g id="Grupo_1240427" data-name="Grupo 1240427" transform="translate(679.49 12689.167)">
        <g id="Grupo_1239780" data-name="Grupo 1239780" transform="translate(0 0)">
          <g id="Grupo_1236603" data-name="Grupo 1236603">
            <g id="Grupo_1236145" data-name="Grupo 1236145">
              <g id="Grupo_1235107" data-name="Grupo 1235107">
                <g id="Grupo_1223796" data-name="Grupo 1223796">
                  <g id="Grupo_1208038" data-name="Grupo 1208038">
                    <g id="Grupo_1202104" data-name="Grupo 1202104">
                      <g id="Grupo_1201923" data-name="Grupo 1201923">
                        <g id="Grupo_1176928" data-name="Grupo 1176928" transform="translate(0)">
                          <g id="Grupo_1172322" data-name="Grupo 1172322">
                            <g id="Grupo_1164700" data-name="Grupo 1164700">
                              <g id="Grupo_1160931" data-name="Grupo 1160931">
                                <g id="Grupo_1160749" data-name="Grupo 1160749">
                                  <g id="Grupo_1158891" data-name="Grupo 1158891">
                                    <g id="Grupo_1157406" data-name="Grupo 1157406">
                                      <g id="Grupo_1155793" data-name="Grupo 1155793">
                                        <g id="Grupo_1154704" data-name="Grupo 1154704">
                                          <g id="Grupo_1150790" data-name="Grupo 1150790">
                                            <g id="Grupo_1154214" data-name="Grupo 1154214" transform="translate(0)">
                                              <g id="Grupo_1152583" data-name="Grupo 1152583">
                                                <g id="Grupo_1146973" data-name="Grupo 1146973">
                                                  <g id="Grupo_1146954" data-name="Grupo 1146954">
                                                    <g transform="matrix(1, 0, 0, 1, -9, -6)" filter="url(#Trazado_982547)">
                                                      <g id="Trazado_982547-2" data-name="Trazado 982547" transform="translate(9 6)" fill="#d9d5e3">
                                                        <path d="M 47.50000762939453 93.49986267089844 C 41.28937911987305 93.49986267089844 35.26534271240234 92.28383636474609 29.59519386291504 89.88558197021484 C 24.11772727966309 87.56880950927734 19.19814109802246 84.25183868408203 14.97310066223145 80.02679443359375 C 10.74804782867432 75.8017578125 7.431074142456055 70.88218688964844 5.114300727844238 65.40471649169922 C 2.716034412384033 59.73458480834961 1.500007629394531 53.71054458618164 1.500007629394531 47.49993133544922 C 1.500007629394531 41.2893180847168 2.716034412384033 35.26527786254883 5.114300727844238 29.59514427185059 C 7.431074142456055 24.11767768859863 10.74804782867432 19.19810485839844 14.97310066223145 14.97306442260742 C 19.19814109802246 10.74802494049072 24.11772727966309 7.431051254272461 29.59519386291504 5.114277839660645 C 35.26534271240234 2.71602463722229 41.28937911987305 1.499997973442078 47.50000762939453 1.499997973442078 C 53.71063613891602 1.499997973442078 59.73467254638672 2.71602463722229 65.40482330322266 5.114277839660645 C 70.88228607177734 7.431051254272461 75.80187225341797 10.74802494049072 80.02691650390625 14.97306442260742 C 84.25196838378906 19.19810485839844 87.56893920898438 24.11767768859863 89.88571166992188 29.59514427185059 C 92.28398132324219 35.26527786254883 93.50000762939453 41.2893180847168 93.50000762939453 47.49993133544922 C 93.50000762939453 53.71054458618164 92.28398132324219 59.73458480834961 89.88571166992188 65.40471649169922 C 87.56893920898438 70.88218688964844 84.25196838378906 75.8017578125 80.02691650390625 80.02679443359375 C 75.80187225341797 84.25183868408203 70.88228607177734 87.56880950927734 65.40482330322266 89.88558197021484 C 59.73467254638672 92.28383636474609 53.71063613891602 93.49986267089844 47.50000762939453 93.49986267089844 Z" stroke="none"/>
                                                        <path d="M 47.50000762939453 2.999992370605469 C 41.4912223815918 2.999992370605469 35.66377639770508 4.1761474609375 30.17951202392578 6.495796203613281 C 24.88085174560547 8.736930847167969 20.12152862548828 11.94596099853516 16.03376007080078 16.03372955322266 C 11.94597625732422 20.12148284912109 8.736961364746094 24.88080596923828 6.495803833007812 30.17946624755859 C 4.176162719726562 35.66371536254883 3.000007629394531 41.49116134643555 3.000007629394531 47.49993133544922 C 3.000007629394531 53.50870132446289 4.176162719726562 59.33614730834961 6.495803833007812 64.82038879394531 C 8.736961364746094 70.11905670166016 11.94597625732422 74.87836456298828 16.03376007080078 78.96613311767578 C 20.12152862548828 83.05390167236328 24.88085174560547 86.26291656494141 30.17951202392578 88.50406646728516 C 35.66377639770508 90.82369995117188 41.4912223815918 91.99985504150391 47.50000762939453 91.99985504150391 C 53.50879287719727 91.99985504150391 59.33623886108398 90.82369995117188 64.82049560546875 88.50406646728516 C 70.11916351318359 86.26291656494141 74.87848663330078 83.05390167236328 78.96625518798828 78.96613311767578 C 83.05403900146484 74.87836456298828 86.26305389404297 70.11905670166016 88.50421142578125 64.82038879394531 C 90.8238525390625 59.33614730834961 92.00000762939453 53.50870132446289 92.00000762939453 47.49993133544922 C 92.00000762939453 41.49116134643555 90.8238525390625 35.66371536254883 88.50421142578125 30.17946624755859 C 86.26305389404297 24.88080596923828 83.05403900146484 20.12148284912109 78.96625518798828 16.03372955322266 C 74.87848663330078 11.94596099853516 70.11916351318359 8.736930847167969 64.82049560546875 6.495796203613281 C 59.33623886108398 4.1761474609375 53.50879287719727 2.999992370605469 47.50000762939453 2.999992370605469 M 47.50000762939453 -7.62939453125e-06 C 73.73352813720703 -7.62939453125e-06 95.00000762939453 21.26644134521484 95.00000762939453 47.49993133544922 C 95.00000762939453 73.73342132568359 73.73352813720703 94.99985504150391 47.50000762939453 94.99985504150391 C 21.26648712158203 94.99985504150391 7.62939453125e-06 73.73342132568359 7.62939453125e-06 47.49993133544922 C 7.62939453125e-06 21.26644134521484 21.26648712158203 -7.62939453125e-06 47.50000762939453 -7.62939453125e-06 Z" stroke="none" fill="#453179"/>
                                                      </g>
                                                    </g>
                                                  </g>
                                                </g>
                                              </g>
                                            </g>
                                          </g>
                                        </g>
                                      </g>
                                    </g>
                                  </g>
                                </g>
                              </g>
                            </g>
                          </g>
                        </g>
                      </g>
                    </g>
                  </g>
                </g>
              </g>
            </g>
          </g>
        </g>
      </g>
    </g>
    <g id="servicios-sociales" transform="translate(3482.328 5165.947)">
      <g id="Grupo_1242627" data-name="Grupo 1242627" transform="translate(15.772 8.991)">
        <g id="Grupo_1242621" data-name="Grupo 1242621" transform="translate(2.733 0)">
          <path id="Trazado_1220924" data-name="Trazado 1220924" d="M70.48,59.405c-8.949-5.257-25.414-17.323-25.634-29.362C44.6,16.64,59.667,10.561,71,22.085c11.332-11.522,26.4-5.448,26.154,7.955C96.936,42.081,80.47,54.147,71.52,59.405a1,1,0,0,1-1.04,0Z" transform="translate(-44.843 -16.002)" fill="#fe646f" fill-rule="evenodd"/>
          <path id="Trazado_1220925" data-name="Trazado 1220925" d="M154.629,59.416c-.234-.138-.475-.281-.719-.428,9.083-5.463,24.7-17.212,24.915-28.936.145-8.007-5.173-13.4-11.894-13.983,7.841-.672,14.534,5.014,14.372,13.983-.218,12.04-16.684,24.107-25.634,29.364a1,1,0,0,1-1.04,0ZM140.89,16.068c3.876.332,9.271,3.391,13.02,7.2.408-.415.822-.8,1.239-1.175C150.587,17.457,145.42,15.673,140.89,16.068Z" transform="translate(-128.992 -16.013)" fill="#fd4755" fill-rule="evenodd"/>
        </g>
        <g id="Grupo_1242622" data-name="Grupo 1242622" transform="translate(9.922 11.519)">
          <path id="Trazado_1220926" data-name="Trazado 1220926" d="M103.945,183.891h12.479a1.069,1.069,0,0,0,1.023-1.377,7.587,7.587,0,0,0-14.525,0,1.069,1.069,0,0,0,1.023,1.377Z" transform="translate(-102.874 -168.683)" fill="#6cf5c2" fill-rule="evenodd"/>
          <path id="Trazado_1220927" data-name="Trazado 1220927" d="M160.576,183.891a1.069,1.069,0,0,0,1.023-1.377,7.593,7.593,0,0,0-8.331-5.317,7.593,7.593,0,0,1,6.194,5.317,1.069,1.069,0,0,1-1.023,1.377Z" transform="translate(-147.026 -168.683)" fill="#00e499" fill-rule="evenodd"/>
          <circle id="Elipse_12840" data-name="Elipse 12840" cx="3.835" cy="3.835" r="3.835" transform="translate(2.698 7.463) rotate(-76.7)" fill="#f6dccd"/>
          <path id="Trazado_1220928" data-name="Trazado 1220928" d="M158.115,115.2a3.835,3.835,0,0,1,0,7.67,3.876,3.876,0,0,1-.534-.037,3.835,3.835,0,0,0,0-7.6A3.839,3.839,0,0,1,158.115,115.2Z" transform="translate(-150.804 -114.435)" fill="#f1cbbc" fill-rule="evenodd"/>
        </g>
        <g id="Grupo_1242623" data-name="Grupo 1242623" transform="translate(33.504 11.583)">
          <path id="Trazado_1220929" data-name="Trazado 1220929" d="M294.32,183.816H306.8a1.069,1.069,0,0,0,1.023-1.377,7.587,7.587,0,0,0-14.525,0,1.069,1.069,0,0,0,1.023,1.377Z" transform="translate(-293.249 -168.68)" fill="#ffe177" fill-rule="evenodd"/>
          <path id="Trazado_1220930" data-name="Trazado 1220930" d="M350.952,183.816a1.069,1.069,0,0,0,1.023-1.377,7.593,7.593,0,0,0-8.331-5.317,7.593,7.593,0,0,1,6.194,5.317,1.069,1.069,0,0,1-1.023,1.377Z" transform="translate(-337.401 -168.68)" fill="#ffd064" fill-rule="evenodd"/>
          <circle id="Elipse_12841" data-name="Elipse 12841" cx="3.835" cy="3.835" r="3.835" transform="translate(2.777 7.501) rotate(-77.993)" fill="#f6dccd"/>
          <path id="Trazado_1220931" data-name="Trazado 1220931" d="M348.49,115.129a3.835,3.835,0,1,1-.534,7.633,3.835,3.835,0,0,0,0-7.6A3.858,3.858,0,0,1,348.49,115.129Z" transform="translate(-341.179 -114.432)" fill="#f1cbbc" fill-rule="evenodd"/>
        </g>
        <g id="Grupo_1242624" data-name="Grupo 1242624" transform="translate(21.579 12.623)">
          <path id="Trazado_1220932" data-name="Trazado 1220932" d="M198.051,192.772h12.479a1.069,1.069,0,0,0,1.023-1.377,7.587,7.587,0,0,0-14.525,0,1.069,1.069,0,0,0,1.023,1.377Z" transform="translate(-196.98 -177.567)" fill="#8ac9fe" fill-rule="evenodd"/>
          <path id="Trazado_1220933" data-name="Trazado 1220933" d="M254.682,192.772a1.069,1.069,0,0,0,1.023-1.377,7.593,7.593,0,0,0-8.331-5.317,7.593,7.593,0,0,1,6.194,5.317,1.069,1.069,0,0,1-1.023,1.377Z" transform="translate(-241.132 -177.567)" fill="#60b7ff" fill-rule="evenodd"/>
          <circle id="Elipse_12842" data-name="Elipse 12842" cx="3.835" cy="3.835" r="3.835" transform="translate(2.701 7.463) rotate(-76.7)" fill="#f6dccd"/>
          <path id="Trazado_1220934" data-name="Trazado 1220934" d="M252.222,124.085a3.835,3.835,0,0,1,0,7.67,3.876,3.876,0,0,1-.534-.037,3.835,3.835,0,0,0,0-7.6A3.837,3.837,0,0,1,252.222,124.085Z" transform="translate(-244.911 -123.319)" fill="#f1cbbc" fill-rule="evenodd"/>
        </g>
        <g id="Grupo_1242625" data-name="Grupo 1242625" transform="translate(31.139 12.49)">
          <path id="Trazado_1220935" data-name="Trazado 1220935" d="M304.223,160.118l-.018-11.719c0-2.2.287-4.266,1.921-5.739a71.312,71.312,0,0,0,7.68-7.141,2.817,2.817,0,0,1,3.9,0,2.727,2.727,0,0,1,0,3.9l.867-1.067a6.32,6.32,0,0,0,1.517-4.142l-.043-11.283c-.033-8.77,6.4-6.339,6.488-3.381l.589,20.77a6.488,6.488,0,0,1-1.985,4.92l-9.395,9.395v5.488a1.92,1.92,0,0,1-1.916,1.916h-7.686A1.92,1.92,0,0,1,304.223,160.118Z" transform="translate(-300.483 -116.828)" fill="#f6dccd" fill-rule="evenodd"/>
          <path id="Trazado_1220936" data-name="Trazado 1220936" d="M368.219,271.788a2.782,2.782,0,0,1-.41,3.393c-1.533,1.543-3.076,3.076-4.614,4.614A1.055,1.055,0,1,1,361.7,278.3Z" transform="translate(-350.588 -252.593)" fill="#f1cbbc" fill-rule="evenodd"/>
          <path id="Trazado_1220937" data-name="Trazado 1220937" d="M304.224,319.4l-.018-11.719c0-2.2.287-4.266,1.921-5.739.974-.878,2.375-2,3.857-3.311v22.682H306.14A1.919,1.919,0,0,1,304.224,319.4Z" transform="translate(-300.484 -276.112)" fill="#f1cbbc" fill-rule="evenodd"/>
          <path id="Trazado_1220938" data-name="Trazado 1220938" d="M275.629,446.317l16.327.14a1.44,1.44,0,0,1,1.423,1.448l-.027,3.143a1.44,1.44,0,0,1-1.448,1.423l-16.327-.14a1.44,1.44,0,0,1-1.423-1.448l.027-3.143A1.44,1.44,0,0,1,275.629,446.317Z" transform="translate(-274.155 -405.502)" fill="#d1d1d6" fill-rule="evenodd"/>
          <path id="Trazado_1220939" data-name="Trazado 1220939" d="M286.647,447.534l2.89.025,2.858.025a1.44,1.44,0,0,1,1.423,1.443l.01-1.123a1.44,1.44,0,0,0-1.423-1.448l-2.867-.025-5.758-.049-5.764-.049-1.938-.017a1.441,1.441,0,0,0-1.412,1.116l3.356.029,5.758.049,2.867.025Z" transform="translate(-274.602 -405.501)" fill="#b1b1b5" fill-rule="evenodd"/>
        </g>
        <g id="Grupo_1242626" data-name="Grupo 1242626" transform="translate(0 12.49)">
          <path id="Trazado_1220940" data-name="Trazado 1220940" d="M45.679,160.118,45.7,148.4c0-2.2-.287-4.266-1.921-5.739a71.3,71.3,0,0,1-7.68-7.141,2.817,2.817,0,0,0-3.9,0,2.727,2.727,0,0,0,0,3.9l-.867-1.067a6.32,6.32,0,0,1-1.517-4.142l.043-11.283c.033-8.77-6.4-6.339-6.488-3.381l-.589,20.77a6.488,6.488,0,0,0,1.985,4.92l9.395,9.395v5.488a1.92,1.92,0,0,0,1.916,1.916h7.686a1.92,1.92,0,0,0,1.916-1.913Z" transform="translate(-22.778 -116.828)" fill="#f6dccd" fill-rule="evenodd"/>
          <path id="Trazado_1220941" data-name="Trazado 1220941" d="M92.643,271.788a2.782,2.782,0,0,0,.41,3.393c1.533,1.543,3.076,3.076,4.614,4.614a1.055,1.055,0,0,0,1.491-1.491Z" transform="translate(-83.632 -252.593)" fill="#f1cbbc" fill-rule="evenodd"/>
          <path id="Trazado_1220942" data-name="Trazado 1220942" d="M166.909,319.4l.018-11.719c0-2.2-.287-4.266-1.921-5.739-.974-.878-2.375-2-3.857-3.311v22.682h3.845A1.919,1.919,0,0,0,166.909,319.4Z" transform="translate(-144.009 -276.112)" fill="#f1cbbc" fill-rule="evenodd"/>
          <path id="Trazado_1220943" data-name="Trazado 1220943" d="M100.395,446.317l-16.327.14a1.44,1.44,0,0,0-1.423,1.448l.027,3.143a1.44,1.44,0,0,0,1.448,1.423l16.327-.14a1.44,1.44,0,0,0,1.423-1.448l-.027-3.143A1.44,1.44,0,0,0,100.395,446.317Z" transform="translate(-75.229 -405.502)" fill="#d1d1d6" fill-rule="evenodd"/>
          <path id="Trazado_1220944" data-name="Trazado 1220944" d="M89.825,447.534l-2.89.025-2.858.025a1.44,1.44,0,0,0-1.423,1.443l-.01-1.123a1.44,1.44,0,0,1,1.423-1.448l2.867-.025,5.758-.049,5.764-.049,1.938-.017a1.441,1.441,0,0,1,1.412,1.116l-3.356.029-5.758.049-2.867.025Z" transform="translate(-75.229 -405.501)" fill="#b1b1b5" fill-rule="evenodd"/>
        </g>
      </g>
      <path id="Trazado_1220945" data-name="Trazado 1220945" d="M49.848,66.226a.977.977,0,1,0-.547-1.27A.977.977,0,0,0,49.848,66.226Zm11.328-4.813V59.287a.987.987,0,0,1,.29-.7l9.4-9.4A5.5,5.5,0,0,0,72.556,45l-.583-20.775a2.147,2.147,0,0,0-2.1-1.752h-.029c-1.5.023-2.392,1.931-2.379,5.1L67.5,38.859a7.279,7.279,0,0,1-1.739,4.772l-.777.952c0,.006-2.107,2.21-3.221,3.287-.506.491-1.03,1-1.552,1.519a.991.991,0,0,1-1.4-1.4c.534-.534,1.063-1.047,1.576-1.542,1.076-1.042,2.094-2.027,3.063-3.117a1.738,1.738,0,0,0-.025-2.451,1.811,1.811,0,0,0-2.487-.005,50.9,50.9,0,0,1-6.069,5.758c-.643.541-1.2,1.008-1.659,1.425-1.405,1.264-1.6,3.151-1.593,5l.01,8.276ZM64.7,63.425a.446.446,0,0,1,.312.135.44.44,0,0,1,.127.314l-.026,3.144a.451.451,0,0,1-.445.44h-.005l-16.33-.14a.447.447,0,0,1-.44-.448l.026-3.144a.451.451,0,0,1,.445-.441h0ZM51.2,47.307c-2.133,1.515-4.384,2.977-6.522,4.232-.011.007-.019.008-.017.01s-.009,0-.019-.009c-2.138-1.256-4.39-2.718-6.522-4.233a6.258,6.258,0,0,0-.684-.726c-.486-.437-1.081-.938-1.708-1.468a48.661,48.661,0,0,1-5.88-5.577,1.06,1.06,0,0,0-.095-.1,3.982,3.982,0,0,0-2.092-.991q-.84-.872-1.6-1.741H36.137s0,0,0,0a.994.994,0,0,0,.986,1.1H52.2a.99.99,0,0,0,.985-1.1v0H63.261c-.505.578-1.04,1.159-1.6,1.741a3.993,3.993,0,0,0-2.093.991.966.966,0,0,0-.093.1,48.681,48.681,0,0,1-5.88,5.577c-.629.53-1.223,1.031-1.708,1.468a6.254,6.254,0,0,0-.685.726ZM37.694,61.332l.01-8.276c0-1.851-.19-3.737-1.593-5-.462-.417-1.017-.883-1.659-1.425a50.694,50.694,0,0,1-6.069-5.758,1.813,1.813,0,0,0-2.489.005,1.739,1.739,0,0,0-.023,2.451c.97,1.09,1.987,2.075,3.062,3.117.513.5,1.042,1.008,1.575,1.542a.991.991,0,0,1-1.4,1.4c-.523-.523-1.047-1.029-1.553-1.52-1.114-1.078-3.214-3.28-3.22-3.286l-.775-.949a7.286,7.286,0,0,1-1.742-4.774l.044-11.284c.012-3.171-.878-5.079-2.381-5.1h-.029a2.142,2.142,0,0,0-2.1,1.752L16.766,45a5.514,5.514,0,0,0,1.7,4.192l9.4,9.4a.987.987,0,0,1,.29.7v2.127Zm-13.07,2.093a.44.44,0,0,0-.312.135.445.445,0,0,0-.129.314l.027,3.144a.45.45,0,0,0,.445.44h0l16.33-.14a.438.438,0,0,0,.312-.134.447.447,0,0,0,.129-.315L41.4,63.726a.439.439,0,0,0-.134-.312.445.445,0,0,0-.311-.129h0Zm.7-24.57a3.616,3.616,0,0,0-.83.619,4.2,4.2,0,0,0-.549.676,5.372,5.372,0,0,1-.145-1.284l.008-1.753Q24.527,37.982,25.324,38.855Zm30.994-10.9a2.844,2.844,0,1,1,2.846-2.844,2.847,2.847,0,0,1-2.846,2.844h0Zm-11.656,1.1a2.843,2.843,0,1,0-2.843-2.843A2.846,2.846,0,0,0,44.662,29.058Zm-6.344,6.769H51.006a6.6,6.6,0,0,0-12.688,0ZM33,27.958a2.844,2.844,0,1,1,2.844-2.844A2.847,2.847,0,0,1,33,27.958h0ZM38,32.229a8.526,8.526,0,0,0-1.407,2.5H26.66A6.578,6.578,0,0,1,33,29.94h0A6.59,6.59,0,0,1,38,32.229Zm14.737,2.5a8.528,8.528,0,0,0-1.408-2.5,6.588,6.588,0,0,1,4.992-2.289h0a6.575,6.575,0,0,1,6.342,4.786H52.734Zm12.783,2.387.006,1.753a5.286,5.286,0,0,1-.145,1.284,4.122,4.122,0,0,0-.547-.676A3.6,3.6,0,0,0,64,38.855q.8-.874,1.518-1.742ZM19.657,20.5a11.854,11.854,0,0,1,7.588-9.738c5.4-2.012,11.647-.139,16.711,5.011a.992.992,0,0,0,1.413,0c5.064-5.15,11.311-7.023,16.71-5.011A11.858,11.858,0,0,1,69.667,20.5c-1.161.071-4.21.852-4.186,7.086l.024,6.323q-.367.506-.763,1.016a8.551,8.551,0,0,0-5.111-6.3,4.826,4.826,0,1,0-6.62,0,8.575,8.575,0,0,0-3.106,2.22,8.568,8.568,0,0,0-1.932-1.121,4.825,4.825,0,1,0-6.622,0,8.587,8.587,0,0,0-1.932,1.121,8.578,8.578,0,0,0-3.1-2.22,4.826,4.826,0,1,0-6.621,0,8.549,8.549,0,0,0-5.11,6.3c-.267-.341-.519-.679-.764-1.016l.025-6.323c.024-6.233-3.027-7.015-4.186-7.086Zm43.5,39.2V61.43l1.558.013a2.429,2.429,0,0,1,2.406,2.448L67.1,67.036a2.431,2.431,0,0,1-2.427,2.405h-.022l-16.33-.14a2.432,2.432,0,0,1-2.406-2.448l.026-3.144A2.431,2.431,0,0,1,48.365,61.3h.022l1.262.011-.01-8.256a14.924,14.924,0,0,1,.16-2.386c-1.379.913-2.769,1.785-4.115,2.575a1.987,1.987,0,0,1-2.042,0c-1.347-.79-2.738-1.661-4.115-2.575a15.055,15.055,0,0,1,.16,2.386l-.01,8.256,1.261-.011a2.428,2.428,0,0,1,2.448,2.406l.027,3.144A2.433,2.433,0,0,1,41.006,69.3l-16.33.14h-.021a2.429,2.429,0,0,1-2.427-2.405L22.2,63.891a2.432,2.432,0,0,1,2.406-2.448l1.56-.013V59.7L17.06,50.591a7.519,7.519,0,0,1-2.276-5.649l.588-20.774a3.91,3.91,0,0,1,2.232-3.223A14.926,14.926,0,0,1,20.332,13.6a13.527,13.527,0,0,1,6.222-4.7,15.2,15.2,0,0,1,9.259-.342,20.945,20.945,0,0,1,8.848,5.13,20.956,20.956,0,0,1,8.85-5.13,15.2,15.2,0,0,1,9.259.342,13.524,13.524,0,0,1,6.22,4.7,14.948,14.948,0,0,1,2.731,7.348,3.9,3.9,0,0,1,2.229,3.219l.589,20.774a7.541,7.541,0,0,1-2.276,5.649ZM38.208,65.679a.977.977,0,1,1,1.268.547A.977.977,0,0,1,38.208,65.679Z" transform="translate(0)" fill-rule="evenodd"/>
    </g>
  </g>
</svg>
