<svg xmlns="http://www.w3.org/2000/svg" xmlns:xlink="http://www.w3.org/1999/xlink" width="97.533" height="97.533" viewBox="0 0 97.533 97.533">
  <defs>
    <filter id="Trazado_982547" x="0" y="0" width="97.533" height="97.533" filterUnits="userSpaceOnUse">
      <feOffset dy="3" input="SourceAlpha"/>
      <feGaussianBlur stdDeviation="3" result="blur"/>
      <feFlood flood-opacity="0.161"/>
      <feComposite operator="in" in2="blur"/>
      <feComposite in="SourceGraphic"/>
    </filter>
  </defs>
  <g id="Grupo_1242468" data-name="Grupo 1242468" transform="translate(-819.967 -8252.315)">
    <g id="Grupo_1241922" data-name="Grupo 1241922" transform="translate(629.001 3630.592)">
      <g id="Grupo_1224767" data-name="Grupo 1224767" transform="translate(-0.001 3721.724)">
        <g id="Grupo_1203701" data-name="Grupo 1203701" transform="translate(199.967 906)">
          <g id="Grupo_1203355" data-name="Grupo 1203355" transform="translate(0)">
            <g id="Grupo_1202156" data-name="Grupo 1202156">
              <g id="Grupo_1177900" data-name="Grupo 1177900">
                <g id="Grupo_1172010" data-name="Grupo 1172010">
                  <g id="Grupo_1171046" data-name="Grupo 1171046">
                    <g id="Grupo_1148525" data-name="Grupo 1148525">
                      <g transform="matrix(1, 0, 0, 1, -9, -6)" filter="url(#Trazado_982547)">
                        <g id="Trazado_982547-2" data-name="Trazado 982547" transform="translate(9 6)" fill="#fdfbec">
                          <path d="M 39.7666015625 78.033203125 C 34.59997940063477 78.033203125 29.58870124816895 77.02164459228516 24.87196731567383 75.02663421630859 C 20.31538963317871 73.099365234375 16.22284507751465 70.34000396728516 12.70802402496338 66.82518005371094 C 9.193202018737793 63.31035614013672 6.433835029602051 59.21781158447266 4.506568431854248 54.66123580932617 C 2.511557102203369 49.94449996948242 1.500001549720764 44.93322372436523 1.500001549720764 39.7666015625 C 1.500001549720764 34.59997940063477 2.511557102203369 29.58870124816895 4.506568431854248 24.87196731567383 C 6.433835029602051 20.31538963317871 9.193202018737793 16.22284507751465 12.70802402496338 12.70802402496338 C 16.22284507751465 9.193202018737793 20.31538963317871 6.433835029602051 24.87196731567383 4.506568431854248 C 29.58870124816895 2.511557102203369 34.59997940063477 1.500001549720764 39.7666015625 1.500001549720764 C 44.93322372436523 1.500001549720764 49.94449996948242 2.511557102203369 54.66123580932617 4.506568431854248 C 59.21781158447266 6.433835029602051 63.31035614013672 9.193202018737793 66.82518005371094 12.70802402496338 C 70.34000396728516 16.22284507751465 73.099365234375 20.31538963317871 75.02663421630859 24.87196731567383 C 77.02164459228516 29.58870124816895 78.033203125 34.59997940063477 78.033203125 39.7666015625 C 78.033203125 44.93322372436523 77.02164459228516 49.94449996948242 75.02663421630859 54.66123580932617 C 73.099365234375 59.21781158447266 70.34000396728516 63.31035614013672 66.82518005371094 66.82518005371094 C 63.31035614013672 70.34000396728516 59.21781158447266 73.099365234375 54.66123580932617 75.02663421630859 C 49.94449996948242 77.02164459228516 44.93322372436523 78.033203125 39.7666015625 78.033203125 Z" stroke="none"/>
                          <path d="M 39.7666015625 3 C 34.80181503295898 3 29.98714065551758 3.971687316894531 25.45630264282227 5.888076782226562 C 21.07851409912109 7.739715576171875 17.146240234375 10.39113616943359 13.76869201660156 13.76869201660156 C 10.39113616943359 17.146240234375 7.739715576171875 21.07851409912109 5.888076782226562 25.45630264282227 C 3.971687316894531 29.98714065551758 3 34.80181503295898 3 39.7666015625 C 3 44.73138809204102 3.971687316894531 49.54606628417969 5.888076782226562 54.076904296875 C 7.739715576171875 58.45468902587891 10.39113616943359 62.386962890625 13.76869201660156 65.76451110839844 C 17.146240234375 69.14206695556641 21.07851409912109 71.79348754882812 25.45630264282227 73.64512634277344 C 29.98714065551758 75.56151580810547 34.80181503295898 76.533203125 39.7666015625 76.533203125 C 44.73138809204102 76.533203125 49.54606628417969 75.56151580810547 54.076904296875 73.64512634277344 C 58.45468902587891 71.79348754882812 62.386962890625 69.14206695556641 65.76451110839844 65.76451110839844 C 69.14206695556641 62.386962890625 71.79348754882812 58.45468902587891 73.64512634277344 54.076904296875 C 75.56151580810547 49.54606628417969 76.533203125 44.73138809204102 76.533203125 39.7666015625 C 76.533203125 34.80181503295898 75.56151580810547 29.98714065551758 73.64512634277344 25.45630264282227 C 71.79348754882812 21.07851409912109 69.14206695556641 17.146240234375 65.76451110839844 13.76869201660156 C 62.386962890625 10.39113616943359 58.45468902587891 7.739715576171875 54.076904296875 5.888076782226562 C 49.54606628417969 3.971687316894531 44.73138809204102 3 39.7666015625 3 M 39.7666015625 0 C 61.72908782958984 0 79.533203125 17.80411529541016 79.533203125 39.7666015625 C 79.533203125 61.72908782958984 61.72908782958984 79.533203125 39.7666015625 79.533203125 C 17.80411529541016 79.533203125 0 61.72908782958984 0 39.7666015625 C 0 17.80411529541016 17.80411529541016 0 39.7666015625 0 Z" stroke="none" fill="#83793c"/>
                        </g>
                      </g>
                    </g>
                  </g>
                </g>
              </g>
            </g>
          </g>
        </g>
      </g>
    </g>
    <g id="enfermedad" transform="translate(834.083 8264.118)">
      <g id="Grupo_1242456" data-name="Grupo 1242456" transform="translate(5.002 11.31)">
        <path id="Trazado_1220279" data-name="Trazado 1220279" d="M47.311,28.5,46.231,42.874a6.169,6.169,0,0,1-6.1,5.242,6.161,6.161,0,0,1-12.323,0,6.161,6.161,0,0,1-12.323,0,6.17,6.17,0,0,1-6.167-6.167,6.1,6.1,0,0,1,.759-2.882,6.128,6.128,0,0,1,0-11.552,6.1,6.1,0,0,1-.759-2.882,6.17,6.17,0,0,1,6.167-6.167,6.161,6.161,0,0,1,12.323,0,6.161,6.161,0,0,1,12.323,0A6.17,6.17,0,0,1,46.3,24.633a6.092,6.092,0,0,1-.747,2.882,6.373,6.373,0,0,1,1.755.984Z" transform="translate(-4.816 -11.123)" fill="#f4d2b1"/>
        <path id="Trazado_1220280" data-name="Trazado 1220280" d="M34.166,55.644A7.353,7.353,0,0,1,28,52.3a7.349,7.349,0,0,1-13.427-2.892,7.366,7.366,0,0,1-6.251-7.271,6.932,6.932,0,0,1,.395-2.293,7.309,7.309,0,0,1,0-12.729,6.932,6.932,0,0,1-.395-2.293,7.366,7.366,0,0,1,6.251-7.271A7.349,7.349,0,0,1,28,14.656a7.347,7.347,0,0,1,13.425,2.892,7.366,7.366,0,0,1,6.25,7.271,7.049,7.049,0,0,1-.387,2.3,7.386,7.386,0,0,1,.947.64,1.185,1.185,0,0,1,.444,1.017L47.6,43.149a7.335,7.335,0,0,1-6.176,6.258,7.353,7.353,0,0,1-7.259,6.237ZM29.185,48.3a4.975,4.975,0,0,0,9.95,0,1.185,1.185,0,0,1,1.186-1.186,4.954,4.954,0,0,0,4.924-4.234l1.019-13.615a5.325,5.325,0,0,0-.935-.454,1.186,1.186,0,0,1-.634-1.67,4.9,4.9,0,0,0,.607-2.323,4.986,4.986,0,0,0-4.981-4.981,1.185,1.185,0,0,1-1.186-1.186,4.975,4.975,0,0,0-9.95,0,1.186,1.186,0,1,1-2.372,0,4.976,4.976,0,0,0-9.951,0,1.185,1.185,0,0,1-1.186,1.186,4.986,4.986,0,0,0-4.981,4.981,4.9,4.9,0,0,0,.62,2.322,1.185,1.185,0,0,1-.646,1.676,4.943,4.943,0,0,0,0,9.319,1.185,1.185,0,0,1,.646,1.676,4.9,4.9,0,0,0-.62,2.322,4.986,4.986,0,0,0,4.981,4.981A1.185,1.185,0,0,1,16.862,48.3a4.976,4.976,0,0,0,9.951,0,1.186,1.186,0,0,1,2.372,0Z" transform="translate(-5.002 -11.31)"/>
      </g>
      <g id="Grupo_1242457" data-name="Grupo 1242457" transform="translate(26.846 22.564)">
        <path id="Trazado_1220281" data-name="Trazado 1220281" d="M24.606,27.532a1.185,1.185,0,0,1-1.186-1.186A5.552,5.552,0,0,1,28.966,20.8a1.186,1.186,0,1,1,0,2.372,3.179,3.179,0,0,0-3.175,3.175A1.185,1.185,0,0,1,24.606,27.532Z" transform="translate(-23.42 -20.799)"/>
      </g>
      <g id="Grupo_1242458" data-name="Grupo 1242458" transform="translate(32.711 27.628)">
        <path id="Trazado_1220282" data-name="Trazado 1220282" d="M29.551,31.8a1.186,1.186,0,1,1,0-2.372,3.179,3.179,0,0,0,3.175-3.175,1.186,1.186,0,1,1,2.372,0A5.552,5.552,0,0,1,29.551,31.8Z" transform="translate(-28.365 -25.068)"/>
      </g>
      <g id="Grupo_1242459" data-name="Grupo 1242459" transform="translate(26.846 38.15)">
        <path id="Trazado_1220283" data-name="Trazado 1220283" d="M28.966,40.672a5.552,5.552,0,0,1-5.547-5.546,1.186,1.186,0,0,1,2.372,0A3.178,3.178,0,0,0,28.966,38.3a1.186,1.186,0,1,1,0,2.372Z" transform="translate(-23.42 -33.94)"/>
      </g>
      <g id="Grupo_1242460" data-name="Grupo 1242460" transform="translate(22.421 22.564)">
        <path id="Trazado_1220284" data-name="Trazado 1220284" d="M25.236,27.532a1.185,1.185,0,0,1-1.186-1.186,3.179,3.179,0,0,0-3.175-3.175,1.186,1.186,0,1,1,0-2.372,5.552,5.552,0,0,1,5.547,5.547A1.185,1.185,0,0,1,25.236,27.532Z" transform="translate(-19.689 -20.799)"/>
      </g>
      <g id="Grupo_1242461" data-name="Grupo 1242461" transform="translate(16.557 27.628)">
        <path id="Trazado_1220285" data-name="Trazado 1220285" d="M20.291,31.8a5.552,5.552,0,0,1-5.546-5.547,1.186,1.186,0,1,1,2.372,0,3.178,3.178,0,0,0,3.174,3.175,1.186,1.186,0,0,1,0,2.372Z" transform="translate(-14.745 -25.068)"/>
      </g>
      <g id="Grupo_1242462" data-name="Grupo 1242462" transform="translate(22.421 38.15)">
        <path id="Trazado_1220286" data-name="Trazado 1220286" d="M20.875,40.672a1.186,1.186,0,1,1,0-2.372,3.178,3.178,0,0,0,3.175-3.174,1.186,1.186,0,0,1,2.372,0A5.552,5.552,0,0,1,20.875,40.672Z" transform="translate(-19.689 -33.94)"/>
      </g>
      <g id="Grupo_1242467" data-name="Grupo 1242467" transform="translate(39.116 19.064)">
        <g id="Grupo_1242463" data-name="Grupo 1242463">
          <path id="Trazado_1220287" data-name="Trazado 1220287" d="M57.576,41.658H34.765l11.411-22.81Z" transform="translate(-33.579 -17.662)" fill="#e3334f"/>
          <path id="Trazado_1220288" data-name="Trazado 1220288" d="M57.761,43.03H34.952a1.186,1.186,0,0,1-1.061-1.716L45.3,18.5a1.186,1.186,0,0,1,2.122,0l11.4,22.81a1.186,1.186,0,0,1-1.061,1.716ZM36.871,40.658H55.843L46.362,21.686Z" transform="translate(-33.765 -17.848)"/>
        </g>
        <g id="Grupo_1242466" data-name="Grupo 1242466" transform="translate(11.406 8.658)">
          <g id="Grupo_1242464" data-name="Grupo 1242464">
            <path id="Trazado_1220289" data-name="Trazado 1220289" d="M43.382,25.148h2.372v8.975H43.382Z" transform="translate(-43.382 -25.148)"/>
          </g>
          <g id="Grupo_1242465" data-name="Grupo 1242465" transform="translate(0 10.725)">
            <path id="Trazado_1220290" data-name="Trazado 1220290" d="M43.382,34.191h2.372v1.942H43.382Z" transform="translate(-43.382 -34.191)"/>
          </g>
        </g>
      </g>
    </g>
  </g>
</svg>
