<svg xmlns="http://www.w3.org/2000/svg" xmlns:xlink="http://www.w3.org/1999/xlink" width="103" height="103" viewBox="0 0 103 103">
  <defs>
    <filter id="Trazado_904820" x="0" y="0" width="103" height="103" filterUnits="userSpaceOnUse">
      <feOffset dy="3" input="SourceAlpha"/>
      <feGaussianBlur stdDeviation="3" result="blur"/>
      <feFlood flood-opacity="0.161"/>
      <feComposite operator="in" in2="blur"/>
      <feComposite in="SourceGraphic"/>
    </filter>
  </defs>
  <g id="Grupo_1242474" data-name="Grupo 1242474" transform="translate(-171 -8877.707)">
    <g id="Grupo_1241923" data-name="Grupo 1241923" transform="translate(180 8883.707)">
      <g id="Grupo_1225967" data-name="Grupo 1225967" transform="translate(0 0)">
        <g id="Grupo_1224992" data-name="Grupo 1224992" transform="translate(0)">
          <g id="Grupo_1223798" data-name="Grupo 1223798">
            <g id="Grupo_1223164" data-name="Grupo 1223164">
              <g id="Grupo_1203639" data-name="Grupo 1203639">
                <g id="Grupo_1202437" data-name="Grupo 1202437">
                  <g id="Grupo_1177315" data-name="Grupo 1177315">
                    <g id="Grupo_1173585" data-name="Grupo 1173585">
                      <g id="Grupo_1173428" data-name="Grupo 1173428">
                        <g id="Grupo_1171958" data-name="Grupo 1171958">
                          <g id="Grupo_1167341" data-name="Grupo 1167341">
                            <g id="Grupo_1166792" data-name="Grupo 1166792">
                              <g transform="matrix(1, 0, 0, 1, -9, -6)" filter="url(#Trazado_904820)">
                                <g id="Trazado_904820-2" data-name="Trazado 904820" transform="translate(9 6)" fill="#ebe9f0">
                                  <path d="M 42.49993515014648 83.49986267089844 C 36.96432495117188 83.49986267089844 31.59508895874023 82.41603851318359 26.5413703918457 80.27849578857422 C 21.65931129455566 78.21355438232422 17.27445220947266 75.25711059570312 13.50860595703125 71.49126434326172 C 9.742758750915527 67.72541046142578 6.786311626434326 63.34055328369141 4.721370220184326 58.45849609375 C 2.583829164505005 53.40477752685547 1.500005722045898 48.03554153442383 1.500005722045898 42.49993133544922 C 1.500005722045898 36.96430969238281 2.583829164505005 31.59507179260254 4.721370220184326 26.54136657714844 C 6.786311626434326 21.6593074798584 9.742758750915527 17.27444839477539 13.50860595703125 13.50860214233398 C 17.27445220947266 9.742754936218262 21.65931129455566 6.786295890808105 26.5413703918457 4.721366405487061 C 31.59508895874023 2.583825349807739 36.96432495117188 1.500001907348633 42.49993515014648 1.500001907348633 C 48.03555679321289 1.500001907348633 53.40479278564453 2.583825349807739 58.45849990844727 4.721366405487061 C 63.34056854248047 6.786295890808105 67.72542572021484 9.742754936218262 71.49127960205078 13.50860214233398 C 75.25712585449219 17.27444839477539 78.21356964111328 21.6593074798584 80.27851104736328 26.54136657714844 C 82.41605377197266 31.59507179260254 83.4998779296875 36.96430969238281 83.4998779296875 42.49993133544922 C 83.4998779296875 48.03554153442383 82.41605377197266 53.40477752685547 80.27851104736328 58.45849609375 C 78.21356964111328 63.34055328369141 75.25712585449219 67.72541046142578 71.49127960205078 71.49126434326172 C 67.72542572021484 75.25711059570312 63.34056854248047 78.21355438232422 58.45849990844727 80.27849578857422 C 53.40479278564453 82.41603851318359 48.03555679321289 83.49986267089844 42.49993515014648 83.49986267089844 Z" stroke="none"/>
                                  <path d="M 42.49993515014648 3 C 37.16616058349609 3 31.99352264404297 4.043960571289062 27.12569427490234 6.102867126464844 C 22.42242813110352 8.092185974121094 18.19784545898438 10.94068908691406 14.56926727294922 14.56926727294922 C 10.94069671630859 18.19783782958984 8.092185974121094 22.42242431640625 6.102867126464844 27.12569046020508 C 4.043960571289062 31.9935188293457 3 37.16615676879883 3 42.49993133544922 C 3 47.83370590209961 4.043960571289062 53.00634384155273 6.102867126464844 57.87417221069336 C 8.092185974121094 62.57743835449219 10.94069671630859 66.80202484130859 14.56926727294922 70.43059539794922 C 18.19784545898438 74.05917358398438 22.42242813110352 76.90767669677734 27.12569427490234 78.89699554443359 C 31.99352264404297 80.95590209960938 37.16616058349609 81.99986267089844 42.49993515014648 81.99986267089844 C 47.83370971679688 81.99986267089844 53.00634765625 80.95590209960938 57.87417602539062 78.89699554443359 C 62.57744216918945 76.90767669677734 66.80203247070312 74.05917358398438 70.43060302734375 70.43059539794922 C 74.05917358398438 66.80202484130859 76.90768432617188 62.57743835449219 78.89700317382812 57.87417221069336 C 80.95590972900391 53.00634384155273 81.99987030029297 47.83370590209961 81.99987030029297 42.49993133544922 C 81.99987030029297 37.16615676879883 80.95590972900391 31.9935188293457 78.89700317382812 27.12569046020508 C 76.90768432617188 22.42242431640625 74.05917358398438 18.19783782958984 70.43060302734375 14.56926727294922 C 66.80203247070312 10.94068908691406 62.57744216918945 8.092185974121094 57.87417602539062 6.102867126464844 C 53.00634765625 4.043960571289062 47.83370971679688 3 42.49993515014648 3 M 42.49993515014648 0 C 65.97200012207031 0 84.99987030029297 19.02786254882812 84.99987030029297 42.49993133544922 C 84.99987030029297 65.97200012207031 65.97200012207031 84.99986267089844 42.49993515014648 84.99986267089844 C 19.02787017822266 84.99986267089844 0 65.97200012207031 0 42.49993133544922 C 0 19.02786254882812 19.02787017822266 0 42.49993515014648 0 Z" stroke="none" fill="#c6c0d6"/>
                                </g>
                              </g>
                            </g>
                          </g>
                        </g>
                      </g>
                    </g>
                  </g>
                </g>
              </g>
            </g>
          </g>
        </g>
      </g>
    </g>
    <g id="perdida-de-memoria" transform="translate(192.794 8896.467)">
      <g id="Grupo_1242472" data-name="Grupo 1242472" transform="translate(1.259 1.283)">
        <path id="Trazado_1220303" data-name="Trazado 1220303" d="M40.235,33.593V27.975H36.413V20.147H30.427V10.938A22.5,22.5,0,0,0,27.94,10.8,20.113,20.113,0,0,0,7.818,30.922L2.2,40.454,7.818,42.2v2.44a6.485,6.485,0,0,0,6.493,6.493h3.5V63.8H35.031v-14A20.154,20.154,0,0,0,47.924,33.593Z" transform="translate(-2.2 -6.84)" fill="#ffdfb3"/>
        <path id="Trazado_1220304" data-name="Trazado 1220304" d="M53.285,39.769V34.151H49.464V26.323H43.478V22.732A6.677,6.677,0,0,0,36.156,24.3,5.739,5.739,0,0,0,29.3,28.672a5.873,5.873,0,0,0,0,2.533,4.487,4.487,0,0,0-2.9,4.374,4.573,4.573,0,0,0,4.559,4.236H49.464a1.042,1.042,0,0,1,1.059,1.059.985.985,0,0,1-.414.829l-3.592,2.763A1.391,1.391,0,0,0,46.24,46.4a1.337,1.337,0,0,0,1.888.276L51.72,44.19a9.029,9.029,0,0,0,3.361-4.374h-1.8Z" transform="translate(-15.251 -13.016)" fill="#ff525f"/>
        <rect id="Rectángulo_424207" data-name="Rectángulo 424207" width="5.618" height="5.618" transform="translate(32.095 3.638)" fill="#ffdf40"/>
        <rect id="Rectángulo_424208" data-name="Rectángulo 424208" width="5.065" height="5.065" transform="translate(37.712 12.709)" fill="#804080"/>
        <rect id="Rectángulo_424209" data-name="Rectángulo 424209" width="6.585" height="6.585" transform="translate(50.283 4.927)" fill="#6cd9d9"/>
        <rect id="Rectángulo_424210" data-name="Rectángulo 424210" width="7.598" height="7.598" transform="translate(45.724 15.656)" fill="#ff525f"/>
        <rect id="Rectángulo_424211" data-name="Rectángulo 424211" width="6.4" height="6.4" transform="translate(40.89)" fill="#ffbe40"/>
      </g>
      <g id="Grupo_1242473" data-name="Grupo 1242473" transform="translate(0.456 0.5)">
        <path id="Trazado_1220305" data-name="Trazado 1220305" d="M64.738,47.092H60.594a.61.61,0,0,1-.6-.6V45.71a2.211,2.211,0,0,0-2.21-2.21h-2.3a.776.776,0,0,0-.783.783.807.807,0,0,0,.783.783h2.3a.61.61,0,0,1,.6.6v.783a2.211,2.211,0,0,0,2.21,2.21h4.144a.783.783,0,0,0,0-1.566Z" transform="translate(-29.722 -23.7)"/>
        <path id="Trazado_1220306" data-name="Trazado 1220306" d="M29.853,18.716a.692.692,0,0,0,.507-.184,12.433,12.433,0,0,1,1.8-1.243.8.8,0,0,0-.875-1.335,20.419,20.419,0,0,0-1.934,1.335.8.8,0,0,0,.507,1.427Z" transform="translate(-15.88 -8.77)"/>
        <path id="Trazado_1220307" data-name="Trazado 1220307" d="M46.983,31.893H40.122V27.058a.776.776,0,0,0-.783-.783H36.3V19.23a.776.776,0,0,0-.783-.783h-5.2V10.067a.8.8,0,0,0-.691-.783A25.16,25.16,0,0,0,27.045,9.1a20.649,20.649,0,0,0-7.229,1.289.787.787,0,1,0,.553,1.473,19.25,19.25,0,0,1,6.677-1.2c.553,0,1.105.046,1.7.092v3.776a7.318,7.318,0,0,0-6.769,1.8,6.87,6.87,0,0,0-.967-.092,6.613,6.613,0,0,0-6.585,6.585,4.467,4.467,0,0,0,.046.783,5.243,5.243,0,0,0-2.809,4.881,5.317,5.317,0,0,0,5.387,4.973H35.564a.3.3,0,0,1,.276.276c0,.092-.046.138-.092.23l-3.73,2.717a2.146,2.146,0,0,0-.414,3.039,2.181,2.181,0,0,0,1.75.875,2.316,2.316,0,0,0,1.243-.368l3.592-2.487A9.581,9.581,0,0,0,41.6,33.5h4.42A19.145,19.145,0,0,1,33.768,48.148a.789.789,0,0,0-.507.737V62.008H17.651V50.174a.776.776,0,0,0-.783-.783h-3.5a5.66,5.66,0,0,1-5.664-5.664v-2.44a.847.847,0,0,0-.553-.783l-4.6-1.473L7.613,30.42a.684.684,0,0,0,.092-.414A19.444,19.444,0,0,1,12.08,17.757a.759.759,0,0,0-.184-1.105.836.836,0,0,0-1.059.092A20.816,20.816,0,0,0,6.094,29.821l-5.526,9.3a.819.819,0,0,0,.276,1.105c.046.046.092.046.184.092l5.019,1.566v1.842A7.291,7.291,0,0,0,13.323,51H16.04V62.837a.776.776,0,0,0,.783.783H34.044a.776.776,0,0,0,.783-.783v-13.4A20.8,20.8,0,0,0,47.72,32.768a.756.756,0,0,0-.691-.875Zm-9.716,4.513-3.592,2.487a.567.567,0,0,1-.783-.138.537.537,0,0,1,.138-.783l3.592-2.763a1.9,1.9,0,0,0,.368-2.625,1.923,1.923,0,0,0-1.473-.737h-11.6V30.7a4.451,4.451,0,0,0-4.42-4.42h-.875a.776.776,0,0,0-.783.783.807.807,0,0,0,.783.783h.875A2.791,2.791,0,0,1,22.3,30.65v1.2H16.961a3.735,3.735,0,0,1-3.776-3.454A3.621,3.621,0,0,1,15.579,24.8a.812.812,0,0,0,.507-.921,4.962,4.962,0,0,1,3.73-5.94,4.541,4.541,0,0,1,1.105-.138,1.727,1.727,0,0,1,.46.046v.737a3.5,3.5,0,0,0,3.5,3.5h1.7a.776.776,0,0,0,.783-.783.807.807,0,0,0-.783-.783h-1.7a1.867,1.867,0,0,1-1.888-1.888V17.573a5.906,5.906,0,0,1,5.71-1.335v3.039a.776.776,0,0,0,.783.783h5.2V27.1a.776.776,0,0,0,.783.783h3.039v4.789a.776.776,0,0,0,.783.783h.553A7.6,7.6,0,0,1,37.267,36.406Z" transform="translate(-0.456 -5.14)"/>
        <path id="Trazado_1220308" data-name="Trazado 1220308" d="M70.983,15.583H76.6a.776.776,0,0,0,.783-.783h0V9.183A.776.776,0,0,0,76.6,8.4H70.983a.776.776,0,0,0-.783.783V14.8a.807.807,0,0,0,.783.783Zm.829-5.618h4.006v4.006H71.812Z" transform="translate(-38.085 -4.762)"/>
        <path id="Trazado_1220309" data-name="Trazado 1220309" d="M83.183,28a.776.776,0,0,0-.783.783v5.065a.776.776,0,0,0,.783.783h5.065a.776.776,0,0,0,.783-.783V28.783A.776.776,0,0,0,88.248,28Zm4.282,5.111h-3.5v-3.5h3.5Z" transform="translate(-44.667 -15.337)"/>
        <path id="Trazado_1220310" data-name="Trazado 1220310" d="M117.167,11.1h-6.585a.776.776,0,0,0-.783.783h0v6.585a.776.776,0,0,0,.783.783h6.585a.776.776,0,0,0,.783-.783V11.929a.817.817,0,0,0-.783-.829Zm-.829,6.585H111.32V12.712h5.019Z" transform="translate(-59.45 -6.219)"/>
        <path id="Trazado_1220311" data-name="Trazado 1220311" d="M108.181,34.5h-7.6a.776.776,0,0,0-.783.783v7.6a.776.776,0,0,0,.783.783h7.6a.776.776,0,0,0,.783-.783v-1.7a.776.776,0,0,0-.783-.783.807.807,0,0,0-.783.783h0V42.1h-5.986V36.112H107.4v.921a.776.776,0,0,0,.783.783.807.807,0,0,0,.783-.783v-1.7A.788.788,0,0,0,108.181,34.5Z" transform="translate(-54.055 -18.844)"/>
        <path id="Trazado_1220312" data-name="Trazado 1220312" d="M90.083,8.512h6.4a.776.776,0,0,0,.783-.783V1.283A.776.776,0,0,0,96.483.5h-6.4a.776.776,0,0,0-.783.783v6.4A.817.817,0,0,0,90.083,8.512Zm.829-6.4H95.7V6.9H90.912Z" transform="translate(-48.39 -0.5)"/>
      </g>
    </g>
  </g>
</svg>
