<svg xmlns="http://www.w3.org/2000/svg" xmlns:xlink="http://www.w3.org/1999/xlink" width="108" height="108" viewBox="0 0 108 108">
  <defs>
    <filter id="Trazado_904820" x="0" y="0" width="108" height="108" filterUnits="userSpaceOnUse">
      <feOffset dy="3" input="SourceAlpha"/>
      <feGaussianBlur stdDeviation="3" result="blur"/>
      <feFlood flood-opacity="0.161"/>
      <feComposite operator="in" in2="blur"/>
      <feComposite in="SourceGraphic"/>
    </filter>
  </defs>
  <g id="Grupo_1242640" data-name="Grupo 1242640" transform="translate(-620.058 -6963.345)">
    <g id="Grupo_1242110" data-name="Grupo 1242110" transform="translate(0.001 1321.275)">
      <g id="Grupo_1226149" data-name="Grupo 1226149" transform="translate(629.057 5648.07)">
        <g id="Grupo_1223550" data-name="Grupo 1223550" transform="translate(0 0)">
          <g id="Grupo_1223164" data-name="Grupo 1223164">
            <g id="Grupo_1203639" data-name="Grupo 1203639">
              <g id="Grupo_1202437" data-name="Grupo 1202437">
                <g id="Grupo_1177315" data-name="Grupo 1177315">
                  <g id="Grupo_1173585" data-name="Grupo 1173585">
                    <g id="Grupo_1173428" data-name="Grupo 1173428">
                      <g id="Grupo_1171958" data-name="Grupo 1171958">
                        <g id="Grupo_1167341" data-name="Grupo 1167341">
                          <g id="Grupo_1166792" data-name="Grupo 1166792">
                            <g transform="matrix(1, 0, 0, 1, -9, -6)" filter="url(#Trazado_904820)">
                              <g id="Trazado_904820-2" data-name="Trazado 904820" transform="translate(9 6)" fill="#fdfbec">
                                <path d="M 44.99999618530273 88.49995422363281 C 39.12687301635742 88.49995422363281 33.43022155761719 87.35002899169922 28.06829643249512 85.08213043212891 C 22.88852119445801 82.89126586914062 18.23629570007324 79.75455474853516 14.24084663391113 75.75910186767578 C 10.24540901184082 71.76364898681641 7.108683586120605 67.11144256591797 4.917821407318115 61.93166351318359 C 2.649921178817749 56.56974029541016 1.499996185302734 50.87310028076172 1.499996185302734 44.99997711181641 C 1.499996185302734 39.12685394287109 2.649921178817749 33.43021392822266 4.917821407318115 28.06828880310059 C 7.108683586120605 22.88851547241211 10.24540901184082 18.23630142211914 14.24084663391113 14.24085235595703 C 18.23629570007324 10.24540233612061 22.88852119445801 7.108689785003662 28.06829643249512 4.917827129364014 C 33.43022155761719 2.649927139282227 39.12687301635742 1.500002145767212 44.99999618530273 1.500002145767212 C 50.87311935424805 1.500002145767212 56.56977081298828 2.649927139282227 61.93169784545898 4.917827129364014 C 67.11147308349609 7.108689785003662 71.76369476318359 10.24540233612061 75.75914764404297 14.24085235595703 C 79.75458526611328 18.23630142211914 82.89131164550781 22.88851547241211 85.08216857910156 28.06828880310059 C 87.35007476806641 33.43021392822266 88.5 39.12685394287109 88.5 44.99997711181641 C 88.5 50.87310028076172 87.35007476806641 56.56974029541016 85.08216857910156 61.93166351318359 C 82.89131164550781 67.11144256591797 79.75458526611328 71.76364898681641 75.75914764404297 75.75910186767578 C 71.76369476318359 79.75455474853516 67.11147308349609 82.89126586914062 61.93169784545898 85.08213043212891 C 56.56977081298828 87.35002899169922 50.87311935424805 88.49995422363281 44.99999618530273 88.49995422363281 Z" stroke="none"/>
                                <path d="M 44.99999618530273 2.999992370605469 C 39.32870864868164 2.999992370605469 33.82865142822266 4.11004638671875 28.65262603759766 6.299331665039062 C 23.65165710449219 8.414566040039062 19.15968322753906 11.44333648681641 15.301513671875 15.30150604248047 C 11.44333648681641 19.15967559814453 8.414566040039062 23.65163421630859 6.299339294433594 28.65260696411133 C 4.110054016113281 33.82864761352539 2.999992370605469 39.32868957519531 2.999992370605469 44.99997711181641 C 2.999992370605469 50.6712646484375 4.110054016113281 56.17130661010742 6.299339294433594 61.34733581542969 C 8.414566040039062 66.34830474853516 11.44333648681641 70.84026336669922 15.301513671875 74.69844818115234 C 19.15968322753906 78.55661773681641 23.65165710449219 81.58537292480469 28.65262603759766 83.70062255859375 C 33.82865142822266 85.889892578125 39.32870864868164 86.99994659423828 44.99999618530273 86.99994659423828 C 50.67128372192383 86.99994659423828 56.17134094238281 85.889892578125 61.34736633300781 83.70062255859375 C 66.34834289550781 81.58537292480469 70.84030914306641 78.55661773681641 74.69847869873047 74.69844818115234 C 78.55665588378906 70.84026336669922 81.58542633056641 66.34830474853516 83.70065307617188 61.34733581542969 C 85.88993835449219 56.17130661010742 87 50.6712646484375 87 44.99997711181641 C 87 39.32868957519531 85.88993835449219 33.82864761352539 83.70065307617188 28.65260696411133 C 81.58542633056641 23.65163421630859 78.55665588378906 19.15967559814453 74.69847869873047 15.30150604248047 C 70.84030914306641 11.44333648681641 66.34834289550781 8.414566040039062 61.34736633300781 6.299331665039062 C 56.17134094238281 4.11004638671875 50.67128372192383 2.999992370605469 44.99999618530273 2.999992370605469 M 44.99999618530273 -7.62939453125e-06 C 69.85281372070312 -7.62939453125e-06 90 20.14717864990234 90 44.99997711181641 C 90 69.85277557373047 69.85281372070312 89.99994659423828 44.99999618530273 89.99994659423828 C 20.14717864990234 89.99994659423828 -7.62939453125e-06 69.85277557373047 -7.62939453125e-06 44.99997711181641 C -7.62939453125e-06 20.14717864990234 20.14717864990234 -7.62939453125e-06 44.99999618530273 -7.62939453125e-06 Z" stroke="none" fill="#83793c"/>
                              </g>
                            </g>
                          </g>
                        </g>
                      </g>
                    </g>
                  </g>
                </g>
              </g>
            </g>
          </g>
        </g>
      </g>
    </g>
    <g id="memoria" transform="translate(643.485 6982.207)">
      <g id="Grupo_1242638" data-name="Grupo 1242638" transform="translate(0.895 2.672)">
        <path id="Trazado_1220946" data-name="Trazado 1220946" d="M301.68,202.886l-10.17,12.871.554,6.777a1.972,1.972,0,0,1-1.966,2.133H277.969A1.972,1.972,0,0,1,276,222.7v-5.124a7.937,7.937,0,0,1,3.355-6.481L297.014,198.6l.633-9.811a1.959,1.959,0,0,1,3.877-.25l1.624,8.293A7.456,7.456,0,0,1,301.68,202.886Z" transform="translate(-243.931 -165.735)" fill="#ffdfcf"/>
        <path id="Trazado_1220947" data-name="Trazado 1220947" d="M390.795,202.886l-10.171,12.871.554,6.777a1.973,1.973,0,0,1-1.966,2.133H377.2a2.119,2.119,0,0,0,1.586-2.225L378.3,216.6a2.138,2.138,0,0,1,.453-1.5l9.648-12.21a7.456,7.456,0,0,0,1.468-6.055l-1.624-8.293a1.938,1.938,0,0,0-.727-1.175,1.812,1.812,0,0,1,.26-.171,1.959,1.959,0,0,1,2.855,1.346l1.624,8.293A7.456,7.456,0,0,1,390.795,202.886Z" transform="translate(-333.046 -165.735)" fill="#ffcebf"/>
        <g id="Grupo_1242632" data-name="Grupo 1242632" transform="translate(39.02 31.574)">
          <path id="Trazado_1220948" data-name="Trazado 1220948" d="M334.231,284.991l3.377-9.915a2.1,2.1,0,0,1,4.073.936l-.768,6.188-2.9,7.82Z" transform="translate(-334.231 -273.651)" fill="#ffdfcf"/>
          <path id="Trazado_1220949" data-name="Trazado 1220949" d="M334.231,284.991l3.377-9.915a2.1,2.1,0,0,1,4.073.936l-.768,6.188-2.9,7.82Z" transform="translate(-334.231 -273.651)" fill="#ffdfcf"/>
          <path id="Trazado_1220950" data-name="Trazado 1220950" d="M334.231,284.991l3.377-9.915a2.1,2.1,0,0,1,4.073.936l-.768,6.188-2.9,7.82Z" transform="translate(-334.231 -273.651)" fill="#ffdfcf"/>
        </g>
        <g id="Grupo_1242635" data-name="Grupo 1242635" transform="translate(0 21.22)">
          <g id="Grupo_1242634" data-name="Grupo 1242634">
            <g id="Grupo_1242633" data-name="Grupo 1242633">
              <path id="Trazado_1220951" data-name="Trazado 1220951" d="M34.795,217.571V222.7a1.972,1.972,0,0,1-1.972,1.972H20.693a1.972,1.972,0,0,1-1.966-2.133l.554-6.777L9.111,202.886a7.456,7.456,0,0,1-1.468-6.055l1.624-8.293a1.959,1.959,0,0,1,3.877.25l.633,9.811L31.44,211.09a7.937,7.937,0,0,1,3.355,6.481Z" transform="translate(-7.504 -186.955)" fill="#ffdfcf"/>
              <path id="Trazado_1220952" data-name="Trazado 1220952" d="M53.157,217.571V222.7a1.972,1.972,0,0,1-1.972,1.972H49.405a1.723,1.723,0,0,0,1.363-1.685v-5.411a7.937,7.937,0,0,0-3.355-6.481L30.6,199.2a2.175,2.175,0,0,1-.915-1.636l-.566-8.775a1.959,1.959,0,0,0-.761-1.425,1.959,1.959,0,0,1,3.149,1.425l.633,9.811L49.8,211.09A7.937,7.937,0,0,1,53.157,217.571Z" transform="translate(-25.867 -186.955)" fill="#ffcebf"/>
              <path id="Trazado_1220953" data-name="Trazado 1220953" d="M122.73,284.991l-3.377-9.915a2.1,2.1,0,0,0-4.073.936l.768,6.188,2.9,7.82Z" transform="translate(-102.394 -263.297)" fill="#ffdfcf"/>
              <path id="Trazado_1220954" data-name="Trazado 1220954" d="M129.415,284.995l-.778,1.034-.742-.477a2.957,2.957,0,0,1-1.2-1.534l-3.045-8.938a2.088,2.088,0,0,0-.794-1.05,2.071,2.071,0,0,1,1.188-.375,2.123,2.123,0,0,1,.533.068,2.1,2.1,0,0,1,1.462,1.357Z" transform="translate(-109.079 -263.301)" fill="#ffcebf"/>
            </g>
          </g>
        </g>
        <path id="Trazado_1220955" data-name="Trazado 1220955" d="M144.03,30.4V58.039a2.236,2.236,0,0,1-2.236,2.236,3.01,3.01,0,0,1-2.849-2.04l-.659-1.938s-6.974-.2-6.877-7.97c0,0-3.775-3.357-2.166-9.842,1.385-5.582,6.967-6.961,8.581-6.557a4.557,4.557,0,0,1,4.306-3.43,1.9,1.9,0,0,1,1.9,1.9Z" transform="translate(-114.352 -26.202)" fill="#fe76a8"/>
        <path id="Trazado_1220956" data-name="Trazado 1220956" d="M225.177,30.4v27.64a2.235,2.235,0,0,1-2.236,2.236,3.007,3.007,0,0,1-1.752-.563c-.067-.048-.131-.1-.193-.152a2.226,2.226,0,0,0,.6-1.522V30.4a1.9,1.9,0,0,0-.505-1.292,4.12,4.12,0,0,1,2.188-.609,1.9,1.9,0,0,1,1.9,1.9Z" transform="translate(-195.499 -26.199)" fill="#fe5694"/>
        <path id="Trazado_1220957" data-name="Trazado 1220957" d="M270.768,44.605a8.468,8.468,0,0,1-2.141,3.719c.1,7.769-6.877,7.969-6.877,7.969l-.659,1.937a3.01,3.01,0,0,1-2.85,2.041,2.235,2.235,0,0,1-2.236-2.236V30.4a1.9,1.9,0,0,1,1.9-1.9,4.559,4.559,0,0,1,4.307,3.43,4.219,4.219,0,0,1,1.647.035,8.77,8.77,0,0,1,6.934,6.523A11.5,11.5,0,0,1,270.768,44.605Z" transform="translate(-226.328 -26.199)" fill="#fe76a8"/>
        <path id="Trazado_1220958" data-name="Trazado 1220958" d="M272.352,48.324c.1,7.769-6.877,7.969-6.877,7.969l-.659,1.937a3.01,3.01,0,0,1-2.85,2.041,2.225,2.225,0,0,1-1.637-.714,3.007,3.007,0,0,0,.9-1.327l.236-.695a2.149,2.149,0,0,1,1.567-1.407c1.888-.419,5.473-1.9,5.72-7.069a2.138,2.138,0,0,1,.489-1.253c.96-1.17,2.933-4.313,1.689-9.325a8.762,8.762,0,0,0-7.592-6.609,1.68,1.68,0,0,1-1.363-.9,4.762,4.762,0,0,0-1.745-1.867,1.9,1.9,0,0,1,1.395-.609,4.559,4.559,0,0,1,4.307,3.43c1.614-.4,7.2.976,8.581,6.558C276.127,44.967,272.352,48.324,272.352,48.324Z" transform="translate(-230.053 -26.199)" fill="#fe5694"/>
        <path id="Trazado_1220959" data-name="Trazado 1220959" d="M323.576,70.152a9.284,9.284,0,0,1-6.909-12.646,8.77,8.77,0,0,1,6.934,6.523A11.5,11.5,0,0,1,323.576,70.152Z" transform="translate(-279.136 -51.746)" fill="#fe5694"/>
        <g id="Grupo_1242637" data-name="Grupo 1242637" transform="translate(40.422 0)">
          <circle id="Elipse_12843" data-name="Elipse 12843" cx="9.279" cy="9.279" r="9.279" fill="#5de1c4"/>
          <path id="Trazado_1220960" data-name="Trazado 1220960" d="M420.723,18.556a9.292,9.292,0,0,1-10.937,9.131,9.281,9.281,0,0,0,0-18.264,9.292,9.292,0,0,1,10.937,9.133Z" transform="translate(-402.165 -9.276)" fill="#0ed2b3"/>
          <g id="Grupo_1242636" data-name="Grupo 1242636" transform="translate(3.834 5.074)">
            <path id="Trazado_1220961" data-name="Trazado 1220961" d="M382.194,60.171a1.616,1.616,0,0,1-1.146-.475l-2.5-2.529a1.621,1.621,0,1,1,2.292-2.292l1.352,1.382,4-4.022a1.621,1.621,0,0,1,2.292,2.292L383.34,59.7a1.615,1.615,0,0,1-1.146.475Z" transform="translate(-378.075 -51.76)" fill="#f2fbff"/>
          </g>
        </g>
      </g>
      <g id="Grupo_1242639" data-name="Grupo 1242639" transform="translate(-0.001 1.776)">
        <path id="Trazado_1220962" data-name="Trazado 1220962" d="M371.309,51.193l2.5,2.532a2.517,2.517,0,0,0,3.56,0l5.149-5.167A2.517,2.517,0,1,0,378.959,45L375.6,48.378l-.724-.74a2.517,2.517,0,0,0-3.563,3.555ZM372.58,48.9A.725.725,0,0,1,373.6,48.9l1.352,1.382a.9.9,0,0,0,1.275.006l4-4.021a.725.725,0,1,1,1.025,1.027L376.1,52.459a.725.725,0,0,1-1.022,0l-2.5-2.532a.725.725,0,0,1,0-1.026Z" transform="translate(-326.319 -39.187)"/>
        <path id="Trazado_1220963" data-name="Trazado 1220963" d="M139.634,37.64a3.9,3.9,0,0,0,3.7-2.647l.474-1.394a9.1,9.1,0,0,0,3.267-1.133c1.732-1.022,3.777-3.114,3.842-7.3a9.927,9.927,0,0,0,2.156-4.017A10.174,10.174,0,1,0,147.9,8.377a8.723,8.723,0,0,0-3.648-.941h-.03a5.421,5.421,0,0,0-4.87-3.364h-.05a2.785,2.785,0,0,0-1.9.747,2.771,2.771,0,0,0-1.892-.747,5.424,5.424,0,0,0-4.93,3.367h-.018a9.515,9.515,0,0,0-6.056,2.57.9.9,0,1,0,1.217,1.315,8,8,0,0,1,4.438-2.077,4.542,4.542,0,0,0,1.3,3.877.9.9,0,0,0,1.166-1.36c-1.088-.932-.585-3.07-.569-3.136a3.653,3.653,0,0,1,3.408-2.764h.032a1.006,1.006,0,0,1,1,1V34.509a1.341,1.341,0,0,1-1.34,1.34,2.114,2.114,0,0,1-2-1.433l-1.648-5.32a.9.9,0,0,0-1.72.5l.6,2.06c-1.787-.473-4.785-1.99-4.724-6.851,0,0,0,0,0,0s0,0,0,0a4.816,4.816,0,0,1,1.73-3.543,5.4,5.4,0,0,0,3.087,1.572.9.9,0,1,0,.329-1.761,3.345,3.345,0,0,1-2.42-1.458,4.892,4.892,0,0,1-.19-3.5.9.9,0,0,0-1.7-.57,7.108,7.108,0,0,0-.029,4.17,5.99,5.99,0,0,0-2.2,2.969,9.914,9.914,0,0,1-.8-7.511c.064-.257.139-.511.224-.755a.9.9,0,0,0-1.691-.59c-.1.3-.195.6-.271.913-1.463,5.9,1.206,9.414,2.14,10.427.066,4.188,2.11,6.279,3.842,7.3a9.1,9.1,0,0,0,3.267,1.133l.474,1.394a3.9,3.9,0,0,0,3.7,2.647A3.122,3.122,0,0,0,137.4,36.7,3.122,3.122,0,0,0,139.634,37.64ZM157.421,3.567a8.383,8.383,0,1,1-8.383,8.383A8.393,8.393,0,0,1,157.421,3.567Zm-19.128,3.3a1.008,1.008,0,0,1,1.014-1h.032a3.652,3.652,0,0,1,3.4,2.763c.013.052.523,2.2-.569,3.137a.9.9,0,1,0,1.166,1.36,4.54,4.54,0,0,0,1.3-3.875,7.7,7.7,0,0,1,2.772.892,10.143,10.143,0,0,0,4.054,10.051,8.781,8.781,0,0,1-.972,2.515,4.99,4.99,0,0,0-3.239-3.29,6.1,6.1,0,0,0,.033-.758.9.9,0,0,0-1.791.033,2.763,2.763,0,0,1-.645,1.993,2.646,2.646,0,0,1-2.046.549.9.9,0,1,0-.1,1.788q.207.012.4.012a4.142,4.142,0,0,0,2.986-1.058,3.548,3.548,0,0,0,.643-.841c2.148.612,2.373,3.422,2.389,3.687.054,4.849-2.941,6.364-4.724,6.836L145,29.6a.9.9,0,1,0-1.719-.5l-1.648,5.32a2.114,2.114,0,0,1-2,1.433,1.341,1.341,0,0,1-1.34-1.34V6.868Z" transform="translate(-106.824 -1.776)"/>
        <path id="Trazado_1220964" data-name="Trazado 1220964" d="M297.423,190.042l-1.624-8.293a2.855,2.855,0,0,0-4.162-1.961,2.935,2.935,0,0,0-1.488,2.325l-.605,9.384-5.1,3.606.24-1.941a3,3,0,0,0-2.967-3.366,3.024,3.024,0,0,0-.757.1,2.986,2.986,0,0,0-2.086,1.935l-3.237,9.5-3.409,2.411a8.846,8.846,0,0,0-3.733,7.213v5.124a2.871,2.871,0,0,0,2.868,2.868h12.129a2.868,2.868,0,0,0,2.859-3.1l-.525-6.426,5.014-6.345a.9.9,0,1,0-1.406-1.111l-5.232,6.622a.9.9,0,0,0-.19.628l.554,6.777a1.077,1.077,0,0,1-1.073,1.164H271.364a1.078,1.078,0,0,1-1.077-1.077v-5.124a7.052,7.052,0,0,1,2.976-5.75l3.645-2.577a.907.907,0,0,0,.332-.443l3.331-9.778a1.2,1.2,0,0,1,.838-.778,1.213,1.213,0,0,1,1.208.371,1.184,1.184,0,0,1,.289.943l-.767,6.189a.9.9,0,1,0,1.778.22l.228-1.843,6.781-4.795a.9.9,0,0,0,.377-.674l.633-9.812a1.077,1.077,0,0,1,.554-.865,1.063,1.063,0,0,1,1.55.73l1.624,8.293a6.553,6.553,0,0,1-1.291,5.328l-2.335,2.956a.9.9,0,1,0,1.406,1.111l2.335-2.956A8.343,8.343,0,0,0,297.423,190.042Z" transform="translate(-236.43 -158.222)"/>
        <path id="Trazado_1220965" data-name="Trazado 1220965" d="M25.348,203.74l-3.409-2.411-3.237-9.5a2.986,2.986,0,0,0-2.086-1.935,2.988,2.988,0,0,0-3,.92,2.992,2.992,0,0,0-.725,2.349l.241,1.941-5.1-3.606-.605-9.384a2.935,2.935,0,0,0-1.488-2.326,2.855,2.855,0,0,0-4.161,1.961L.155,190.041A8.343,8.343,0,0,0,1.8,196.823l9.952,12.594-.525,6.426a2.868,2.868,0,0,0,2.859,3.1h3.535a.9.9,0,1,0,0-1.791H14.084a1.077,1.077,0,0,1-1.073-1.164l.554-6.777a.9.9,0,0,0-.19-.628L3.2,195.713a6.552,6.552,0,0,1-1.291-5.328l1.624-8.293a1.063,1.063,0,0,1,1.549-.731,1.065,1.065,0,0,1,.389.364,1.054,1.054,0,0,1,.165.5l.633,9.811a.9.9,0,0,0,.377.674l6.78,4.795.228,1.843a.9.9,0,1,0,1.778-.22l-.767-6.189A1.185,1.185,0,0,1,14.96,192a1.2,1.2,0,0,1,2.046.407l3.331,9.778a.913.913,0,0,0,.332.444l3.645,2.577a7.052,7.052,0,0,1,2.976,5.75v5.124a1.078,1.078,0,0,1-1.077,1.077h-4.4a.9.9,0,0,0,0,1.791h4.4a2.871,2.871,0,0,0,2.868-2.868v-5.124a8.847,8.847,0,0,0-3.733-7.213Z" transform="translate(0.001 -158.221)"/>
      </g>
    </g>
  </g>
</svg>
