<svg xmlns="http://www.w3.org/2000/svg" xmlns:xlink="http://www.w3.org/1999/xlink" width="113" height="113" viewBox="0 0 113 113">
  <defs>
    <filter id="Trazado_982547" x="0" y="0" width="113" height="113" filterUnits="userSpaceOnUse">
      <feOffset dy="3" input="SourceAlpha"/>
      <feGaussianBlur stdDeviation="3" result="blur"/>
      <feFlood flood-opacity="0.161"/>
      <feComposite operator="in" in2="blur"/>
      <feComposite in="SourceGraphic"/>
    </filter>
  </defs>
  <g id="Grupo_1242488" data-name="Grupo 1242488" transform="translate(-586.146 -906.962)">
    <g id="Grupo_1242481" data-name="Grupo 1242481">
      <g id="Grupo_1241871" data-name="Grupo 1241871" transform="translate(0 -3985)">
        <g id="Grupo_1241017" data-name="Grupo 1241017" transform="translate(-84.344 -7791.204)">
          <g id="Grupo_1240427" data-name="Grupo 1240427" transform="translate(679.49 12689.167)">
            <g id="Grupo_1239780" data-name="Grupo 1239780" transform="translate(0 0)">
              <g id="Grupo_1236603" data-name="Grupo 1236603">
                <g id="Grupo_1236145" data-name="Grupo 1236145">
                  <g id="Grupo_1235107" data-name="Grupo 1235107">
                    <g id="Grupo_1223796" data-name="Grupo 1223796">
                      <g id="Grupo_1208038" data-name="Grupo 1208038">
                        <g id="Grupo_1202104" data-name="Grupo 1202104">
                          <g id="Grupo_1201923" data-name="Grupo 1201923">
                            <g id="Grupo_1176928" data-name="Grupo 1176928" transform="translate(0)">
                              <g id="Grupo_1172322" data-name="Grupo 1172322">
                                <g id="Grupo_1164700" data-name="Grupo 1164700">
                                  <g id="Grupo_1160931" data-name="Grupo 1160931">
                                    <g id="Grupo_1160749" data-name="Grupo 1160749">
                                      <g id="Grupo_1158891" data-name="Grupo 1158891">
                                        <g id="Grupo_1157406" data-name="Grupo 1157406">
                                          <g id="Grupo_1155793" data-name="Grupo 1155793">
                                            <g id="Grupo_1154704" data-name="Grupo 1154704">
                                              <g id="Grupo_1150790" data-name="Grupo 1150790">
                                                <g id="Grupo_1154214" data-name="Grupo 1154214" transform="translate(0)">
                                                  <g id="Grupo_1152583" data-name="Grupo 1152583">
                                                    <g id="Grupo_1146973" data-name="Grupo 1146973">
                                                      <g id="Grupo_1146954" data-name="Grupo 1146954">
                                                        <g transform="matrix(1, 0, 0, 1, -9, -6)" filter="url(#Trazado_982547)">
                                                          <g id="Trazado_982547-2" data-name="Trazado 982547" transform="translate(9 6)" fill="#c3f3fb">
                                                            <path d="M 47.50000762939453 93.49986267089844 C 41.28937911987305 93.49986267089844 35.26534271240234 92.28383636474609 29.59519386291504 89.88558197021484 C 24.11772727966309 87.56880950927734 19.19814109802246 84.25183868408203 14.97310066223145 80.02679443359375 C 10.74804782867432 75.8017578125 7.431074142456055 70.88218688964844 5.114300727844238 65.40471649169922 C 2.716034412384033 59.73458480834961 1.500007629394531 53.71054458618164 1.500007629394531 47.49993133544922 C 1.500007629394531 41.2893180847168 2.716034412384033 35.26527786254883 5.114300727844238 29.59514427185059 C 7.431074142456055 24.11767768859863 10.74804782867432 19.19810485839844 14.97310066223145 14.97306442260742 C 19.19814109802246 10.74802494049072 24.11772727966309 7.431051254272461 29.59519386291504 5.114277839660645 C 35.26534271240234 2.71602463722229 41.28937911987305 1.499997973442078 47.50000762939453 1.499997973442078 C 53.71063613891602 1.499997973442078 59.73467254638672 2.71602463722229 65.40482330322266 5.114277839660645 C 70.88228607177734 7.431051254272461 75.80187225341797 10.74802494049072 80.02691650390625 14.97306442260742 C 84.25196838378906 19.19810485839844 87.56893920898438 24.11767768859863 89.88571166992188 29.59514427185059 C 92.28398132324219 35.26527786254883 93.50000762939453 41.2893180847168 93.50000762939453 47.49993133544922 C 93.50000762939453 53.71054458618164 92.28398132324219 59.73458480834961 89.88571166992188 65.40471649169922 C 87.56893920898438 70.88218688964844 84.25196838378906 75.8017578125 80.02691650390625 80.02679443359375 C 75.80187225341797 84.25183868408203 70.88228607177734 87.56880950927734 65.40482330322266 89.88558197021484 C 59.73467254638672 92.28383636474609 53.71063613891602 93.49986267089844 47.50000762939453 93.49986267089844 Z" stroke="none"/>
                                                            <path d="M 47.50000762939453 2.999992370605469 C 41.4912223815918 2.999992370605469 35.66377639770508 4.1761474609375 30.17951202392578 6.495796203613281 C 24.88085174560547 8.736930847167969 20.12152862548828 11.94596099853516 16.03376007080078 16.03372955322266 C 11.94597625732422 20.12148284912109 8.736961364746094 24.88080596923828 6.495803833007812 30.17946624755859 C 4.176162719726562 35.66371536254883 3.000007629394531 41.49116134643555 3.000007629394531 47.49993133544922 C 3.000007629394531 53.50870132446289 4.176162719726562 59.33614730834961 6.495803833007812 64.82038879394531 C 8.736961364746094 70.11905670166016 11.94597625732422 74.87836456298828 16.03376007080078 78.96613311767578 C 20.12152862548828 83.05390167236328 24.88085174560547 86.26291656494141 30.17951202392578 88.50406646728516 C 35.66377639770508 90.82369995117188 41.4912223815918 91.99985504150391 47.50000762939453 91.99985504150391 C 53.50879287719727 91.99985504150391 59.33623886108398 90.82369995117188 64.82049560546875 88.50406646728516 C 70.11916351318359 86.26291656494141 74.87848663330078 83.05390167236328 78.96625518798828 78.96613311767578 C 83.05403900146484 74.87836456298828 86.26305389404297 70.11905670166016 88.50421142578125 64.82038879394531 C 90.8238525390625 59.33614730834961 92.00000762939453 53.50870132446289 92.00000762939453 47.49993133544922 C 92.00000762939453 41.49116134643555 90.8238525390625 35.66371536254883 88.50421142578125 30.17946624755859 C 86.26305389404297 24.88080596923828 83.05403900146484 20.12148284912109 78.96625518798828 16.03372955322266 C 74.87848663330078 11.94596099853516 70.11916351318359 8.736930847167969 64.82049560546875 6.495796203613281 C 59.33623886108398 4.1761474609375 53.50879287719727 2.999992370605469 47.50000762939453 2.999992370605469 M 47.50000762939453 -7.62939453125e-06 C 73.73352813720703 -7.62939453125e-06 95.00000762939453 21.26644134521484 95.00000762939453 47.49993133544922 C 95.00000762939453 73.73342132568359 73.73352813720703 94.99985504150391 47.50000762939453 94.99985504150391 C 21.26648712158203 94.99985504150391 7.62939453125e-06 73.73342132568359 7.62939453125e-06 47.49993133544922 C 7.62939453125e-06 21.26644134521484 21.26648712158203 -7.62939453125e-06 47.50000762939453 -7.62939453125e-06 Z" stroke="none" fill="#497f88"/>
                                                          </g>
                                                        </g>
                                                      </g>
                                                    </g>
                                                  </g>
                                                </g>
                                              </g>
                                            </g>
                                          </g>
                                        </g>
                                      </g>
                                    </g>
                                  </g>
                                </g>
                              </g>
                            </g>
                          </g>
                        </g>
                      </g>
                    </g>
                  </g>
                </g>
              </g>
            </g>
          </g>
        </g>
      </g>
    </g>
    <g id="cubano" transform="translate(564.399 926.875)">
      <g id="Grupo_1242486" data-name="Grupo 1242486" transform="translate(52.386 0.984)">
        <path id="Trazado_1220366" data-name="Trazado 1220366" d="M110.622,396.541H58.9l.34-7.108a7.936,7.936,0,0,1,6.826-7.481l.043-.007,7.875-1.06,4.829-.651H90.709l5.189.7,7.515,1.012a7.938,7.938,0,0,1,6.87,7.488Z" transform="translate(-58.901 -331.333)" fill="#fe646f"/>
        <path id="Trazado_1220367" data-name="Trazado 1220367" d="M305.28,389.432a7.938,7.938,0,0,0-6.87-7.488l-7.515-1.012-5.189-.7h-2.361l5.189.7,7.515,1.012a7.938,7.938,0,0,1,6.87,7.488l.34,7.108h2.361Z" transform="translate(-253.899 -331.333)" fill="#fd4755"/>
        <path id="Trazado_1220368" data-name="Trazado 1220368" d="M110.622,504.526H58.9" transform="translate(-58.901 -439.318)" fill="#fe646f"/>
        <path id="Trazado_1220369" data-name="Trazado 1220369" d="M158.118,46.718v8.448a8.27,8.27,0,0,1-.049.905,8.379,8.379,0,0,1-8.33,7.473H131.671a8.377,8.377,0,0,1-8.356-7.773c-.014-.2-.022-.4-.022-.6V46.718a12.222,12.222,0,0,1,12.23-12.232h10.365a12.221,12.221,0,0,1,12.23,12.232Z" transform="translate(-114.845 -30.946)" fill="#766e6e"/>
        <path id="Trazado_1220370" data-name="Trazado 1220370" d="M290.925,43.968a12.234,12.234,0,0,0-11.919-9.482h-2.493c.119,0,.239,0,.357.005a12.234,12.234,0,0,1,11.5,9.213c.022.088.045.176.064.264a12.254,12.254,0,0,1,.311,2.75v8.448a8.255,8.255,0,0,1-.049.905,8.379,8.379,0,0,1-8.33,7.473h2.493a8.379,8.379,0,0,0,8.33-7.473,8.27,8.27,0,0,0,.048-.905V46.718A12.254,12.254,0,0,0,290.925,43.968Z" transform="translate(-247.963 -30.946)" fill="#605a5a"/>
        <path id="Trazado_1220371" data-name="Trazado 1220371" d="M266.257,43.739l-7.432,3.5a14.326,14.326,0,0,1-6.1,1.364l-1.658-5.662,3.7-8.412a12.234,12.234,0,0,1,11.5,9.213Z" transform="translate(-225.852 -30.981)" fill="#605a5a"/>
        <path id="Trazado_1220372" data-name="Trazado 1220372" d="M150.867,329.688l-5.578,7.874A6.481,6.481,0,0,1,140,340.3H124.688a6.481,6.481,0,0,1-5.193-2.6l-5.974-8,10.469-1.41a2.63,2.63,0,0,0,2.279-2.606v-5.592h11.894v5.592a2.63,2.63,0,0,0,2.279,2.606Z" transform="translate(-106.355 -279.076)" fill="#ffcebf"/>
        <path id="Trazado_1220373" data-name="Trazado 1220373" d="M287.116,328.284a2.63,2.63,0,0,1-2.279-2.606v-5.592h-2.493v5.592a2.63,2.63,0,0,0,2.279,2.606l10.425,1.4-5.578,7.874a6.481,6.481,0,0,1-5.289,2.735h2.492a6.481,6.481,0,0,0,5.289-2.735l5.578-7.874Z" transform="translate(-253.03 -279.076)" fill="#ffb09e"/>
        <path id="Trazado_1220374" data-name="Trazado 1220374" d="M157.807,76.391c-.357-.331-.728-.647-1.111-.945a17.109,17.109,0,0,0-10.571-3.641H135.242a17.131,17.131,0,0,0-11.627,4.535,12.23,12.23,0,0,0-.323,2.8v8.448c0,.2.008.405.022.6a11.97,11.97,0,0,1,11.927-11.14h10.883a11.957,11.957,0,0,1,11.944,11.44,8.262,8.262,0,0,0,.049-.905V79.141a12.253,12.253,0,0,0-.311-2.75Z" transform="translate(-114.845 -63.37)" fill="#fe646f"/>
        <path id="Trazado_1220375" data-name="Trazado 1220375" d="M267.7,75.447l-5.659,2.663a11.882,11.882,0,0,0-4.912-1.056h-5.564l-.505-1.727,1.547-3.521h4.522A17.109,17.109,0,0,1,267.7,75.447Z" transform="translate(-225.852 -63.37)" fill="#fd4755"/>
        <g id="Grupo_1242482" data-name="Grupo 1242482" transform="translate(8.448 8.436)">
          <path id="Trazado_1220376" data-name="Trazado 1220376" d="M123.293,116.46v5.881c0,.2.008.405.022.6a11.97,11.97,0,0,1,11.927-11.14H132.75A11.938,11.938,0,0,0,123.293,116.46Z" transform="translate(-123.293 -106.558)" fill="#fe646f"/>
          <path id="Trazado_1220377" data-name="Trazado 1220377" d="M292.5,76.391a17.139,17.139,0,0,0-11.682-4.585h-2.492a17.139,17.139,0,0,1,11.682,4.585,12.254,12.254,0,0,1,.311,2.75v2.62a11.9,11.9,0,0,1,2.444,6.733,8.262,8.262,0,0,0,.049-.905V79.141A12.25,12.25,0,0,0,292.5,76.391Z" transform="translate(-257.985 -71.806)" fill="#fd4755"/>
        </g>
        <path id="Trazado_1220378" data-name="Trazado 1220378" d="M153.242,149.83v4.318a13.462,13.462,0,0,0,26.923,0V149.83a8.02,8.02,0,0,0-8.02-8.02H161.262A8.02,8.02,0,0,0,153.242,149.83Z" transform="translate(-140.865 -124.19)" fill="#ffcebf"/>
        <path id="Trazado_1220379" data-name="Trazado 1220379" d="M253.036,141.81h-2.492a8.02,8.02,0,0,1,8.02,8.02v4.318a13.462,13.462,0,0,1-12.215,13.4c.41.038.826.058,1.246.058a13.462,13.462,0,0,0,13.462-13.462V149.83A8.02,8.02,0,0,0,253.036,141.81Z" transform="translate(-221.755 -124.19)" fill="#ffb09e"/>
        <path id="Trazado_1220380" data-name="Trazado 1220380" d="M244.918,212.613a1.675,1.675,0,0,1-1.675-1.675v-1.859a1.675,1.675,0,0,1,3.351,0v1.859A1.675,1.675,0,0,1,244.918,212.613Z" transform="translate(-219.058 -181.177)" fill="#ffa78f"/>
        <path id="Trazado_1220381" data-name="Trazado 1220381" d="M270.058,19.463l4.476-10.186a2.963,2.963,0,0,1,4.5-1.171l8.386,6.34a2.963,2.963,0,0,1-.525,5.045l-9.074,4.271a14.333,14.333,0,0,1-6.1,1.365Z" transform="translate(-242.355 -7.506)" fill="#fbc56d"/>
        <path id="Trazado_1220382" data-name="Trazado 1220382" d="M298,14.45l-8.386-6.34a2.955,2.955,0,0,0-3.033-.324,2.989,2.989,0,0,1,.54.324l8.386,6.34a2.963,2.963,0,0,1-.525,5.045l-9.074,4.271a14.328,14.328,0,0,1-3.672,1.156l.061.209a14.331,14.331,0,0,0,6.1-1.365l9.074-4.271A2.963,2.963,0,0,0,298,14.45Z" transform="translate(-252.936 -7.509)" fill="#e9b665"/>
        <path id="Trazado_1220383" data-name="Trazado 1220383" d="M119.209,19.463,114.733,9.278a2.963,2.963,0,0,0-4.5-1.171l-8.386,6.34a2.963,2.963,0,0,0,.525,5.045l9.074,4.271a14.334,14.334,0,0,0,6.1,1.365Z" transform="translate(-95.191 -7.506)" fill="#fbc56d"/>
        <path id="Trazado_1220384" data-name="Trazado 1220384" d="M182.268,9.282A2.964,2.964,0,0,0,178.4,7.743a2.94,2.94,0,0,1,1.565,1.539l4.476,10.186-1.607,5.485a14.331,14.331,0,0,0,2.246.178l1.659-5.663Z" transform="translate(-162.726 -7.511)" fill="#e9b665"/>
        <g id="Grupo_1242483" data-name="Grupo 1242483" transform="translate(10.182 41.721)">
          <circle id="Elipse_12827" data-name="Elipse 12827" cx="2.195" cy="2.195" r="2.195" fill="#fbc56d"/>
        </g>
        <path id="Trazado_1220385" data-name="Trazado 1220385" d="M236.326,104.31h-7v-4a1.659,1.659,0,0,1,1.659-1.659h3.685a1.659,1.659,0,0,1,1.659,1.659v4Z" transform="translate(-206.964 -86.689)" fill="#fbc56d"/>
        <path id="Trazado_1220386" data-name="Trazado 1220386" d="M253.553,98.647H251.06a1.659,1.659,0,0,1,1.659,1.659v4h2.492v-4A1.659,1.659,0,0,0,253.553,98.647Z" transform="translate(-225.849 -86.689)" fill="#e9b665"/>
        <g id="Grupo_1242484" data-name="Grupo 1242484" transform="translate(37.105 41.721)">
          <circle id="Elipse_12828" data-name="Elipse 12828" cx="2.195" cy="2.195" r="2.195" fill="#fbc56d"/>
        </g>
        <g id="Grupo_1242485" data-name="Grupo 1242485" transform="translate(16.654 32.482)">
          <path id="Trazado_1220387" data-name="Trazado 1220387" d="M300.315,257.113h-1.725a1.014,1.014,0,1,1,0-2.029h1.725a1.014,1.014,0,1,1,0,2.029Z" transform="translate(-282.915 -255.084)" fill="#ffa78f"/>
          <path id="Trazado_1220388" data-name="Trazado 1220388" d="M188.578,257.113h-1.725a1.014,1.014,0,1,1,0-2.029h1.725a1.014,1.014,0,0,1,0,2.029Z" transform="translate(-185.838 -255.084)" fill="#ffa78f"/>
        </g>
      </g>
      <g id="Grupo_1242487" data-name="Grupo 1242487" transform="translate(51.402 -0.001)">
        <path id="Trazado_1220389" data-name="Trazado 1220389" d="M104.75,59.037a8.893,8.893,0,0,0-1.07-3.828l-.022-.039a8.918,8.918,0,0,0-6.63-4.549,1.055,1.055,0,0,0-.935.406L90.518,58.9a5.509,5.509,0,0,1-4.486,2.319H70.718a5.523,5.523,0,0,1-4.4-2.208l-4.972-6.659L68.45,51.4a1.069,1.069,0,0,0,1.119.642.983.983,0,0,0,.791-.906,3.627,3.627,0,0,0,2.924-3.547V44.518A14.455,14.455,0,0,0,83.21,44.5v3.084a3.627,3.627,0,0,0,2.932,3.549.983.983,0,0,0,.79.906,1.04,1.04,0,0,0,1.119-.642l3.807.512a1.039,1.039,0,0,0,1.107-.844.984.984,0,0,0-.844-1.107L86.6,49.217a1.652,1.652,0,0,1-1.426-1.632V43.6A14.552,14.552,0,0,0,90.7,38.214v3.664a3.179,3.179,0,1,0,1.968,0V32.857a9.413,9.413,0,0,0,3.918-6.641,9.315,9.315,0,0,0,.054-1.013V16.755a14.082,14.082,0,0,0-.23-2.457l.932-.438a3.947,3.947,0,0,0,.7-6.72L89.659.8a3.947,3.947,0,0,0-5.994,1.56l-2.67,6.076H75.5L74.213,5.51l4.85,0a.984.984,0,0,0,0-1.968h0c-1.45,0-4.389,0-5.714,0l-.52-1.183A3.947,3.947,0,0,0,66.835.8L58.449,7.14a3.947,3.947,0,0,0,.7,6.72l.932.438a13.279,13.279,0,0,0-.23,2.457V25.2a9.517,9.517,0,0,0,3.929,7.624v9.051a3.179,3.179,0,1,0,1.968,0V38.214a14.552,14.552,0,0,0,5.568,5.412v3.96a1.652,1.652,0,0,1-1.426,1.632L59.416,50.628a8.954,8.954,0,0,0-7.673,8.408l-.34,7.108a.984.984,0,0,0,.936,1.03h.048a.984.984,0,0,0,.982-.937l.34-7.109a6.925,6.925,0,0,1,.492-2.254l1.024.332a.984.984,0,0,1,.683.939v1.033a2.958,2.958,0,0,0,2.955,2.955.987.987,0,0,1,.988.988v3.07a.984.984,0,0,0,1.968,0v-3.07a2.955,2.955,0,0,0-2.956-2.956.988.988,0,0,1-.987-.987V58.147a2.947,2.947,0,0,0-2.044-2.811l-.618-.2a6.94,6.94,0,0,1,3.914-2.456l5.609,7.511a7.5,7.5,0,0,0,5.981,3H86.032a7.481,7.481,0,0,0,6.092-3.149l5.217-7.366a6.944,6.944,0,0,1,3.94,2.461l-.619.2a2.947,2.947,0,0,0-2.044,2.811v1.033a.988.988,0,0,1-.987.987,2.955,2.955,0,0,0-2.956,2.956v3.07a.984.984,0,1,0,1.968,0v-3.07a.987.987,0,0,1,.988-.988,2.958,2.958,0,0,0,2.955-2.955V58.147a.985.985,0,0,1,.683-.939l1.024-.332a6.938,6.938,0,0,1,.492,2.255l.34,7.108a.984.984,0,0,0,.982.937h.048a.984.984,0,0,0,.936-1.03ZM91.686,46.112A1.211,1.211,0,1,1,92.9,44.9,1.212,1.212,0,0,1,91.686,46.112Zm.984-15.853V26.625a9.015,9.015,0,0,0-5.185-8.152q.4-.16.786-.343l1.422-.669a10.943,10.943,0,0,1,4.93,8.61A7.417,7.417,0,0,1,92.67,30.258ZM75.729,14.6a.676.676,0,0,1,.675-.675h3.685a.676.676,0,0,1,.675.675v3.02H75.729Zm18.833.569a11.544,11.544,0,0,1,.113,1.586v3.065a12.948,12.948,0,0,0-2.951-3.315Zm-9.1-12.018a1.979,1.979,0,0,1,3.005-.782l8.386,6.34a1.979,1.979,0,0,1-.351,3.369L87.433,16.35a13.446,13.446,0,0,1-4.7,1.233V15.855l6.007-4.97a.984.984,0,1,0-1.255-1.516l-5,4.133a2.657,2.657,0,0,0-1.057-1.173ZM80.13,10.4l-.683,1.554h-2.4L76.364,10.4Zm-21.269.089a1.964,1.964,0,0,1,.775-1.784l8.386-6.34a1.979,1.979,0,0,1,3.005.782l4.033,9.177A2.656,2.656,0,0,0,74,13.5l-5-4.133a.984.984,0,0,0-1.255,1.516l6.007,4.97v1.727a13.449,13.449,0,0,1-4.7-1.233l-9.074-4.271a1.964,1.964,0,0,1-1.126-1.586Zm2.957,9.266a40.866,40.866,0,0,1,.114-4.59l2.812,1.323A12.973,12.973,0,0,0,61.818,19.759Zm2.945,26.352A1.211,1.211,0,1,1,65.974,44.9,1.212,1.212,0,0,1,64.763,46.112Zm.984-15.169V26.625a7.078,7.078,0,0,1,.18-1.588.984.984,0,1,0-1.918-.442,9.044,9.044,0,0,0-.23,2.03v3.589A7.392,7.392,0,0,1,61.844,25.8a10.969,10.969,0,0,1,4.932-8.351l1.447.681q.374.176.758.331a9,9,0,0,0-2.392,1.628.984.984,0,1,0,1.354,1.428,7.006,7.006,0,0,1,4.841-1.93H83.666A7.044,7.044,0,0,1,90.7,26.625v4.318a12.478,12.478,0,0,1-24.955,0Z" transform="translate(-51.402 0.001)"/>
        <path id="Trazado_1220390" data-name="Trazado 1220390" d="M238.4,207.08a2.662,2.662,0,0,0,2.659-2.66v-1.859a2.659,2.659,0,0,0-5.319,0v1.859A2.663,2.663,0,0,0,238.4,207.08Zm-.691-4.519a.691.691,0,0,1,1.383,0v1.859a.691.691,0,1,1-1.383,0Z" transform="translate(-211.557 -173.675)"/>
        <path id="Trazado_1220391" data-name="Trazado 1220391" d="M190.053,212.115a.984.984,0,0,0-.984.984v1.955a.984.984,0,1,0,1.968,0V213.1A.984.984,0,0,0,190.053,212.115Z" transform="translate(-171.007 -184.286)"/>
        <path id="Trazado_1220392" data-name="Trazado 1220392" d="M308.941,216.038a.984.984,0,0,0,.984-.984V213.1a.984.984,0,1,0-1.968,0v1.955A.984.984,0,0,0,308.941,216.038Z" transform="translate(-274.298 -184.286)"/>
        <path id="Trazado_1220393" data-name="Trazado 1220393" d="M239.615,285.1a.984.984,0,0,0-1.7-.986,1.227,1.227,0,0,1-1.058.611,1.212,1.212,0,0,1-.863-.358,1.2,1.2,0,0,1-.192-.25.984.984,0,1,0-1.706.98,3.187,3.187,0,0,0,2.762,1.6A3.2,3.2,0,0,0,239.615,285.1Z" transform="translate(-210.01 -246.415)"/>
        <path id="Trazado_1220394" data-name="Trazado 1220394" d="M245.042,434.807q-.173.008-.348.008h-.774c-.118,0-.238,0-.357-.008a.984.984,0,1,0-.089,1.966c.148.007.3.01.446.01h.774c.144,0,.29,0,.435-.01a.984.984,0,1,0-.087-1.966Z" transform="translate(-217.459 -377.759)"/>
        <path id="Trazado_1220395" data-name="Trazado 1220395" d="M291.205,415.181a7.75,7.75,0,0,1-1.053.9.984.984,0,1,0,1.143,1.6,9.711,9.711,0,0,0,1.321-1.135.984.984,0,0,0-1.412-1.371Z" transform="translate(-258.471 -360.451)"/>
        <path id="Trazado_1220396" data-name="Trazado 1220396" d="M199.936,415.129a.984.984,0,1,0-1.413,1.37,9.7,9.7,0,0,0,1.32,1.137.984.984,0,0,0,1.145-1.6A7.723,7.723,0,0,1,199.936,415.129Z" transform="translate(-178.98 -360.405)"/>
      </g>
    </g>
  </g>
</svg>
