<svg xmlns="http://www.w3.org/2000/svg" xmlns:xlink="http://www.w3.org/1999/xlink" width="295" height="294" viewBox="0 0 295 294">
  <defs>
    <clipPath id="clip-path">
      <rect id="Rectángulo_424219" data-name="Rectángulo 424219" width="295" height="294" transform="translate(0 -0.176)" fill="#fff" stroke="#707070" stroke-width="1"/>
    </clipPath>
    <linearGradient id="linear-gradient" x1="-3.199" y1="-1.944" x2="-3.357" y2="-1.585" gradientUnits="objectBoundingBox">
      <stop offset="0" stop-color="#4b6c80"/>
      <stop offset="1" stop-color="#708b97"/>
    </linearGradient>
  </defs>
  <g id="Enmascarar_grupo_1211499" data-name="Enmascarar grupo 1211499" transform="translate(0 0.176)" clip-path="url(#clip-path)">
    <g id="Grupo_1242641" data-name="Grupo 1242641" transform="translate(-9.5 -31.367)">
      <path id="Trazado_1220967" data-name="Trazado 1220967" d="M2026.211,800.42c-.547.008-.58.038-1.009-.29l-.013-.583c.555-.387.81-.233,1.467-.156Z" transform="translate(-1791.185 -739.017)" fill="#fecb90"/>
      <path id="Trazado_1220968" data-name="Trazado 1220968" d="M554.967,1169.434l.385-.058c.521.346.54.31.693.911l-.342.55-.62.093-.4-.331C554.568,1169.956,554.639,1169.961,554.967,1169.434Z" transform="translate(-538.326 -1054.346)" fill="#fffce3"/>
      <path id="Trazado_1220969" data-name="Trazado 1220969" d="M797.313,912.461c.6.132.577.11.93.614a1.366,1.366,0,0,1-.5.965c-.565-.059-.574-.124-.989-.526l.018-.58Z" transform="translate(-744.6 -835.441)" fill="#fffce3"/>
      <path id="Trazado_1220970" data-name="Trazado 1220970" d="M1763.671,837.1l.008.756a2.115,2.115,0,0,1-1.53.24c-.391-.144-.417-.2-.565-.558C1762.257,836.955,1762.817,837.112,1763.671,837.1Z" transform="translate(-1566.603 -771.221)" fill="#fecb90"/>
      <path id="Trazado_1220971" data-name="Trazado 1220971" d="M660.716,891.466a4.056,4.056,0,0,0,1.026.229,4.908,4.908,0,0,1-.289,2.377l-.463-.2A4.5,4.5,0,0,1,660.716,891.466Z" transform="translate(-628.68 -817.552)" fill="#fecb90"/>
      <path id="Trazado_1220972" data-name="Trazado 1220972" d="M1727.063,723.278a3.072,3.072,0,0,1,.757-.113,1.564,1.564,0,0,1,.714.781,1.362,1.362,0,0,1-.539,1.077l-.525.093a1.663,1.663,0,0,1-.844-.872A1.214,1.214,0,0,1,1727.063,723.278Z" transform="translate(-1536.82 -674.151)" fill="#fee5af"/>
      <path id="Trazado_1220973" data-name="Trazado 1220973" d="M1757.207,518.707a2.123,2.123,0,0,1,.849.074,1.588,1.588,0,0,1,.6.891,1.539,1.539,0,0,1-.779.944,1.3,1.3,0,0,1-.7-.055,1.4,1.4,0,0,1-.613-.889C1756.7,519.088,1756.74,519.088,1757.207,518.707Z" transform="translate(-1562.33 -499.93)" fill="#fee5af"/>
      <path id="Trazado_1220974" data-name="Trazado 1220974" d="M1450.5,391.891a2.258,2.258,0,0,1,.629.07,1.607,1.607,0,0,1,.692.983,1.665,1.665,0,0,1-.608,1.053l-.609.057a1.558,1.558,0,0,1-.777-.934C1449.931,392.361,1449.968,392.376,1450.5,391.891Z" transform="translate(-1300.996 -391.886)" fill="#fee5af"/>
      <path id="Trazado_1220975" data-name="Trazado 1220975" d="M2484.421,1675.878a1.193,1.193,0,0,1,.785.065,1.168,1.168,0,0,1,.669.987c.044.551-.3.809-.669,1.135l-.788,0a1.487,1.487,0,0,1-.7-1.049A1.954,1.954,0,0,1,2484.421,1675.878Z" transform="translate(-2181.835 -1485.881)" fill="#fee5af"/>
      <path id="Trazado_1220976" data-name="Trazado 1220976" d="M2357.992,858.6a2.714,2.714,0,0,1,.977-.079c.549.4.544.38.692,1.044-.178.614-.154.682-.692,1.08l-.623.033a1.476,1.476,0,0,1-.806-.787C2357.522,859.162,2357.473,859.179,2357.992,858.6Z" transform="translate(-2074.325 -789.472)" fill="#fffce3"/>
      <path id="Trazado_1220977" data-name="Trazado 1220977" d="M2105.044,1061.86a1.558,1.558,0,0,1,1.031.351,1.852,1.852,0,0,1,.186,1.228,1.338,1.338,0,0,1-.943.7l-.556-.1a1.56,1.56,0,0,1-.616-1.307A1.771,1.771,0,0,1,2105.044,1061.86Z" transform="translate(-1858.452 -962.736)" fill="#fee5af"/>
      <path id="Trazado_1220978" data-name="Trazado 1220978" d="M1112.611,585.176a2.414,2.414,0,0,1,.877.173c.32.39.6.682.458,1.231s-.366.654-.808.965a1.3,1.3,0,0,1-1.05-.365,1.349,1.349,0,0,1-.326-1.052A1.82,1.82,0,0,1,1112.611,585.176Z" transform="translate(-1012.979 -556.575)" fill="#fee5af"/>
      <path id="Trazado_1220979" data-name="Trazado 1220979" d="M583.761,1489.4l.466-.157a6.873,6.873,0,0,1,1.042,2.771,4.465,4.465,0,0,0,.3.936l-.12.419c-.471.292-.567.327-.805.819C584.477,1492.569,583.584,1491.054,583.761,1489.4Z" transform="translate(-563.123 -1326.887)" fill="#417183"/>
      <path id="Trazado_1220980" data-name="Trazado 1220980" d="M1774.881,824.9a5.657,5.657,0,0,1,0-1.931l.324-.2c.213.078.389.065.479.295a5.658,5.658,0,0,1,.153,1.689c.646.3,1.175-.07,1.908.234l.04.421c-.629.557-1.2.129-1.793.406-.167.079-.2,1.043-.212,1.269a.917.917,0,0,1-.313.787c-.487-.117-.459-.089-.722-.514a6.931,6.931,0,0,1,.146-1.7Z" transform="translate(-1577.814 -759.021)" fill="#fee5af"/>
      <path id="Trazado_1220981" data-name="Trazado 1220981" d="M2256.634,1799.319l.2-.045a.7.7,0,0,0,.4-.173,4.912,4.912,0,0,0-.1.5l.051.287a41.049,41.049,0,0,1-2.4,3.708c-.73,1.087-1.4,2.229-2.225,3.245a1.228,1.228,0,0,1-.32-.946c.489-.224.917-1.271,1.214-1.755A47.745,47.745,0,0,1,2256.634,1799.319Z" transform="translate(-1984.624 -1590.903)" fill="#417183"/>
      <path id="Trazado_1220982" data-name="Trazado 1220982" d="M646.7,874.23a4.76,4.76,0,0,1-2.3-.163l-.163-.415a2,2,0,0,1,.4-.413c.552-.307,1.669.37,2.089-.289-.029-.605-.2-1.237.187-1.713.563.085.568.053.93.485a4.346,4.346,0,0,0,.036,1.579,4.448,4.448,0,0,1,2.1.263l.159.439c-.747.585-1.723-.064-2.41.456A4.062,4.062,0,0,1,646.7,874.23Z" transform="translate(-614.666 -800.316)" fill="#fee5af"/>
      <path id="Trazado_1220983" data-name="Trazado 1220983" d="M2032.538,787.258l.545,0c.215-.775.015-1.635.579-2.207.312.121.44.145.579.485a4.741,4.741,0,0,1,.127,1.523c.308.209.153.19.411.151a2.477,2.477,0,0,1,1.2.054l.343.409c-.135.481-.127.445-.562.7l-1.313-.277c-.266.8.107,1.822-.43,2.445l-.621-.02c-.527-.667.172-1.961-.437-2.331l-.869.1Z" transform="translate(-1797.066 -726.885)" fill="#fee5af"/>
      <path id="Trazado_1220984" data-name="Trazado 1220984" d="M2287.745,1739.89a7.029,7.029,0,0,0,.758.324l-4.314,6.615c-.561.854-1.083,1.825-1.721,2.615l-.051-.287a5.033,5.033,0,0,1,.1-.505.694.694,0,0,1-.4.173l-.2.044Z" transform="translate(-2009.906 -1540.452)" fill="#5c8c9b"/>
      <path id="Trazado_1220985" data-name="Trazado 1220985" d="M2451.252,1401.382c.085-.62.022-1.66.433-2.1l.52.03c.547.756-.2,1.958.909,2.137l.934.127a.834.834,0,0,1,.175.878c-.651.4-1.422-.308-1.834.327a3.261,3.261,0,0,1-.354,1.935l-.351.012a3.662,3.662,0,0,1-.383-2.3,2.16,2.16,0,0,1-1.684-.188l0-.51C2450.184,1401.242,2450.521,1401.381,2451.252,1401.382Z" transform="translate(-2152.778 -1250.237)" fill="#fecb90"/>
      <path id="Trazado_1220986" data-name="Trazado 1220986" d="M2532.545,1762.2l-1.761-.114-.242-.322.171-.614c.7-.386,1.166.135,1.765-.263l.041-1.667.453-.388c.223.043.437,0,.554.227.3.575-.194,1.932.409,2.153l.595.033a1.441,1.441,0,0,1,1.124.366l.072.415c-.2.188-.3.406-.589.384a3.5,3.5,0,0,1-.743-.162,1.33,1.33,0,0,0-1.006.02l.194,1.513c-.066.52-.213.562-.609.843l-.365-.125A4.247,4.247,0,0,1,2532.545,1762.2Z" transform="translate(-2221.725 -1556.594)" fill="#fee5af"/>
      <path id="Trazado_1220987" data-name="Trazado 1220987" d="M1291.438,737.308a2.056,2.056,0,0,1,1.106-.118,1.849,1.849,0,0,1,1.271.891,2.109,2.109,0,0,1,.118,1.508,2.031,2.031,0,0,1-1.065,1.228l-.849.1a1.862,1.862,0,0,1-1.21-.625,1.816,1.816,0,0,1-.4-1.426A2.133,2.133,0,0,1,1291.438,737.308Z" transform="translate(-1165.168 -686.077)" fill="#fee5af"/>
      <path id="Trazado_1220988" data-name="Trazado 1220988" d="M2347.5,1637.02a1.5,1.5,0,0,0,1.065.4l.2.048c-1.272.513-2.24,2.6-2.969,3.774-1.508,2.422-2.97,5.03-4.683,7.3l-.328-.678Z" transform="translate(-2060.058 -1452.802)" fill="#5c8c9b"/>
      <path id="Trazado_1220989" data-name="Trazado 1220989" d="M1613.52,532.15a1.477,1.477,0,0,1,.5-.142,2.074,2.074,0,0,1,1.661.63,2.11,2.11,0,0,1,.393,1.793c-.1.605-.615.931-1.1,1.228a3.487,3.487,0,0,1-.786.177,1.573,1.573,0,0,1-1.213-.487c-.6-.556-.5-1.129-.517-1.883A3.008,3.008,0,0,1,1613.52,532.15Z" transform="translate(-1439.555 -511.267)" fill="#fee5af"/>
      <path id="Trazado_1220990" data-name="Trazado 1220990" d="M740.582,1047.591a1.853,1.853,0,0,1,.81.094,1.974,1.974,0,0,1,1.137,1.166,2.587,2.587,0,0,1-.195,1.9,2.113,2.113,0,0,1-1.446.813,2.135,2.135,0,0,1-.733-.064,1.766,1.766,0,0,1-1.035-.944,2.256,2.256,0,0,1,0-1.834A2.134,2.134,0,0,1,740.582,1047.591Z" transform="translate(-695.338 -950.572)" fill="#e68b57"/>
      <path id="Trazado_1220991" data-name="Trazado 1220991" d="M927.762,675a1.977,1.977,0,0,1,1.146.075,2.212,2.212,0,0,1,1.241,1.13,2.493,2.493,0,0,1-.017,1.769,2.093,2.093,0,0,1-1.354,1.156,4.009,4.009,0,0,1-1.067,0,2.007,2.007,0,0,1-1.243-.956,2.374,2.374,0,0,1-.18-1.831A2.5,2.5,0,0,1,927.762,675Z" transform="translate(-854.874 -633.07)" fill="#fee5af"/>
      <path id="Trazado_1220992" data-name="Trazado 1220992" d="M1052.133,2519.865a1.923,1.923,0,0,1,2.255.955,2.623,2.623,0,0,1,.24,1.934,2.251,2.251,0,0,1-1.329,1.365,3.754,3.754,0,0,1-1.254.01,2.032,2.032,0,0,1-1.238-1.148,2.344,2.344,0,0,1-.131-1.733A2.593,2.593,0,0,1,1052.133,2519.865Z" transform="translate(-960.842 -2204.96)" fill="#fee5af"/>
      <path id="Trazado_1220993" data-name="Trazado 1220993" d="M2419.1,2156.755a2.554,2.554,0,0,1,1.207-.1,2.1,2.1,0,0,1,1.352.92,2.162,2.162,0,0,1,.21,1.771,2.217,2.217,0,0,1-1.239,1.442,3.134,3.134,0,0,1-1.127.078,2.242,2.242,0,0,1-1.438-1.007,2.323,2.323,0,0,1-.271-1.788C2418.021,2157.356,2418.46,2157.106,2419.1,2156.755Z" transform="translate(-2125.597 -1895.532)" fill="#fee5af"/>
      <path id="Trazado_1220994" data-name="Trazado 1220994" d="M1145.637,850.644a1.129,1.129,0,0,1,.706.07c.4.625.242,2.089.259,2.846a4.329,4.329,0,0,1,2.712.417l.026.438c-.532.514-2.016.475-2.754.553a12,12,0,0,1-.341,2.628c-.393.169-.331.106-.7-.042a5.429,5.429,0,0,1-.264-2.6l-1.924-.191c-.5-.124-.514-.185-.748-.607l.135-.338a5.8,5.8,0,0,1,2.525-.229C1145.267,852.655,1145.079,851.423,1145.637,850.644Z" transform="translate(-1039.26 -782.747)" fill="#fecb90"/>
      <path id="Trazado_1220995" data-name="Trazado 1220995" d="M1840.22,610.981a2.917,2.917,0,0,1,1.316.049,2.1,2.1,0,0,1,1.372,1.087,2.34,2.34,0,0,1,.084,1.907,2.594,2.594,0,0,1-1.51,1.6,4.345,4.345,0,0,1-1.068,0,2.416,2.416,0,0,1-1.558-1.024,2.146,2.146,0,0,1-.347-1.672l.043-.189a2.777,2.777,0,0,1,.149-.529A2.37,2.37,0,0,1,1840.22,610.981Z" transform="translate(-1632.103 -578.52)" fill="#fee5af"/>
      <path id="Trazado_1220996" data-name="Trazado 1220996" d="M588.571,1517.956c.238-.492.334-.527.805-.819a2.6,2.6,0,0,0,.885,2.018,17.571,17.571,0,0,0,1.5,3.863,44.846,44.846,0,0,0,2.543,6.018l0,3.2-.889-1c.051-.638-4.089-10.96-4.651-11.846l-.415-1.281Z" transform="translate(-567.047 -1350.656)" fill="#4f6d81"/>
      <path id="Trazado_1220997" data-name="Trazado 1220997" d="M447.571,1834.784l.262-.032c1.241.12.618,2.062,1.063,2.646.158.207,1.61.226,2.107.662.049.267.157.434,0,.676a1.947,1.947,0,0,1-1.279.705,2.462,2.462,0,0,0-.863.343v.18a2.528,2.528,0,0,1-.83,2.2l-.357-.088a4.026,4.026,0,0,1-.57-2.432l-1.339-.184a1.469,1.469,0,0,1-1.277-.732l.1-.438a2.392,2.392,0,0,1,1.933-.8c.2-.018.34.008.48-.217.016-.027.015-.554.018-.634A2.4,2.4,0,0,1,447.571,1834.784Z" transform="translate(-444.486 -1621.279)" fill="#fecb90"/>
      <path id="Trazado_1220998" data-name="Trazado 1220998" d="M2033.95,1178.781a3.286,3.286,0,0,1,1.292-.029,2.667,2.667,0,0,1,1.677,1.345,2.9,2.9,0,0,1,.209,2.293,3.065,3.065,0,0,1-1.753,1.639,4.32,4.32,0,0,1-1.713-.033,2.16,2.16,0,0,1-1.3-1.1,3.285,3.285,0,0,1-.1-2.641A2.708,2.708,0,0,1,2033.95,1178.781Z" transform="translate(-1797.013 -1062.288)" fill="#fee5af"/>
      <path id="Trazado_1220999" data-name="Trazado 1220999" d="M2393.969,1613.43c1.573-1.381,3.787-3.282,6.017-3.169a1.874,1.874,0,0,1,1.459.594,1.624,1.624,0,0,1,.324,1.454,2.551,2.551,0,0,1-1.1,1.618c-1.6.951-5.27.729-7.14.737l-.2-.048A4.109,4.109,0,0,1,2393.969,1613.43Z" transform="translate(-2104.823 -1429.997)" fill="#fecb90"/>
      <path id="Trazado_1221000" data-name="Trazado 1221000" d="M2402.41,1551.957c.784-2.038,2.576-8,4.421-8.988a1.239,1.239,0,0,1,1.138-.033,1.739,1.739,0,0,1,.994,1.175,3.387,3.387,0,0,1-.655,2.464c-1.419,2.223-3.934,3.61-5.359,5.88Z" transform="translate(-2112.562 -1372.533)" fill="#fee5af"/>
      <path id="Trazado_1221001" data-name="Trazado 1221001" d="M2154.6,933.8c.872.378,1.24,2.683,1.618,3.624l.731.133.963.2a1.225,1.225,0,0,1,.748.779c-.757.78-1.888.509-2.643,1.228-.82.779-.393,2.03-1.431,2.884-.978-.5-.56-1.593-1.006-2.441-.57-1.085-1.465-.787-2.433-1.174-.42-.168-.464-.294-.64-.673a1.5,1.5,0,0,1,.833-.67,7.8,7.8,0,0,1,1.616-.129c.119,0,.289.085.358-.012a5.539,5.539,0,0,0,.208-.773C2153.772,935.863,2153.914,934.474,2154.6,933.8Z" transform="translate(-1897.951 -853.626)" fill="#fecb90"/>
      <path id="Trazado_1221002" data-name="Trazado 1221002" d="M2175.96,956.333c.391.027.989.766,1.283,1.053a8.144,8.144,0,0,0-.757.877c-.143.292-.085.312-.405.445A2.622,2.622,0,0,1,2175.96,956.333Z" transform="translate(-1919.444 -872.823)" fill="#0f1b30"/>
      <path id="Trazado_1221003" data-name="Trazado 1221003" d="M717.683,2399.82a3.592,3.592,0,0,1,1.8-.031,2.99,2.99,0,0,1,1.748,1.372,2.761,2.761,0,0,1,.244,2.08,3.43,3.43,0,0,1-1.923,2.149,4.01,4.01,0,0,1-1.137.1,3.369,3.369,0,0,1-2.269-1.524,2.836,2.836,0,0,1-.267-2.16A3.075,3.075,0,0,1,717.683,2399.82Z" transform="translate(-675.62 -2102.633)" fill="#fee5af"/>
      <path id="Trazado_1221004" data-name="Trazado 1221004" d="M545.546,1495.951a8.934,8.934,0,0,1-5.836-1.623,5.034,5.034,0,0,1-2.076-3.125,1.621,1.621,0,0,1,.533-1.357,2.351,2.351,0,0,1,1.812-.074c2.444.661,3.924,2.852,5.152,4.9Z" transform="translate(-523.835 -1327.215)" fill="#fecb90"/>
      <path id="Trazado_1221005" data-name="Trazado 1221005" d="M570.145,1437.611c-1.282-2.037-2.816-4.9-2.279-7.37a2.214,2.214,0,0,1,1.023-1.584,1.948,1.948,0,0,1,1.594-.05,2.548,2.548,0,0,1,1.409,1.58c.712,2.01.056,4.746-.854,6.6a4.348,4.348,0,0,1-.427.668Z" transform="translate(-549.507 -1275.099)" fill="#fecb90"/>
      <path id="Trazado_1221006" data-name="Trazado 1221006" d="M595.444,1479.367c.769-1.936,1.919-5.017,3.989-5.875a1.729,1.729,0,0,1,1.608.015,1.874,1.874,0,0,1,.663,1.584,6.966,6.966,0,0,1-2.378,4.855,10.062,10.062,0,0,1-3.117,1.858,2.6,2.6,0,0,1-.885-2.018Z" transform="translate(-572.994 -1313.305)" fill="#fecb90"/>
      <path id="Trazado_1221007" data-name="Trazado 1221007" d="M2074.689,1322.33a4.547,4.547,0,0,1,1.821.371,3.6,3.6,0,0,1,1.672,2.042,3.233,3.233,0,0,1-.313,2.56,2.94,2.94,0,0,1-2.257,1.494,5.486,5.486,0,0,1-2.042-.42,2.856,2.856,0,0,1-1.467-1.668,3.623,3.623,0,0,1,.264-2.936A3.311,3.311,0,0,1,2074.689,1322.33Z" transform="translate(-1830.993 -1184.67)" fill="#e68b57"/>
      <path id="Trazado_1221008" data-name="Trazado 1221008" d="M1795.519,2544.619a4.888,4.888,0,0,1,1.076.063,3.669,3.669,0,0,1,2.493,1.743,3.262,3.262,0,0,1,.265,2.542c-.4,1.312-1.23,1.736-2.381,2.3a7.884,7.884,0,0,1-1.683-.007,3.2,3.2,0,0,1-1.91-1.552,3.616,3.616,0,0,1-.263-2.777A4,4,0,0,1,1795.519,2544.619Z" transform="translate(-1593.326 -2230.584)" fill="#fee5af"/>
      <path id="Trazado_1221009" data-name="Trazado 1221009" d="M2366.91,1568.3a12.817,12.817,0,0,1-3.075-5.905,7.579,7.579,0,0,1,.825-6.027,21.442,21.442,0,0,1,3.4,4.9c.336.716.43,2.282.95,2.74l.305-.5.539.5c-.4.924-1.312,2.523-1.24,3.511a4.036,4.036,0,0,0-.643,1.186A1.5,1.5,0,0,1,2366.91,1568.3Z" transform="translate(-2079.47 -1384.084)" fill="#7a9299"/>
      <path id="Trazado_1221010" data-name="Trazado 1221010" d="M789.988,1135.38l.491.176a6.69,6.69,0,0,1,.654,2.647,9.876,9.876,0,0,1,2.021-1.1c.469.16.511.159.794.56a6.583,6.583,0,0,1-1.5,1.94c.832.144,1.964-.044,2.633.568.3.277.224.277.24.65-.859.809-1.894.848-3.024,1.086a21.005,21.005,0,0,1,1.744,2.052c-.118.487-.133.474-.538.776-.842-.12-1.42-.916-2.177-.984-.691-.062-.429,1.638-.675,2.07a2.284,2.284,0,0,1-.45.438l-.374-.082a8.33,8.33,0,0,1-.966-2.72,12.675,12.675,0,0,1-2.1,1.4c-.373-.194-.38-.241-.577-.62a6.473,6.473,0,0,1,1.351-2.486,5.475,5.475,0,0,1-2.879-.935l.074-.368a5.354,5.354,0,0,1,2.6-.7c-.4-.62-1.236-1.616-1.241-2.348a1.276,1.276,0,0,1,.758-.533,7.512,7.512,0,0,1,2.073,1.281C789.136,1137.2,789.232,1136.006,789.988,1135.38Z" transform="translate(-734.303 -1025.379)" fill="#e68b57"/>
      <path id="Trazado_1221011" data-name="Trazado 1221011" d="M2157.875,1164.259a1.781,1.781,0,0,1,.734-.13c.973.081,1.612,1.235,2.122,1.952a5.8,5.8,0,0,1,.854-1.234,1.6,1.6,0,0,1,1.313-.519,1.753,1.753,0,0,1,.921.905,2.777,2.777,0,0,1-.246,2.214l-.1.233.215.164a4.428,4.428,0,0,1,2.013-.167,2,2,0,0,1,1.006,1.268c.092.524-.021.585-.305,1a5.808,5.808,0,0,1-2.218.452l.839.479a2.01,2.01,0,0,1,1.148,1.451,1.952,1.952,0,0,1-.635,1.354,2.381,2.381,0,0,1-2.012-.341l-.186-.087c-.2.968.093,1.636-.426,2.583-.327.262-.4.211-.8.247-1.141-.66-.965-1.369-1.545-2.353a3.262,3.262,0,0,1-1.606,1.52,1.354,1.354,0,0,1-1.156-.38,1.7,1.7,0,0,1,.064-1.42l.089-.246-.747.122a4.224,4.224,0,0,1-.875.133,1.6,1.6,0,0,1-1.19-.66,1.157,1.157,0,0,1-.048-.775c.239-.886,1.137-1.366,1.887-1.766l.247-.13c-1.018-.539-2.12-.895-2.617-2.011a1.3,1.3,0,0,1,.759-.948c.881-.463,2.042.088,2.895.387a12.488,12.488,0,0,1-.72-2.353C2157.467,1164.689,2157.566,1164.685,2157.875,1164.259Z" transform="translate(-1901.447 -1049.871)" fill="#e68b57"/>
      <path id="Trazado_1221012" data-name="Trazado 1221012" d="M564.642,1563.823c.659-2.247,1.669-4.255,3.767-5.464a2.828,2.828,0,0,1,1.838-.375,2.573,2.573,0,0,1,.872,2.106,10.352,10.352,0,0,1-3.126,7.127,11.828,11.828,0,0,1-2.069,1.651l-.557-.292c-.139.443-.108.472-.5.711a11.62,11.62,0,0,1-7.07-1.029c-1.493-.723-3.809-2.321-4.213-4.045-.083-.354-.1-.437.112-.727a2.2,2.2,0,0,1,1.525-.775c2.945-.336,6.34,1.49,8.526,3.313l.888,1Z" transform="translate(-537.387 -1385.443)" fill="#fecb90"/>
      <path id="Trazado_1221013" data-name="Trazado 1221013" d="M1266.129,2487.447c.015-.719-.077-.824.43-1.37a1.994,1.994,0,0,1,1.576.229,10.7,10.7,0,0,1,1.951,1.557c.042-.942-.114-1.923.585-2.659a1.292,1.292,0,0,1,1.015-.439,1.146,1.146,0,0,1,.65,1,8.447,8.447,0,0,1,.042,1.805l.22.1.164-.148a2.625,2.625,0,0,1,1.889-.93,1.637,1.637,0,0,1,.887.392,2.266,2.266,0,0,1-.076,1.488l-.624.744.036.215,2.538.159a1.235,1.235,0,0,1,.961.694,1.721,1.721,0,0,1-.426,1.065c-.524.629-2.106.606-2.9.7a5.72,5.72,0,0,1,2.8,2.357c.021.572.1.694-.258,1.158-1.1.281-2.845-.748-3.876-1.2a8.056,8.056,0,0,1,.845,2.672,1.485,1.485,0,0,1-.553,1.4h-.365a9.3,9.3,0,0,1-2.368-3.025c-.463.881-1.094,2.615-1.908,3.142a.948.948,0,0,1-.92-.248c-.764-.709-.356-2.972-.3-3.915l-.151.073-.254.115a4.147,4.147,0,0,1-1.209.429,2.008,2.008,0,0,1-1.75-.329c-.278-.244-.21-.371-.247-.715a4.964,4.964,0,0,1,2.281-2.15l-1.217-.292a3.105,3.105,0,0,1-1.9-1.505,1.159,1.159,0,0,1,.5-.915,10.974,10.974,0,0,1,3.636.415A15.405,15.405,0,0,1,1266.129,2487.447Z" transform="translate(-1142.421 -2175.123)" fill="#e68b57"/>
      <path id="Trazado_1221014" data-name="Trazado 1221014" d="M2285.152,1609.126a6.258,6.258,0,0,0,1.6-.833l.08.165a39.9,39.9,0,0,0,2.4,3.694,25.22,25.22,0,0,1,2.943,6.582,16.886,16.886,0,0,1,.273,4.657l.328.678c-.2.427-.585.905-.436,1.361,3.95-1.677,8.045-2.374,12.146-.657a2.427,2.427,0,0,1,1.388,1.074,2.349,2.349,0,0,1-.146,1.861,4.093,4.093,0,0,1-2.772,1.829c-3.776.927-9.106.053-12.639-1.451a6.939,6.939,0,0,1-.758-.324,10.9,10.9,0,0,1-2.168-3.17,32.217,32.217,0,0,1-2.782-7.074C2283.934,1614.734,2283.625,1611.676,2285.152,1609.126Z" transform="translate(-2011.726 -1428.325)" fill="#7a9299"/>
      <path id="Trazado_1221015" data-name="Trazado 1221015" d="M596.292,1629.69l.557.292.181.221a19.593,19.593,0,0,1,1.663,2.87l3.616,7.166,3.848,7.512c-1.092-4.9-1.059-9.971,1.743-14.34.7-1.084,1.791-2.8,3.072-3.109a.938.938,0,0,1,.865.515c1.5,1.975,1.474,5.627,1.091,7.956a20.4,20.4,0,0,1-3.348,7.78,19.554,19.554,0,0,1-1.691,2.22c-.074.081-.623.622-.633.673-.013.069,1,1.75,1.119,1.956l5.59,10.384c.91,1.738,1.741,3.572,2.753,5.248.038-4.831.358-9.313,4.024-12.92l.33-.311.053.218c.741,2.967,2.982,5.917,3.088,8.958a10.524,10.524,0,0,1-1.771,5.347,11.883,11.883,0,0,1-2.542,3.369l-.275.26a9.635,9.635,0,0,1,1.816,3.406,6.475,6.475,0,0,0-3.127-1.761c-.281-2.053-1.766-4.072-2.724-5.9l-4.891-9.2c-1.528-2.812-2.891-5.8-4.656-8.474l-1.932.539a13.971,13.971,0,0,1-11.072-1.607,6.633,6.633,0,0,1-3.213-3.9,1.9,1.9,0,0,1,1.367-.912c4.322-1.2,9.228.216,13.033,2.329l-6.455-12.384c-.451-.964-1.123-3.161-1.978-3.695C596.185,1630.161,596.154,1630.132,596.292,1629.69Z" transform="translate(-568.313 -1446.556)" fill="#4f6d81"/>
      <path id="Trazado_1221016" data-name="Trazado 1221016" d="M1841.035,838.519l-.03-.182-.044-.3c-.4-2.669.779-6.086,1.432-8.7l1.934-7.777,4.895-18.893c2.339,6.908,3.89,14.171,5.645,21.252.9,3.624,2.108,7.271,2.771,10.939a16.5,16.5,0,0,1,.174,2.867l-.1.189c-.313.57-.516,1.183-.866,1.737a8.985,8.985,0,0,1-4.895,3.744,9.261,9.261,0,0,1-4.469.208l-.246-.05a9.016,9.016,0,0,1-5.534-3.928l-.635-1.09Z" transform="translate(-1634.159 -741.886)" fill="#fee5af"/>
      <path id="Trazado_1221017" data-name="Trazado 1221017" d="M1462.655,482.68l.75-.125c.456.374.244.35.041.879a21.689,21.689,0,0,0-1.746,10.673,20.444,20.444,0,0,0,7.5,13.484,21.208,21.208,0,0,0,16.167,4.045l-1.042,1.835c-3.289,5.25-8.355,8.2-14.266,9.588l-1.5.215a20.831,20.831,0,0,1-15.1-4.375,20.079,20.079,0,0,1-7.264-13.1,20.869,20.869,0,0,1,2.487-12.734C1451.725,487.7,1456.782,484.322,1462.655,482.68Z" transform="translate(-1187.723 -429.059)" fill="#fee5af"/>
      <path id="Trazado_1221018" data-name="Trazado 1221018" d="M1777.015,957.4a36.675,36.675,0,0,1-.436-6.848c.261-4.85,2.12-9.039,4.4-13.237.925,2.562,1.628,5.268,2.333,7.9.644,2.4,1.174,6,2.816,7.922l.1.112.027.011.635,1.09a9.017,9.017,0,0,0,5.534,3.928l.246.05a9.259,9.259,0,0,0,4.469-.208,8.983,8.983,0,0,0,4.9-3.744c.35-.554.553-1.167.866-1.737l.1-.189.139-.172a14.824,14.824,0,0,0,1.437-3.817l2.772-8.316a9.528,9.528,0,0,1,1.066-2.621,22.936,22.936,0,0,1,3.288,9.692c.359,3.991-.481,7.858-1.04,11.781a74.169,74.169,0,0,0-.853,10.91c.034,6,1.266,11.768,1.941,17.7a64.524,64.524,0,0,1,.338,9.561,53.549,53.549,0,0,1-1.44,9.711c-1.077,4.792-3.193,10.453-2.051,15.374a15.633,15.633,0,0,0,2.014,4.21l-.284-.176a8.266,8.266,0,0,1-2.85-3.566c-2.583-5.85-.089-11.515.7-17.415a21.127,21.127,0,0,0-.094-6.964c-1.064-5.306-4.731-9.206-9.4-11.717-3.358-1.807-6.941-3.064-10.135-5.207C1780.919,976.3,1778.692,965.827,1777.015,957.4Z" transform="translate(-1579.351 -856.616)" fill="#4f6d81"/>
      <path id="Trazado_1221019" data-name="Trazado 1221019" d="M1889.977,1141.128l.339-.029a1.645,1.645,0,0,1,1.352.565,2.257,2.257,0,0,1,.317,1.6,1.845,1.845,0,0,1-1.068,1.277,3.268,3.268,0,0,1-.876.041,1.588,1.588,0,0,1-1.079-.812,2.025,2.025,0,0,1-.188-1.674A2.081,2.081,0,0,1,1889.977,1141.128Z" transform="translate(-1674.887 -1030.249)" fill="#020d24"/>
      <path id="Trazado_1221020" data-name="Trazado 1221020" d="M1957.612,1110.292a1.534,1.534,0,0,1,.624,0,1.693,1.693,0,0,1,1.179.836,2.073,2.073,0,0,1,.055,1.8c-.227.533-.653.654-1.133.877a1.4,1.4,0,0,1-.571-.018,1.685,1.685,0,0,1-1.217-.838,2.017,2.017,0,0,1-.1-1.69C1956.694,1110.682,1957.1,1110.539,1957.612,1110.292Z" transform="translate(-1732.5 -1003.976)" fill="#020d24"/>
      <path id="Trazado_1221021" data-name="Trazado 1221021" d="M1818.052,1102.876l.833-.086a1.619,1.619,0,0,1,1.052.662,2.175,2.175,0,0,1,.366,1.88,2.053,2.053,0,0,1-1.225,1.053.973.973,0,0,1-.379.052,1.854,1.854,0,0,1-1.39-.667,1.984,1.984,0,0,1-.388-1.666A1.885,1.885,0,0,1,1818.052,1102.876Z" transform="translate(-1613.706 -997.613)" fill="#020d24"/>
      <path id="Trazado_1221022" data-name="Trazado 1221022" d="M1843.94,1174.24a36.118,36.118,0,0,0,4.293,4.391,35.334,35.334,0,0,0,4.65,2.531,26.921,26.921,0,0,1,6.773,5.152l-10.741-5.3C1846.064,1179.5,1844.855,1177.237,1843.94,1174.24Z" transform="translate(-1636.767 -1058.49)" fill="#020d24"/>
      <path id="Trazado_1221023" data-name="Trazado 1221023" d="M2080.421,1300.947l-.1-.149a3.969,3.969,0,0,1-.114-1.639,14.491,14.491,0,0,1,1.224-5.989c.715-1.623,1.945-3.475,3.675-4.125a4.765,4.765,0,0,1,3.812.193,9.922,9.922,0,0,1,3.148,2.623c-.606-2.448-1.823-4.641-2.328-7.117l-.06-.28a9.08,9.08,0,0,1,1.572-6.895,6.412,6.412,0,0,1,4.184-2.908,7.383,7.383,0,0,1,5.047,1.091c-.48-4.081.026-7.12,2.619-10.419a38.318,38.318,0,0,1,5.219-4.975l4.893-4.448-.043.247a11.124,11.124,0,0,0,.146,4.653c1.019,3.872,2.656,7.627,1.385,11.676a50.038,50.038,0,0,1-2.458,5.616l.2.026a3.948,3.948,0,0,1,2.985,1.75,7.522,7.522,0,0,1,1.206,5.749c-.607,3.453-3.086,6.129-5.9,8.049l-2.507,1.537a1.639,1.639,0,0,0,.783.143,6.777,6.777,0,0,1,4.64,2.457,5.23,5.23,0,0,1,1.122,4.338c-.311,2.64-1.96,4.017-3.573,5.895a6.232,6.232,0,0,1-1.6.833l-7.069,1.293a10.742,10.742,0,0,1,1.7,1.606,7.829,7.829,0,0,1,1.375,5.762,5.96,5.96,0,0,1-1.587,2.988c-3.252,3.3-7.922,1.669-11.932,2.072a13.256,13.256,0,0,0-5.829,2.086c-4.483,3.009-5.487,7.96-6.393,12.925l-1.568-2.766a4.981,4.981,0,0,1-.265-2.432c.344-4.22,3.8-6.733,6.1-9.911a29.609,29.609,0,0,0,3.529-6.427c1.275-3.2,2.038-7.136.56-10.408a7.9,7.9,0,0,0-4.3-4.316l-.267-.088A9.731,9.731,0,0,0,2080.421,1300.947Z" transform="translate(-1836.167 -1128.078)" fill="#d57a4a"/>
      <path id="Trazado_1221024" data-name="Trazado 1221024" d="M699.653,1318.678a5.9,5.9,0,0,1-4.221-1.742,2.559,2.559,0,0,1-.541-2.015,3.961,3.961,0,0,1,1.8-2.607l.2-.154c-2.559-.232-4.587-.14-7.035-1.108a9.769,9.769,0,0,1-5.8-5.331,5.983,5.983,0,0,1-.265-4.859c.888-2.008,3.017-2.756,4.922-3.454a25.158,25.158,0,0,1-4.132-1.739c-2.994-1.659-6.191-4.627-7.093-8.05a5.692,5.692,0,0,1,.282-4.411,6.666,6.666,0,0,1,4.174-2.732l.2-.042-2.294-3.67a26.994,26.994,0,0,1-2.572-19.717,21.319,21.319,0,0,1,6.9,3.943c2.642,2.135,5.622,5.564,5.977,9.072l.028.288a6.359,6.359,0,0,1,2.049-2.477,4.671,4.671,0,0,1,3.422-.561,7.1,7.1,0,0,1,4.3,3.381,13.217,13.217,0,0,1,1.675,10.349l-.071.275a9.481,9.481,0,0,1,2.024-1.882,5.8,5.8,0,0,1,4.262-.72l.21.052.574.164a7.443,7.443,0,0,1,4.036,4.541,14.371,14.371,0,0,1,.922,3.851l-.778,2.815a5.885,5.885,0,0,1,.019,1.629,12.033,12.033,0,0,0,.017,3.374c.512,1.551.774,3.131,1.41,4.647,1.288,3.072,3.35,5.32,3.623,8.818a4.581,4.581,0,0,1-.306,2.491,7.059,7.059,0,0,1-3.836,3.011l-1.279.19a37.755,37.755,0,0,0-10.025,2.726C701.451,1317.493,700.61,1318.215,699.653,1318.678Z" transform="translate(-642.112 -1129.045)" fill="#e68b57"/>
      <path id="Trazado_1221025" data-name="Trazado 1221025" d="M908.447,1483.832l1.139-3.134a5.884,5.884,0,0,1,.019,1.629,12.025,12.025,0,0,0,.017,3.375l-.9.421-1.3.845Z" transform="translate(-838.891 -1319.606)" fill="#417183"/>
      <path id="Trazado_1221026" data-name="Trazado 1221026" d="M778.824,1443.809c-.473-1.2-1.918-2.531-2.672-3.667l-17.427-24.986-3.135-4.222a6.284,6.284,0,0,1-1.239-1.888,22.606,22.606,0,0,1,2.06,2.606l3.792,5.073,12.791,17.186c2.351,3.236,4.415,6.747,7.109,9.708Z" transform="translate(-708.479 -1258.556)" fill="#d57a4a"/>
      <path id="Trazado_1221027" data-name="Trazado 1221027" d="M883.644,922.327a5.705,5.705,0,0,1-.185-2.352l-.082-5.026-.09-37.973-4.05.025.053-17.514-3.794.06,7.018-17.8,4.293,11.351a52.507,52.507,0,0,1,2.331,6.654l-3.456-.129-.181,13.592,7.245-15.979a8.248,8.248,0,0,1-3.026-6.75c.317-2.972,2.021-6.283,3.085-9.087l4.37-11.762,4.352,11.806c.891,2.4,2.04,4.858,2.734,7.3a7.115,7.115,0,0,1,.228,2.972l-.045.259-.151.767a7.267,7.267,0,0,1-3.54,4.465l-.219.116,1.909,6.43,5.769-15.038,6.294,16.6-6.422-.01.107,14.737,15.625-5.185A18.783,18.783,0,0,1,918.1,879.8c-2.417,1.394-5.1,2.448-7.342,4.113a14.638,14.638,0,0,0-4.543,5.563,15.069,15.069,0,0,0-1.165,8.447,30.352,30.352,0,0,0,3.844,10.766c-3.049,1.456-6.278,2.053-9.5,2.967C893.359,913.37,886.705,916.51,883.644,922.327Z" transform="translate(-811.689 -764.868)" fill="#4f6d81"/>
      <path id="Trazado_1221028" data-name="Trazado 1221028" d="M986.353,1263.812a6.364,6.364,0,0,1,1.8-.006,3.832,3.832,0,0,1,2.267,1.879,3.546,3.546,0,0,1,.157,2.658,3.742,3.742,0,0,1-2.556,2.1,7.533,7.533,0,0,1-2.139-.1,2.641,2.641,0,0,1-1.52-1.315,3.7,3.7,0,0,1-.488-2.754A4.179,4.179,0,0,1,986.353,1263.812Z" transform="translate(-903.937 -1134.746)" fill="#020d24"/>
      <path id="Trazado_1221029" data-name="Trazado 1221029" d="M995.558,939.33a5.881,5.881,0,0,1,2.366.28,4.362,4.362,0,0,1,2.651,2.4,4.6,4.6,0,0,1-.081,3.689,5.253,5.253,0,0,1-3.195,2.635,6.137,6.137,0,0,1-2.319-.271,4.571,4.571,0,0,1-2.7-6.276A5.1,5.1,0,0,1,995.558,939.33Z" transform="translate(-910.837 -858.319)" fill="#fee5af"/>
      <path id="Trazado_1221030" data-name="Trazado 1221030" d="M2078.556,1809.019a60.421,60.421,0,0,1,8.557-6.252,11.739,11.739,0,0,1,2.816-1.576c-.714,6.576-2.413,11.319-7.7,15.552l-3.273,2.6.16.11a27.348,27.348,0,0,1,8.532-4.3,28.435,28.435,0,0,1-1.754,6.016c-1.9,4.161-5.467,7.316-8.847,10.262a29.487,29.487,0,0,1,6.968-1.883c-1.9,7.149-7.336,11.867-13.152,15.966l7.811-1.32c-1.027,5.663-4.2,9.638-8.879,12.887l-5.368,3.247,6.64-.208c-2.844,6.35-8.571,9.769-14.649,12.55a37.386,37.386,0,0,1,5.172,1.3c-2.78,3.525-6.876,6.087-10.735,8.275a46.674,46.674,0,0,1-19.843,6.565l-1.654.129,2.022-2.254a28.556,28.556,0,0,0,5.791-20.338,51.743,51.743,0,0,0-2.745-10.581,66.623,66.623,0,0,1-2.476-7.479l-.046-.212a13.184,13.184,0,0,1,.346-3.892c.708-2.7,3.629-5.158,5.923-6.531a10.1,10.1,0,0,1,.155,2.49l.411,5.218a8.218,8.218,0,0,0,.294,2.307c.323-.542.09-2.581.1-3.3a31.938,31.938,0,0,1,.5-6.173,13.827,13.827,0,0,1,1.137-3.549c1.279-2.4,3.523-4.081,5.732-5.555l3.371-2.109-.022-.55,3.5-5.51a11.42,11.42,0,0,0,1.379-2.173l5.735-7.978.621.267a21.685,21.685,0,0,0,7.539,2.149.721.721,0,0,1,.472.122C2071.851,1811.164,2075.448,1810.513,2078.556,1809.019Z" transform="translate(-1794.734 -1592.684)" fill="#e68b57"/>
      <path id="Trazado_1221031" data-name="Trazado 1221031" d="M2170.086,1970.053c.526-.359.527-.4,1.134-.318a27.67,27.67,0,0,0-1.9,7.722c-.166,1.781-.115,3.6-.351,5.366-.075-1.831-.177-3.676-.129-5.508.055-2.027.6-4.643.225-6.6l.227-.049.247.451.243.051A1.665,1.665,0,0,0,2170.086,1970.053Z" transform="translate(-1913.558 -1736.263)" fill="#0f1b30"/>
      <path id="Trazado_1221032" data-name="Trazado 1221032" d="M2221.534,2108.728l.388-.026-.387.227c-3.091,1.688-7.573,3.525-11.07,2.49l-.562-.046-.117-.189c1.793-.258,3.591-.435,5.368-.794C2217.314,2109.955,2219.409,2109.292,2221.534,2108.728Z" transform="translate(-1948.454 -1854.698)" fill="#d57a4a"/>
      <path id="Trazado_1221033" data-name="Trazado 1221033" d="M2159.468,2190.405l.527-.051.047.226a14.99,14.99,0,0,1-4.191,1.829,38.548,38.548,0,0,1-5.4,1.563,17.539,17.539,0,0,1-3.635.366l-.3-.01-.6.814-.235.421-.125-.071a2.212,2.212,0,0,1,.317-.641l.12-.148v-.263c.3-.2.183-.168.5-.231l.2-.032a1.851,1.851,0,0,1,.242-.263,5.084,5.084,0,0,1,1.071-.289l3.9-.979Z" transform="translate(-1893.731 -1924.271)" fill="#d57a4a"/>
      <path id="Trazado_1221034" data-name="Trazado 1221034" d="M2178.458,1865.99l.621.267a21.687,21.687,0,0,0,7.54,2.15.72.72,0,0,1,.471.121,20.97,20.97,0,0,0-3.437,3.063c-2.308,2.752-3.169,6.155-3.64,9.636l-.033.248-.2-8.25c-3.531,1.785-7.766,4.358-9.394,8.145-.607-.078-.607-.041-1.134.318a1.67,1.67,0,0,1-.305,1.117l-.243-.052-.248-.451-.226.049-.359-.149-.022-.55,3.5-5.51a11.4,11.4,0,0,0,1.38-2.173Z" transform="translate(-1912.724 -1647.896)" fill="#020d24"/>
      <path id="Trazado_1221035" data-name="Trazado 1221035" d="M2178.46,1865.99l.621.267-8.318,12.236c-.426.651-2.057,2.593-1.983,3.284l.474-.09a1.663,1.663,0,0,1-.306,1.117l-.243-.052-.248-.45-.226.049-.359-.15-.022-.55,3.5-5.51a11.417,11.417,0,0,0,1.379-2.173Z" transform="translate(-1912.725 -1647.896)" fill="#417183"/>
      <path id="Trazado_1221036" data-name="Trazado 1221036" d="M611.842,1866.715c-4.766-.692-9.556-1.176-14.162-2.691-7.342-2.416-19.2-8.277-22.807-15.468l6.282-.784c-7.538-3.014-13-7.918-16.344-15.346l8.324,1.245-2.476-1.553c-6.318-4.024-11.1-9.626-12.752-17.07l6.958,1.5-.342-.281c-5.426-4.486-8.963-9.484-9.641-16.638l7.329,3.205-1.762-1.447c-3.936-3.665-6.4-7.869-6.59-13.329a26.6,26.6,0,0,1,4,3.3c-.419-1.074-1.222-2.033-1.732-3.08a21.592,21.592,0,0,1-2.056-11.148,33.99,33.99,0,0,1,5.41,3.545,47.651,47.651,0,0,1,9.544,9.217c1.528,2.035,2.8,4.389,4.471,6.29-.632-3.058-1.983-5.97-2.433-9.047,8.043,3.336,13.13,11.994,16.634,19.565a48.205,48.205,0,0,0-.389-5.372,3.079,3.079,0,0,1,.362-2.1A6.476,6.476,0,0,1,590.8,1801a40.866,40.866,0,0,1,8.841,14.735c.635,1.73,1.1,3.57,1.871,5.241l-.991-11.8a38.7,38.7,0,0,1,10.271,16.48L605.5,1839.53a27.411,27.411,0,0,0-1.772,7.557,23.016,23.016,0,0,0,.7,5.405l4.553,9.586.817,1.354Z" transform="translate(-537.668 -1572.189)" fill="#e68b57"/>
      <path id="Trazado_1221037" data-name="Trazado 1221037" d="M805.846,2318.942l-14.307-4.745a58.707,58.707,0,0,1-7.567-2.456,68.578,68.578,0,0,1,14.077,3.311,62.9,62.9,0,0,1,6.979,2.535Z" transform="translate(-733.715 -2027.699)" fill="#d57a4a"/>
      <path id="Trazado_1221038" data-name="Trazado 1221038" d="M628.392,1895.166l-20.758-8.688.159-.132,1,.236a97.408,97.408,0,0,1,17.833,6.439,121.352,121.352,0,0,0-6.741-11.941,10.254,10.254,0,0,0-1.526-2.178,16.729,16.729,0,0,0-3.068-1.185l-9.445-3.817-4.469-1.821a15.034,15.034,0,0,1-2.855-1.315c6.4,1.4,12.633,4.087,18.75,6.412l0-.112-7.036-9.792c-.93-1.259-2.032-3.19-3.3-4.115a21.1,21.1,0,0,0-2.846-1.456l-5.1-2.677-5.715-3.013a14.721,14.721,0,0,1-2.253-1.2,6.86,6.86,0,0,1,2.222.635,63.879,63.879,0,0,1,6.176,2.674,66.415,66.415,0,0,1,6.29,3.2l-9.636-11.733c-4.116-5.034-8.611-10.021-11.611-15.831a24.349,24.349,0,0,1-2.476-6.538c.712,1.141,1.244,2.442,1.87,3.64a49.379,49.379,0,0,0,3.2,5.29c5.408,7.8,11.9,14.7,17.883,22.035l12.015,15.914,6.587,10.452a32.546,32.546,0,0,0-.533-5.381l-2.12-15.79a16.335,16.335,0,0,1-.409-4.208,30.3,30.3,0,0,1,1.055,4.625c1.087,5.059,2.105,10.078,2.766,15.216.355,2.76.371,5.983,1.358,8.587a13.425,13.425,0,0,0,1.822,3.846l.208-1.688A23,23,0,0,0,628.392,1895.166Z" transform="translate(-561.631 -1614.863)" fill="#d57a4a"/>
      <path id="Trazado_1221039" data-name="Trazado 1221039" d="M1019.311,1583.54c8.541,3.305,16.106,7.347,19.979,16.162l4.626,12.068,6.152,17.548,7.346,20.458,2.95,8.485a27.324,27.324,0,0,0,1.47,4.371l.046.211a66.655,66.655,0,0,0,2.475,7.479,51.71,51.71,0,0,1,2.745,10.581,28.552,28.552,0,0,1-5.79,20.337l-2.022,2.255-.187.075c-.788.364-1.5.98-2.264,1.41a47.672,47.672,0,0,1-6.438,3c.2-2.656.479-4.864-.851-7.294-1.551,2.134-2.44,5.036-3.491,7.466a8.9,8.9,0,0,1-1.07,2.185c-.984.74-3.143,1.139-4.331,1.55a175.156,175.156,0,0,1-19.164,5.534l-10.788,2.127c-.78.7-1.652,1.537-2.789,1.431a3.983,3.983,0,0,1-2.423-1.139c-1.443,1.025-4.175.976-5.929,1.165-4.543.493-9.154,1.042-13.727,1.084a16.274,16.274,0,0,1-3.109.217l-6.713-.106-18.308-1.609a2.266,2.266,0,0,0,.077-1.488,1.642,1.642,0,0,0-.887-.392,2.623,2.623,0,0,0-1.889.931l-.164.148-.22-.1a8.452,8.452,0,0,0-.043-1.805,1.146,1.146,0,0,0-.649-1,1.29,1.29,0,0,0-1.015.439c-.7.736-.543,1.717-.585,2.659a10.66,10.66,0,0,0-1.952-1.557,1.993,1.993,0,0,0-1.575-.229c-.508.546-.416.651-.431,1.37-8.22-2.16-17.53-2.8-25.005-7.185l-.638-6.624-2.068,5.713a13.532,13.532,0,0,1-3.415.332,20.33,20.33,0,0,1-15.455-6.461c-1.028-1.087-1.778-2.386-2.826-3.448l-.127-.125-2.043-3.281-.817-1.355-4.553-9.586a23.028,23.028,0,0,1-.7-5.406,27.418,27.418,0,0,1,1.772-7.557l5.288-13.875c.98-1.514,1.582-3.95,2.242-5.666l3.926-9.942,11.527-27.915c2.151-5.089,4.075-10.472,6.671-15.34,3.171-5.948,7.632-11.663,13.465-15.172a31.663,31.663,0,0,1,7.279-3.109c4.045,11.13,11.874,19.009,22.554,23.975,9.005,4.187,19.781,4.163,28.99.754,8.095-3,14.929-8.906,19.9-15.876a41.37,41.37,0,0,0,4.116-6.837Z" transform="translate(-824.666 -1407.235)" fill="#4f6d81"/>
      <path id="Trazado_1221040" data-name="Trazado 1221040" d="M1218.979,1631.61a4.353,4.353,0,0,1,.918-.1,1.33,1.33,0,0,1,.666.578.843.843,0,0,1-.039.842c-.406.857-1.735,1.354-2.551,1.715a1.514,1.514,0,0,1-1.4-.449l-.045-.477A6.133,6.133,0,0,1,1218.979,1631.61Z" transform="translate(-1102.235 -1448.103)" fill="#fee5af"/>
      <path id="Trazado_1221041" data-name="Trazado 1221041" d="M1494.6,1792.29a1.215,1.215,0,0,1,.928.493,5.948,5.948,0,0,1,.365,3.367,1.4,1.4,0,0,1-.734,1.155l-.612-.024a1.7,1.7,0,0,1-.614-.566,5.576,5.576,0,0,1-.206-3.127A1.8,1.8,0,0,1,1494.6,1792.29Z" transform="translate(-1338.295 -1585.099)" fill="#fee5af"/>
      <path id="Trazado_1221042" data-name="Trazado 1221042" d="M1719.534,1689.975a1.471,1.471,0,0,1,.414-.057,2.023,2.023,0,0,1,1.255.759,4.246,4.246,0,0,1,1.394,2.807c-.276.437-.322.418-.814.594a5.364,5.364,0,0,1-2.135-1.49,2.285,2.285,0,0,1-.93-1.647A1.6,1.6,0,0,1,1719.534,1689.975Z" transform="translate(-1530.081 -1497.873)" fill="#fee5af"/>
      <path id="Trazado_1221043" data-name="Trazado 1221043" d="M1668.077,1735.165a1.158,1.158,0,0,1,.853.095c1.046.508,1.677,2.187,2,3.238-.162.614-.248.6-.741.961a1.6,1.6,0,0,1-.9-.337,5.194,5.194,0,0,1-2.091-2.992A1.665,1.665,0,0,1,1668.077,1735.165Z" transform="translate(-1486.192 -1536.396)" fill="#fee5af"/>
      <path id="Trazado_1221044" data-name="Trazado 1221044" d="M1365.923,1766.92c.458-.07.668-.189,1.054.127a1.486,1.486,0,0,1,.541,1.189c-.014.957-1.2,2.336-1.826,2.977a3.8,3.8,0,0,1-.7.222,1.526,1.526,0,0,1-.4-.254,1.289,1.289,0,0,1-.35-1.026A5.488,5.488,0,0,1,1365.923,1766.92Z" transform="translate(-1228.075 -1563.414)" fill="#fee5af"/>
      <path id="Trazado_1221045" data-name="Trazado 1221045" d="M1305.917,1734.849c.457-.074.8-.2,1.214.108a1.277,1.277,0,0,1,.482,1.032,7.262,7.262,0,0,1-2.145,2.748l-.612.227a1.319,1.319,0,0,1-1.039-.607l.018-.51A5.481,5.481,0,0,1,1305.917,1734.849Z" transform="translate(-1176.603 -1536.08)" fill="#fee5af"/>
      <path id="Trazado_1221046" data-name="Trazado 1221046" d="M1615.009,1764.327a1.469,1.469,0,0,1,1.165,0,7.857,7.857,0,0,1,1.862,3.857c.006.494-.118.461-.445.783l-.44.152a1.261,1.261,0,0,1-.518-.232,6.02,6.02,0,0,1-1.866-3.257A1.381,1.381,0,0,1,1615.009,1764.327Z" transform="translate(-1441.467 -1561.171)" fill="#fee5af"/>
      <path id="Trazado_1221047" data-name="Trazado 1221047" d="M1556.151,1785.631a3.864,3.864,0,0,1,.72-.127,2.4,2.4,0,0,1,.379.307,6.9,6.9,0,0,1,1.013,3.68c-.061.575-.362.725-.779,1.039l-.525.037-.406-.337a6.624,6.624,0,0,1-1.09-3.634C1555.51,1786.145,1555.838,1785.917,1556.151,1785.631Z" transform="translate(-1390.986 -1579.318)" fill="#fee5af"/>
      <path id="Trazado_1221048" data-name="Trazado 1221048" d="M1254.563,1690.039l.255-.044c.57-.025.7.145,1.133.483.119.294.3.514.2.833-.361,1.2-1.735,1.887-2.768,2.412a1.3,1.3,0,0,1-1.228-.23,1.263,1.263,0,0,1-.256-1.174A6.755,6.755,0,0,1,1254.563,1690.039Z" transform="translate(-1132.337 -1497.937)" fill="#fee5af"/>
      <path id="Trazado_1221049" data-name="Trazado 1221049" d="M1758.314,1630.928a4.992,4.992,0,0,1,2.977.993,2.328,2.328,0,0,1,1.089,1.561c.017.6-.116.651-.525,1.039a1.938,1.938,0,0,1-1.283-.128,5.489,5.489,0,0,1-2.831-2.413C1757.794,1631.314,1757.8,1631.369,1758.314,1630.928Z" transform="translate(-1563.328 -1447.596)" fill="#fee5af"/>
      <path id="Trazado_1221050" data-name="Trazado 1221050" d="M1428.079,1788.25a1.336,1.336,0,0,1,.929,0,1.778,1.778,0,0,1,.7,1.34,4.653,4.653,0,0,1-1.214,3.323l-.219.118c-.539.165-.658,0-1.066-.309a2.818,2.818,0,0,1-.345-1.641A3.686,3.686,0,0,1,1428.079,1788.25Z" transform="translate(-1281.426 -1581.586)" fill="#fee5af"/>
      <path id="Trazado_1221051" data-name="Trazado 1221051" d="M1033.935,2370.529c.49-.072.708-.156,1.15.131a2.992,2.992,0,0,1,.943,1.955,6.8,6.8,0,0,1-1.172,5.107c-.324.256-.272.2-.646.208a6.054,6.054,0,0,1-1.325-4.1A4.066,4.066,0,0,1,1033.935,2370.529Z" transform="translate(-945.777 -2077.729)" fill="#020d24"/>
      <path id="Trazado_1221052" data-name="Trazado 1221052" d="M1856.747,2374.2c.212-.049.21-.081.422,0a3.7,3.7,0,0,1,1.56,1.859,10.645,10.645,0,0,1,.4,7.969l-.236.526-.29.056-.351-.458C1856.874,2382.1,1856.323,2376.557,1856.747,2374.2Z" transform="translate(-1647.559 -2080.874)" fill="#020d24"/>
      <path id="Trazado_1221053" data-name="Trazado 1221053" d="M1662.309,2474.746a3.852,3.852,0,0,1-.531-2.875,3.184,3.184,0,0,1,1.479-1.946,3.726,3.726,0,0,1,2.639-.265,3.188,3.188,0,0,1,1.774,1.773,4,4,0,0,1-.15,3.021c-.78.7-1.652,1.537-2.789,1.431A3.974,3.974,0,0,1,1662.309,2474.746Z" transform="translate(-1481.482 -2162.142)" fill="#e68b57"/>
      <path id="Trazado_1221054" data-name="Trazado 1221054" d="M1873.78,2130.28l.15.054c1.888.609,4.3.086,6.3.366a35.183,35.183,0,0,1,16.247,6.483,17.638,17.638,0,0,1,5.232,5.745,16.025,16.025,0,0,1,.993,2.486c-1.195-1.367-2.042-2.935-3.365-4.249-5.277-5.237-13.487-8.328-20.822-8.819l-3.009,0Z" transform="translate(-1662.189 -1873.083)" fill="#14314c"/>
      <path id="Trazado_1221055" data-name="Trazado 1221055" d="M927.419,2162.063a23.5,23.5,0,0,0-9.306-2.276c-5.072-.179-11.084.773-15.246,3.919a34.406,34.406,0,0,0-2.643,2.458,13.042,13.042,0,0,1,6.275-6.2,22.7,22.7,0,0,1,17.086-1.611c1.426.386,2.759.984,4.161,1.422a2.769,2.769,0,0,1,1.076.571Z" transform="translate(-832.756 -1896.194)" fill="#14314c"/>
      <path id="Trazado_1221056" data-name="Trazado 1221056" d="M1110.68,1808.634c4.742-.843,10.283,1.847,14.659,3.47a14.21,14.21,0,0,0,3.1,1.1l-4.042-10.848,17.869,8.229c7.742,3.918,22.6,11.219,25.434,20l.055.174c5.294-11.467,19.616-17.331,30.4-22.4l13.45-6.369a9.124,9.124,0,0,1-.767,2.512l-3.557,8.64a19.327,19.327,0,0,0,3.907-1.261l10.846-3.4,3.907-1.165a7.382,7.382,0,0,1,2.36-.483l-.127.279L1174.113,1834c-2.639-.957-9.6-.841-12.294-.032-1.4-.121-3.472-1.474-4.725-2.125l-7.275-3.717-17.52-8.745C1125.121,1815.808,1117.667,1812.563,1110.68,1808.634Z" transform="translate(-1012.058 -1593.366)" fill="#fee5af"/>
      <path id="Trazado_1221057" data-name="Trazado 1221057" d="M1083.24,1882.492a3.483,3.483,0,0,0-.147-.987l-.816-4.656-3.155-19.034-2.572-15.08,1.473.614c6.988,3.93,14.441,7.174,21.618,10.744l17.52,8.745,7.275,3.718c1.253.651,3.328,2,4.725,2.125.553,1.384.2,3.75.194,5.275l.019,10.232.044,39.8-.031,11.876c-.006,2.066.091,4.193-.055,6.251l-36.349-19.867-3.293-13.815a9.814,9.814,0,0,0-1.912.958c-1.858,1.038-3.833,2.532-5.937,3a4.633,4.633,0,0,1-3.747-.7c-3.307-2.225-4.906-7.6-5.514-11.329a9.158,9.158,0,0,1,0-4.034,10.773,10.773,0,0,1,1.483-2.372l1.4-1.711a12.585,12.585,0,0,0,1.774-2.141Z" transform="translate(-979.401 -1628.081)" fill="#0f1b30"/>
      <path id="Trazado_1221058" data-name="Trazado 1221058" d="M1083.239,2101.62l.652,4.624,8.357-4.741c1.141-.6,3.044-1.766,4.359-1.569a1.291,1.291,0,0,1,.974.717,1.122,1.122,0,0,1-.006.922c-.576,1.682-3.933,3.689-5.335,4.79-2.931,2.3-6.272,4.545-8.725,7.36,2.029-.634,4-1.408,5.969-2.216,1.864-.766,10.091-4.8,11.708-4.2a2.526,2.526,0,0,1,.777.6,1.582,1.582,0,0,1-.151,1.568,5.77,5.77,0,0,1-2.111,1.6c-1.82,1-4.065,1.774-5.714,2.987-.322.93-2.28,1.305-3.052,2.023a1.418,1.418,0,0,0,.958.241l.175-.174.481.042.219-.218.35,0,.175-.173.35,0,.175-.174.35,0,.175-.173.35,0,.161-.136.177.306c1.826-.51,3.985-1.631,5.875-1.481.426.358.63.444.644,1.047a2.211,2.211,0,0,1-.948,1.564,15.353,15.353,0,0,1-3.742,1.876l-6.408,3.1a12.22,12.22,0,0,0-2.663,1.589l8.041-1.916a7.493,7.493,0,0,1,3.325-.423c.214.274.446.395.386.762a2.238,2.238,0,0,1-1.192,1.474l-8.666,4.341a9.813,9.813,0,0,0-1.912.958c-1.858,1.038-3.834,2.532-5.937,3a4.633,4.633,0,0,1-3.747-.7c-3.307-2.225-4.906-7.6-5.514-11.329a9.163,9.163,0,0,1,0-4.034,10.779,10.779,0,0,1,1.483-2.372l1.4-1.711a12.572,12.572,0,0,0,1.774-2.141Z" transform="translate(-979.4 -1847.208)" fill="#fecb90"/>
      <path id="Trazado_1221059" data-name="Trazado 1221059" d="M1179.454,2195.56c-.322.93-2.28,1.3-3.052,2.022a1.42,1.42,0,0,0,.958.241l.175-.174.481.042.219-.218h.35l.175-.174h.35l.175-.174.35,0,.175-.174.35,0,.16-.136.177.307a15.048,15.048,0,0,1-2.671.882l-5.168,1.324A38.325,38.325,0,0,1,1179.454,2195.56Z" transform="translate(-1064.861 -1928.706)" fill="#000003"/>
      <path id="Trazado_1221060" data-name="Trazado 1221060" d="M1522.478,1836.6l.315.218-7.886,40.45a16.982,16.982,0,0,1,3.041,2.781l1.732,2.07c2.19,2.8,7.473,9.8,7.089,13.317a15.27,15.27,0,0,1-5.175,9.064,8.654,8.654,0,0,1-6.473,1.455,14.933,14.933,0,0,1-6.185-2.362l-2.779,12.655-37.866,20.89-.761.57a16.309,16.309,0,0,1-3.109.217l-6.713-.106-1.416-.937c.146-2.059.049-4.185.055-6.251l.031-11.876-.045-39.8-.019-10.232c0-1.524.359-3.891-.194-5.275,2.692-.81,9.655-.925,12.294.031Z" transform="translate(-1306.359 -1622.854)" fill="#0f1b30"/>
      <path id="Trazado_1221061" data-name="Trazado 1221061" d="M1742.641,2126.142c-.3-.542-1.629-.932-2.213-1.2l-4.538-2.19a9.8,9.8,0,0,1-2.836-1.738,1.527,1.527,0,0,1-.477-1.316l.325-.328c1.708-.661,4.884.9,6.626,1.3,1.1.252,2.247.371,3.371.512-2.416-2.006-5.7-3.034-8.562-4.254a14.592,14.592,0,0,1-2.8-1.315,1.914,1.914,0,0,1-.911-1.352,1.632,1.632,0,0,1,.478-1.275,2.606,2.606,0,0,1,.568-.26c1.111-.209,8.173,2.15,9.67,2.519a27.881,27.881,0,0,0,3.459.567c-2.891-2.32-6.869-3.606-10.24-5.158-1.379-.635-3.118-1.167-4.06-2.4a2.243,2.243,0,0,1,.076-1.381c.379-.388.752-.846,1.358-.842a13.783,13.783,0,0,1,3.426.927l7.778,2.546c.682.219,1.779.792,2.449.573a1.957,1.957,0,0,0,.417-1.348l-11.746-7.752a2.89,2.89,0,0,1-1.519-1.985,1.825,1.825,0,0,1,.771-1.132c1.354-.313,2.868.492,4.116.983l10.332,4.668.65-3.7a17,17,0,0,1,3.041,2.781l1.731,2.07c2.19,2.8,7.473,9.8,7.089,13.316a15.27,15.27,0,0,1-5.175,9.064,8.654,8.654,0,0,1-6.474,1.455A14.942,14.942,0,0,1,1742.641,2126.142Z" transform="translate(-1540.063 -1845.402)" fill="#fecb90"/>
      <path id="Trazado_1221062" data-name="Trazado 1221062" d="M1456.12,2014.364c2.692-.809,9.655-.925,12.294.032-.363,3.9-.166,7.943-.165,11.857l.084,23.49-.036,25.712-.056,8.246a35.238,35.238,0,0,0,.049,4.349l-.761.57a16.242,16.242,0,0,1-3.109.217l-6.713-.106-1.416-.937c.146-2.059.049-4.185.055-6.251l.031-11.876-.045-39.8-.019-10.232C1456.317,2018.114,1456.673,2015.749,1456.12,2014.364Z" transform="translate(-1306.359 -1773.766)" fill="#14314c"/>
      <path id="Trazado_1221063" data-name="Trazado 1221063" d="M1476.171,2272.089a4.342,4.342,0,0,1,1.533.23,3.838,3.838,0,0,1,2.277,2.379,4.708,4.708,0,0,1-.019,3.112l-.107.218-.252.5a4.289,4.289,0,0,1-3,1.783,4.526,4.526,0,0,1-2.018-.429,3.669,3.669,0,0,1-1.964-2.307,4.79,4.79,0,0,1,.355-3.453C1473.7,2272.82,1474.822,2272.452,1476.171,2272.089Z" transform="translate(-1320.271 -1993.911)" fill="#020d24"/>
      <path id="Trazado_1221064" data-name="Trazado 1221064" d="M1476.667,2196.32l.939.117a3.782,3.782,0,0,1,2.551,1.545,3.9,3.9,0,0,1,.655,2.926l-.043.195a4.411,4.411,0,0,1-.562,1.491,4.575,4.575,0,0,1-3.121,1.894,4.845,4.845,0,0,1-2.418-.668,3.733,3.733,0,0,1-1.688-2.453,4.557,4.557,0,0,1,.733-3.443A4.133,4.133,0,0,1,1476.667,2196.32Z" transform="translate(-1320.649 -1929.354)" fill="#020d24"/>
      <path id="Trazado_1221065" data-name="Trazado 1221065" d="M851.918,835.781a5.988,5.988,0,0,0,1.554-2.666c1.4-3.718,1.48-7.494,2.05-11.367.388-2.635.856-5.3,1.493-7.887,1.993-8.1,5.984-16.332,12.271-21.942a34.009,34.009,0,0,1,24.044-8.081,22.756,22.756,0,0,1,16.125,7.873l.966-.129c4.681-.467,9.672.373,13.385,3.415,6.015,4.927,7.045,12.635,6.122,19.9-.3,2.4-1.025,4.821-.748,7.252a5.272,5.272,0,0,0,1.744,3.821c1.7,1.249,4.58.966,6.532.6,1.677,8.428,3.9,18.9,11.539,24.02,3.194,2.143,6.777,3.4,10.135,5.207,4.667,2.511,8.333,6.411,9.4,11.717a21.123,21.123,0,0,1,.094,6.964c-.79,5.9-3.284,11.565-.7,17.415a8.266,8.266,0,0,0,2.849,3.566l.284.176c2.326,2.547,7.827,3.049,11.078,3.174a9.175,9.175,0,0,0,1.913-.154,9.8,9.8,0,0,1,3.224.316l.267.088a7.9,7.9,0,0,1,4.3,4.316c1.478,3.272.715,7.211-.56,10.408a29.644,29.644,0,0,1-3.529,6.427c-2.3,3.179-5.757,5.692-6.1,9.911a4.979,4.979,0,0,0,.266,2.432l1.568,2.765c.906-4.965,1.91-9.916,6.393-12.925a13.254,13.254,0,0,1,5.829-2.087c4.01-.4,8.68,1.231,11.932-2.072a5.957,5.957,0,0,0,1.587-2.988,7.829,7.829,0,0,0-1.376-5.762,10.75,10.75,0,0,0-1.7-1.606l7.069-1.293c-1.529,2.551-1.218,5.61-.539,8.393a32.256,32.256,0,0,0,2.782,7.074,10.889,10.889,0,0,0,2.168,3.17L1011.8,934.2a47.261,47.261,0,0,0-3.177,4.826c-.3.485-.725,1.531-1.214,1.755a1.228,1.228,0,0,0,.32.947l-.147.432c1.216-.242,2.4-.885,3.636-1.167a22.309,22.309,0,0,1,9.573-.188,6.618,6.618,0,0,1,2.28.829l.542.485c-3.107,1.494-6.706,2.145-9.455,4.3a.724.724,0,0,0-.472-.122,21.674,21.674,0,0,1-7.539-2.149l-.621-.267-5.735,7.978a11.416,11.416,0,0,1-1.379,2.173l-3.5,5.51.022.55-3.371,2.109c-2.209,1.474-4.453,3.157-5.731,5.555a13.824,13.824,0,0,0-1.138,3.549,31.949,31.949,0,0,0-.5,6.173c-.014.717.219,2.756-.1,3.3a8.2,8.2,0,0,1-.294-2.307l-.411-5.218a10.074,10.074,0,0,0-.155-2.489c-2.294,1.373-5.215,3.831-5.923,6.531a13.184,13.184,0,0,0-.347,3.892,27.32,27.32,0,0,1-1.47-4.37l-2.95-8.485-7.346-20.458-6.152-17.548-4.626-12.068c-3.874-8.814-11.438-12.857-19.979-16.162l-.856,2.031a41.36,41.36,0,0,1-4.116,6.836c-4.971,6.971-11.805,12.881-19.9,15.877-9.208,3.408-19.984,3.433-28.989-.754-10.68-4.965-18.509-12.845-22.554-23.975a31.664,31.664,0,0,0-7.279,3.109c-5.832,3.509-10.293,9.224-13.465,15.172-2.6,4.868-4.52,10.251-6.67,15.34L819.08,963.646l-3.926,9.942c-.659,1.715-1.261,4.152-2.241,5.665a38.694,38.694,0,0,0-10.27-16.48l.991,11.8c-.773-1.671-1.236-3.51-1.872-5.241a40.864,40.864,0,0,0-8.841-14.735,9.636,9.636,0,0,0-1.817-3.406l.275-.26a11.894,11.894,0,0,0,2.543-3.369,10.521,10.521,0,0,0,1.771-5.347c-.106-3.041-2.347-5.991-3.088-8.957l-.052-.218a15.544,15.544,0,0,0-.331-2.332,23.609,23.609,0,0,1-.062-5.64,13.031,13.031,0,0,1,2.34-6.519c.826-1.118,1.9-2.089,2.832-3.124.957-.464,1.8-1.185,2.779-1.655a37.749,37.749,0,0,1,10.025-2.726l1.279-.19a7.057,7.057,0,0,0,3.835-3.011,4.581,4.581,0,0,0,.306-2.491c-.273-3.5-2.336-5.745-3.624-8.818-.635-1.516-.9-3.1-1.41-4.647a12.023,12.023,0,0,1-.017-3.375,5.873,5.873,0,0,0-.019-1.629l.778-2.815a2.506,2.506,0,0,0,.482-.815c3.061-5.818,9.715-8.957,15.749-10.667,3.224-.913,6.453-1.511,9.5-2.967a30.35,30.35,0,0,1-3.844-10.766,15.069,15.069,0,0,1,1.165-8.447,14.64,14.64,0,0,1,4.543-5.563c2.241-1.665,4.925-2.719,7.342-4.113A18.767,18.767,0,0,0,851.918,835.781Z" transform="translate(-739.792 -725.791)" fill="#020d24"/>
      <path id="Trazado_1221066" data-name="Trazado 1221066" d="M856.853,1657.11l.189,0,.019.1c-2.07,1.578-5.278,2.4-7.678,3.33a38.418,38.418,0,0,0-5.056,2.429l-.281-.034-.142-.218a5.559,5.559,0,0,1,.483-1.428C845.749,1658.977,854.154,1657.691,856.853,1657.11Z" transform="translate(-784.776 -1469.919)" fill="#e68b57"/>
      <path id="Trazado_1221067" data-name="Trazado 1221067" d="M932.174,1510.36a15.612,15.612,0,0,0,2.43.127c.522,2.958,1.625,5.773,2.195,8.717a24.8,24.8,0,0,1,.286,3.593,24.552,24.552,0,0,0-1.6-4.3,50.229,50.229,0,0,1-2.582-5A18.429,18.429,0,0,1,932.174,1510.36Z" transform="translate(-859.977 -1344.881)" fill="#e68b57"/>
      <path id="Trazado_1221068" data-name="Trazado 1221068" d="M2088.67,1580.01a12.657,12.657,0,0,1,3.612,1.344,5.766,5.766,0,0,1,2.451,3.56,11.392,11.392,0,0,1-2.011,8.246l-1.41,1.474a29.362,29.362,0,0,0,1.057-5.824C2092.494,1584.916,2091.238,1582.791,2088.67,1580.01Z" transform="translate(-1845.267 -1404.227)" fill="#fecb90"/>
      <path id="Trazado_1221069" data-name="Trazado 1221069" d="M839.505,1777.469a5.985,5.985,0,0,1,1.916.189,3.243,3.243,0,0,1,2.008,4.27,3.664,3.664,0,0,1-2.2,2l-.2,0a5.428,5.428,0,0,1-1.731-.056,3.05,3.05,0,0,1-1.791-1.531,3.707,3.707,0,0,1-.2-2.914A3.54,3.54,0,0,1,839.505,1777.469Z" transform="translate(-778.977 -1572.463)" fill="#d57a4a"/>
      <path id="Trazado_1221070" data-name="Trazado 1221070" d="M2110.932,1926.957l-3.015-4.572a37.41,37.41,0,0,1-2.945-6.344l4.432,1.925.7.39a8.611,8.611,0,0,1,3.56,5.252,3.191,3.191,0,0,0,.206.853l.412-.164.022.55Z" transform="translate(-1859.156 -1690.543)" fill="#14314c"/>
      <path id="Trazado_1221071" data-name="Trazado 1221071" d="M931.459,1395.515a18.691,18.691,0,0,1,.019-4.337,12.2,12.2,0,0,1,2.848-5c3.507-3.891,8.726-6.215,13.678-7.587,3.251-.9,6.268-1.522,9.317-3.017l.208.164c-.361.768-2.307,1.436-3.1,1.72-6.636,2.391-16.182,4.073-19.666,11.082a12.91,12.91,0,0,0-.878,7.1A15.687,15.687,0,0,1,931.459,1395.515Z" transform="translate(-859.263 -1230.036)" fill="#4f6d81"/>
      <path id="Trazado_1221072" data-name="Trazado 1221072" d="M1979.992,1661.132h.139a6.434,6.434,0,0,1,1.815.026,3.778,3.778,0,0,1,2.242,1.973,3.894,3.894,0,0,1,.269,3.186,4.38,4.38,0,0,1-2.5,2.365,4.487,4.487,0,0,1-1.957.022,3.5,3.5,0,0,1-2.2-1.768,4.6,4.6,0,0,1-.227-3.55A3.847,3.847,0,0,1,1979.992,1661.132Z" transform="translate(-1750.402 -1473.3)" fill="#fecb90"/>
      <path id="Trazado_1221073" data-name="Trazado 1221073" d="M2047.987,1965.911a5.492,5.492,0,0,1,2.042.14,3.988,3.988,0,0,1,2.107,2.029,4.67,4.67,0,0,1-.041,3.523,4.05,4.05,0,0,1-2.627,2.179,3.93,3.93,0,0,1-2.049-.14,3.821,3.821,0,0,1-2.173-2.185,4.137,4.137,0,0,1-.046-3.04A4.847,4.847,0,0,1,2047.987,1965.911Z" transform="translate(-1808.006 -1733.009)" fill="#fee5af"/>
      <path id="Trazado_1221074" data-name="Trazado 1221074" d="M1025.6,1543.649a7.4,7.4,0,0,1,2.037.046,4.08,4.08,0,0,1,2.6,2.158,3.963,3.963,0,0,1,.292,3.066,5.138,5.138,0,0,1-3.044,2.906,5.715,5.715,0,0,1-2.2-.075,4.126,4.126,0,0,1-2.494-2.233,4.493,4.493,0,0,1-.01-3.368A4.619,4.619,0,0,1,1025.6,1543.649Z" transform="translate(-936.888 -1373.203)" fill="#e68b57"/>
      <path id="Trazado_1221075" data-name="Trazado 1221075" d="M2113.356,1762.42a5.033,5.033,0,0,1,1.874.328,2.453,2.453,0,0,1,1.323,1.38,2.709,2.709,0,0,1-.161,2.083c-1.308,2.8-5.239,3.678-7.889,4.635a5.144,5.144,0,0,0-1.952,1.351l-.2.207c-.28-2.155.862-5.22,2.059-6.983A6.909,6.909,0,0,1,2113.356,1762.42Z" transform="translate(-1860.294 -1559.65)" fill="#fecb90"/>
      <path id="Trazado_1221076" data-name="Trazado 1221076" d="M1216.946,1382.564a6.232,6.232,0,0,1,2.054.089,4.712,4.712,0,0,1,2.8,2.556,4.307,4.307,0,0,1-.017,3.339,4.572,4.572,0,0,1-2.938,2.631,5.082,5.082,0,0,1-2.644-.226,3.97,3.97,0,0,1-2.322-2.116,4.5,4.5,0,0,1,3.073-6.273Z" transform="translate(-1099.642 -1235.957)" fill="#0f1b30"/>
      <path id="Trazado_1221077" data-name="Trazado 1221077" d="M2155.838,1848.121c-.774-1.079-1.777-1.994-2.569-3.067-2.587-3.5-3.47-7.671-3.622-11.949a8.951,8.951,0,0,1,2.34,1.138,10.151,10.151,0,0,1,4.675,6.913l.556,4.792A11.489,11.489,0,0,1,2155.838,1848.121Z" transform="translate(-1897.218 -1619.876)" fill="#14314c"/>
      <path id="Trazado_1221078" data-name="Trazado 1221078" d="M1789.792,1367.35a5.974,5.974,0,0,1,2.348.463,4.44,4.44,0,0,1,2.352,2.612,4.847,4.847,0,0,1-.294,3.525,4.768,4.768,0,0,1-3.145,2.268,5.339,5.339,0,0,1-2.671-.34,4.043,4.043,0,0,1-2.146-2.492,4.826,4.826,0,0,1,.406-3.893A4.683,4.683,0,0,1,1789.792,1367.35Z" transform="translate(-1587.404 -1223.03)" fill="#fee5af"/>
      <path id="Trazado_1221079" data-name="Trazado 1221079" d="M1687.088,1164.588c.216-.95.331-2.284,1.161-2.9a2.877,2.877,0,0,1,2.178-.215,2.494,2.494,0,0,1,1.447,1.391c1,2.057.635,5.331-.19,7.389a8.09,8.09,0,0,1-4.688,4.359l-1.225.4-.8.239.836-3.825Z" transform="translate(-1501.335 -1047.516)" fill="#fecb90"/>
      <path id="Trazado_1221080" data-name="Trazado 1221080" d="M1691.9,1183.18a5.082,5.082,0,0,1,2.453,2.222,3.161,3.161,0,0,1-.141,2.228,4.211,4.211,0,0,1-2.453,2.128l-1.135.263Z" transform="translate(-1506.147 -1066.107)" fill="#e68b57"/>
      <path id="Trazado_1221081" data-name="Trazado 1221081" d="M1269.241,1169.5l1.272,3.559a14,14,0,0,1-3.618-1.333,10.535,10.535,0,0,1-4.666-6.532,6.784,6.784,0,0,1,.563-4.855,3.455,3.455,0,0,1,2.236-1.526,2.428,2.428,0,0,1,1.961.349,3.131,3.131,0,0,1,.864,2.3l.032.316A52.872,52.872,0,0,0,1269.241,1169.5Z" transform="translate(-1140.997 -1045.295)" fill="#fecb90"/>
      <path id="Trazado_1221082" data-name="Trazado 1221082" d="M1290.279,1179.18a52.9,52.9,0,0,0,1.356,7.727,6.078,6.078,0,0,1-1.939-1.466,4.119,4.119,0,0,1-1.38-3.268C1288.375,1180.969,1289.449,1179.926,1290.279,1179.18Z" transform="translate(-1163.391 -1062.7)" fill="#e68b57"/>
      <path id="Trazado_1221083" data-name="Trazado 1221083" d="M1097.27,1182.81l.212.032c-3.565,3.492-7.891,7.217-8.821,12.375a23.292,23.292,0,0,0-.3,6.364c.122,1.329.426,2.626.58,3.947a3.4,3.4,0,0,1-.387,2.593,8.528,8.528,0,0,1-1-1.642c-1.852-3.894-3.326-8.721-2.2-13.034a11.617,11.617,0,0,1,4.546-6.642c2.253-1.571,4.867-2.487,7.208-3.895Z" transform="translate(-990.147 -1065.792)" fill="#4f6d81"/>
      <path id="Trazado_1221084" data-name="Trazado 1221084" d="M1810.25,1199.25a26.844,26.844,0,0,0,2.6,3.733c3.036,3.415,6.989,5.361,11.076,7.232a24.055,24.055,0,0,1,6.751,4.169,15.06,15.06,0,0,1,3.409,4.451c2.1,4.421,1.056,9.4.135,13.987a26.958,26.958,0,0,0-.794,8.61,18.78,18.78,0,0,0,1.55,4.713c-3.858-4.11-3.525-9.061-2.224-14.156.766-3,1.684-6.39.765-9.464-1.509-5.051-5.733-8.121-10.262-10.33-1.448-.707-2.963-1.239-4.388-2C1814.274,1207.723,1811.739,1204.193,1810.25,1199.25Z" transform="translate(-1608.064 -1079.801)" fill="#4f6d81"/>
      <path id="Trazado_1221085" data-name="Trazado 1221085" d="M2204.706,1761.272l-1.747-1.915c-3.514-4.433-4.768-10.739-4.153-16.268a11.817,11.817,0,0,1,3.083,2.2c3.92,3.815,4.632,7.583,4.7,12.886a1.231,1.231,0,0,0,.32.947l-.148.432c1.217-.242,2.4-.885,3.637-1.167a22.309,22.309,0,0,1,9.573-.188,6.624,6.624,0,0,1,2.28.829l.541.485c-3.107,1.493-6.705,2.144-9.456,4.3a.724.724,0,0,0-.471-.121,21.682,21.682,0,0,1-7.54-2.149Z" transform="translate(-1938.971 -1543.177)" fill="url(#linear-gradient)"/>
      <path id="Trazado_1221086" data-name="Trazado 1221086" d="M1352.1,1058.694c-4.18-3.329-8.719-6.87-10.668-12.062a29.191,29.191,0,0,1-1.223-5.871l-.944-6.329a36.012,36.012,0,0,1-.028-8.332,38.918,38.918,0,0,0,10.3-1.936c6.468-2.02,12.016-4.893,16.724-9.856a25.089,25.089,0,0,0,5.7-9.62,23.047,23.047,0,0,1,1.165-3.487,44.707,44.707,0,0,0,2.014,7.161,29.093,29.093,0,0,0,8.451,11.214,33.672,33.672,0,0,0,3.1,2.148,6.506,6.506,0,0,1,1.074.7,12.451,12.451,0,0,1,.132,2.991,72.2,72.2,0,0,1-1.142,11.764c-.8,4.613-1.917,9.307-4.433,13.313a23.978,23.978,0,0,1-9.829,8.646,43.736,43.736,0,0,1-6.457,2.681C1361.6,1063.067,1355.926,1060.855,1352.1,1058.694Z" transform="translate(-1206.583 -911.049)" fill="#fecb90"/>
      <path id="Trazado_1221087" data-name="Trazado 1221087" d="M1619.486,1203.757l-.168-.21a3.475,3.475,0,0,1-.925-2.341l.239.017.845.946.643-.435.131.172a1.726,1.726,0,0,0-.3.879,5.15,5.15,0,0,1-.08,1.755l-.436-.361Z" transform="translate(-1444.61 -1081.467)" fill="#000003"/>
      <path id="Trazado_1221088" data-name="Trazado 1221088" d="M1484.662,1263.623l.128-.214a11.4,11.4,0,0,0,.9-1.935,1.2,1.2,0,0,1,.309-.538c.306.291.388.351.378.81a6.183,6.183,0,0,1-1.21,2.511,2.442,2.442,0,0,0-.521,1.477c.676.468,1.5.541,2.206.954l-.042.25c-.808.072-2.066.177-2.739-.421a1.325,1.325,0,0,1-.505-1A7.881,7.881,0,0,1,1484.662,1263.623Z" transform="translate(-1329.74 -1132.359)" fill="#e68b57"/>
      <path id="Trazado_1221089" data-name="Trazado 1221089" d="M1475.54,1334.517a4.913,4.913,0,0,1,2.058.632c1.193-.526,2.087-.919,3.355-.393a7.646,7.646,0,0,0,1.1.5,11.261,11.261,0,0,0,2.948-.688l.2.305-.112.169a2.788,2.788,0,0,1-1.789.795c-1.983.351-5.719.674-7.431-.62C1475.515,1334.942,1475.6,1334.925,1475.54,1334.517Z" transform="translate(-1322.904 -1195.043)" fill="#000003"/>
      <path id="Trazado_1221090" data-name="Trazado 1221090" d="M1569.314,1125.013l1.372-.09c2.349.039,4.7,2.554,6.245,4.132l-5.344-1.4a15.7,15.7,0,0,0-4.4.087,12.685,12.685,0,0,1-2.577.538,1.939,1.939,0,0,1-.485-.234l.005-.394A11.5,11.5,0,0,1,1569.314,1125.013Z" transform="translate(-1398.372 -1016.469)" fill="#020d24"/>
      <path id="Trazado_1221091" data-name="Trazado 1221091" d="M1562.066,1215.894a9.8,9.8,0,0,1-1.608-.455,4.881,4.881,0,0,1-2.766-2.724,1.624,1.624,0,0,1,.038-1.37,14.369,14.369,0,0,0,.572-1.424c.679,1.289,1.377,2.68,2.871,3.155a5.1,5.1,0,0,0,3.717-.618,3.9,3.9,0,0,0,.765-1.985c.03-.383,0-.576.273-.872.448.284.391.377.525.9a3.912,3.912,0,0,0,1,.381l.208.027-.053.421.436.361a6.334,6.334,0,0,1-2.908,3.618A8.144,8.144,0,0,1,1562.066,1215.894Z" transform="translate(-1392.782 -1088.619)" fill="#020d24"/>
      <path id="Trazado_1221092" data-name="Trazado 1221092" d="M1370.914,1204.16l.218.072a1.818,1.818,0,0,0,.762.739,4.161,4.161,0,0,1,.776-.505,4.811,4.811,0,0,1,.5,1.536,3.912,3.912,0,0,0,1.59,2.1,2.99,2.99,0,0,0,2.464.458c1.635-.44,2.481-1.955,3.228-3.342l.629,1.208a2.436,2.436,0,0,1-.21,2.066,8.34,8.34,0,0,1-1.273,1.453,5.044,5.044,0,0,1-7.245-.74c-.528-.687-1.983-3-1.858-3.848l.963.46.176-.078A4.39,4.39,0,0,1,1370.914,1204.16Z" transform="translate(-1233.401 -1083.982)" fill="#020d24"/>
      <path id="Trazado_1221093" data-name="Trazado 1221093" d="M1270.414,1389.81c3.829,2.162,9.506,4.373,13.936,3.123a43.775,43.775,0,0,0,6.457-2.681,39.724,39.724,0,0,0,1.854,9.281,25.361,25.361,0,0,0,4.038,6.419c4.931,5.511,12.742,8.792,19.548,11.328l3.3,1.19-.856,2.031a41.349,41.349,0,0,1-4.116,6.837c-4.971,6.971-11.805,12.88-19.9,15.876-9.208,3.408-19.984,3.433-28.99-.754-10.68-4.966-18.509-12.845-22.554-23.975a55.776,55.776,0,0,0,5.3-1.816c5.5-2,11.368-4.456,15.9-8.25a16.61,16.61,0,0,0,6.223-10.906Z" transform="translate(-1124.899 -1242.167)" fill="#fecb90"/>
      <path id="Trazado_1221094" data-name="Trazado 1221094" d="M1427.44,1389.81c3.83,2.162,9.506,4.373,13.936,3.123a43.771,43.771,0,0,0,6.458-2.681,39.718,39.718,0,0,0,1.854,9.281,23.728,23.728,0,0,0-3.077,2.146,15.721,15.721,0,0,1-4.247,2.175c-4.714,1.535-8.815-.848-12.013-4.163a12.8,12.8,0,0,0-2.583-2.546l-.194.367Z" transform="translate(-1281.925 -1242.167)" fill="#e68b57"/>
    </g>
  </g>
</svg>
